%
M48
M72
T01C0.0200
T02C0.0240
T03C0.0276
T04C0.0315
T05C0.0320
T06C0.0394
T07C0.0400
T08C0.0433
T09C0.0440
T10C0.0500
T11C0.0512
T12C0.0787
T13C0.0866
%
T01
X14601Y8101
X15101Y7601
X15101Y13601
T02
X18101Y12101
X17601Y10601
X16351Y7351
X14851Y4751
X12601Y7101
X4101Y18601
X27601Y15601
X27601Y10101
X31101Y5101
X32101Y1601
X34101Y1601
T03
X12601Y16601
X11601Y16601
T04
X19101Y7601
X20101Y7601
X20101Y6601
X19101Y6601
X18101Y6601
X17101Y6601
X17101Y3601
X18101Y3601
X19101Y3601
X20101Y3601
X16601Y1951
X14901Y1951
X10782Y5101
X8813Y5101
X30601Y25117
X30601Y27085
T05
X26601Y23801
X26601Y22801
X26601Y20601
X26601Y19601
X22601Y19601
X22601Y20601
X21851Y21601
X21101Y22101
X21101Y21101
X21101Y15601
X21101Y12701
X21101Y11101
X25101Y11101
X25101Y12701
X25101Y15601
X28601Y15601
X32601Y15601
X34101Y15601
X34101Y16601
X34101Y14601
X33101Y20101
X33101Y21101
X16601Y12601
X15601Y12601
X14601Y12601
X13601Y12601
X12601Y12601
X11601Y12601
X10601Y12601
X9601Y12601
X8601Y12601
X7601Y12601
X6601Y12601
X5601Y12601
X4601Y12601
X3601Y12601
X1601Y13101
X1601Y14101
X1601Y18101
X1601Y20101
X2601Y20101
X5601Y23601
X5601Y24601
X10101Y21601
X10101Y20601
X14101Y20601
X14101Y21601
X13601Y9601
X14601Y9601
X15601Y9601
X16601Y9601
X15601Y6601
X14101Y6601
X12601Y9601
X11601Y9601
X10601Y9601
X9601Y9601
X8601Y9601
X7601Y9601
X6601Y9601
X5601Y9601
X4601Y9601
X3601Y9601
X3601Y8101
X2601Y8101
X1601Y8101
X1601Y9101
X1601Y4101
X2601Y4101
X3601Y4101
X14101Y2601
X15601Y2601
X17601Y2101
X21601Y2101
T06
X22115Y5101
X30087Y5101
T07
X1601Y1901
X2601Y1901
X3601Y1901
X4601Y1901
X5601Y1901
X6601Y1901
X7601Y1901
X7601Y16101
X6601Y16101
X5601Y16101
X4601Y16101
X3601Y16101
X1601Y22601
X1601Y23601
X1601Y24601
X7601Y27601
X33101Y11101
X34101Y11101
X34101Y10101
X34101Y9101
X33101Y9101
X33101Y10101
X33101Y8101
X34101Y8101
X34101Y7101
X33101Y7101
X33101Y6101
X34101Y6101
X34101Y5101
X34101Y4101
X33101Y4101
X33101Y5101
T08
X18601Y20703
X18601Y21601
X18601Y22498
X15601Y26101
X15601Y28101
T09
X30601Y23601
X30601Y19601
T10
X34601Y23921
X33851Y24611
X34601Y25261
X33851Y25931
X34601Y26601
T11
X27530Y27912
X24577Y27912
X21030Y27912
X18077Y27912
X13030Y27912
X10077Y27912
X5030Y27912
X2077Y27912
T12
X10632Y24101
T13
X8270Y24101
X14569Y24101
X16931Y24101
M30
