G75*
G70*
%OFA0B0*%
%FSLAX24Y24*%
%IPPOS*%
%LPD*%
%AMOC8*
5,1,8,0,0,1.08239X$1,22.5*
%
%ADD10C,0.0000*%
%ADD11C,0.0520*%
%ADD12OC8,0.0740*%
%ADD13C,0.0600*%
%ADD14OC8,0.0520*%
%ADD15C,0.0650*%
%ADD16R,0.0515X0.0515*%
%ADD17C,0.0515*%
%ADD18R,0.0594X0.0594*%
%ADD19OC8,0.0630*%
%ADD20R,0.0600X0.0600*%
%ADD21C,0.0600*%
%ADD22C,0.0660*%
%ADD23C,0.0860*%
%ADD24C,0.1500*%
%ADD25C,0.0650*%
%ADD26OC8,0.0768*%
%ADD27OC8,0.0600*%
%ADD28C,0.0750*%
%ADD29C,0.0320*%
%ADD30C,0.0360*%
%ADD31C,0.0300*%
%ADD32C,0.0160*%
%ADD33C,0.0100*%
%ADD34C,0.0320*%
%ADD35C,0.0120*%
%ADD36C,0.0150*%
%ADD37C,0.0540*%
%ADD38C,0.0560*%
D10*
X000101Y000101D02*
X000101Y029101D01*
X036101Y029101D01*
X036101Y000101D01*
X000101Y000101D01*
D11*
X003601Y009341D02*
X003601Y009861D01*
X004601Y009861D02*
X004601Y009341D01*
X005601Y009341D02*
X005601Y009861D01*
X006601Y009861D02*
X006601Y009341D01*
X007601Y009341D02*
X007601Y009861D01*
X008601Y009861D02*
X008601Y009341D01*
X009601Y009341D02*
X009601Y009861D01*
X010601Y009861D02*
X010601Y009341D01*
X011601Y009341D02*
X011601Y009861D01*
X012601Y009861D02*
X012601Y009341D01*
X013601Y009341D02*
X013601Y009861D01*
X014601Y009861D02*
X014601Y009341D01*
X015601Y009341D02*
X015601Y009861D01*
X016601Y009861D02*
X016601Y009341D01*
X016601Y012341D02*
X016601Y012861D01*
X015601Y012861D02*
X015601Y012341D01*
X014601Y012341D02*
X014601Y012861D01*
X013601Y012861D02*
X013601Y012341D01*
X012601Y012341D02*
X012601Y012861D01*
X011601Y012861D02*
X011601Y012341D01*
X010601Y012341D02*
X010601Y012861D01*
X009601Y012861D02*
X009601Y012341D01*
X008601Y012341D02*
X008601Y012861D01*
X007601Y012861D02*
X007601Y012341D01*
X006601Y012341D02*
X006601Y012861D01*
X005601Y012861D02*
X005601Y012341D01*
X004601Y012341D02*
X004601Y012861D01*
X003601Y012861D02*
X003601Y012341D01*
X033841Y014601D02*
X034361Y014601D01*
X034361Y015601D02*
X033841Y015601D01*
X033841Y016601D02*
X034361Y016601D01*
D12*
X034101Y011101D03*
X033101Y011101D03*
X033101Y010101D03*
X034101Y010101D03*
X034101Y009101D03*
X033101Y009101D03*
X033101Y008101D03*
X034101Y008101D03*
X034101Y007101D03*
X033101Y007101D03*
X033101Y006101D03*
X034101Y006101D03*
X034101Y005101D03*
X034101Y004101D03*
X033101Y004101D03*
X033101Y005101D03*
D13*
X007601Y002201D02*
X007601Y001601D01*
X006601Y001601D02*
X006601Y002201D01*
X005601Y002201D02*
X005601Y001601D01*
X004601Y001601D02*
X004601Y002201D01*
X003601Y002201D02*
X003601Y001601D01*
X002601Y001601D02*
X002601Y002201D01*
X001601Y002201D02*
X001601Y001601D01*
X001901Y022601D02*
X001301Y022601D01*
X001301Y023601D02*
X001901Y023601D01*
X001901Y024601D02*
X001301Y024601D01*
D14*
X001601Y020101D03*
X002601Y020101D03*
X001601Y018101D03*
X001601Y014101D03*
X001601Y013101D03*
X001601Y009101D03*
X001601Y008101D03*
X002601Y008101D03*
X003601Y008101D03*
X003601Y004101D03*
X002601Y004101D03*
X001601Y004101D03*
X014101Y002601D03*
X015601Y002601D03*
X017601Y002101D03*
X021601Y002101D03*
X015601Y006601D03*
X014101Y006601D03*
X021101Y011101D03*
X021101Y012701D03*
X021101Y015601D03*
X025101Y015601D03*
X028601Y015601D03*
X025101Y012701D03*
X025101Y011101D03*
X032601Y015601D03*
X026601Y019601D03*
X026601Y020601D03*
X022601Y020601D03*
X022601Y019601D03*
X021101Y021101D03*
X021851Y021601D03*
X021101Y022101D03*
X014101Y021601D03*
X014101Y020601D03*
X010101Y020601D03*
X010101Y021601D03*
D15*
X011601Y016601D03*
X012601Y016601D03*
D16*
X020101Y006601D03*
X016601Y001951D03*
X014901Y001951D03*
X010782Y005101D03*
X008813Y005101D03*
D17*
X017101Y006601D03*
X018101Y006601D03*
X019101Y006601D03*
X019101Y007601D03*
X020101Y007601D03*
X020101Y003601D03*
X019101Y003601D03*
X018101Y003601D03*
X017101Y003601D03*
X030601Y025117D03*
X030601Y027085D03*
D18*
X030087Y005101D03*
X022115Y005101D03*
D19*
X033101Y020101D03*
X033101Y021101D03*
X026601Y022801D03*
X026601Y023801D03*
X005601Y023601D03*
X005601Y024601D03*
D20*
X003601Y016101D03*
D21*
X004601Y016101D03*
X005601Y016101D03*
X006601Y016101D03*
X007601Y016101D03*
D22*
X030601Y019601D03*
X030601Y023601D03*
D23*
X015601Y026101D03*
X015601Y028101D03*
D24*
X014569Y024101D03*
X016931Y024101D03*
X010632Y024101D03*
X008270Y024101D03*
D25*
X018276Y022498D02*
X018926Y022498D01*
X018926Y021601D02*
X018276Y021601D01*
X018276Y020703D02*
X018926Y020703D01*
D26*
X018077Y027912D03*
X021030Y027912D03*
X024577Y027912D03*
X027530Y027912D03*
X013030Y027912D03*
X010077Y027912D03*
X005030Y027912D03*
X002077Y027912D03*
D27*
X007601Y027601D03*
D28*
X033101Y025931D02*
X033851Y025931D01*
X034601Y025261D02*
X035351Y025261D01*
X033851Y024611D02*
X033101Y024611D01*
X034601Y023921D02*
X035351Y023921D01*
X035351Y026601D02*
X034601Y026601D01*
D29*
X021101Y015601D02*
X020101Y014601D01*
X020101Y011601D01*
X020601Y011101D01*
X021101Y011101D01*
X021101Y002601D01*
X021601Y002101D01*
X022101Y001601D01*
X021601Y001101D01*
X014101Y001101D01*
X013101Y002101D01*
X013101Y005601D01*
X014101Y006601D01*
X014101Y007101D01*
X013101Y008101D01*
X003601Y008101D01*
X002601Y008101D01*
X001601Y008101D01*
X001601Y009101D01*
X010601Y009601D02*
X010601Y010101D01*
X012601Y012101D01*
X012601Y012601D01*
X011601Y012601D02*
X011601Y016601D01*
X011601Y017101D01*
X010101Y018601D01*
X004101Y018601D01*
X004101Y024101D01*
X003601Y024601D01*
X001601Y024601D01*
X014101Y006601D02*
X015601Y006601D01*
X022101Y001601D02*
X032101Y001601D01*
D30*
X032101Y001601D03*
X034101Y001601D03*
X031101Y005101D03*
X027601Y010101D03*
X027601Y015601D03*
X018101Y012101D03*
X017601Y010601D03*
X016351Y007351D03*
X014851Y004751D03*
X012601Y007101D03*
X004101Y018601D03*
D31*
X002601Y017101D01*
X002601Y015101D01*
X002601Y010601D01*
X001601Y009601D01*
X001601Y009101D01*
X001601Y014101D02*
X002601Y015101D01*
D32*
X009601Y019601D02*
X007101Y022101D01*
X007101Y026101D01*
X007601Y026601D01*
X007601Y027601D01*
X014101Y020601D02*
X017601Y017101D01*
X017601Y016101D01*
X014101Y016601D02*
X014101Y014601D01*
X014101Y016601D02*
X011101Y019601D01*
X009601Y019601D01*
X025101Y012701D02*
X025101Y011101D01*
X025601Y011101D01*
X031101Y005601D01*
X031101Y005101D01*
D33*
X031368Y004831D02*
X031551Y004831D01*
X031551Y004929D02*
X031441Y004929D01*
X031423Y004886D02*
X031481Y005025D01*
X031481Y005176D01*
X031423Y005316D01*
X031381Y005358D01*
X031381Y005656D01*
X031338Y005759D01*
X031259Y005838D01*
X025838Y011259D01*
X025759Y011338D01*
X025656Y011381D01*
X025471Y011381D01*
X025381Y011471D01*
X025381Y012330D01*
X025561Y012510D01*
X025561Y012891D01*
X025291Y013161D01*
X024910Y013161D01*
X024641Y012891D01*
X024641Y012510D01*
X024821Y012330D01*
X024821Y011471D01*
X024641Y011291D01*
X024641Y010910D01*
X024910Y010641D01*
X025291Y010641D01*
X025471Y010821D01*
X025485Y010821D01*
X030821Y005485D01*
X030821Y005358D01*
X030779Y005316D01*
X030721Y005176D01*
X030721Y005025D01*
X030779Y004886D01*
X030886Y004779D01*
X031025Y004721D01*
X031176Y004721D01*
X031316Y004779D01*
X031423Y004886D01*
X031481Y005028D02*
X031551Y005028D01*
X031551Y005126D02*
X031481Y005126D01*
X031461Y005225D02*
X031551Y005225D01*
X031551Y005324D02*
X031415Y005324D01*
X031381Y005422D02*
X031551Y005422D01*
X031551Y005521D02*
X031381Y005521D01*
X031381Y005619D02*
X031551Y005619D01*
X031551Y005718D02*
X031355Y005718D01*
X031281Y005816D02*
X031551Y005816D01*
X031551Y005915D02*
X031183Y005915D01*
X031084Y006013D02*
X031551Y006013D01*
X031551Y006112D02*
X030986Y006112D01*
X030887Y006210D02*
X031551Y006210D01*
X031551Y006309D02*
X030788Y006309D01*
X030690Y006408D02*
X031551Y006408D01*
X031551Y006506D02*
X030591Y006506D01*
X030493Y006605D02*
X031551Y006605D01*
X031551Y006703D02*
X030394Y006703D01*
X030296Y006802D02*
X031551Y006802D01*
X031551Y006900D02*
X030197Y006900D01*
X030099Y006999D02*
X031551Y006999D01*
X031551Y007097D02*
X030000Y007097D01*
X029902Y007196D02*
X031551Y007196D01*
X031551Y007294D02*
X029803Y007294D01*
X029704Y007393D02*
X031551Y007393D01*
X031551Y007492D02*
X029606Y007492D01*
X029507Y007590D02*
X031551Y007590D01*
X031551Y007689D02*
X029409Y007689D01*
X029310Y007787D02*
X031551Y007787D01*
X031551Y007886D02*
X029212Y007886D01*
X029113Y007984D02*
X031551Y007984D01*
X031551Y008083D02*
X029015Y008083D01*
X028916Y008181D02*
X031551Y008181D01*
X031551Y008280D02*
X028818Y008280D01*
X028719Y008378D02*
X031551Y008378D01*
X031551Y008477D02*
X028621Y008477D01*
X028522Y008576D02*
X031551Y008576D01*
X031551Y008674D02*
X028423Y008674D01*
X028325Y008773D02*
X031551Y008773D01*
X031551Y008871D02*
X028226Y008871D01*
X028128Y008970D02*
X031551Y008970D01*
X031551Y009068D02*
X028029Y009068D01*
X027931Y009167D02*
X031551Y009167D01*
X031551Y009265D02*
X027832Y009265D01*
X027734Y009364D02*
X031551Y009364D01*
X031551Y009462D02*
X027635Y009462D01*
X027537Y009561D02*
X031551Y009561D01*
X031551Y009659D02*
X027438Y009659D01*
X027435Y009758D02*
X027339Y009758D01*
X027386Y009779D02*
X027525Y009721D01*
X027676Y009721D01*
X027816Y009779D01*
X027923Y009886D01*
X027981Y010025D01*
X027981Y010176D01*
X027923Y010316D01*
X027851Y010388D01*
X027851Y015313D01*
X027923Y015386D01*
X027981Y015525D01*
X027981Y015676D01*
X027923Y015816D01*
X027816Y015923D01*
X027676Y015981D01*
X027525Y015981D01*
X027386Y015923D01*
X027279Y015816D01*
X027221Y015676D01*
X027221Y015525D01*
X027279Y015386D01*
X027351Y015313D01*
X027351Y010388D01*
X027279Y010316D01*
X027221Y010176D01*
X027221Y010025D01*
X027279Y009886D01*
X027386Y009779D01*
X027308Y009857D02*
X027241Y009857D01*
X027250Y009955D02*
X027142Y009955D01*
X027221Y010054D02*
X027044Y010054D01*
X026945Y010152D02*
X027221Y010152D01*
X027252Y010251D02*
X026847Y010251D01*
X026748Y010349D02*
X027312Y010349D01*
X027351Y010448D02*
X026650Y010448D01*
X026551Y010546D02*
X027351Y010546D01*
X027351Y010645D02*
X026453Y010645D01*
X026354Y010743D02*
X027351Y010743D01*
X027351Y010842D02*
X026255Y010842D01*
X026157Y010941D02*
X027351Y010941D01*
X027351Y011039D02*
X026058Y011039D01*
X025960Y011138D02*
X027351Y011138D01*
X027351Y011236D02*
X025861Y011236D01*
X025763Y011335D02*
X027351Y011335D01*
X027351Y011433D02*
X025419Y011433D01*
X025381Y011532D02*
X027351Y011532D01*
X027351Y011630D02*
X025381Y011630D01*
X025381Y011729D02*
X027351Y011729D01*
X027351Y011827D02*
X025381Y011827D01*
X025381Y011926D02*
X027351Y011926D01*
X027351Y012025D02*
X025381Y012025D01*
X025381Y012123D02*
X027351Y012123D01*
X027351Y012222D02*
X025381Y012222D01*
X025381Y012320D02*
X027351Y012320D01*
X027351Y012419D02*
X025469Y012419D01*
X025561Y012517D02*
X027351Y012517D01*
X027351Y012616D02*
X025561Y012616D01*
X025561Y012714D02*
X027351Y012714D01*
X027351Y012813D02*
X025561Y012813D01*
X025541Y012911D02*
X027351Y012911D01*
X027351Y013010D02*
X025442Y013010D01*
X025344Y013109D02*
X027351Y013109D01*
X027351Y013207D02*
X020611Y013207D01*
X020611Y013109D02*
X020929Y013109D01*
X020931Y013111D02*
X020691Y012871D01*
X020691Y012731D01*
X021071Y012731D01*
X021071Y013111D01*
X020931Y013111D01*
X021071Y013109D02*
X021131Y013109D01*
X021131Y013111D02*
X021271Y013111D01*
X021511Y012871D01*
X021511Y012731D01*
X021131Y012731D01*
X021131Y012671D01*
X021511Y012671D01*
X021511Y012531D01*
X021271Y012291D01*
X021131Y012291D01*
X021131Y012671D01*
X021071Y012671D01*
X021071Y012291D01*
X020931Y012291D01*
X020691Y012531D01*
X020691Y012671D01*
X021071Y012671D01*
X021071Y012731D01*
X021131Y012731D01*
X021131Y013111D01*
X021131Y013010D02*
X021071Y013010D01*
X021071Y012911D02*
X021131Y012911D01*
X021131Y012813D02*
X021071Y012813D01*
X021071Y012714D02*
X020611Y012714D01*
X020611Y012616D02*
X020691Y012616D01*
X020704Y012517D02*
X020611Y012517D01*
X020611Y012419D02*
X020803Y012419D01*
X020902Y012320D02*
X020611Y012320D01*
X020611Y012222D02*
X024821Y012222D01*
X024821Y012320D02*
X021300Y012320D01*
X021399Y012419D02*
X024732Y012419D01*
X024641Y012517D02*
X021497Y012517D01*
X021511Y012616D02*
X024641Y012616D01*
X024641Y012714D02*
X021131Y012714D01*
X021131Y012616D02*
X021071Y012616D01*
X021071Y012517D02*
X021131Y012517D01*
X021131Y012419D02*
X021071Y012419D01*
X021071Y012320D02*
X021131Y012320D01*
X020611Y012123D02*
X024821Y012123D01*
X024821Y012025D02*
X020611Y012025D01*
X020611Y011926D02*
X024821Y011926D01*
X024821Y011827D02*
X020611Y011827D01*
X020611Y011812D02*
X020611Y014390D01*
X027351Y014390D01*
X027351Y014488D02*
X020709Y014488D01*
X020611Y014390D02*
X021212Y014991D01*
X021353Y014991D01*
X021711Y015348D01*
X021711Y015853D01*
X021353Y016211D01*
X020848Y016211D01*
X020491Y015853D01*
X020491Y015712D01*
X019812Y015033D01*
X019668Y014890D01*
X019591Y014702D01*
X019591Y011702D01*
X019591Y011499D01*
X019668Y011312D01*
X020168Y010812D01*
X020312Y010668D01*
X020499Y010591D01*
X020591Y010591D01*
X020591Y007201D01*
X020330Y007201D01*
X020360Y007213D01*
X020489Y007342D01*
X020558Y007510D01*
X020558Y007692D01*
X020489Y007860D01*
X020360Y007989D01*
X020192Y008058D01*
X020010Y008058D01*
X019842Y007989D01*
X019713Y007860D01*
X019643Y007692D01*
X019643Y007510D01*
X019713Y007342D01*
X019842Y007213D01*
X019871Y007201D01*
X019330Y007201D01*
X019360Y007213D01*
X019489Y007342D01*
X019558Y007510D01*
X019558Y007692D01*
X019489Y007860D01*
X019360Y007989D01*
X019192Y008058D01*
X019010Y008058D01*
X018842Y007989D01*
X018713Y007860D01*
X018643Y007692D01*
X018643Y007510D01*
X018713Y007342D01*
X018842Y007213D01*
X018871Y007201D01*
X017642Y007201D01*
X017559Y007201D01*
X017501Y007142D01*
X017501Y006680D01*
X017498Y006696D01*
X017478Y006757D01*
X017449Y006814D01*
X017412Y006866D01*
X017366Y006912D01*
X017314Y006949D01*
X017257Y006978D01*
X017196Y006998D01*
X017133Y007008D01*
X017130Y007008D01*
X017130Y006630D01*
X017072Y006630D01*
X017072Y007008D01*
X017069Y007008D01*
X017005Y006998D01*
X016944Y006978D01*
X016887Y006949D01*
X016835Y006912D01*
X016790Y006866D01*
X016752Y006814D01*
X016723Y006757D01*
X016703Y006696D01*
X016693Y006633D01*
X016693Y006630D01*
X017072Y006630D01*
X017072Y006572D01*
X016693Y006572D01*
X016693Y006569D01*
X016703Y006505D01*
X016723Y006444D01*
X016752Y006387D01*
X016790Y006335D01*
X016835Y006290D01*
X016887Y006252D01*
X016944Y006223D01*
X017005Y006203D01*
X017022Y006201D01*
X016642Y006201D01*
X016559Y006201D01*
X016501Y006142D01*
X016501Y003059D01*
X016559Y003001D01*
X016642Y003001D01*
X019962Y003001D01*
X019980Y002993D01*
X020222Y002993D01*
X020240Y003001D01*
X020559Y003001D01*
X020591Y003001D01*
X020591Y002499D01*
X020668Y002312D01*
X020812Y002168D01*
X020991Y001990D01*
X020991Y001848D01*
X021228Y001611D01*
X017058Y001611D01*
X017058Y002291D01*
X016941Y002408D01*
X016260Y002408D01*
X016143Y002291D01*
X016143Y001611D01*
X015358Y001611D01*
X015358Y002193D01*
X015410Y002141D01*
X015791Y002141D01*
X016061Y002410D01*
X016061Y002791D01*
X015791Y003061D01*
X015410Y003061D01*
X015141Y002791D01*
X015141Y002410D01*
X015143Y002408D01*
X014560Y002408D01*
X014443Y002291D01*
X014443Y001611D01*
X014312Y001611D01*
X013611Y002312D01*
X013611Y005390D01*
X014212Y005991D01*
X014353Y005991D01*
X014453Y006091D01*
X015248Y006091D01*
X015348Y005991D01*
X015853Y005991D01*
X016211Y006348D01*
X016211Y006853D01*
X015853Y007211D01*
X015348Y007211D01*
X015248Y007111D01*
X014611Y007111D01*
X014611Y007202D01*
X014533Y007390D01*
X013533Y008390D01*
X013390Y008533D01*
X013202Y008611D01*
X003953Y008611D01*
X003853Y008711D01*
X003348Y008711D01*
X003248Y008611D01*
X002953Y008611D01*
X002853Y008711D01*
X002348Y008711D01*
X002248Y008611D01*
X002111Y008611D01*
X002111Y008748D01*
X002211Y008848D01*
X002211Y009353D01*
X002136Y009429D01*
X003025Y010318D01*
X003051Y010381D01*
X003051Y008892D01*
X003051Y008809D01*
X003109Y008751D01*
X003192Y008751D01*
X003242Y008751D01*
X013841Y008751D01*
X013841Y008549D01*
X013880Y008454D01*
X013954Y008380D01*
X014241Y008093D01*
X014241Y008029D01*
X014296Y007897D01*
X014397Y007796D01*
X014529Y007741D01*
X014672Y007741D01*
X014789Y007789D01*
X014741Y007672D01*
X014741Y007529D01*
X014796Y007397D01*
X014897Y007296D01*
X015029Y007241D01*
X015172Y007241D01*
X015305Y007296D01*
X015406Y007397D01*
X015461Y007529D01*
X015461Y007672D01*
X015406Y007805D01*
X015351Y007860D01*
X015351Y008751D01*
X017142Y008751D01*
X017201Y008809D01*
X017201Y008892D01*
X017201Y013342D01*
X017142Y013401D01*
X017059Y013401D01*
X015408Y013401D01*
X015461Y013529D01*
X015461Y013672D01*
X015406Y013805D01*
X015305Y013906D01*
X015172Y013961D01*
X015029Y013961D01*
X014897Y013906D01*
X014796Y013805D01*
X014741Y013672D01*
X014741Y013529D01*
X014794Y013401D01*
X014361Y013401D01*
X014361Y014497D01*
X014381Y014545D01*
X014381Y016545D01*
X014381Y016656D01*
X017321Y016656D01*
X017321Y016558D02*
X014381Y016558D01*
X014381Y016656D02*
X014338Y016759D01*
X011259Y019838D01*
X011156Y019881D01*
X011045Y019881D01*
X009717Y019881D01*
X007381Y022217D01*
X007381Y023441D01*
X007390Y023425D01*
X007551Y023264D01*
X007551Y023080D01*
X007580Y023051D01*
X007939Y023051D01*
X008125Y023001D01*
X008415Y023001D01*
X008601Y023051D01*
X010301Y023051D01*
X010487Y023001D01*
X010777Y023001D01*
X010964Y023051D01*
X011621Y023051D01*
X011651Y023080D01*
X011651Y023665D01*
X011657Y023676D01*
X011732Y023956D01*
X011732Y024246D01*
X011657Y024525D01*
X011651Y024537D01*
X011651Y025121D01*
X011621Y025151D01*
X010964Y025151D01*
X010777Y025201D01*
X010487Y025201D01*
X010301Y025151D01*
X008601Y025151D01*
X008415Y025201D01*
X008125Y025201D01*
X007939Y025151D01*
X007580Y025151D01*
X007551Y025121D01*
X007551Y024937D01*
X007390Y024776D01*
X007381Y024760D01*
X007381Y025985D01*
X007759Y026363D01*
X007838Y026442D01*
X007881Y026545D01*
X007881Y027174D01*
X008101Y027394D01*
X008101Y027808D01*
X007808Y028101D01*
X007394Y028101D01*
X007101Y027808D01*
X007101Y027394D01*
X007321Y027174D01*
X007321Y026717D01*
X006863Y026259D01*
X006821Y026156D01*
X006821Y026045D01*
X006821Y022045D01*
X006863Y021942D01*
X006942Y021863D01*
X009442Y019363D01*
X009545Y019321D01*
X009656Y019321D01*
X010985Y019321D01*
X013821Y016485D01*
X013821Y014545D01*
X013841Y014497D01*
X013841Y013401D01*
X013059Y013401D01*
X013001Y013342D01*
X013001Y013259D01*
X013001Y012956D01*
X013001Y012957D01*
X012981Y013018D01*
X012951Y013076D01*
X012914Y013128D01*
X012868Y013174D01*
X012816Y013211D01*
X012758Y013241D01*
X012697Y013261D01*
X012633Y013271D01*
X012631Y013271D01*
X012631Y012631D01*
X012571Y012631D01*
X012571Y013271D01*
X012568Y013271D01*
X012505Y013261D01*
X012443Y013241D01*
X012386Y013211D01*
X012334Y013174D01*
X012288Y013128D01*
X012250Y013076D01*
X012221Y013018D01*
X012210Y012984D01*
X012118Y013206D01*
X012111Y013213D01*
X012111Y016156D01*
X012173Y016218D01*
X012216Y016322D01*
X012238Y016291D01*
X012291Y016238D01*
X012352Y016195D01*
X012418Y016161D01*
X012490Y016137D01*
X012563Y016126D01*
X012582Y016126D01*
X012582Y016582D01*
X012620Y016582D01*
X012620Y016620D01*
X012582Y016620D01*
X012582Y017076D01*
X012563Y017076D01*
X012490Y017064D01*
X012418Y017041D01*
X012352Y017007D01*
X012291Y016963D01*
X012238Y016910D01*
X012216Y016879D01*
X012173Y016983D01*
X012111Y017045D01*
X012111Y017202D01*
X012033Y017390D01*
X011890Y017533D01*
X011890Y017533D01*
X010533Y018890D01*
X010390Y019033D01*
X010202Y019111D01*
X004611Y019111D01*
X004611Y024202D01*
X004533Y024390D01*
X004390Y024533D01*
X003890Y025033D01*
X003702Y025111D01*
X003499Y025111D01*
X002310Y025111D01*
X002269Y025152D01*
X002030Y025251D01*
X001171Y025251D01*
X000933Y025152D01*
X000750Y024969D01*
X000651Y024730D01*
X000651Y024471D01*
X000750Y024233D01*
X000933Y024050D01*
X001075Y023991D01*
X001065Y023986D01*
X001008Y023944D01*
X000958Y023894D01*
X000916Y023837D01*
X000884Y023774D01*
X000862Y023706D01*
X000853Y023651D01*
X001551Y023651D01*
X001551Y023551D01*
X000853Y023551D01*
X000862Y023495D01*
X000884Y023428D01*
X000916Y023365D01*
X000958Y023308D01*
X001008Y023258D01*
X001065Y023216D01*
X001075Y023211D01*
X000933Y023152D01*
X000750Y022969D01*
X000651Y022730D01*
X000651Y022471D01*
X000750Y022233D01*
X000933Y022050D01*
X001171Y021951D01*
X002030Y021951D01*
X002269Y022050D01*
X002452Y022233D01*
X002551Y022471D01*
X002551Y022730D01*
X002452Y022969D01*
X002269Y023152D01*
X002127Y023211D01*
X002137Y023216D01*
X002194Y023258D01*
X002244Y023308D01*
X002286Y023365D01*
X002318Y023428D01*
X002340Y023495D01*
X002348Y023551D01*
X001651Y023551D01*
X001651Y023651D01*
X002348Y023651D01*
X002340Y023706D01*
X002318Y023774D01*
X002286Y023837D01*
X002244Y023894D01*
X002194Y023944D01*
X002137Y023986D01*
X002127Y023991D01*
X002269Y024050D01*
X002310Y024091D01*
X003390Y024091D01*
X003591Y023890D01*
X003591Y018798D01*
X002177Y017384D01*
X002101Y017200D01*
X002101Y017001D01*
X002101Y015308D01*
X001504Y014711D01*
X001348Y014711D01*
X000991Y014353D01*
X000991Y013848D01*
X001344Y013495D01*
X001141Y013291D01*
X001141Y012910D01*
X001410Y012641D01*
X001791Y012641D01*
X002061Y012910D01*
X002061Y013291D01*
X001857Y013495D01*
X002101Y013738D01*
X002101Y010808D01*
X001318Y010025D01*
X001177Y009884D01*
X001101Y009700D01*
X001101Y009463D01*
X000991Y009353D01*
X000991Y008848D01*
X001091Y008748D01*
X001091Y008453D01*
X000991Y008353D01*
X000991Y007848D01*
X001348Y007491D01*
X001853Y007491D01*
X001953Y007591D01*
X002248Y007591D01*
X002348Y007491D01*
X002853Y007491D01*
X002953Y007591D01*
X003248Y007591D01*
X003348Y007491D01*
X003853Y007491D01*
X003953Y007591D01*
X012890Y007591D01*
X013559Y006921D01*
X013491Y006853D01*
X013491Y006712D01*
X012876Y006097D01*
X012876Y006838D01*
X012923Y006886D01*
X012981Y007025D01*
X012981Y007176D01*
X012923Y007316D01*
X012816Y007423D01*
X012676Y007481D01*
X012525Y007481D01*
X012386Y007423D01*
X012279Y007316D01*
X012221Y007176D01*
X012221Y007025D01*
X012279Y006886D01*
X012326Y006838D01*
X012326Y001655D01*
X012326Y001546D01*
X012368Y001445D01*
X013212Y000601D01*
X000601Y000601D01*
X000601Y028601D01*
X001728Y028601D01*
X001343Y028216D01*
X001343Y027608D01*
X001773Y027178D01*
X002381Y027178D01*
X002811Y027608D01*
X002811Y028216D01*
X002426Y028601D01*
X009728Y028601D01*
X009343Y028216D01*
X009343Y027608D01*
X009773Y027178D01*
X010381Y027178D01*
X010811Y027608D01*
X010811Y028216D01*
X010426Y028601D01*
X014998Y028601D01*
X014940Y028543D01*
X014821Y028256D01*
X014821Y027946D01*
X014940Y027659D01*
X015159Y027440D01*
X015446Y027321D01*
X015756Y027321D01*
X016043Y027440D01*
X016262Y027659D01*
X016381Y027946D01*
X016381Y028256D01*
X016262Y028543D01*
X016204Y028601D01*
X017728Y028601D01*
X017343Y028216D01*
X017343Y027608D01*
X017773Y027178D01*
X018133Y027178D01*
X019971Y025340D01*
X019971Y023291D01*
X019574Y022696D01*
X019498Y022881D01*
X019308Y023070D01*
X019060Y023173D01*
X018142Y023173D01*
X017894Y023070D01*
X017704Y022881D01*
X017601Y022633D01*
X017601Y022364D01*
X017704Y022116D01*
X017771Y022050D01*
X017704Y021983D01*
X017601Y021735D01*
X017601Y021467D01*
X017704Y021219D01*
X017877Y021046D01*
X017831Y021000D01*
X017751Y020808D01*
X017751Y020599D01*
X017831Y020406D01*
X017979Y020258D01*
X018172Y020178D01*
X019030Y020178D01*
X019223Y020258D01*
X019370Y020406D01*
X019450Y020599D01*
X019450Y020808D01*
X019383Y020971D01*
X019539Y020971D01*
X019601Y020958D01*
X019663Y020971D01*
X019726Y020971D01*
X019785Y020995D01*
X019847Y021008D01*
X019899Y021043D01*
X019958Y021067D01*
X020003Y021112D01*
X020055Y021147D01*
X020090Y021199D01*
X020135Y021244D01*
X020159Y021303D01*
X020641Y022025D01*
X020641Y021910D01*
X020910Y021641D01*
X021291Y021641D01*
X021391Y021740D01*
X021391Y021410D01*
X021660Y021141D01*
X022041Y021141D01*
X022226Y021326D01*
X022326Y021326D01*
X022326Y020976D01*
X022141Y020791D01*
X022141Y020410D01*
X022410Y020141D01*
X022791Y020141D01*
X023061Y020410D01*
X023061Y020791D01*
X022876Y020976D01*
X022876Y021546D01*
X022876Y021655D01*
X022834Y021757D01*
X022757Y021834D01*
X022655Y021876D01*
X022226Y021876D01*
X022041Y022061D01*
X021660Y022061D01*
X021561Y021961D01*
X021561Y022291D01*
X021381Y022471D01*
X022340Y022471D01*
X023744Y021067D01*
X023975Y020971D01*
X024226Y020971D01*
X024250Y020981D01*
X026330Y020981D01*
X026141Y020791D01*
X026141Y020410D01*
X026344Y020207D01*
X025991Y019853D01*
X025991Y019348D01*
X026348Y018991D01*
X026853Y018991D01*
X027211Y019348D01*
X027211Y019853D01*
X026857Y020207D01*
X027061Y020410D01*
X027061Y020791D01*
X026871Y020981D01*
X031224Y020981D01*
X031452Y021075D01*
X031626Y021250D01*
X031851Y021474D01*
X032436Y020889D01*
X032436Y020825D01*
X032802Y020459D01*
X032636Y020293D01*
X032636Y020131D01*
X033071Y020131D01*
X033071Y020071D01*
X033131Y020071D01*
X033131Y020131D01*
X033566Y020131D01*
X033566Y020293D01*
X033400Y020459D01*
X033766Y020825D01*
X033766Y021376D01*
X033376Y021766D01*
X033313Y021766D01*
X032721Y022358D01*
X032721Y022477D01*
X032721Y022724D01*
X032721Y023983D01*
X032957Y023886D01*
X033995Y023886D01*
X034200Y023971D01*
X034551Y023971D01*
X034551Y024406D01*
X034576Y024467D01*
X034576Y024755D01*
X034551Y024815D01*
X034551Y025211D01*
X034276Y025211D01*
X034261Y025225D01*
X033995Y025336D01*
X032957Y025336D01*
X032721Y025238D01*
X032721Y025498D01*
X032775Y025443D01*
X032986Y025356D01*
X033965Y025356D01*
X034097Y025411D01*
X034089Y025384D01*
X034077Y025311D01*
X034551Y025311D01*
X034551Y025784D01*
X034478Y025773D01*
X034399Y025747D01*
X034397Y025746D01*
X034426Y025816D01*
X034426Y025889D01*
X034457Y025876D01*
X035495Y025876D01*
X035601Y025920D01*
X035601Y025723D01*
X035552Y025747D01*
X035474Y025773D01*
X035392Y025786D01*
X034651Y025786D01*
X034651Y025311D01*
X034551Y025311D01*
X034551Y025211D01*
X034651Y025211D01*
X034651Y024736D01*
X035392Y024736D01*
X035474Y024749D01*
X035552Y024774D01*
X035601Y024799D01*
X035601Y024383D01*
X035552Y024407D01*
X035474Y024433D01*
X035392Y024446D01*
X034651Y024446D01*
X034651Y023971D01*
X034551Y023971D01*
X034551Y023871D01*
X034651Y023871D01*
X034651Y023396D01*
X035392Y023396D01*
X035474Y023409D01*
X035552Y023434D01*
X035601Y023459D01*
X035601Y013151D01*
X031580Y013151D01*
X031551Y013121D01*
X031551Y002111D01*
X022312Y002111D01*
X022211Y002212D01*
X022211Y002353D01*
X021853Y002711D01*
X021712Y002711D01*
X021611Y002812D01*
X021611Y010748D01*
X021711Y010848D01*
X021711Y011353D01*
X021353Y011711D01*
X020848Y011711D01*
X020780Y011643D01*
X020611Y011812D01*
X020694Y011729D02*
X024821Y011729D01*
X024821Y011630D02*
X021434Y011630D01*
X021532Y011532D02*
X024821Y011532D01*
X024783Y011433D02*
X021631Y011433D01*
X021711Y011335D02*
X024684Y011335D01*
X024641Y011236D02*
X021711Y011236D01*
X021711Y011138D02*
X024641Y011138D01*
X024641Y011039D02*
X021711Y011039D01*
X021711Y010941D02*
X024641Y010941D01*
X024709Y010842D02*
X021705Y010842D01*
X021611Y010743D02*
X024808Y010743D01*
X024906Y010645D02*
X021611Y010645D01*
X021611Y010546D02*
X025759Y010546D01*
X025858Y010448D02*
X021611Y010448D01*
X021611Y010349D02*
X025956Y010349D01*
X026055Y010251D02*
X021611Y010251D01*
X021611Y010152D02*
X026153Y010152D01*
X026252Y010054D02*
X021611Y010054D01*
X021611Y009955D02*
X026350Y009955D01*
X026449Y009857D02*
X021611Y009857D01*
X021611Y009758D02*
X026548Y009758D01*
X026646Y009659D02*
X021611Y009659D01*
X021611Y009561D02*
X026745Y009561D01*
X026843Y009462D02*
X021611Y009462D01*
X021611Y009364D02*
X026942Y009364D01*
X027040Y009265D02*
X021611Y009265D01*
X021611Y009167D02*
X027139Y009167D01*
X027237Y009068D02*
X021611Y009068D01*
X021611Y008970D02*
X027336Y008970D01*
X027434Y008871D02*
X021611Y008871D01*
X021611Y008773D02*
X027533Y008773D01*
X027632Y008674D02*
X021611Y008674D01*
X021611Y008576D02*
X027730Y008576D01*
X027829Y008477D02*
X021611Y008477D01*
X021611Y008378D02*
X027927Y008378D01*
X028026Y008280D02*
X021611Y008280D01*
X021611Y008181D02*
X028124Y008181D01*
X028223Y008083D02*
X021611Y008083D01*
X021611Y007984D02*
X028321Y007984D01*
X028420Y007886D02*
X021611Y007886D01*
X021611Y007787D02*
X028518Y007787D01*
X028617Y007689D02*
X021611Y007689D01*
X021611Y007590D02*
X028716Y007590D01*
X028814Y007492D02*
X021611Y007492D01*
X021611Y007393D02*
X028913Y007393D01*
X029011Y007294D02*
X021611Y007294D01*
X021611Y007196D02*
X029110Y007196D01*
X029208Y007097D02*
X021611Y007097D01*
X021611Y006999D02*
X029307Y006999D01*
X029405Y006900D02*
X021611Y006900D01*
X021611Y006802D02*
X029504Y006802D01*
X029602Y006703D02*
X021611Y006703D01*
X021611Y006605D02*
X029701Y006605D01*
X029799Y006506D02*
X021611Y006506D01*
X021611Y006408D02*
X029898Y006408D01*
X029997Y006309D02*
X021611Y006309D01*
X021611Y006210D02*
X030095Y006210D01*
X030194Y006112D02*
X021611Y006112D01*
X021611Y006013D02*
X030292Y006013D01*
X030391Y005915D02*
X021611Y005915D01*
X021611Y005816D02*
X030489Y005816D01*
X030588Y005718D02*
X021611Y005718D01*
X021611Y005619D02*
X030686Y005619D01*
X030785Y005521D02*
X030471Y005521D01*
X030476Y005518D02*
X030442Y005537D01*
X030404Y005548D01*
X030135Y005548D01*
X030135Y005149D01*
X030039Y005149D01*
X030039Y005548D01*
X029770Y005548D01*
X029732Y005537D01*
X029698Y005518D01*
X029670Y005490D01*
X029650Y005456D01*
X029640Y005417D01*
X029640Y005149D01*
X030038Y005149D01*
X030038Y005052D01*
X029640Y005052D01*
X029640Y004784D01*
X029650Y004746D01*
X029670Y004712D01*
X029698Y004684D01*
X029732Y004664D01*
X029770Y004654D01*
X030039Y004654D01*
X030039Y005052D01*
X030135Y005052D01*
X030135Y004654D01*
X030404Y004654D01*
X030442Y004664D01*
X030476Y004684D01*
X030504Y004712D01*
X030524Y004746D01*
X030534Y004784D01*
X030534Y005052D01*
X030136Y005052D01*
X030136Y005149D01*
X030534Y005149D01*
X030534Y005417D01*
X030524Y005456D01*
X030504Y005490D01*
X030476Y005518D01*
X030533Y005422D02*
X030821Y005422D01*
X030786Y005324D02*
X030534Y005324D01*
X030534Y005225D02*
X030741Y005225D01*
X030721Y005126D02*
X030136Y005126D01*
X030038Y005126D02*
X022611Y005126D01*
X022611Y005028D02*
X029640Y005028D01*
X029640Y004929D02*
X022611Y004929D01*
X022611Y004831D02*
X029640Y004831D01*
X029658Y004732D02*
X022611Y004732D01*
X022611Y004721D02*
X022611Y005480D01*
X022494Y005598D01*
X021735Y005598D01*
X021618Y005480D01*
X021618Y004721D01*
X021735Y004604D01*
X022494Y004604D01*
X022611Y004721D01*
X022524Y004634D02*
X031551Y004634D01*
X031551Y004732D02*
X031204Y004732D01*
X030997Y004732D02*
X030516Y004732D01*
X030534Y004831D02*
X030833Y004831D01*
X030760Y004929D02*
X030534Y004929D01*
X030534Y005028D02*
X030721Y005028D01*
X030135Y005028D02*
X030039Y005028D01*
X030039Y004929D02*
X030135Y004929D01*
X030135Y004831D02*
X030039Y004831D01*
X030039Y004732D02*
X030135Y004732D01*
X030135Y005225D02*
X030039Y005225D01*
X030039Y005324D02*
X030135Y005324D01*
X030135Y005422D02*
X030039Y005422D01*
X030039Y005521D02*
X030135Y005521D01*
X029703Y005521D02*
X022571Y005521D01*
X022611Y005422D02*
X029641Y005422D01*
X029640Y005324D02*
X022611Y005324D01*
X022611Y005225D02*
X029640Y005225D01*
X031551Y004535D02*
X021611Y004535D01*
X021611Y004437D02*
X031551Y004437D01*
X031551Y004338D02*
X021611Y004338D01*
X021611Y004240D02*
X031551Y004240D01*
X031551Y004141D02*
X021611Y004141D01*
X021611Y004043D02*
X031551Y004043D01*
X031551Y003944D02*
X021611Y003944D01*
X021611Y003845D02*
X031551Y003845D01*
X031551Y003747D02*
X021611Y003747D01*
X021611Y003648D02*
X031551Y003648D01*
X031551Y003550D02*
X021611Y003550D01*
X021611Y003451D02*
X031551Y003451D01*
X031551Y003353D02*
X021611Y003353D01*
X021611Y003254D02*
X031551Y003254D01*
X031551Y003156D02*
X021611Y003156D01*
X021611Y003057D02*
X031551Y003057D01*
X031551Y002959D02*
X021611Y002959D01*
X021611Y002860D02*
X031551Y002860D01*
X031551Y002761D02*
X021661Y002761D01*
X021901Y002663D02*
X031551Y002663D01*
X031551Y002564D02*
X022000Y002564D01*
X022098Y002466D02*
X031551Y002466D01*
X031551Y002367D02*
X022197Y002367D01*
X022211Y002269D02*
X031551Y002269D01*
X031551Y002170D02*
X022253Y002170D01*
X021161Y001677D02*
X017828Y001677D01*
X017791Y001641D02*
X018061Y001910D01*
X018061Y002291D01*
X017791Y002561D01*
X017410Y002561D01*
X017141Y002291D01*
X017141Y001910D01*
X017410Y001641D01*
X017791Y001641D01*
X017927Y001776D02*
X021063Y001776D01*
X020991Y001875D02*
X018025Y001875D01*
X018061Y001973D02*
X020991Y001973D01*
X020909Y002072D02*
X018061Y002072D01*
X018061Y002170D02*
X020810Y002170D01*
X020712Y002269D02*
X018061Y002269D01*
X017985Y002367D02*
X020645Y002367D01*
X020605Y002466D02*
X017886Y002466D01*
X017315Y002466D02*
X016061Y002466D01*
X016061Y002564D02*
X020591Y002564D01*
X020591Y002663D02*
X016061Y002663D01*
X016061Y002761D02*
X020591Y002761D01*
X020591Y002860D02*
X015992Y002860D01*
X015894Y002959D02*
X020591Y002959D01*
X021611Y004634D02*
X021705Y004634D01*
X021618Y004732D02*
X021611Y004732D01*
X021611Y004831D02*
X021618Y004831D01*
X021611Y004929D02*
X021618Y004929D01*
X021611Y005028D02*
X021618Y005028D01*
X021611Y005126D02*
X021618Y005126D01*
X021611Y005225D02*
X021618Y005225D01*
X021611Y005324D02*
X021618Y005324D01*
X021611Y005422D02*
X021618Y005422D01*
X021611Y005521D02*
X021658Y005521D01*
X020591Y007294D02*
X020441Y007294D01*
X020510Y007393D02*
X020591Y007393D01*
X020591Y007492D02*
X020551Y007492D01*
X020558Y007590D02*
X020591Y007590D01*
X020591Y007689D02*
X020558Y007689D01*
X020591Y007787D02*
X020519Y007787D01*
X020463Y007886D02*
X020591Y007886D01*
X020591Y007984D02*
X020364Y007984D01*
X020591Y008083D02*
X017450Y008083D01*
X017352Y007984D02*
X018837Y007984D01*
X018739Y007886D02*
X017253Y007886D01*
X017155Y007787D02*
X018683Y007787D01*
X018643Y007689D02*
X017056Y007689D01*
X016958Y007590D02*
X018643Y007590D01*
X018651Y007492D02*
X016859Y007492D01*
X016761Y007393D02*
X018692Y007393D01*
X018760Y007294D02*
X016731Y007294D01*
X016731Y007275D02*
X016731Y007363D01*
X018248Y008880D01*
X018321Y008954D01*
X018361Y009049D01*
X018361Y011823D01*
X018423Y011886D01*
X018481Y012025D01*
X018481Y012176D01*
X018423Y012316D01*
X018316Y012423D01*
X018176Y012481D01*
X018025Y012481D01*
X017886Y012423D01*
X017876Y012413D01*
X017876Y016033D01*
X017881Y016045D01*
X017881Y017045D01*
X017881Y017156D01*
X017838Y017259D01*
X014561Y020537D01*
X014561Y020791D01*
X014376Y020976D01*
X014376Y021225D01*
X014561Y021410D01*
X014561Y021791D01*
X014291Y022061D01*
X013910Y022061D01*
X013641Y021791D01*
X013641Y021410D01*
X013826Y021225D01*
X013826Y020976D01*
X013641Y020791D01*
X013641Y020410D01*
X013910Y020141D01*
X014165Y020141D01*
X017321Y016985D01*
X017321Y016045D01*
X017326Y016033D01*
X017326Y010863D01*
X017279Y010816D01*
X017221Y010676D01*
X017221Y010525D01*
X017279Y010386D01*
X017386Y010279D01*
X017525Y010221D01*
X017676Y010221D01*
X017816Y010279D01*
X017841Y010303D01*
X017841Y009208D01*
X016363Y007731D01*
X016275Y007731D01*
X016136Y007673D01*
X016029Y007566D01*
X015971Y007426D01*
X015971Y007275D01*
X016029Y007136D01*
X016136Y007029D01*
X016275Y006971D01*
X016426Y006971D01*
X016566Y007029D01*
X016673Y007136D01*
X016731Y007275D01*
X016698Y007196D02*
X017554Y007196D01*
X017501Y007097D02*
X016635Y007097D01*
X016494Y006999D02*
X017009Y006999D01*
X017072Y006999D02*
X017130Y006999D01*
X017192Y006999D02*
X017501Y006999D01*
X017501Y006900D02*
X017378Y006900D01*
X017456Y006802D02*
X017501Y006802D01*
X017496Y006703D02*
X017501Y006703D01*
X017130Y006703D02*
X017072Y006703D01*
X017072Y006605D02*
X016211Y006605D01*
X016211Y006703D02*
X016706Y006703D01*
X016746Y006802D02*
X016211Y006802D01*
X016164Y006900D02*
X016824Y006900D01*
X017072Y006900D02*
X017130Y006900D01*
X017130Y006802D02*
X017072Y006802D01*
X016703Y006506D02*
X016211Y006506D01*
X016211Y006408D02*
X016742Y006408D01*
X016816Y006309D02*
X016172Y006309D01*
X016073Y006210D02*
X016983Y006210D01*
X016501Y006112D02*
X015975Y006112D01*
X015876Y006013D02*
X016501Y006013D01*
X016501Y005915D02*
X014136Y005915D01*
X014038Y005816D02*
X016501Y005816D01*
X016501Y005718D02*
X013939Y005718D01*
X013840Y005619D02*
X016501Y005619D01*
X016501Y005521D02*
X013742Y005521D01*
X013643Y005422D02*
X016501Y005422D01*
X016501Y005324D02*
X013611Y005324D01*
X013611Y005225D02*
X016501Y005225D01*
X016501Y005126D02*
X013611Y005126D01*
X013611Y005028D02*
X016501Y005028D01*
X016501Y004929D02*
X013611Y004929D01*
X013611Y004831D02*
X016501Y004831D01*
X016501Y004732D02*
X013611Y004732D01*
X013611Y004634D02*
X016501Y004634D01*
X016501Y004535D02*
X013611Y004535D01*
X013611Y004437D02*
X016501Y004437D01*
X016501Y004338D02*
X013611Y004338D01*
X013611Y004240D02*
X016501Y004240D01*
X016501Y004141D02*
X013611Y004141D01*
X013611Y004043D02*
X016501Y004043D01*
X016501Y003944D02*
X013611Y003944D01*
X013611Y003845D02*
X016501Y003845D01*
X016501Y003747D02*
X013611Y003747D01*
X013611Y003648D02*
X016501Y003648D01*
X016501Y003550D02*
X013611Y003550D01*
X013611Y003451D02*
X016501Y003451D01*
X016501Y003353D02*
X013611Y003353D01*
X013611Y003254D02*
X016501Y003254D01*
X016501Y003156D02*
X013611Y003156D01*
X013611Y003057D02*
X013907Y003057D01*
X013910Y003061D02*
X013641Y002791D01*
X013641Y002410D01*
X013910Y002141D01*
X014291Y002141D01*
X014561Y002410D01*
X014561Y002791D01*
X014291Y003061D01*
X013910Y003061D01*
X013808Y002959D02*
X013611Y002959D01*
X013611Y002860D02*
X013709Y002860D01*
X013641Y002761D02*
X013611Y002761D01*
X013611Y002663D02*
X013641Y002663D01*
X013641Y002564D02*
X013611Y002564D01*
X013611Y002466D02*
X013641Y002466D01*
X013611Y002367D02*
X013684Y002367D01*
X013654Y002269D02*
X013782Y002269D01*
X013753Y002170D02*
X013881Y002170D01*
X013851Y002072D02*
X014443Y002072D01*
X014443Y002170D02*
X014321Y002170D01*
X014419Y002269D02*
X014443Y002269D01*
X014518Y002367D02*
X014519Y002367D01*
X014561Y002466D02*
X015141Y002466D01*
X015141Y002564D02*
X014561Y002564D01*
X014561Y002663D02*
X015141Y002663D01*
X015141Y002761D02*
X014561Y002761D01*
X014492Y002860D02*
X015209Y002860D01*
X015308Y002959D02*
X014394Y002959D01*
X014295Y003057D02*
X015407Y003057D01*
X015795Y003057D02*
X016503Y003057D01*
X016219Y002367D02*
X016018Y002367D01*
X015919Y002269D02*
X016143Y002269D01*
X016143Y002170D02*
X015821Y002170D01*
X016143Y002072D02*
X015358Y002072D01*
X015358Y002170D02*
X015381Y002170D01*
X015358Y001973D02*
X016143Y001973D01*
X016143Y001875D02*
X015358Y001875D01*
X015358Y001776D02*
X016143Y001776D01*
X016143Y001677D02*
X015358Y001677D01*
X014443Y001677D02*
X014245Y001677D01*
X014147Y001776D02*
X014443Y001776D01*
X014443Y001875D02*
X014048Y001875D01*
X013950Y001973D02*
X014443Y001973D01*
X013121Y000692D02*
X000601Y000692D01*
X000601Y000791D02*
X013022Y000791D01*
X012924Y000889D02*
X000601Y000889D01*
X000601Y000988D02*
X012825Y000988D01*
X012726Y001086D02*
X000601Y001086D01*
X000601Y001185D02*
X001310Y001185D01*
X001318Y001177D02*
X001501Y001101D01*
X001700Y001101D01*
X001884Y001177D01*
X002025Y001318D01*
X002101Y001501D01*
X002177Y001318D01*
X002318Y001177D01*
X002501Y001101D01*
X002700Y001101D01*
X002884Y001177D01*
X003025Y001318D01*
X003101Y001501D01*
X003177Y001318D01*
X003318Y001177D01*
X003501Y001101D01*
X003700Y001101D01*
X003884Y001177D01*
X004025Y001318D01*
X004101Y001501D01*
X004177Y001318D01*
X004318Y001177D01*
X004501Y001101D01*
X004700Y001101D01*
X004884Y001177D01*
X005025Y001318D01*
X005101Y001501D01*
X005177Y001318D01*
X005318Y001177D01*
X005501Y001101D01*
X005700Y001101D01*
X005884Y001177D01*
X006025Y001318D01*
X006101Y001501D01*
X006177Y001318D01*
X006318Y001177D01*
X006501Y001101D01*
X006700Y001101D01*
X006884Y001177D01*
X007025Y001318D01*
X007101Y001501D01*
X007177Y001318D01*
X007318Y001177D01*
X007501Y001101D01*
X007700Y001101D01*
X007884Y001177D01*
X008025Y001318D01*
X008101Y001501D01*
X008101Y002300D01*
X008025Y002484D01*
X007884Y002625D01*
X007700Y002701D01*
X007501Y002701D01*
X007318Y002625D01*
X007177Y002484D01*
X007101Y002300D01*
X007101Y001501D01*
X007101Y002300D01*
X007025Y002484D01*
X006884Y002625D01*
X006700Y002701D01*
X006501Y002701D01*
X006318Y002625D01*
X006177Y002484D01*
X006101Y002300D01*
X006101Y001501D01*
X006101Y002300D01*
X006025Y002484D01*
X005884Y002625D01*
X005700Y002701D01*
X005501Y002701D01*
X005318Y002625D01*
X005177Y002484D01*
X005101Y002300D01*
X005101Y001501D01*
X005101Y002300D01*
X005025Y002484D01*
X004884Y002625D01*
X004700Y002701D01*
X004501Y002701D01*
X004318Y002625D01*
X004177Y002484D01*
X004101Y002300D01*
X004101Y001501D01*
X004101Y002300D01*
X004025Y002484D01*
X003884Y002625D01*
X003700Y002701D01*
X003501Y002701D01*
X003318Y002625D01*
X003177Y002484D01*
X003101Y002300D01*
X003101Y001501D01*
X003101Y002300D01*
X003025Y002484D01*
X002884Y002625D01*
X002700Y002701D01*
X002501Y002701D01*
X002318Y002625D01*
X002177Y002484D01*
X002101Y002300D01*
X002101Y001501D01*
X002101Y002300D01*
X002025Y002484D01*
X001884Y002625D01*
X001700Y002701D01*
X001501Y002701D01*
X001318Y002625D01*
X001177Y002484D01*
X001101Y002300D01*
X001101Y001501D01*
X001177Y001318D01*
X001318Y001177D01*
X001211Y001283D02*
X000601Y001283D01*
X000601Y001382D02*
X001150Y001382D01*
X001109Y001480D02*
X000601Y001480D01*
X000601Y001579D02*
X001101Y001579D01*
X001101Y001677D02*
X000601Y001677D01*
X000601Y001776D02*
X001101Y001776D01*
X001101Y001875D02*
X000601Y001875D01*
X000601Y001973D02*
X001101Y001973D01*
X001101Y002072D02*
X000601Y002072D01*
X000601Y002170D02*
X001101Y002170D01*
X001101Y002269D02*
X000601Y002269D01*
X000601Y002367D02*
X001129Y002367D01*
X001169Y002466D02*
X000601Y002466D01*
X000601Y002564D02*
X001257Y002564D01*
X001410Y002663D02*
X000601Y002663D01*
X000601Y002761D02*
X012326Y002761D01*
X012326Y002663D02*
X007792Y002663D01*
X007944Y002564D02*
X012326Y002564D01*
X012326Y002466D02*
X008032Y002466D01*
X008073Y002367D02*
X012326Y002367D01*
X012326Y002269D02*
X008101Y002269D01*
X008101Y002170D02*
X012326Y002170D01*
X012326Y002072D02*
X008101Y002072D01*
X008101Y001973D02*
X012326Y001973D01*
X012326Y001875D02*
X008101Y001875D01*
X008101Y001776D02*
X012326Y001776D01*
X012326Y001677D02*
X008101Y001677D01*
X008101Y001579D02*
X012326Y001579D01*
X012353Y001480D02*
X008092Y001480D01*
X008051Y001382D02*
X012431Y001382D01*
X012529Y001283D02*
X007990Y001283D01*
X007892Y001185D02*
X012628Y001185D01*
X012326Y002860D02*
X000601Y002860D01*
X000601Y002959D02*
X012326Y002959D01*
X012326Y003057D02*
X000601Y003057D01*
X000601Y003156D02*
X012326Y003156D01*
X012326Y003254D02*
X010063Y003254D01*
X010018Y003241D02*
X010531Y003392D01*
X010981Y003681D01*
X011331Y004085D01*
X011554Y004571D01*
X011630Y005101D01*
X011554Y005630D01*
X011331Y006117D01*
X010981Y006521D01*
X010531Y006810D01*
X010018Y006961D01*
X009483Y006961D01*
X008970Y006810D01*
X008520Y006521D01*
X008170Y006117D01*
X007948Y005630D01*
X007872Y005101D01*
X007948Y004571D01*
X008170Y004085D01*
X008520Y003681D01*
X008970Y003392D01*
X009483Y003241D01*
X010018Y003241D01*
X010399Y003353D02*
X012326Y003353D01*
X012326Y003451D02*
X010624Y003451D01*
X010778Y003550D02*
X012326Y003550D01*
X012326Y003648D02*
X010931Y003648D01*
X011039Y003747D02*
X012326Y003747D01*
X012326Y003845D02*
X011124Y003845D01*
X011209Y003944D02*
X012326Y003944D01*
X012326Y004043D02*
X011295Y004043D01*
X011357Y004141D02*
X012326Y004141D01*
X012326Y004240D02*
X011402Y004240D01*
X011447Y004338D02*
X012326Y004338D01*
X012326Y004437D02*
X011492Y004437D01*
X011537Y004535D02*
X012326Y004535D01*
X012326Y004634D02*
X011563Y004634D01*
X011577Y004732D02*
X012326Y004732D01*
X012326Y004831D02*
X011591Y004831D01*
X011605Y004929D02*
X012326Y004929D01*
X012326Y005028D02*
X011619Y005028D01*
X011626Y005126D02*
X012326Y005126D01*
X012326Y005225D02*
X011612Y005225D01*
X011598Y005324D02*
X012326Y005324D01*
X012326Y005422D02*
X011584Y005422D01*
X011569Y005521D02*
X012326Y005521D01*
X012326Y005619D02*
X011555Y005619D01*
X011514Y005718D02*
X012326Y005718D01*
X012326Y005816D02*
X011469Y005816D01*
X011424Y005915D02*
X012326Y005915D01*
X012326Y006013D02*
X011379Y006013D01*
X011334Y006112D02*
X012326Y006112D01*
X012326Y006210D02*
X011250Y006210D01*
X011165Y006309D02*
X012326Y006309D01*
X012326Y006408D02*
X011079Y006408D01*
X010994Y006506D02*
X012326Y006506D01*
X012326Y006605D02*
X010851Y006605D01*
X010698Y006703D02*
X012326Y006703D01*
X012326Y006802D02*
X010544Y006802D01*
X010224Y006900D02*
X012272Y006900D01*
X012232Y006999D02*
X000601Y006999D01*
X000601Y007097D02*
X012221Y007097D01*
X012229Y007196D02*
X000601Y007196D01*
X000601Y007294D02*
X012270Y007294D01*
X012356Y007393D02*
X000601Y007393D01*
X000601Y007492D02*
X001347Y007492D01*
X001249Y007590D02*
X000601Y007590D01*
X000601Y007689D02*
X001150Y007689D01*
X001052Y007787D02*
X000601Y007787D01*
X000601Y007886D02*
X000991Y007886D01*
X000991Y007984D02*
X000601Y007984D01*
X000601Y008083D02*
X000991Y008083D01*
X000991Y008181D02*
X000601Y008181D01*
X000601Y008280D02*
X000991Y008280D01*
X001016Y008378D02*
X000601Y008378D01*
X000601Y008477D02*
X001091Y008477D01*
X001091Y008576D02*
X000601Y008576D01*
X000601Y008674D02*
X001091Y008674D01*
X001066Y008773D02*
X000601Y008773D01*
X000601Y008871D02*
X000991Y008871D01*
X000991Y008970D02*
X000601Y008970D01*
X000601Y009068D02*
X000991Y009068D01*
X000991Y009167D02*
X000601Y009167D01*
X000601Y009265D02*
X000991Y009265D01*
X001001Y009364D02*
X000601Y009364D01*
X000601Y009462D02*
X001100Y009462D01*
X001101Y009561D02*
X000601Y009561D01*
X000601Y009659D02*
X001101Y009659D01*
X001125Y009758D02*
X000601Y009758D01*
X000601Y009857D02*
X001166Y009857D01*
X001248Y009955D02*
X000601Y009955D01*
X000601Y010054D02*
X001347Y010054D01*
X001445Y010152D02*
X000601Y010152D01*
X000601Y010251D02*
X001544Y010251D01*
X001642Y010349D02*
X000601Y010349D01*
X000601Y010448D02*
X001741Y010448D01*
X001839Y010546D02*
X000601Y010546D01*
X000601Y010645D02*
X001938Y010645D01*
X002036Y010743D02*
X000601Y010743D01*
X000601Y010842D02*
X002101Y010842D01*
X002101Y010941D02*
X000601Y010941D01*
X000601Y011039D02*
X002101Y011039D01*
X002101Y011138D02*
X000601Y011138D01*
X000601Y011236D02*
X002101Y011236D01*
X002101Y011335D02*
X000601Y011335D01*
X000601Y011433D02*
X002101Y011433D01*
X002101Y011532D02*
X000601Y011532D01*
X000601Y011630D02*
X002101Y011630D01*
X002101Y011729D02*
X000601Y011729D01*
X000601Y011827D02*
X002101Y011827D01*
X002101Y011926D02*
X000601Y011926D01*
X000601Y012025D02*
X002101Y012025D01*
X002101Y012123D02*
X000601Y012123D01*
X000601Y012222D02*
X002101Y012222D01*
X002101Y012320D02*
X000601Y012320D01*
X000601Y012419D02*
X002101Y012419D01*
X002101Y012517D02*
X000601Y012517D01*
X000601Y012616D02*
X002101Y012616D01*
X002101Y012714D02*
X001865Y012714D01*
X001963Y012813D02*
X002101Y012813D01*
X002101Y012911D02*
X002061Y012911D01*
X002061Y013010D02*
X002101Y013010D01*
X002101Y013109D02*
X002061Y013109D01*
X002061Y013207D02*
X002101Y013207D01*
X002101Y013306D02*
X002046Y013306D01*
X002101Y013404D02*
X001948Y013404D01*
X001865Y013503D02*
X002101Y013503D01*
X002101Y013601D02*
X001964Y013601D01*
X002062Y013700D02*
X002101Y013700D01*
X001336Y013503D02*
X000601Y013503D01*
X000601Y013601D02*
X001238Y013601D01*
X001139Y013700D02*
X000601Y013700D01*
X000601Y013798D02*
X001041Y013798D01*
X000991Y013897D02*
X000601Y013897D01*
X000601Y013995D02*
X000991Y013995D01*
X000991Y014094D02*
X000601Y014094D01*
X000601Y014192D02*
X000991Y014192D01*
X000991Y014291D02*
X000601Y014291D01*
X000601Y014390D02*
X001027Y014390D01*
X001125Y014488D02*
X000601Y014488D01*
X000601Y014587D02*
X001224Y014587D01*
X001323Y014685D02*
X000601Y014685D01*
X000601Y014784D02*
X001577Y014784D01*
X001675Y014882D02*
X000601Y014882D01*
X000601Y014981D02*
X001774Y014981D01*
X001872Y015079D02*
X000601Y015079D01*
X000601Y015178D02*
X001971Y015178D01*
X002069Y015276D02*
X000601Y015276D01*
X000601Y015375D02*
X002101Y015375D01*
X002101Y015474D02*
X000601Y015474D01*
X000601Y015572D02*
X002101Y015572D01*
X002101Y015671D02*
X000601Y015671D01*
X000601Y015769D02*
X002101Y015769D01*
X002101Y015868D02*
X000601Y015868D01*
X000601Y015966D02*
X002101Y015966D01*
X002101Y016065D02*
X000601Y016065D01*
X000601Y016163D02*
X002101Y016163D01*
X002101Y016262D02*
X000601Y016262D01*
X000601Y016360D02*
X002101Y016360D01*
X002101Y016459D02*
X000601Y016459D01*
X000601Y016558D02*
X002101Y016558D01*
X002101Y016656D02*
X000601Y016656D01*
X000601Y016755D02*
X002101Y016755D01*
X002101Y016853D02*
X000601Y016853D01*
X000601Y016952D02*
X002101Y016952D01*
X002101Y017050D02*
X000601Y017050D01*
X000601Y017149D02*
X002101Y017149D01*
X002120Y017247D02*
X000601Y017247D01*
X000601Y017346D02*
X002161Y017346D01*
X002237Y017444D02*
X000601Y017444D01*
X000601Y017543D02*
X002336Y017543D01*
X002434Y017641D02*
X001792Y017641D01*
X001791Y017641D02*
X002061Y017910D01*
X002061Y018291D01*
X001791Y018561D01*
X001410Y018561D01*
X001141Y018291D01*
X001141Y017910D01*
X001410Y017641D01*
X001791Y017641D01*
X001891Y017740D02*
X002533Y017740D01*
X002632Y017839D02*
X001989Y017839D01*
X002061Y017937D02*
X002730Y017937D01*
X002829Y018036D02*
X002061Y018036D01*
X002061Y018134D02*
X002927Y018134D01*
X003026Y018233D02*
X002061Y018233D01*
X002021Y018331D02*
X003124Y018331D01*
X003223Y018430D02*
X001922Y018430D01*
X001824Y018528D02*
X003321Y018528D01*
X003420Y018627D02*
X000601Y018627D01*
X000601Y018725D02*
X003518Y018725D01*
X003591Y018824D02*
X000601Y018824D01*
X000601Y018923D02*
X003591Y018923D01*
X003591Y019021D02*
X000601Y019021D01*
X000601Y019120D02*
X003591Y019120D01*
X003591Y019218D02*
X000601Y019218D01*
X000601Y019317D02*
X003591Y019317D01*
X003591Y019415D02*
X000601Y019415D01*
X000601Y019514D02*
X003591Y019514D01*
X003591Y019612D02*
X000601Y019612D01*
X000601Y019711D02*
X001340Y019711D01*
X001410Y019641D02*
X001791Y019641D01*
X002061Y019910D01*
X002061Y020291D01*
X001791Y020561D01*
X001410Y020561D01*
X001141Y020291D01*
X001141Y019910D01*
X001410Y019641D01*
X001242Y019809D02*
X000601Y019809D01*
X000601Y019908D02*
X001143Y019908D01*
X001141Y020007D02*
X000601Y020007D01*
X000601Y020105D02*
X001141Y020105D01*
X001141Y020204D02*
X000601Y020204D01*
X000601Y020302D02*
X001152Y020302D01*
X001250Y020401D02*
X000601Y020401D01*
X000601Y020499D02*
X001349Y020499D01*
X001853Y020499D02*
X002419Y020499D01*
X002431Y020511D02*
X002191Y020271D01*
X002191Y020131D01*
X002571Y020131D01*
X002571Y020511D01*
X002431Y020511D01*
X002571Y020499D02*
X002631Y020499D01*
X002631Y020511D02*
X002771Y020511D01*
X003011Y020271D01*
X003011Y020131D01*
X002631Y020131D01*
X002631Y020071D01*
X003011Y020071D01*
X003011Y019931D01*
X002771Y019691D01*
X002631Y019691D01*
X002631Y020071D01*
X002571Y020071D01*
X002571Y019691D01*
X002431Y019691D01*
X002191Y019931D01*
X002191Y020071D01*
X002571Y020071D01*
X002571Y020131D01*
X002631Y020131D01*
X002631Y020511D01*
X002631Y020401D02*
X002571Y020401D01*
X002571Y020302D02*
X002631Y020302D01*
X002631Y020204D02*
X002571Y020204D01*
X002571Y020105D02*
X002061Y020105D01*
X002061Y020007D02*
X002191Y020007D01*
X002214Y019908D02*
X002059Y019908D01*
X001960Y019809D02*
X002312Y019809D01*
X002411Y019711D02*
X001861Y019711D01*
X002061Y020204D02*
X002191Y020204D01*
X002222Y020302D02*
X002050Y020302D01*
X001951Y020401D02*
X002321Y020401D01*
X002631Y020105D02*
X003591Y020105D01*
X003591Y020007D02*
X003011Y020007D01*
X002988Y019908D02*
X003591Y019908D01*
X003591Y019809D02*
X002889Y019809D01*
X002791Y019711D02*
X003591Y019711D01*
X003591Y020204D02*
X003011Y020204D01*
X002979Y020302D02*
X003591Y020302D01*
X003591Y020401D02*
X002881Y020401D01*
X002782Y020499D02*
X003591Y020499D01*
X003591Y020598D02*
X000601Y020598D01*
X000601Y020696D02*
X003591Y020696D01*
X003591Y020795D02*
X000601Y020795D01*
X000601Y020893D02*
X003591Y020893D01*
X003591Y020992D02*
X000601Y020992D01*
X000601Y021091D02*
X003591Y021091D01*
X003591Y021189D02*
X000601Y021189D01*
X000601Y021288D02*
X003591Y021288D01*
X003591Y021386D02*
X000601Y021386D01*
X000601Y021485D02*
X003591Y021485D01*
X003591Y021583D02*
X000601Y021583D01*
X000601Y021682D02*
X003591Y021682D01*
X003591Y021780D02*
X000601Y021780D01*
X000601Y021879D02*
X003591Y021879D01*
X003591Y021977D02*
X002094Y021977D01*
X002295Y022076D02*
X003591Y022076D01*
X003591Y022174D02*
X002394Y022174D01*
X002469Y022273D02*
X003591Y022273D01*
X003591Y022372D02*
X002509Y022372D01*
X002550Y022470D02*
X003591Y022470D01*
X003591Y022569D02*
X002551Y022569D01*
X002551Y022667D02*
X003591Y022667D01*
X003591Y022766D02*
X002536Y022766D01*
X002495Y022864D02*
X003591Y022864D01*
X003591Y022963D02*
X002454Y022963D01*
X002359Y023061D02*
X003591Y023061D01*
X003591Y023160D02*
X002249Y023160D01*
X002195Y023258D02*
X003591Y023258D01*
X003591Y023357D02*
X002280Y023357D01*
X002327Y023456D02*
X003591Y023456D01*
X003591Y023554D02*
X001651Y023554D01*
X001551Y023554D02*
X000601Y023554D01*
X000601Y023456D02*
X000875Y023456D01*
X000922Y023357D02*
X000601Y023357D01*
X000601Y023258D02*
X001007Y023258D01*
X000952Y023160D02*
X000601Y023160D01*
X000601Y023061D02*
X000842Y023061D01*
X000747Y022963D02*
X000601Y022963D01*
X000601Y022864D02*
X000706Y022864D01*
X000666Y022766D02*
X000601Y022766D01*
X000601Y022667D02*
X000651Y022667D01*
X000651Y022569D02*
X000601Y022569D01*
X000601Y022470D02*
X000651Y022470D01*
X000692Y022372D02*
X000601Y022372D01*
X000601Y022273D02*
X000733Y022273D01*
X000808Y022174D02*
X000601Y022174D01*
X000601Y022076D02*
X000906Y022076D01*
X001107Y021977D02*
X000601Y021977D01*
X000601Y023653D02*
X000853Y023653D01*
X000876Y023751D02*
X000601Y023751D01*
X000601Y023850D02*
X000925Y023850D01*
X001014Y023948D02*
X000601Y023948D01*
X000601Y024047D02*
X000940Y024047D01*
X000837Y024145D02*
X000601Y024145D01*
X000601Y024244D02*
X000745Y024244D01*
X000704Y024342D02*
X000601Y024342D01*
X000601Y024441D02*
X000663Y024441D01*
X000651Y024540D02*
X000601Y024540D01*
X000601Y024638D02*
X000651Y024638D01*
X000654Y024737D02*
X000601Y024737D01*
X000601Y024835D02*
X000694Y024835D01*
X000735Y024934D02*
X000601Y024934D01*
X000601Y025032D02*
X000813Y025032D01*
X000912Y025131D02*
X000601Y025131D01*
X000601Y025229D02*
X001120Y025229D01*
X000601Y025328D02*
X006821Y025328D01*
X006821Y025426D02*
X000601Y025426D01*
X000601Y025525D02*
X006821Y025525D01*
X006821Y025624D02*
X000601Y025624D01*
X000601Y025722D02*
X006821Y025722D01*
X006821Y025821D02*
X000601Y025821D01*
X000601Y025919D02*
X006821Y025919D01*
X006821Y026018D02*
X000601Y026018D01*
X000601Y026116D02*
X006821Y026116D01*
X006845Y026215D02*
X000601Y026215D01*
X000601Y026313D02*
X006917Y026313D01*
X007016Y026412D02*
X000601Y026412D01*
X000601Y026510D02*
X007114Y026510D01*
X007213Y026609D02*
X000601Y026609D01*
X000601Y026707D02*
X007312Y026707D01*
X007321Y026806D02*
X000601Y026806D01*
X000601Y026905D02*
X007321Y026905D01*
X007321Y027003D02*
X000601Y027003D01*
X000601Y027102D02*
X007321Y027102D01*
X007294Y027200D02*
X002403Y027200D01*
X002502Y027299D02*
X007196Y027299D01*
X007101Y027397D02*
X005270Y027397D01*
X005251Y027378D02*
X005564Y027691D01*
X005564Y027862D01*
X005080Y027862D01*
X005080Y027962D01*
X004980Y027962D01*
X004980Y028446D01*
X004809Y028446D01*
X004496Y028133D01*
X004496Y027962D01*
X004980Y027962D01*
X004980Y027862D01*
X004496Y027862D01*
X004496Y027691D01*
X004809Y027378D01*
X004980Y027378D01*
X004980Y027862D01*
X005080Y027862D01*
X005080Y027378D01*
X005251Y027378D01*
X005369Y027496D02*
X007101Y027496D01*
X007101Y027594D02*
X005467Y027594D01*
X005564Y027693D02*
X007101Y027693D01*
X007101Y027791D02*
X005564Y027791D01*
X005564Y027962D02*
X005564Y028133D01*
X005251Y028446D01*
X005080Y028446D01*
X005080Y027962D01*
X005564Y027962D01*
X005564Y027989D02*
X007281Y027989D01*
X007183Y027890D02*
X005080Y027890D01*
X005080Y027989D02*
X004980Y027989D01*
X004980Y028087D02*
X005080Y028087D01*
X005080Y028186D02*
X004980Y028186D01*
X004980Y028284D02*
X005080Y028284D01*
X005080Y028383D02*
X004980Y028383D01*
X004746Y028383D02*
X002644Y028383D01*
X002545Y028481D02*
X009609Y028481D01*
X009510Y028383D02*
X005314Y028383D01*
X005412Y028284D02*
X009412Y028284D01*
X009343Y028186D02*
X005511Y028186D01*
X005564Y028087D02*
X007380Y028087D01*
X007822Y028087D02*
X009343Y028087D01*
X009343Y027989D02*
X007920Y027989D01*
X008019Y027890D02*
X009343Y027890D01*
X009343Y027791D02*
X008101Y027791D01*
X008101Y027693D02*
X009343Y027693D01*
X009357Y027594D02*
X008101Y027594D01*
X008101Y027496D02*
X009455Y027496D01*
X009554Y027397D02*
X008101Y027397D01*
X008006Y027299D02*
X009652Y027299D01*
X009751Y027200D02*
X007907Y027200D01*
X007881Y027102D02*
X018209Y027102D01*
X018307Y027003D02*
X007881Y027003D01*
X007881Y026905D02*
X018406Y026905D01*
X018505Y026806D02*
X015936Y026806D01*
X016043Y026762D02*
X015756Y026881D01*
X015446Y026881D01*
X015159Y026762D01*
X014940Y026543D01*
X014821Y026256D01*
X014821Y025946D01*
X014940Y025659D01*
X015159Y025440D01*
X015446Y025321D01*
X015756Y025321D01*
X016043Y025440D01*
X016262Y025659D01*
X016381Y025946D01*
X016381Y026256D01*
X016262Y026543D01*
X016043Y026762D01*
X016097Y026707D02*
X018603Y026707D01*
X018702Y026609D02*
X016196Y026609D01*
X016275Y026510D02*
X018800Y026510D01*
X018899Y026412D02*
X016316Y026412D01*
X016357Y026313D02*
X018997Y026313D01*
X019096Y026215D02*
X016381Y026215D01*
X016381Y026116D02*
X019194Y026116D01*
X019293Y026018D02*
X016381Y026018D01*
X016370Y025919D02*
X019391Y025919D01*
X019490Y025821D02*
X016329Y025821D01*
X016288Y025722D02*
X019589Y025722D01*
X019687Y025624D02*
X016227Y025624D01*
X016128Y025525D02*
X019786Y025525D01*
X019884Y025426D02*
X016011Y025426D01*
X015773Y025328D02*
X019971Y025328D01*
X019971Y025229D02*
X007381Y025229D01*
X007381Y025131D02*
X007560Y025131D01*
X007551Y025032D02*
X007381Y025032D01*
X007381Y024934D02*
X007547Y024934D01*
X007449Y024835D02*
X007381Y024835D01*
X007381Y025328D02*
X015428Y025328D01*
X015191Y025426D02*
X007381Y025426D01*
X007381Y025525D02*
X015074Y025525D01*
X014975Y025624D02*
X007381Y025624D01*
X007381Y025722D02*
X014913Y025722D01*
X014873Y025821D02*
X007381Y025821D01*
X007381Y025919D02*
X014832Y025919D01*
X014821Y026018D02*
X007414Y026018D01*
X007512Y026116D02*
X014821Y026116D01*
X014821Y026215D02*
X007611Y026215D01*
X007709Y026313D02*
X014845Y026313D01*
X014885Y026412D02*
X007808Y026412D01*
X007866Y026510D02*
X014926Y026510D01*
X015006Y026609D02*
X007881Y026609D01*
X007881Y026707D02*
X015104Y026707D01*
X015265Y026806D02*
X007881Y026806D01*
X006821Y025229D02*
X002082Y025229D01*
X002290Y025131D02*
X006821Y025131D01*
X006821Y025032D02*
X005827Y025032D01*
X005793Y025066D02*
X006066Y024793D01*
X006066Y024631D01*
X005631Y024631D01*
X005631Y024571D01*
X006066Y024571D01*
X006066Y024408D01*
X005900Y024242D01*
X006266Y023876D01*
X006266Y023325D01*
X005876Y022936D01*
X005325Y022936D01*
X004936Y023325D01*
X004936Y023876D01*
X005302Y024242D01*
X005136Y024408D01*
X005136Y024571D01*
X005571Y024571D01*
X005571Y024631D01*
X005571Y025066D01*
X005408Y025066D01*
X005136Y024793D01*
X005136Y024631D01*
X005571Y024631D01*
X005631Y024631D01*
X005631Y025066D01*
X005793Y025066D01*
X005631Y025032D02*
X005571Y025032D01*
X005571Y024934D02*
X005631Y024934D01*
X005631Y024835D02*
X005571Y024835D01*
X005571Y024737D02*
X005631Y024737D01*
X005631Y024638D02*
X005571Y024638D01*
X005276Y024934D02*
X003989Y024934D01*
X003891Y025032D02*
X005375Y025032D01*
X005178Y024835D02*
X004088Y024835D01*
X004186Y024737D02*
X005136Y024737D01*
X005136Y024638D02*
X004285Y024638D01*
X004383Y024540D02*
X005136Y024540D01*
X005136Y024441D02*
X004482Y024441D01*
X004553Y024342D02*
X005202Y024342D01*
X005300Y024244D02*
X004594Y024244D01*
X004611Y024145D02*
X005205Y024145D01*
X005106Y024047D02*
X004611Y024047D01*
X004611Y023948D02*
X005008Y023948D01*
X004936Y023850D02*
X004611Y023850D01*
X004611Y023751D02*
X004936Y023751D01*
X004936Y023653D02*
X004611Y023653D01*
X004611Y023554D02*
X004936Y023554D01*
X004936Y023456D02*
X004611Y023456D01*
X004611Y023357D02*
X004936Y023357D01*
X005003Y023258D02*
X004611Y023258D01*
X004611Y023160D02*
X005101Y023160D01*
X005200Y023061D02*
X004611Y023061D01*
X004611Y022963D02*
X005298Y022963D01*
X005903Y022963D02*
X006821Y022963D01*
X006821Y023061D02*
X006002Y023061D01*
X006100Y023160D02*
X006821Y023160D01*
X006821Y023258D02*
X006199Y023258D01*
X006266Y023357D02*
X006821Y023357D01*
X006821Y023456D02*
X006266Y023456D01*
X006266Y023554D02*
X006821Y023554D01*
X006821Y023653D02*
X006266Y023653D01*
X006266Y023751D02*
X006821Y023751D01*
X006821Y023850D02*
X006266Y023850D01*
X006194Y023948D02*
X006821Y023948D01*
X006821Y024047D02*
X006095Y024047D01*
X005997Y024145D02*
X006821Y024145D01*
X006821Y024244D02*
X005901Y024244D01*
X006000Y024342D02*
X006821Y024342D01*
X006821Y024441D02*
X006066Y024441D01*
X006066Y024540D02*
X006821Y024540D01*
X006821Y024638D02*
X006066Y024638D01*
X006066Y024737D02*
X006821Y024737D01*
X006821Y024835D02*
X006024Y024835D01*
X005925Y024934D02*
X006821Y024934D01*
X007381Y023357D02*
X007458Y023357D01*
X007381Y023258D02*
X007551Y023258D01*
X007551Y023160D02*
X007381Y023160D01*
X007381Y023061D02*
X007569Y023061D01*
X007381Y022963D02*
X017786Y022963D01*
X017697Y022864D02*
X007381Y022864D01*
X007381Y022766D02*
X017656Y022766D01*
X017616Y022667D02*
X007381Y022667D01*
X007381Y022569D02*
X017601Y022569D01*
X017601Y022470D02*
X007381Y022470D01*
X007381Y022372D02*
X017601Y022372D01*
X017639Y022273D02*
X007381Y022273D01*
X007423Y022174D02*
X017680Y022174D01*
X017744Y022076D02*
X007522Y022076D01*
X007620Y021977D02*
X009898Y021977D01*
X009931Y022011D02*
X009691Y021771D01*
X009691Y021631D01*
X010071Y021631D01*
X010071Y022011D01*
X009931Y022011D01*
X010071Y021977D02*
X010131Y021977D01*
X010131Y022011D02*
X010271Y022011D01*
X010511Y021771D01*
X010511Y021631D01*
X010131Y021631D01*
X010131Y021571D01*
X010511Y021571D01*
X010511Y021431D01*
X010291Y021211D01*
X010353Y021211D01*
X010711Y020853D01*
X010711Y020348D01*
X010353Y019991D01*
X009848Y019991D01*
X009491Y020348D01*
X009491Y020853D01*
X009848Y021211D01*
X009911Y021211D01*
X009691Y021431D01*
X009691Y021571D01*
X010071Y021571D01*
X010071Y021631D01*
X010131Y021631D01*
X010131Y022011D01*
X010131Y021879D02*
X010071Y021879D01*
X010071Y021780D02*
X010131Y021780D01*
X010131Y021682D02*
X010071Y021682D01*
X010071Y021583D02*
X008014Y021583D01*
X008113Y021485D02*
X009691Y021485D01*
X009736Y021386D02*
X008211Y021386D01*
X008310Y021288D02*
X009834Y021288D01*
X009826Y021189D02*
X008408Y021189D01*
X008507Y021091D02*
X009728Y021091D01*
X009629Y020992D02*
X008606Y020992D01*
X008704Y020893D02*
X009531Y020893D01*
X009491Y020795D02*
X008803Y020795D01*
X008901Y020696D02*
X009491Y020696D01*
X009491Y020598D02*
X009000Y020598D01*
X009098Y020499D02*
X009491Y020499D01*
X009491Y020401D02*
X009197Y020401D01*
X009295Y020302D02*
X009537Y020302D01*
X009635Y020204D02*
X009394Y020204D01*
X009492Y020105D02*
X009734Y020105D01*
X009832Y020007D02*
X009591Y020007D01*
X009689Y019908D02*
X014398Y019908D01*
X014496Y019809D02*
X011288Y019809D01*
X011387Y019711D02*
X014595Y019711D01*
X014693Y019612D02*
X011485Y019612D01*
X011584Y019514D02*
X014792Y019514D01*
X014890Y019415D02*
X011682Y019415D01*
X011781Y019317D02*
X014989Y019317D01*
X015087Y019218D02*
X011879Y019218D01*
X011978Y019120D02*
X015186Y019120D01*
X015284Y019021D02*
X012076Y019021D01*
X012175Y018923D02*
X015383Y018923D01*
X015482Y018824D02*
X012273Y018824D01*
X012372Y018725D02*
X015580Y018725D01*
X015679Y018627D02*
X012471Y018627D01*
X012569Y018528D02*
X015777Y018528D01*
X015876Y018430D02*
X012668Y018430D01*
X012766Y018331D02*
X015974Y018331D01*
X016073Y018233D02*
X012865Y018233D01*
X012963Y018134D02*
X016171Y018134D01*
X016270Y018036D02*
X013062Y018036D01*
X013160Y017937D02*
X016368Y017937D01*
X016467Y017839D02*
X013259Y017839D01*
X013357Y017740D02*
X016566Y017740D01*
X016664Y017641D02*
X013456Y017641D01*
X013555Y017543D02*
X016763Y017543D01*
X016861Y017444D02*
X013653Y017444D01*
X013752Y017346D02*
X016960Y017346D01*
X017058Y017247D02*
X013850Y017247D01*
X013949Y017149D02*
X017157Y017149D01*
X017255Y017050D02*
X014047Y017050D01*
X014146Y016952D02*
X017321Y016952D01*
X017321Y016853D02*
X014244Y016853D01*
X014340Y016755D02*
X017321Y016755D01*
X017321Y016459D02*
X014381Y016459D01*
X014381Y016360D02*
X017321Y016360D01*
X017321Y016262D02*
X014381Y016262D01*
X014381Y016163D02*
X017321Y016163D01*
X017321Y016065D02*
X014381Y016065D01*
X014381Y015966D02*
X017326Y015966D01*
X017326Y015868D02*
X014381Y015868D01*
X014381Y015769D02*
X017326Y015769D01*
X017326Y015671D02*
X014381Y015671D01*
X014381Y015572D02*
X017326Y015572D01*
X017326Y015474D02*
X014381Y015474D01*
X014381Y015375D02*
X017326Y015375D01*
X017326Y015276D02*
X014381Y015276D01*
X014381Y015178D02*
X017326Y015178D01*
X017326Y015079D02*
X014381Y015079D01*
X014381Y014981D02*
X017326Y014981D01*
X017326Y014882D02*
X014381Y014882D01*
X014381Y014784D02*
X017326Y014784D01*
X017326Y014685D02*
X014381Y014685D01*
X014381Y014587D02*
X017326Y014587D01*
X017326Y014488D02*
X014361Y014488D01*
X014361Y014390D02*
X017326Y014390D01*
X017326Y014291D02*
X014361Y014291D01*
X014361Y014192D02*
X017326Y014192D01*
X017326Y014094D02*
X014361Y014094D01*
X014361Y013995D02*
X017326Y013995D01*
X017326Y013897D02*
X015314Y013897D01*
X015409Y013798D02*
X017326Y013798D01*
X017326Y013700D02*
X015449Y013700D01*
X015461Y013601D02*
X017326Y013601D01*
X017326Y013503D02*
X015450Y013503D01*
X015409Y013404D02*
X017326Y013404D01*
X017326Y013306D02*
X017201Y013306D01*
X017201Y013207D02*
X017326Y013207D01*
X017326Y013109D02*
X017201Y013109D01*
X017201Y013010D02*
X017326Y013010D01*
X017326Y012911D02*
X017201Y012911D01*
X017201Y012813D02*
X017326Y012813D01*
X017326Y012714D02*
X017201Y012714D01*
X017201Y012616D02*
X017326Y012616D01*
X017326Y012517D02*
X017201Y012517D01*
X017201Y012419D02*
X017326Y012419D01*
X017326Y012320D02*
X017201Y012320D01*
X017201Y012222D02*
X017326Y012222D01*
X017326Y012123D02*
X017201Y012123D01*
X017201Y012025D02*
X017326Y012025D01*
X017326Y011926D02*
X017201Y011926D01*
X017201Y011827D02*
X017326Y011827D01*
X017326Y011729D02*
X017201Y011729D01*
X017201Y011630D02*
X017326Y011630D01*
X017326Y011532D02*
X017201Y011532D01*
X017201Y011433D02*
X017326Y011433D01*
X017326Y011335D02*
X017201Y011335D01*
X017201Y011236D02*
X017326Y011236D01*
X017326Y011138D02*
X017201Y011138D01*
X017201Y011039D02*
X017326Y011039D01*
X017326Y010941D02*
X017201Y010941D01*
X017201Y010842D02*
X017305Y010842D01*
X017249Y010743D02*
X017201Y010743D01*
X017201Y010645D02*
X017221Y010645D01*
X017221Y010546D02*
X017201Y010546D01*
X017201Y010448D02*
X017253Y010448D01*
X017201Y010349D02*
X017315Y010349D01*
X017201Y010251D02*
X017453Y010251D01*
X017201Y010152D02*
X017841Y010152D01*
X017841Y010054D02*
X017201Y010054D01*
X017201Y009955D02*
X017841Y009955D01*
X017841Y009857D02*
X017201Y009857D01*
X017201Y009758D02*
X017841Y009758D01*
X017841Y009659D02*
X017201Y009659D01*
X017201Y009561D02*
X017841Y009561D01*
X017841Y009462D02*
X017201Y009462D01*
X017201Y009364D02*
X017841Y009364D01*
X017841Y009265D02*
X017201Y009265D01*
X017201Y009167D02*
X017799Y009167D01*
X017701Y009068D02*
X017201Y009068D01*
X017201Y008970D02*
X017602Y008970D01*
X017503Y008871D02*
X017201Y008871D01*
X017164Y008773D02*
X017405Y008773D01*
X017306Y008674D02*
X015351Y008674D01*
X015351Y008576D02*
X017208Y008576D01*
X017109Y008477D02*
X015351Y008477D01*
X015351Y008378D02*
X017011Y008378D01*
X016912Y008280D02*
X015351Y008280D01*
X015351Y008181D02*
X016814Y008181D01*
X016715Y008083D02*
X015351Y008083D01*
X015351Y007984D02*
X016617Y007984D01*
X016518Y007886D02*
X015351Y007886D01*
X015413Y007787D02*
X016419Y007787D01*
X016173Y007689D02*
X015454Y007689D01*
X015461Y007590D02*
X016053Y007590D01*
X015998Y007492D02*
X015445Y007492D01*
X015402Y007393D02*
X015971Y007393D01*
X015971Y007294D02*
X015302Y007294D01*
X015333Y007196D02*
X014611Y007196D01*
X014573Y007294D02*
X014900Y007294D01*
X014799Y007393D02*
X014530Y007393D01*
X014431Y007492D02*
X014756Y007492D01*
X014741Y007590D02*
X014333Y007590D01*
X014234Y007689D02*
X014748Y007689D01*
X014784Y007787D02*
X014788Y007787D01*
X015101Y007601D02*
X015101Y013601D01*
X014741Y013601D02*
X014361Y013601D01*
X014361Y013503D02*
X014752Y013503D01*
X014793Y013404D02*
X014361Y013404D01*
X014361Y013700D02*
X014752Y013700D01*
X014793Y013798D02*
X014361Y013798D01*
X014361Y013897D02*
X014888Y013897D01*
X013841Y013897D02*
X012111Y013897D01*
X012111Y013995D02*
X013841Y013995D01*
X013841Y014094D02*
X012111Y014094D01*
X012111Y014192D02*
X013841Y014192D01*
X013841Y014291D02*
X012111Y014291D01*
X012111Y014390D02*
X013841Y014390D01*
X013841Y014488D02*
X012111Y014488D01*
X012111Y014587D02*
X013821Y014587D01*
X013821Y014685D02*
X012111Y014685D01*
X012111Y014784D02*
X013821Y014784D01*
X013821Y014882D02*
X012111Y014882D01*
X012111Y014981D02*
X013821Y014981D01*
X013821Y015079D02*
X012111Y015079D01*
X012111Y015178D02*
X013821Y015178D01*
X013821Y015276D02*
X012111Y015276D01*
X012111Y015375D02*
X013821Y015375D01*
X013821Y015474D02*
X012111Y015474D01*
X012111Y015572D02*
X013821Y015572D01*
X013821Y015671D02*
X012111Y015671D01*
X012111Y015769D02*
X013821Y015769D01*
X013821Y015868D02*
X012111Y015868D01*
X012111Y015966D02*
X013821Y015966D01*
X013821Y016065D02*
X012111Y016065D01*
X012118Y016163D02*
X012413Y016163D01*
X012582Y016163D02*
X012620Y016163D01*
X012620Y016126D02*
X012638Y016126D01*
X012712Y016137D01*
X012783Y016161D01*
X012850Y016195D01*
X012910Y016238D01*
X012963Y016291D01*
X013007Y016352D01*
X013041Y016418D01*
X013064Y016490D01*
X013076Y016563D01*
X013076Y016582D01*
X012620Y016582D01*
X012620Y016126D01*
X012620Y016262D02*
X012582Y016262D01*
X012582Y016360D02*
X012620Y016360D01*
X012620Y016459D02*
X012582Y016459D01*
X012582Y016558D02*
X012620Y016558D01*
X012620Y016620D02*
X013076Y016620D01*
X013076Y016638D01*
X013064Y016712D01*
X013041Y016783D01*
X013007Y016850D01*
X012963Y016910D01*
X012910Y016963D01*
X012850Y017007D01*
X012783Y017041D01*
X012712Y017064D01*
X012638Y017076D01*
X012620Y017076D01*
X012620Y016620D01*
X012620Y016656D02*
X012582Y016656D01*
X012582Y016755D02*
X012620Y016755D01*
X012620Y016853D02*
X012582Y016853D01*
X012582Y016952D02*
X012620Y016952D01*
X012620Y017050D02*
X012582Y017050D01*
X012447Y017050D02*
X012111Y017050D01*
X012111Y017149D02*
X013157Y017149D01*
X013058Y017247D02*
X012092Y017247D01*
X012051Y017346D02*
X012960Y017346D01*
X012861Y017444D02*
X011978Y017444D01*
X011880Y017543D02*
X012763Y017543D01*
X012664Y017641D02*
X011781Y017641D01*
X011683Y017740D02*
X012566Y017740D01*
X012467Y017839D02*
X011584Y017839D01*
X011486Y017937D02*
X012368Y017937D01*
X012270Y018036D02*
X011387Y018036D01*
X011289Y018134D02*
X012171Y018134D01*
X012073Y018233D02*
X011190Y018233D01*
X011091Y018331D02*
X011974Y018331D01*
X011876Y018430D02*
X010993Y018430D01*
X010894Y018528D02*
X011777Y018528D01*
X011679Y018627D02*
X010796Y018627D01*
X010697Y018725D02*
X011580Y018725D01*
X011482Y018824D02*
X010599Y018824D01*
X010533Y018890D02*
X010533Y018890D01*
X010500Y018923D02*
X011383Y018923D01*
X011284Y019021D02*
X010402Y019021D01*
X010989Y019317D02*
X004611Y019317D01*
X004611Y019415D02*
X009390Y019415D01*
X009292Y019514D02*
X004611Y019514D01*
X004611Y019612D02*
X009193Y019612D01*
X009095Y019711D02*
X004611Y019711D01*
X004611Y019809D02*
X008996Y019809D01*
X008898Y019908D02*
X004611Y019908D01*
X004611Y020007D02*
X008799Y020007D01*
X008701Y020105D02*
X004611Y020105D01*
X004611Y020204D02*
X008602Y020204D01*
X008503Y020302D02*
X004611Y020302D01*
X004611Y020401D02*
X008405Y020401D01*
X008306Y020499D02*
X004611Y020499D01*
X004611Y020598D02*
X008208Y020598D01*
X008109Y020696D02*
X004611Y020696D01*
X004611Y020795D02*
X008011Y020795D01*
X007912Y020893D02*
X004611Y020893D01*
X004611Y020992D02*
X007814Y020992D01*
X007715Y021091D02*
X004611Y021091D01*
X004611Y021189D02*
X007617Y021189D01*
X007518Y021288D02*
X004611Y021288D01*
X004611Y021386D02*
X007419Y021386D01*
X007321Y021485D02*
X004611Y021485D01*
X004611Y021583D02*
X007222Y021583D01*
X007124Y021682D02*
X004611Y021682D01*
X004611Y021780D02*
X007025Y021780D01*
X006927Y021879D02*
X004611Y021879D01*
X004611Y021977D02*
X006849Y021977D01*
X006821Y022076D02*
X004611Y022076D01*
X004611Y022174D02*
X006821Y022174D01*
X006821Y022273D02*
X004611Y022273D01*
X004611Y022372D02*
X006821Y022372D01*
X006821Y022470D02*
X004611Y022470D01*
X004611Y022569D02*
X006821Y022569D01*
X006821Y022667D02*
X004611Y022667D01*
X004611Y022766D02*
X006821Y022766D01*
X006821Y022864D02*
X004611Y022864D01*
X003591Y023653D02*
X002348Y023653D01*
X002325Y023751D02*
X003591Y023751D01*
X003591Y023850D02*
X002276Y023850D01*
X002188Y023948D02*
X003532Y023948D01*
X003434Y024047D02*
X002262Y024047D01*
X001751Y027200D02*
X000601Y027200D01*
X000601Y027299D02*
X001652Y027299D01*
X001554Y027397D02*
X000601Y027397D01*
X000601Y027496D02*
X001455Y027496D01*
X001357Y027594D02*
X000601Y027594D01*
X000601Y027693D02*
X001343Y027693D01*
X001343Y027791D02*
X000601Y027791D01*
X000601Y027890D02*
X001343Y027890D01*
X001343Y027989D02*
X000601Y027989D01*
X000601Y028087D02*
X001343Y028087D01*
X001343Y028186D02*
X000601Y028186D01*
X000601Y028284D02*
X001412Y028284D01*
X001510Y028383D02*
X000601Y028383D01*
X000601Y028481D02*
X001609Y028481D01*
X001707Y028580D02*
X000601Y028580D01*
X002447Y028580D02*
X009707Y028580D01*
X010447Y028580D02*
X014977Y028580D01*
X014914Y028481D02*
X010545Y028481D01*
X010644Y028383D02*
X012746Y028383D01*
X012809Y028446D02*
X012496Y028133D01*
X012496Y027962D01*
X012980Y027962D01*
X012980Y028446D01*
X012809Y028446D01*
X012980Y028383D02*
X013080Y028383D01*
X013080Y028446D02*
X013251Y028446D01*
X013564Y028133D01*
X013564Y027962D01*
X013080Y027962D01*
X012980Y027962D01*
X012980Y027862D01*
X012496Y027862D01*
X012496Y027691D01*
X012809Y027378D01*
X012980Y027378D01*
X012980Y027862D01*
X013080Y027862D01*
X013080Y027962D01*
X013080Y028446D01*
X013080Y028284D02*
X012980Y028284D01*
X012980Y028186D02*
X013080Y028186D01*
X013080Y028087D02*
X012980Y028087D01*
X012980Y027989D02*
X013080Y027989D01*
X013080Y027890D02*
X014844Y027890D01*
X014821Y027989D02*
X013564Y027989D01*
X013564Y028087D02*
X014821Y028087D01*
X014821Y028186D02*
X013511Y028186D01*
X013412Y028284D02*
X014833Y028284D01*
X014873Y028383D02*
X013314Y028383D01*
X013080Y027862D02*
X013564Y027862D01*
X013564Y027691D01*
X013251Y027378D01*
X013080Y027378D01*
X013080Y027862D01*
X013080Y027791D02*
X012980Y027791D01*
X012980Y027693D02*
X013080Y027693D01*
X013080Y027594D02*
X012980Y027594D01*
X012980Y027496D02*
X013080Y027496D01*
X013080Y027397D02*
X012980Y027397D01*
X012789Y027397D02*
X010600Y027397D01*
X010502Y027299D02*
X017652Y027299D01*
X017554Y027397D02*
X015941Y027397D01*
X016099Y027496D02*
X017455Y027496D01*
X017357Y027594D02*
X016197Y027594D01*
X016276Y027693D02*
X017343Y027693D01*
X017343Y027791D02*
X016317Y027791D01*
X016358Y027890D02*
X017343Y027890D01*
X017343Y027989D02*
X016381Y027989D01*
X016381Y028087D02*
X017343Y028087D01*
X017343Y028186D02*
X016381Y028186D01*
X016369Y028284D02*
X017412Y028284D01*
X017510Y028383D02*
X016328Y028383D01*
X016287Y028481D02*
X017609Y028481D01*
X017707Y028580D02*
X016225Y028580D01*
X015103Y027496D02*
X013369Y027496D01*
X013467Y027594D02*
X015004Y027594D01*
X014925Y027693D02*
X013564Y027693D01*
X013564Y027791D02*
X014885Y027791D01*
X015261Y027397D02*
X013270Y027397D01*
X012691Y027496D02*
X010699Y027496D01*
X010798Y027594D02*
X012592Y027594D01*
X012496Y027693D02*
X010811Y027693D01*
X010811Y027791D02*
X012496Y027791D01*
X012496Y027989D02*
X010811Y027989D01*
X010811Y028087D02*
X012496Y028087D01*
X012549Y028186D02*
X010811Y028186D01*
X010743Y028284D02*
X012647Y028284D01*
X012980Y027890D02*
X010811Y027890D01*
X010403Y027200D02*
X017751Y027200D01*
X018808Y028284D02*
X020647Y028284D01*
X020549Y028186D02*
X018907Y028186D01*
X019005Y028087D02*
X020496Y028087D01*
X020496Y028133D02*
X020496Y027962D01*
X020980Y027962D01*
X020980Y028446D01*
X020809Y028446D01*
X020496Y028133D01*
X020496Y027989D02*
X019104Y027989D01*
X019202Y027890D02*
X020980Y027890D01*
X020980Y027862D02*
X020496Y027862D01*
X020496Y027691D01*
X020809Y027378D01*
X020980Y027378D01*
X020980Y027862D01*
X020980Y027962D01*
X021080Y027962D01*
X021080Y028446D01*
X021251Y028446D01*
X021564Y028133D01*
X021564Y027962D01*
X021080Y027962D01*
X021080Y027862D01*
X021564Y027862D01*
X021564Y027691D01*
X021251Y027378D01*
X021080Y027378D01*
X021080Y027862D01*
X020980Y027862D01*
X020980Y027791D02*
X021080Y027791D01*
X021080Y027693D02*
X020980Y027693D01*
X020980Y027594D02*
X021080Y027594D01*
X021080Y027496D02*
X020980Y027496D01*
X020980Y027397D02*
X021080Y027397D01*
X021270Y027397D02*
X024054Y027397D01*
X024152Y027299D02*
X019794Y027299D01*
X019892Y027200D02*
X024251Y027200D01*
X024273Y027178D02*
X024881Y027178D01*
X025311Y027608D01*
X025311Y028216D01*
X024926Y028601D01*
X035601Y028601D01*
X035601Y027282D01*
X035495Y027326D01*
X035189Y027326D01*
X035135Y027458D01*
X034635Y027958D01*
X034458Y028135D01*
X034226Y028231D01*
X032475Y028231D01*
X032244Y028135D01*
X032067Y027958D01*
X032057Y027933D01*
X031849Y027726D01*
X029005Y027726D01*
X028976Y027696D01*
X028976Y024505D01*
X029005Y024476D01*
X031481Y024476D01*
X031481Y022858D01*
X030844Y022221D01*
X024372Y022221D01*
X023135Y023458D01*
X022958Y023635D01*
X022726Y023731D01*
X021231Y023731D01*
X021231Y025475D01*
X021231Y025726D01*
X021135Y025958D01*
X018647Y028446D01*
X018534Y028492D01*
X018426Y028601D01*
X024228Y028601D01*
X023843Y028216D01*
X023843Y027608D01*
X024273Y027178D01*
X023955Y027496D02*
X021369Y027496D01*
X021467Y027594D02*
X023857Y027594D01*
X023843Y027693D02*
X021564Y027693D01*
X021564Y027791D02*
X023843Y027791D01*
X023843Y027890D02*
X021080Y027890D01*
X021080Y027989D02*
X020980Y027989D01*
X020980Y028087D02*
X021080Y028087D01*
X021080Y028186D02*
X020980Y028186D01*
X020980Y028284D02*
X021080Y028284D01*
X021080Y028383D02*
X020980Y028383D01*
X020746Y028383D02*
X018710Y028383D01*
X018561Y028481D02*
X024109Y028481D01*
X024010Y028383D02*
X021314Y028383D01*
X021412Y028284D02*
X023912Y028284D01*
X023843Y028186D02*
X021511Y028186D01*
X021564Y028087D02*
X023843Y028087D01*
X023843Y027989D02*
X021564Y027989D01*
X020789Y027397D02*
X019695Y027397D01*
X019597Y027496D02*
X020691Y027496D01*
X020592Y027594D02*
X019498Y027594D01*
X019400Y027693D02*
X020496Y027693D01*
X020496Y027791D02*
X019301Y027791D01*
X018447Y028580D02*
X024207Y028580D01*
X024947Y028580D02*
X035601Y028580D01*
X035601Y028481D02*
X025045Y028481D01*
X025144Y028383D02*
X027246Y028383D01*
X027309Y028446D02*
X026996Y028133D01*
X026996Y027962D01*
X027480Y027962D01*
X027480Y028446D01*
X027309Y028446D01*
X027480Y028383D02*
X027580Y028383D01*
X027580Y028446D02*
X027751Y028446D01*
X028064Y028133D01*
X028064Y027962D01*
X027580Y027962D01*
X027480Y027962D01*
X027480Y027862D01*
X026996Y027862D01*
X026996Y027691D01*
X027309Y027378D01*
X027480Y027378D01*
X027480Y027862D01*
X027580Y027862D01*
X027580Y027962D01*
X027580Y028446D01*
X027580Y028284D02*
X027480Y028284D01*
X027480Y028186D02*
X027580Y028186D01*
X027580Y028087D02*
X027480Y028087D01*
X027480Y027989D02*
X027580Y027989D01*
X027580Y027890D02*
X032013Y027890D01*
X032098Y027989D02*
X028064Y027989D01*
X028064Y028087D02*
X032196Y028087D01*
X032367Y028186D02*
X028011Y028186D01*
X027912Y028284D02*
X035601Y028284D01*
X035601Y028186D02*
X034335Y028186D01*
X034505Y028087D02*
X035601Y028087D01*
X035601Y027989D02*
X034604Y027989D01*
X034702Y027890D02*
X035601Y027890D01*
X035601Y027791D02*
X034801Y027791D01*
X034900Y027693D02*
X035601Y027693D01*
X035601Y027594D02*
X034998Y027594D01*
X035097Y027496D02*
X035601Y027496D01*
X035601Y027397D02*
X035160Y027397D01*
X035560Y027299D02*
X035601Y027299D01*
X035601Y028383D02*
X027814Y028383D01*
X027580Y027862D02*
X028064Y027862D01*
X028064Y027691D01*
X027751Y027378D01*
X027580Y027378D01*
X027580Y027862D01*
X027580Y027791D02*
X027480Y027791D01*
X027480Y027693D02*
X027580Y027693D01*
X027580Y027594D02*
X027480Y027594D01*
X027480Y027496D02*
X027580Y027496D01*
X027580Y027397D02*
X027480Y027397D01*
X027289Y027397D02*
X025100Y027397D01*
X025002Y027299D02*
X028976Y027299D01*
X028976Y027397D02*
X027770Y027397D01*
X027869Y027496D02*
X028976Y027496D01*
X028976Y027594D02*
X027967Y027594D01*
X028064Y027693D02*
X028976Y027693D01*
X028976Y027200D02*
X024903Y027200D01*
X025199Y027496D02*
X027191Y027496D01*
X027092Y027594D02*
X025298Y027594D01*
X025311Y027693D02*
X026996Y027693D01*
X026996Y027791D02*
X025311Y027791D01*
X025311Y027890D02*
X027480Y027890D01*
X026996Y027989D02*
X025311Y027989D01*
X025311Y028087D02*
X026996Y028087D01*
X027049Y028186D02*
X025311Y028186D01*
X025243Y028284D02*
X027147Y028284D01*
X028064Y027791D02*
X031915Y027791D01*
X034426Y025821D02*
X035601Y025821D01*
X035600Y025919D02*
X035601Y025919D01*
X034651Y025722D02*
X034551Y025722D01*
X034551Y025624D02*
X034651Y025624D01*
X034651Y025525D02*
X034551Y025525D01*
X034551Y025426D02*
X034651Y025426D01*
X034651Y025328D02*
X034551Y025328D01*
X034551Y025229D02*
X034252Y025229D01*
X034080Y025328D02*
X034014Y025328D01*
X034551Y025131D02*
X034651Y025131D01*
X034651Y025032D02*
X034551Y025032D01*
X034551Y024934D02*
X034651Y024934D01*
X034651Y024835D02*
X034551Y024835D01*
X034576Y024737D02*
X034651Y024737D01*
X034576Y024638D02*
X035601Y024638D01*
X035601Y024540D02*
X034576Y024540D01*
X034565Y024441D02*
X034651Y024441D01*
X034651Y024342D02*
X034551Y024342D01*
X034551Y024244D02*
X034651Y024244D01*
X034651Y024145D02*
X034551Y024145D01*
X034551Y024047D02*
X034651Y024047D01*
X034551Y023948D02*
X034146Y023948D01*
X034077Y023871D02*
X034089Y023798D01*
X034114Y023719D01*
X034152Y023646D01*
X034200Y023579D01*
X034259Y023520D01*
X034326Y023472D01*
X034399Y023434D01*
X034478Y023409D01*
X034551Y023397D01*
X034551Y023871D01*
X034077Y023871D01*
X034080Y023850D02*
X032721Y023850D01*
X032721Y023948D02*
X032806Y023948D01*
X032721Y023751D02*
X034104Y023751D01*
X034148Y023653D02*
X032721Y023653D01*
X032721Y023554D02*
X034225Y023554D01*
X034357Y023456D02*
X032721Y023456D01*
X032721Y023357D02*
X035601Y023357D01*
X035601Y023258D02*
X032721Y023258D01*
X032721Y023160D02*
X035601Y023160D01*
X035601Y023061D02*
X032721Y023061D01*
X032721Y022963D02*
X035601Y022963D01*
X035601Y022864D02*
X032721Y022864D01*
X032721Y022766D02*
X035601Y022766D01*
X035601Y022667D02*
X032721Y022667D01*
X032721Y022569D02*
X035601Y022569D01*
X035601Y022470D02*
X032721Y022470D01*
X032721Y022372D02*
X035601Y022372D01*
X035601Y022273D02*
X032805Y022273D01*
X032904Y022174D02*
X035601Y022174D01*
X035601Y022076D02*
X033002Y022076D01*
X033101Y021977D02*
X035601Y021977D01*
X035601Y021879D02*
X033199Y021879D01*
X033298Y021780D02*
X035601Y021780D01*
X035601Y021682D02*
X033460Y021682D01*
X033559Y021583D02*
X035601Y021583D01*
X035601Y021485D02*
X033657Y021485D01*
X033756Y021386D02*
X035601Y021386D01*
X035601Y021288D02*
X033766Y021288D01*
X033766Y021189D02*
X035601Y021189D01*
X035601Y021091D02*
X033766Y021091D01*
X033766Y020992D02*
X035601Y020992D01*
X035601Y020893D02*
X033766Y020893D01*
X033735Y020795D02*
X035601Y020795D01*
X035601Y020696D02*
X033637Y020696D01*
X033538Y020598D02*
X035601Y020598D01*
X035601Y020499D02*
X033440Y020499D01*
X033458Y020401D02*
X035601Y020401D01*
X035601Y020302D02*
X033557Y020302D01*
X033566Y020204D02*
X035601Y020204D01*
X035601Y020105D02*
X033131Y020105D01*
X033131Y020071D02*
X033566Y020071D01*
X033566Y019908D01*
X033293Y019636D01*
X033131Y019636D01*
X033131Y020071D01*
X033071Y020071D02*
X033071Y019636D01*
X032908Y019636D01*
X032636Y019908D01*
X030971Y019908D01*
X030967Y019913D02*
X030913Y019967D01*
X030852Y020011D01*
X030785Y020046D01*
X030713Y020069D01*
X030651Y020079D01*
X030651Y019651D01*
X030551Y019651D01*
X030551Y020079D01*
X030488Y020069D01*
X030416Y020046D01*
X030349Y020011D01*
X030288Y019967D01*
X030235Y019913D01*
X030190Y019852D01*
X030156Y019785D01*
X030133Y019713D01*
X030123Y019651D01*
X030551Y019651D01*
X030551Y019551D01*
X030123Y019551D01*
X030133Y019488D01*
X030156Y019416D01*
X030190Y019349D01*
X030235Y019288D01*
X030288Y019235D01*
X030349Y019190D01*
X030416Y019156D01*
X030488Y019133D01*
X030551Y019123D01*
X030551Y019551D01*
X030651Y019551D01*
X030651Y019651D01*
X031079Y019651D01*
X031069Y019713D01*
X031046Y019785D01*
X031011Y019852D01*
X030967Y019913D01*
X031033Y019809D02*
X032735Y019809D01*
X032833Y019711D02*
X031069Y019711D01*
X031079Y019551D02*
X030651Y019551D01*
X030651Y019123D01*
X030713Y019133D01*
X030785Y019156D01*
X030852Y019190D01*
X030913Y019235D01*
X030967Y019288D01*
X031011Y019349D01*
X031046Y019416D01*
X031069Y019488D01*
X031079Y019551D01*
X031073Y019514D02*
X035601Y019514D01*
X035601Y019612D02*
X030651Y019612D01*
X030651Y019514D02*
X030551Y019514D01*
X030551Y019612D02*
X027211Y019612D01*
X027211Y019514D02*
X030129Y019514D01*
X030157Y019415D02*
X027211Y019415D01*
X027179Y019317D02*
X030214Y019317D01*
X030311Y019218D02*
X027081Y019218D01*
X026982Y019120D02*
X035601Y019120D01*
X035601Y019218D02*
X030891Y019218D01*
X030988Y019317D02*
X035601Y019317D01*
X035601Y019415D02*
X031045Y019415D01*
X030651Y019415D02*
X030551Y019415D01*
X030551Y019317D02*
X030651Y019317D01*
X030651Y019218D02*
X030551Y019218D01*
X030551Y019711D02*
X030651Y019711D01*
X030651Y019809D02*
X030551Y019809D01*
X030551Y019908D02*
X030651Y019908D01*
X030651Y020007D02*
X030551Y020007D01*
X030343Y020007D02*
X027058Y020007D01*
X026959Y020105D02*
X033071Y020105D01*
X033071Y020071D02*
X032636Y020071D01*
X032636Y019908D01*
X032636Y020007D02*
X030859Y020007D01*
X030231Y019908D02*
X027156Y019908D01*
X027211Y019809D02*
X030168Y019809D01*
X030132Y019711D02*
X027211Y019711D01*
X026861Y020204D02*
X032636Y020204D01*
X032645Y020302D02*
X026953Y020302D01*
X027051Y020401D02*
X032743Y020401D01*
X032762Y020499D02*
X027061Y020499D01*
X027061Y020598D02*
X032663Y020598D01*
X032565Y020696D02*
X027061Y020696D01*
X027057Y020795D02*
X032466Y020795D01*
X032431Y020893D02*
X026959Y020893D01*
X026243Y020893D02*
X022959Y020893D01*
X022876Y020992D02*
X023924Y020992D01*
X023720Y021091D02*
X022876Y021091D01*
X022876Y021189D02*
X023622Y021189D01*
X023523Y021288D02*
X022876Y021288D01*
X022876Y021386D02*
X023424Y021386D01*
X023326Y021485D02*
X022876Y021485D01*
X022876Y021583D02*
X023227Y021583D01*
X023129Y021682D02*
X022865Y021682D01*
X022810Y021780D02*
X023030Y021780D01*
X022932Y021879D02*
X022223Y021879D01*
X022125Y021977D02*
X022833Y021977D01*
X022735Y022076D02*
X021561Y022076D01*
X021561Y022174D02*
X022636Y022174D01*
X022538Y022273D02*
X021561Y022273D01*
X021480Y022372D02*
X022439Y022372D01*
X022340Y022470D02*
X021382Y022470D01*
X021561Y021977D02*
X021577Y021977D01*
X021391Y021682D02*
X021332Y021682D01*
X021391Y021583D02*
X020346Y021583D01*
X020280Y021485D02*
X020905Y021485D01*
X020931Y021511D02*
X020691Y021271D01*
X020691Y021131D01*
X021071Y021131D01*
X021071Y021511D01*
X020931Y021511D01*
X021071Y021485D02*
X021131Y021485D01*
X021131Y021511D02*
X021131Y021131D01*
X021071Y021131D01*
X021071Y021071D01*
X020691Y021071D01*
X020691Y020931D01*
X020931Y020691D01*
X021071Y020691D01*
X021071Y021071D01*
X021131Y021071D01*
X021131Y021131D01*
X021511Y021131D01*
X021511Y021271D01*
X021271Y021511D01*
X021131Y021511D01*
X021131Y021386D02*
X021071Y021386D01*
X021071Y021288D02*
X021131Y021288D01*
X021131Y021189D02*
X021071Y021189D01*
X021071Y021091D02*
X019981Y021091D01*
X020083Y021189D02*
X020691Y021189D01*
X020708Y021288D02*
X020153Y021288D01*
X020215Y021386D02*
X020806Y021386D01*
X020869Y021682D02*
X020412Y021682D01*
X020478Y021780D02*
X020771Y021780D01*
X020672Y021879D02*
X020543Y021879D01*
X020609Y021977D02*
X020641Y021977D01*
X021297Y021485D02*
X021391Y021485D01*
X021395Y021386D02*
X021415Y021386D01*
X021494Y021288D02*
X021513Y021288D01*
X021511Y021189D02*
X021612Y021189D01*
X021511Y021071D02*
X021511Y020931D01*
X021271Y020691D01*
X021131Y020691D01*
X021131Y021071D01*
X021511Y021071D01*
X021511Y020992D02*
X022326Y020992D01*
X022326Y021091D02*
X021131Y021091D01*
X021131Y020992D02*
X021071Y020992D01*
X021071Y020893D02*
X021131Y020893D01*
X021131Y020795D02*
X021071Y020795D01*
X021071Y020696D02*
X021131Y020696D01*
X021276Y020696D02*
X022141Y020696D01*
X022141Y020598D02*
X019450Y020598D01*
X019450Y020696D02*
X020925Y020696D01*
X020827Y020795D02*
X019450Y020795D01*
X019415Y020893D02*
X020728Y020893D01*
X020691Y020992D02*
X019777Y020992D01*
X019409Y020499D02*
X022141Y020499D01*
X022150Y020401D02*
X019365Y020401D01*
X019267Y020302D02*
X022249Y020302D01*
X022347Y020204D02*
X019091Y020204D01*
X018111Y020204D02*
X014894Y020204D01*
X014795Y020302D02*
X017935Y020302D01*
X017836Y020401D02*
X014697Y020401D01*
X014598Y020499D02*
X017792Y020499D01*
X017752Y020598D02*
X014561Y020598D01*
X014561Y020696D02*
X017751Y020696D01*
X017751Y020795D02*
X014557Y020795D01*
X014459Y020893D02*
X017787Y020893D01*
X017828Y020992D02*
X014376Y020992D01*
X014376Y021091D02*
X017832Y021091D01*
X017733Y021189D02*
X014376Y021189D01*
X014438Y021288D02*
X017675Y021288D01*
X017634Y021386D02*
X014537Y021386D01*
X014561Y021485D02*
X017601Y021485D01*
X017601Y021583D02*
X014561Y021583D01*
X014561Y021682D02*
X017601Y021682D01*
X017620Y021780D02*
X014561Y021780D01*
X014473Y021879D02*
X017661Y021879D01*
X017702Y021977D02*
X014375Y021977D01*
X013827Y021977D02*
X010304Y021977D01*
X010402Y021879D02*
X013728Y021879D01*
X013641Y021780D02*
X010501Y021780D01*
X010511Y021682D02*
X013641Y021682D01*
X013641Y021583D02*
X010131Y021583D01*
X010367Y021288D02*
X013763Y021288D01*
X013826Y021189D02*
X010375Y021189D01*
X010474Y021091D02*
X013826Y021091D01*
X013826Y020992D02*
X010572Y020992D01*
X010671Y020893D02*
X013743Y020893D01*
X013644Y020795D02*
X010711Y020795D01*
X010711Y020696D02*
X013641Y020696D01*
X013641Y020598D02*
X010711Y020598D01*
X010711Y020499D02*
X013641Y020499D01*
X013650Y020401D02*
X010711Y020401D01*
X010665Y020302D02*
X013749Y020302D01*
X013847Y020204D02*
X010566Y020204D01*
X010468Y020105D02*
X014201Y020105D01*
X014299Y020007D02*
X010369Y020007D01*
X011087Y019218D02*
X004611Y019218D01*
X004611Y019120D02*
X011186Y019120D01*
X012186Y016952D02*
X012280Y016952D01*
X012755Y017050D02*
X013255Y017050D01*
X013354Y016952D02*
X012922Y016952D01*
X013005Y016853D02*
X013452Y016853D01*
X013551Y016755D02*
X013050Y016755D01*
X013073Y016656D02*
X013650Y016656D01*
X013748Y016558D02*
X013075Y016558D01*
X013054Y016459D02*
X013821Y016459D01*
X013821Y016360D02*
X013011Y016360D01*
X012934Y016262D02*
X013821Y016262D01*
X013821Y016163D02*
X012789Y016163D01*
X012268Y016262D02*
X012191Y016262D01*
X012111Y013798D02*
X013841Y013798D01*
X013841Y013700D02*
X012111Y013700D01*
X012111Y013601D02*
X013841Y013601D01*
X013841Y013503D02*
X012111Y013503D01*
X012111Y013404D02*
X013841Y013404D01*
X013001Y013306D02*
X012111Y013306D01*
X012117Y013207D02*
X012380Y013207D01*
X012274Y013109D02*
X012158Y013109D01*
X012199Y013010D02*
X012218Y013010D01*
X012571Y013010D02*
X012631Y013010D01*
X012631Y013109D02*
X012571Y013109D01*
X012571Y013207D02*
X012631Y013207D01*
X012822Y013207D02*
X013001Y013207D01*
X013001Y013109D02*
X012928Y013109D01*
X012983Y013010D02*
X013001Y013010D01*
X012631Y012911D02*
X012571Y012911D01*
X012571Y012813D02*
X012631Y012813D01*
X012631Y012714D02*
X012571Y012714D01*
X012571Y012571D02*
X012631Y012571D01*
X012631Y011931D01*
X012633Y011931D01*
X012697Y011941D01*
X012758Y011961D01*
X012816Y011990D01*
X012868Y012028D01*
X012914Y012074D01*
X012951Y012126D01*
X012981Y012183D01*
X013001Y012245D01*
X013001Y012246D01*
X013001Y011901D01*
X012023Y011901D01*
X012118Y011995D01*
X012210Y012217D01*
X012221Y012183D01*
X012250Y012126D01*
X012288Y012074D01*
X012334Y012028D01*
X012386Y011990D01*
X012443Y011961D01*
X012505Y011941D01*
X012568Y011931D01*
X012571Y011931D01*
X012571Y012571D01*
X012571Y012517D02*
X012631Y012517D01*
X012631Y012419D02*
X012571Y012419D01*
X012571Y012320D02*
X012631Y012320D01*
X012631Y012222D02*
X012571Y012222D01*
X012571Y012123D02*
X012631Y012123D01*
X012631Y012025D02*
X012571Y012025D01*
X012338Y012025D02*
X012130Y012025D01*
X012171Y012123D02*
X012252Y012123D01*
X012049Y011926D02*
X013001Y011926D01*
X013001Y012025D02*
X012863Y012025D01*
X012949Y012123D02*
X013001Y012123D01*
X012993Y012222D02*
X013001Y012222D01*
X013841Y008674D02*
X003890Y008674D01*
X003311Y008674D02*
X002890Y008674D01*
X003088Y008773D02*
X002135Y008773D01*
X002111Y008674D02*
X002311Y008674D01*
X002211Y008871D02*
X003051Y008871D01*
X003051Y008970D02*
X002211Y008970D01*
X002211Y009068D02*
X003051Y009068D01*
X003051Y009167D02*
X002211Y009167D01*
X002211Y009265D02*
X003051Y009265D01*
X003051Y009364D02*
X002200Y009364D01*
X002169Y009462D02*
X003051Y009462D01*
X003051Y009561D02*
X002268Y009561D01*
X002367Y009659D02*
X003051Y009659D01*
X003051Y009758D02*
X002465Y009758D01*
X002564Y009857D02*
X003051Y009857D01*
X003051Y009955D02*
X002662Y009955D01*
X002761Y010054D02*
X003051Y010054D01*
X003051Y010152D02*
X002859Y010152D01*
X002958Y010251D02*
X003051Y010251D01*
X003038Y010349D02*
X003051Y010349D01*
X001337Y012714D02*
X000601Y012714D01*
X000601Y012813D02*
X001238Y012813D01*
X001141Y012911D02*
X000601Y012911D01*
X000601Y013010D02*
X001141Y013010D01*
X001141Y013109D02*
X000601Y013109D01*
X000601Y013207D02*
X001141Y013207D01*
X001155Y013306D02*
X000601Y013306D01*
X000601Y013404D02*
X001254Y013404D01*
X001410Y017641D02*
X000601Y017641D01*
X000601Y017740D02*
X001311Y017740D01*
X001212Y017839D02*
X000601Y017839D01*
X000601Y017937D02*
X001141Y017937D01*
X001141Y018036D02*
X000601Y018036D01*
X000601Y018134D02*
X001141Y018134D01*
X001141Y018233D02*
X000601Y018233D01*
X000601Y018331D02*
X001181Y018331D01*
X001279Y018430D02*
X000601Y018430D01*
X000601Y018528D02*
X001378Y018528D01*
X002571Y019711D02*
X002631Y019711D01*
X002631Y019809D02*
X002571Y019809D01*
X002571Y019908D02*
X002631Y019908D01*
X002631Y020007D02*
X002571Y020007D01*
X007719Y021879D02*
X009799Y021879D01*
X009701Y021780D02*
X007817Y021780D01*
X007916Y021682D02*
X009691Y021682D01*
X010466Y021386D02*
X013665Y021386D01*
X013641Y021485D02*
X010511Y021485D01*
X011632Y023061D02*
X013569Y023061D01*
X013580Y023051D02*
X014238Y023051D01*
X014424Y023001D01*
X014714Y023001D01*
X014901Y023051D01*
X016600Y023051D01*
X016787Y023001D01*
X017076Y023001D01*
X017263Y023051D01*
X017621Y023051D01*
X017651Y023080D01*
X017651Y023264D01*
X017812Y023425D01*
X017956Y023676D01*
X018031Y023956D01*
X018031Y024246D01*
X017956Y024525D01*
X017812Y024776D01*
X017651Y024937D01*
X017651Y025121D01*
X017621Y025151D01*
X017263Y025151D01*
X017076Y025201D01*
X016787Y025201D01*
X016600Y025151D01*
X014901Y025151D01*
X014714Y025201D01*
X014424Y025201D01*
X014238Y025151D01*
X013580Y025151D01*
X013551Y025121D01*
X013551Y024537D01*
X013544Y024525D01*
X013469Y024246D01*
X013469Y023956D01*
X013544Y023676D01*
X013551Y023665D01*
X013551Y023080D01*
X013580Y023051D01*
X013551Y023160D02*
X011651Y023160D01*
X011651Y023258D02*
X013551Y023258D01*
X013551Y023357D02*
X011651Y023357D01*
X011651Y023456D02*
X013551Y023456D01*
X013551Y023554D02*
X011651Y023554D01*
X011651Y023653D02*
X013551Y023653D01*
X013524Y023751D02*
X011677Y023751D01*
X011704Y023850D02*
X013498Y023850D01*
X013471Y023948D02*
X011730Y023948D01*
X011732Y024047D02*
X013469Y024047D01*
X013469Y024145D02*
X011732Y024145D01*
X011732Y024244D02*
X013469Y024244D01*
X013495Y024342D02*
X011706Y024342D01*
X011680Y024441D02*
X013522Y024441D01*
X013551Y024540D02*
X011651Y024540D01*
X011651Y024638D02*
X013551Y024638D01*
X013551Y024737D02*
X011651Y024737D01*
X011651Y024835D02*
X013551Y024835D01*
X013551Y024934D02*
X011651Y024934D01*
X011651Y025032D02*
X013551Y025032D01*
X013560Y025131D02*
X011641Y025131D01*
X017641Y025131D02*
X019971Y025131D01*
X019971Y025032D02*
X017651Y025032D01*
X017654Y024934D02*
X019971Y024934D01*
X019971Y024835D02*
X017753Y024835D01*
X017835Y024737D02*
X019971Y024737D01*
X019971Y024638D02*
X017891Y024638D01*
X017948Y024540D02*
X019971Y024540D01*
X019971Y024441D02*
X017979Y024441D01*
X018006Y024342D02*
X019971Y024342D01*
X019971Y024244D02*
X018031Y024244D01*
X018031Y024145D02*
X019971Y024145D01*
X019971Y024047D02*
X018031Y024047D01*
X018029Y023948D02*
X019971Y023948D01*
X019971Y023850D02*
X018003Y023850D01*
X017977Y023751D02*
X019971Y023751D01*
X019971Y023653D02*
X017943Y023653D01*
X017886Y023554D02*
X019971Y023554D01*
X019971Y023456D02*
X017829Y023456D01*
X017743Y023357D02*
X019971Y023357D01*
X019949Y023258D02*
X017651Y023258D01*
X017651Y023160D02*
X018110Y023160D01*
X017885Y023061D02*
X017632Y023061D01*
X019092Y023160D02*
X019883Y023160D01*
X019817Y023061D02*
X019317Y023061D01*
X019415Y022963D02*
X019752Y022963D01*
X019686Y022864D02*
X019504Y022864D01*
X019545Y022766D02*
X019620Y022766D01*
X021231Y023751D02*
X025936Y023751D01*
X025936Y023653D02*
X022915Y023653D01*
X023038Y023554D02*
X025936Y023554D01*
X025936Y023525D02*
X026302Y023159D01*
X026136Y022993D01*
X026136Y022831D01*
X026571Y022831D01*
X026571Y022771D01*
X026136Y022771D01*
X026136Y022608D01*
X026408Y022336D01*
X026571Y022336D01*
X026571Y022771D01*
X026631Y022771D01*
X026631Y022831D01*
X027066Y022831D01*
X027066Y022993D01*
X026900Y023159D01*
X027266Y023525D01*
X027266Y024076D01*
X026876Y024466D01*
X026325Y024466D01*
X025936Y024076D01*
X025936Y023525D01*
X026006Y023456D02*
X023137Y023456D01*
X023235Y023357D02*
X026104Y023357D01*
X026203Y023258D02*
X023334Y023258D01*
X023433Y023160D02*
X026301Y023160D01*
X026204Y023061D02*
X023531Y023061D01*
X023630Y022963D02*
X026136Y022963D01*
X026136Y022864D02*
X023728Y022864D01*
X023827Y022766D02*
X026136Y022766D01*
X026136Y022667D02*
X023925Y022667D01*
X024024Y022569D02*
X026175Y022569D01*
X026274Y022470D02*
X024122Y022470D01*
X024221Y022372D02*
X026372Y022372D01*
X026571Y022372D02*
X026631Y022372D01*
X026631Y022336D02*
X026793Y022336D01*
X027066Y022608D01*
X027066Y022771D01*
X026631Y022771D01*
X026631Y022336D01*
X026631Y022470D02*
X026571Y022470D01*
X026571Y022569D02*
X026631Y022569D01*
X026631Y022667D02*
X026571Y022667D01*
X026571Y022766D02*
X026631Y022766D01*
X026928Y022470D02*
X031093Y022470D01*
X030995Y022372D02*
X026829Y022372D01*
X027026Y022569D02*
X031192Y022569D01*
X031290Y022667D02*
X027066Y022667D01*
X027066Y022766D02*
X031389Y022766D01*
X031481Y022864D02*
X027066Y022864D01*
X027066Y022963D02*
X031481Y022963D01*
X031481Y023061D02*
X026998Y023061D01*
X026900Y023160D02*
X030292Y023160D01*
X030301Y023151D02*
X030495Y023071D01*
X030706Y023071D01*
X030901Y023151D01*
X031050Y023301D01*
X031131Y023495D01*
X031131Y023706D01*
X031050Y023901D01*
X030901Y024050D01*
X030706Y024131D01*
X030495Y024131D01*
X030301Y024050D01*
X030151Y023901D01*
X030071Y023706D01*
X030071Y023495D01*
X030151Y023301D01*
X030301Y023151D01*
X030194Y023258D02*
X026999Y023258D01*
X027097Y023357D02*
X030128Y023357D01*
X030087Y023456D02*
X027196Y023456D01*
X027266Y023554D02*
X030071Y023554D01*
X030071Y023653D02*
X027266Y023653D01*
X027266Y023751D02*
X030089Y023751D01*
X030130Y023850D02*
X027266Y023850D01*
X027266Y023948D02*
X030199Y023948D01*
X030297Y024047D02*
X027266Y024047D01*
X027197Y024145D02*
X031481Y024145D01*
X031481Y024047D02*
X030904Y024047D01*
X031003Y023948D02*
X031481Y023948D01*
X031481Y023850D02*
X031071Y023850D01*
X031112Y023751D02*
X031481Y023751D01*
X031481Y023653D02*
X031131Y023653D01*
X031131Y023554D02*
X031481Y023554D01*
X031481Y023456D02*
X031114Y023456D01*
X031073Y023357D02*
X031481Y023357D01*
X031481Y023258D02*
X031008Y023258D01*
X030909Y023160D02*
X031481Y023160D01*
X030896Y022273D02*
X024319Y022273D01*
X023057Y020795D02*
X026144Y020795D01*
X026141Y020696D02*
X023061Y020696D01*
X023061Y020598D02*
X026141Y020598D01*
X026141Y020499D02*
X023061Y020499D01*
X023051Y020401D02*
X026150Y020401D01*
X026249Y020302D02*
X022953Y020302D01*
X022854Y020204D02*
X026341Y020204D01*
X026242Y020105D02*
X014992Y020105D01*
X015091Y020007D02*
X022356Y020007D01*
X022410Y020061D02*
X022141Y019791D01*
X022141Y019410D01*
X022410Y019141D01*
X022791Y019141D01*
X023061Y019410D01*
X023061Y019791D01*
X022791Y020061D01*
X022410Y020061D01*
X022257Y019908D02*
X015189Y019908D01*
X015288Y019809D02*
X022159Y019809D01*
X022141Y019711D02*
X015387Y019711D01*
X015485Y019612D02*
X022141Y019612D01*
X022141Y019514D02*
X015584Y019514D01*
X015682Y019415D02*
X022141Y019415D01*
X022234Y019317D02*
X015781Y019317D01*
X015879Y019218D02*
X022333Y019218D01*
X022869Y019218D02*
X026121Y019218D01*
X026219Y019120D02*
X015978Y019120D01*
X016076Y019021D02*
X026318Y019021D01*
X026022Y019317D02*
X022967Y019317D01*
X023061Y019415D02*
X025991Y019415D01*
X025991Y019514D02*
X023061Y019514D01*
X023061Y019612D02*
X025991Y019612D01*
X025991Y019711D02*
X023061Y019711D01*
X023043Y019809D02*
X025991Y019809D01*
X026045Y019908D02*
X022944Y019908D01*
X022846Y020007D02*
X026144Y020007D01*
X026884Y019021D02*
X035601Y019021D01*
X035601Y018923D02*
X016175Y018923D01*
X016273Y018824D02*
X035601Y018824D01*
X035601Y018725D02*
X016372Y018725D01*
X016471Y018627D02*
X035601Y018627D01*
X035601Y018528D02*
X016569Y018528D01*
X016668Y018430D02*
X035601Y018430D01*
X035601Y018331D02*
X016766Y018331D01*
X016865Y018233D02*
X035601Y018233D01*
X035601Y018134D02*
X016963Y018134D01*
X017062Y018036D02*
X035601Y018036D01*
X035601Y017937D02*
X017160Y017937D01*
X017259Y017839D02*
X035601Y017839D01*
X035601Y017740D02*
X017357Y017740D01*
X017456Y017641D02*
X035601Y017641D01*
X035601Y017543D02*
X017555Y017543D01*
X017653Y017444D02*
X035601Y017444D01*
X035601Y017346D02*
X017752Y017346D01*
X017843Y017247D02*
X035601Y017247D01*
X035601Y017149D02*
X017881Y017149D01*
X017881Y017050D02*
X035601Y017050D01*
X035601Y016952D02*
X034575Y016952D01*
X034576Y016951D02*
X034518Y016981D01*
X034457Y017001D01*
X034393Y017011D01*
X034131Y017011D01*
X034131Y016631D01*
X034071Y016631D01*
X034071Y017011D01*
X033808Y017011D01*
X033745Y017001D01*
X033683Y016981D01*
X033626Y016951D01*
X033574Y016914D01*
X033528Y016868D01*
X033490Y016816D01*
X033461Y016758D01*
X033441Y016697D01*
X033431Y016633D01*
X033431Y016631D01*
X034071Y016631D01*
X034071Y016571D01*
X034131Y016571D01*
X034131Y016631D01*
X034771Y016631D01*
X034771Y016633D01*
X034761Y016697D01*
X034741Y016758D01*
X034711Y016816D01*
X034674Y016868D01*
X034628Y016914D01*
X034576Y016951D01*
X034684Y016853D02*
X035601Y016853D01*
X035601Y016755D02*
X034742Y016755D01*
X034767Y016656D02*
X035601Y016656D01*
X035601Y016558D02*
X034769Y016558D01*
X034771Y016568D02*
X034771Y016571D01*
X034131Y016571D01*
X034131Y016191D01*
X034393Y016191D01*
X034457Y016201D01*
X034518Y016221D01*
X034576Y016250D01*
X034628Y016288D01*
X034674Y016334D01*
X034711Y016386D01*
X034741Y016443D01*
X034761Y016505D01*
X034771Y016568D01*
X034746Y016459D02*
X035601Y016459D01*
X035601Y016360D02*
X034693Y016360D01*
X034592Y016262D02*
X035601Y016262D01*
X035601Y016163D02*
X021401Y016163D01*
X021499Y016065D02*
X035601Y016065D01*
X035601Y015966D02*
X034646Y015966D01*
X034621Y015991D02*
X034452Y016061D01*
X033749Y016061D01*
X033580Y015991D01*
X033451Y015861D01*
X033381Y015692D01*
X033381Y015509D01*
X033451Y015340D01*
X033580Y015211D01*
X033749Y015141D01*
X034452Y015141D01*
X034621Y015211D01*
X034751Y015340D01*
X034821Y015509D01*
X034821Y015692D01*
X034751Y015861D01*
X034621Y015991D01*
X034744Y015868D02*
X035601Y015868D01*
X035601Y015769D02*
X034789Y015769D01*
X034821Y015671D02*
X035601Y015671D01*
X035601Y015572D02*
X034821Y015572D01*
X034806Y015474D02*
X035601Y015474D01*
X035601Y015375D02*
X034765Y015375D01*
X034687Y015276D02*
X035601Y015276D01*
X035601Y015178D02*
X034542Y015178D01*
X034452Y015061D02*
X033749Y015061D01*
X033580Y014991D01*
X033451Y014861D01*
X033381Y014692D01*
X033381Y014509D01*
X033451Y014340D01*
X033580Y014211D01*
X033749Y014141D01*
X034452Y014141D01*
X034621Y014211D01*
X034751Y014340D01*
X034821Y014509D01*
X034821Y014692D01*
X034751Y014861D01*
X034621Y014991D01*
X034452Y015061D01*
X034631Y014981D02*
X035601Y014981D01*
X035601Y015079D02*
X027851Y015079D01*
X027851Y014981D02*
X033570Y014981D01*
X033472Y014882D02*
X027851Y014882D01*
X027851Y014784D02*
X033419Y014784D01*
X033381Y014685D02*
X027851Y014685D01*
X027851Y014587D02*
X033381Y014587D01*
X033390Y014488D02*
X027851Y014488D01*
X027851Y014390D02*
X033430Y014390D01*
X033500Y014291D02*
X027851Y014291D01*
X027851Y014192D02*
X033624Y014192D01*
X034577Y014192D02*
X035601Y014192D01*
X035601Y014094D02*
X027851Y014094D01*
X027851Y013995D02*
X035601Y013995D01*
X035601Y013897D02*
X027851Y013897D01*
X027851Y013798D02*
X035601Y013798D01*
X035601Y013700D02*
X027851Y013700D01*
X027851Y013601D02*
X035601Y013601D01*
X035601Y013503D02*
X027851Y013503D01*
X027851Y013404D02*
X035601Y013404D01*
X035601Y013306D02*
X027851Y013306D01*
X027851Y013207D02*
X035601Y013207D01*
X035601Y014291D02*
X034702Y014291D01*
X034771Y014390D02*
X035601Y014390D01*
X035601Y014488D02*
X034812Y014488D01*
X034821Y014587D02*
X035601Y014587D01*
X035601Y014685D02*
X034821Y014685D01*
X034783Y014784D02*
X035601Y014784D01*
X035601Y014882D02*
X034730Y014882D01*
X033660Y015178D02*
X032828Y015178D01*
X032791Y015141D02*
X033061Y015410D01*
X033061Y015791D01*
X032791Y016061D01*
X032410Y016061D01*
X032141Y015791D01*
X032141Y015410D01*
X032410Y015141D01*
X032791Y015141D01*
X032927Y015276D02*
X033515Y015276D01*
X033436Y015375D02*
X033026Y015375D01*
X033061Y015474D02*
X033396Y015474D01*
X033381Y015572D02*
X033061Y015572D01*
X033061Y015671D02*
X033381Y015671D01*
X033413Y015769D02*
X033061Y015769D01*
X032984Y015868D02*
X033457Y015868D01*
X033556Y015966D02*
X032886Y015966D01*
X032316Y015966D02*
X028886Y015966D01*
X028791Y016061D02*
X028410Y016061D01*
X028141Y015791D01*
X028141Y015410D01*
X028410Y015141D01*
X028791Y015141D01*
X029061Y015410D01*
X029061Y015791D01*
X028791Y016061D01*
X028984Y015868D02*
X032217Y015868D01*
X032141Y015769D02*
X029061Y015769D01*
X029061Y015671D02*
X032141Y015671D01*
X032141Y015572D02*
X029061Y015572D01*
X029061Y015474D02*
X032141Y015474D01*
X032176Y015375D02*
X029026Y015375D01*
X028927Y015276D02*
X032275Y015276D01*
X032373Y015178D02*
X028828Y015178D01*
X028373Y015178D02*
X027851Y015178D01*
X027851Y015276D02*
X028275Y015276D01*
X028176Y015375D02*
X027912Y015375D01*
X027959Y015474D02*
X028141Y015474D01*
X028141Y015572D02*
X027981Y015572D01*
X027981Y015671D02*
X028141Y015671D01*
X028141Y015769D02*
X027942Y015769D01*
X027871Y015868D02*
X028217Y015868D01*
X028316Y015966D02*
X027711Y015966D01*
X027490Y015966D02*
X025386Y015966D01*
X025291Y016061D02*
X025561Y015791D01*
X025561Y015410D01*
X025291Y015141D01*
X024910Y015141D01*
X024641Y015410D01*
X024641Y015791D01*
X024910Y016061D01*
X025291Y016061D01*
X025484Y015868D02*
X027330Y015868D01*
X027259Y015769D02*
X025561Y015769D01*
X025561Y015671D02*
X027221Y015671D01*
X027221Y015572D02*
X025561Y015572D01*
X025561Y015474D02*
X027242Y015474D01*
X027289Y015375D02*
X025526Y015375D01*
X025427Y015276D02*
X027351Y015276D01*
X027351Y015178D02*
X025328Y015178D01*
X024873Y015178D02*
X021541Y015178D01*
X021639Y015276D02*
X024775Y015276D01*
X024676Y015375D02*
X021711Y015375D01*
X021711Y015474D02*
X024641Y015474D01*
X024641Y015572D02*
X021711Y015572D01*
X021711Y015671D02*
X024641Y015671D01*
X024641Y015769D02*
X021711Y015769D01*
X021696Y015868D02*
X024717Y015868D01*
X024816Y015966D02*
X021598Y015966D01*
X020801Y016163D02*
X017881Y016163D01*
X017881Y016065D02*
X020702Y016065D01*
X020604Y015966D02*
X017876Y015966D01*
X017876Y015868D02*
X020505Y015868D01*
X020491Y015769D02*
X017876Y015769D01*
X017876Y015671D02*
X020449Y015671D01*
X020351Y015572D02*
X017876Y015572D01*
X017876Y015474D02*
X020252Y015474D01*
X020154Y015375D02*
X017876Y015375D01*
X017876Y015276D02*
X020055Y015276D01*
X019957Y015178D02*
X017876Y015178D01*
X017876Y015079D02*
X019858Y015079D01*
X019760Y014981D02*
X017876Y014981D01*
X017876Y014882D02*
X019665Y014882D01*
X019625Y014784D02*
X017876Y014784D01*
X017876Y014685D02*
X019591Y014685D01*
X019591Y014587D02*
X017876Y014587D01*
X017876Y014488D02*
X019591Y014488D01*
X019591Y014390D02*
X017876Y014390D01*
X017876Y014291D02*
X019591Y014291D01*
X019591Y014192D02*
X017876Y014192D01*
X017876Y014094D02*
X019591Y014094D01*
X019591Y013995D02*
X017876Y013995D01*
X017876Y013897D02*
X019591Y013897D01*
X019591Y013798D02*
X017876Y013798D01*
X017876Y013700D02*
X019591Y013700D01*
X019591Y013601D02*
X017876Y013601D01*
X017876Y013503D02*
X019591Y013503D01*
X019591Y013404D02*
X017876Y013404D01*
X017876Y013306D02*
X019591Y013306D01*
X019591Y013207D02*
X017876Y013207D01*
X017876Y013109D02*
X019591Y013109D01*
X019591Y013010D02*
X017876Y013010D01*
X017876Y012911D02*
X019591Y012911D01*
X019591Y012813D02*
X017876Y012813D01*
X017876Y012714D02*
X019591Y012714D01*
X019591Y012616D02*
X017876Y012616D01*
X017876Y012517D02*
X019591Y012517D01*
X019591Y012419D02*
X018320Y012419D01*
X018419Y012320D02*
X019591Y012320D01*
X019591Y012222D02*
X018462Y012222D01*
X018481Y012123D02*
X019591Y012123D01*
X019591Y012025D02*
X018480Y012025D01*
X018440Y011926D02*
X019591Y011926D01*
X019591Y011827D02*
X018365Y011827D01*
X018361Y011729D02*
X019591Y011729D01*
X019591Y011630D02*
X018361Y011630D01*
X018361Y011532D02*
X019591Y011532D01*
X019618Y011433D02*
X018361Y011433D01*
X018361Y011335D02*
X019659Y011335D01*
X019744Y011236D02*
X018361Y011236D01*
X018361Y011138D02*
X019843Y011138D01*
X019941Y011039D02*
X018361Y011039D01*
X018361Y010941D02*
X020040Y010941D01*
X020138Y010842D02*
X018361Y010842D01*
X018361Y010743D02*
X020237Y010743D01*
X020369Y010645D02*
X018361Y010645D01*
X018361Y010546D02*
X020591Y010546D01*
X020591Y010448D02*
X018361Y010448D01*
X018361Y010349D02*
X020591Y010349D01*
X020591Y010251D02*
X018361Y010251D01*
X018361Y010152D02*
X020591Y010152D01*
X020591Y010054D02*
X018361Y010054D01*
X018361Y009955D02*
X020591Y009955D01*
X020591Y009857D02*
X018361Y009857D01*
X018361Y009758D02*
X020591Y009758D01*
X020591Y009659D02*
X018361Y009659D01*
X018361Y009561D02*
X020591Y009561D01*
X020591Y009462D02*
X018361Y009462D01*
X018361Y009364D02*
X020591Y009364D01*
X020591Y009265D02*
X018361Y009265D01*
X018361Y009167D02*
X020591Y009167D01*
X020591Y009068D02*
X018361Y009068D01*
X018328Y008970D02*
X020591Y008970D01*
X020591Y008871D02*
X018239Y008871D01*
X018140Y008773D02*
X020591Y008773D01*
X020591Y008674D02*
X018042Y008674D01*
X017943Y008576D02*
X020591Y008576D01*
X020591Y008477D02*
X017845Y008477D01*
X017746Y008378D02*
X020591Y008378D01*
X020591Y008280D02*
X017648Y008280D01*
X017549Y008181D02*
X020591Y008181D01*
X019837Y007984D02*
X019364Y007984D01*
X019463Y007886D02*
X019739Y007886D01*
X019683Y007787D02*
X019519Y007787D01*
X019558Y007689D02*
X019643Y007689D01*
X019643Y007590D02*
X019558Y007590D01*
X019551Y007492D02*
X019651Y007492D01*
X019692Y007393D02*
X019510Y007393D01*
X019441Y007294D02*
X019760Y007294D01*
X016207Y006999D02*
X016065Y006999D01*
X016067Y007097D02*
X015967Y007097D01*
X016004Y007196D02*
X015868Y007196D01*
X015326Y006013D02*
X014376Y006013D01*
X013482Y006703D02*
X012876Y006703D01*
X012876Y006605D02*
X013383Y006605D01*
X013285Y006506D02*
X012876Y006506D01*
X012876Y006408D02*
X013186Y006408D01*
X013088Y006309D02*
X012876Y006309D01*
X012876Y006210D02*
X012989Y006210D01*
X012891Y006112D02*
X012876Y006112D01*
X012876Y006802D02*
X013491Y006802D01*
X013538Y006900D02*
X012929Y006900D01*
X012970Y006999D02*
X013481Y006999D01*
X013383Y007097D02*
X012981Y007097D01*
X012973Y007196D02*
X013284Y007196D01*
X013186Y007294D02*
X012932Y007294D01*
X012846Y007393D02*
X013087Y007393D01*
X012989Y007492D02*
X003854Y007492D01*
X003953Y007590D02*
X012890Y007590D01*
X013643Y008280D02*
X014054Y008280D01*
X013955Y008378D02*
X013544Y008378D01*
X013446Y008477D02*
X013871Y008477D01*
X013841Y008576D02*
X013287Y008576D01*
X013741Y008181D02*
X014153Y008181D01*
X014241Y008083D02*
X013840Y008083D01*
X013939Y007984D02*
X014259Y007984D01*
X014307Y007886D02*
X014037Y007886D01*
X014136Y007787D02*
X014417Y007787D01*
X017749Y010251D02*
X017841Y010251D01*
X017876Y012419D02*
X017881Y012419D01*
X020611Y012813D02*
X020691Y012813D01*
X020732Y012911D02*
X020611Y012911D01*
X020611Y013010D02*
X020830Y013010D01*
X020611Y013306D02*
X027351Y013306D01*
X027351Y013404D02*
X020611Y013404D01*
X020611Y013503D02*
X027351Y013503D01*
X027351Y013601D02*
X020611Y013601D01*
X020611Y013700D02*
X027351Y013700D01*
X027351Y013798D02*
X020611Y013798D01*
X020611Y013897D02*
X027351Y013897D01*
X027351Y013995D02*
X020611Y013995D01*
X020611Y014094D02*
X027351Y014094D01*
X027351Y014192D02*
X020611Y014192D01*
X020611Y014291D02*
X027351Y014291D01*
X027351Y014587D02*
X020808Y014587D01*
X020906Y014685D02*
X027351Y014685D01*
X027351Y014784D02*
X021005Y014784D01*
X021103Y014882D02*
X027351Y014882D01*
X027351Y014981D02*
X021202Y014981D01*
X021442Y015079D02*
X027351Y015079D01*
X027601Y015601D02*
X027601Y010101D01*
X027950Y010251D02*
X031551Y010251D01*
X031551Y010349D02*
X027890Y010349D01*
X027851Y010448D02*
X031551Y010448D01*
X031551Y010546D02*
X027851Y010546D01*
X027851Y010645D02*
X031551Y010645D01*
X031551Y010743D02*
X027851Y010743D01*
X027851Y010842D02*
X031551Y010842D01*
X031551Y010941D02*
X027851Y010941D01*
X027851Y011039D02*
X031551Y011039D01*
X031551Y011138D02*
X027851Y011138D01*
X027851Y011236D02*
X031551Y011236D01*
X031551Y011335D02*
X027851Y011335D01*
X027851Y011433D02*
X031551Y011433D01*
X031551Y011532D02*
X027851Y011532D01*
X027851Y011630D02*
X031551Y011630D01*
X031551Y011729D02*
X027851Y011729D01*
X027851Y011827D02*
X031551Y011827D01*
X031551Y011926D02*
X027851Y011926D01*
X027851Y012025D02*
X031551Y012025D01*
X031551Y012123D02*
X027851Y012123D01*
X027851Y012222D02*
X031551Y012222D01*
X031551Y012320D02*
X027851Y012320D01*
X027851Y012419D02*
X031551Y012419D01*
X031551Y012517D02*
X027851Y012517D01*
X027851Y012616D02*
X031551Y012616D01*
X031551Y012714D02*
X027851Y012714D01*
X027851Y012813D02*
X031551Y012813D01*
X031551Y012911D02*
X027851Y012911D01*
X027851Y013010D02*
X031551Y013010D01*
X031551Y013109D02*
X027851Y013109D01*
X024858Y013109D02*
X021273Y013109D01*
X021371Y013010D02*
X024759Y013010D01*
X024661Y012911D02*
X021470Y012911D01*
X021511Y012813D02*
X024641Y012813D01*
X025394Y010743D02*
X025562Y010743D01*
X025661Y010645D02*
X025295Y010645D01*
X027766Y009758D02*
X031551Y009758D01*
X031551Y009857D02*
X027894Y009857D01*
X027952Y009955D02*
X031551Y009955D01*
X031551Y010054D02*
X027981Y010054D01*
X027981Y010152D02*
X031551Y010152D01*
X033683Y016221D02*
X033745Y016201D01*
X033808Y016191D01*
X034071Y016191D01*
X034071Y016571D01*
X033431Y016571D01*
X033431Y016568D01*
X033441Y016505D01*
X033461Y016443D01*
X033490Y016386D01*
X033528Y016334D01*
X033574Y016288D01*
X033626Y016250D01*
X033683Y016221D01*
X033610Y016262D02*
X017881Y016262D01*
X017881Y016360D02*
X033509Y016360D01*
X033456Y016459D02*
X017881Y016459D01*
X017881Y016558D02*
X033432Y016558D01*
X033434Y016656D02*
X017881Y016656D01*
X017881Y016755D02*
X033460Y016755D01*
X033517Y016853D02*
X017881Y016853D01*
X017881Y016952D02*
X033626Y016952D01*
X034071Y016952D02*
X034131Y016952D01*
X034131Y016853D02*
X034071Y016853D01*
X034071Y016755D02*
X034131Y016755D01*
X034131Y016656D02*
X034071Y016656D01*
X034071Y016558D02*
X034131Y016558D01*
X034131Y016459D02*
X034071Y016459D01*
X034071Y016360D02*
X034131Y016360D01*
X034131Y016262D02*
X034071Y016262D01*
X033368Y019711D02*
X035601Y019711D01*
X035601Y019809D02*
X033467Y019809D01*
X033566Y019908D02*
X035601Y019908D01*
X035601Y020007D02*
X033566Y020007D01*
X033131Y020007D02*
X033071Y020007D01*
X033071Y019908D02*
X033131Y019908D01*
X033131Y019809D02*
X033071Y019809D01*
X033071Y019711D02*
X033131Y019711D01*
X032333Y020992D02*
X031251Y020992D01*
X031467Y021091D02*
X032234Y021091D01*
X032136Y021189D02*
X031566Y021189D01*
X031664Y021288D02*
X032037Y021288D01*
X031939Y021386D02*
X031763Y021386D01*
X034551Y023456D02*
X034651Y023456D01*
X034651Y023554D02*
X034551Y023554D01*
X034551Y023653D02*
X034651Y023653D01*
X034651Y023751D02*
X034551Y023751D01*
X034551Y023850D02*
X034651Y023850D01*
X035422Y024441D02*
X035601Y024441D01*
X035601Y024737D02*
X035397Y024737D01*
X035594Y023456D02*
X035601Y023456D01*
X032938Y025328D02*
X032721Y025328D01*
X032721Y025426D02*
X032816Y025426D01*
X031481Y024441D02*
X026901Y024441D01*
X027000Y024342D02*
X031481Y024342D01*
X031481Y024244D02*
X027098Y024244D01*
X026301Y024441D02*
X021231Y024441D01*
X021231Y024342D02*
X026202Y024342D01*
X026103Y024244D02*
X021231Y024244D01*
X021231Y024145D02*
X026005Y024145D01*
X025936Y024047D02*
X021231Y024047D01*
X021231Y023948D02*
X025936Y023948D01*
X025936Y023850D02*
X021231Y023850D01*
X021231Y024540D02*
X028976Y024540D01*
X028976Y024638D02*
X021231Y024638D01*
X021231Y024737D02*
X028976Y024737D01*
X028976Y024835D02*
X021231Y024835D01*
X021231Y024934D02*
X028976Y024934D01*
X028976Y025032D02*
X021231Y025032D01*
X021231Y025131D02*
X028976Y025131D01*
X028976Y025229D02*
X021231Y025229D01*
X021231Y025328D02*
X028976Y025328D01*
X028976Y025426D02*
X021231Y025426D01*
X021231Y025525D02*
X028976Y025525D01*
X028976Y025624D02*
X021231Y025624D01*
X021231Y025722D02*
X028976Y025722D01*
X028976Y025821D02*
X021192Y025821D01*
X021151Y025919D02*
X028976Y025919D01*
X028976Y026018D02*
X021075Y026018D01*
X020976Y026116D02*
X028976Y026116D01*
X028976Y026215D02*
X020878Y026215D01*
X020779Y026313D02*
X028976Y026313D01*
X028976Y026412D02*
X020681Y026412D01*
X020582Y026510D02*
X028976Y026510D01*
X028976Y026609D02*
X020484Y026609D01*
X020385Y026707D02*
X028976Y026707D01*
X028976Y026806D02*
X020286Y026806D01*
X020188Y026905D02*
X028976Y026905D01*
X028976Y027003D02*
X020089Y027003D01*
X019991Y027102D02*
X028976Y027102D01*
X022326Y021288D02*
X022188Y021288D01*
X022090Y021189D02*
X022326Y021189D01*
X022243Y020893D02*
X021473Y020893D01*
X021375Y020795D02*
X022144Y020795D01*
X005080Y027397D02*
X004980Y027397D01*
X004980Y027496D02*
X005080Y027496D01*
X005080Y027594D02*
X004980Y027594D01*
X004980Y027693D02*
X005080Y027693D01*
X005080Y027791D02*
X004980Y027791D01*
X004980Y027890D02*
X002811Y027890D01*
X002811Y027989D02*
X004496Y027989D01*
X004496Y028087D02*
X002811Y028087D01*
X002811Y028186D02*
X004549Y028186D01*
X004647Y028284D02*
X002743Y028284D01*
X002811Y027791D02*
X004496Y027791D01*
X004496Y027693D02*
X002811Y027693D01*
X002798Y027594D02*
X004592Y027594D01*
X004691Y027496D02*
X002699Y027496D01*
X002600Y027397D02*
X004789Y027397D01*
X003249Y007590D02*
X002953Y007590D01*
X002854Y007492D02*
X003347Y007492D01*
X002347Y007492D02*
X001854Y007492D01*
X001953Y007590D02*
X002249Y007590D01*
X000601Y006900D02*
X009278Y006900D01*
X008957Y006802D02*
X000601Y006802D01*
X000601Y006703D02*
X008804Y006703D01*
X008651Y006605D02*
X000601Y006605D01*
X000601Y006506D02*
X008508Y006506D01*
X008422Y006408D02*
X000601Y006408D01*
X000601Y006309D02*
X008337Y006309D01*
X008251Y006210D02*
X000601Y006210D01*
X000601Y006112D02*
X008168Y006112D01*
X008123Y006013D02*
X000601Y006013D01*
X000601Y005915D02*
X008078Y005915D01*
X008033Y005816D02*
X000601Y005816D01*
X000601Y005718D02*
X007988Y005718D01*
X007946Y005619D02*
X000601Y005619D01*
X000601Y005521D02*
X007932Y005521D01*
X007918Y005422D02*
X000601Y005422D01*
X000601Y005324D02*
X007904Y005324D01*
X007890Y005225D02*
X000601Y005225D01*
X000601Y005126D02*
X007875Y005126D01*
X007882Y005028D02*
X000601Y005028D01*
X000601Y004929D02*
X007896Y004929D01*
X007911Y004831D02*
X000601Y004831D01*
X000601Y004732D02*
X007925Y004732D01*
X007939Y004634D02*
X000601Y004634D01*
X000601Y004535D02*
X001385Y004535D01*
X001410Y004561D02*
X001141Y004291D01*
X001141Y003910D01*
X001410Y003641D01*
X001791Y003641D01*
X002061Y003910D01*
X002061Y004291D01*
X001791Y004561D01*
X001410Y004561D01*
X001286Y004437D02*
X000601Y004437D01*
X000601Y004338D02*
X001188Y004338D01*
X001141Y004240D02*
X000601Y004240D01*
X000601Y004141D02*
X001141Y004141D01*
X001141Y004043D02*
X000601Y004043D01*
X000601Y003944D02*
X001141Y003944D01*
X001206Y003845D02*
X000601Y003845D01*
X000601Y003747D02*
X001304Y003747D01*
X001403Y003648D02*
X000601Y003648D01*
X000601Y003550D02*
X008724Y003550D01*
X008571Y003648D02*
X003799Y003648D01*
X003791Y003641D02*
X004061Y003910D01*
X004061Y004291D01*
X003791Y004561D01*
X003410Y004561D01*
X003141Y004291D01*
X003141Y003910D01*
X003410Y003641D01*
X003791Y003641D01*
X003897Y003747D02*
X008463Y003747D01*
X008378Y003845D02*
X003996Y003845D01*
X004061Y003944D02*
X008292Y003944D01*
X008207Y004043D02*
X004061Y004043D01*
X004061Y004141D02*
X008144Y004141D01*
X008099Y004240D02*
X004061Y004240D01*
X004014Y004338D02*
X008054Y004338D01*
X008009Y004437D02*
X003915Y004437D01*
X003817Y004535D02*
X007964Y004535D01*
X008877Y003451D02*
X000601Y003451D01*
X000601Y003353D02*
X009103Y003353D01*
X009438Y003254D02*
X000601Y003254D01*
X001799Y003648D02*
X002403Y003648D01*
X002410Y003641D02*
X002791Y003641D01*
X003061Y003910D01*
X003061Y004291D01*
X002791Y004561D01*
X002410Y004561D01*
X002141Y004291D01*
X002141Y003910D01*
X002410Y003641D01*
X002304Y003747D02*
X001897Y003747D01*
X001996Y003845D02*
X002206Y003845D01*
X002141Y003944D02*
X002061Y003944D01*
X002061Y004043D02*
X002141Y004043D01*
X002141Y004141D02*
X002061Y004141D01*
X002061Y004240D02*
X002141Y004240D01*
X002188Y004338D02*
X002014Y004338D01*
X001915Y004437D02*
X002286Y004437D01*
X002385Y004535D02*
X001817Y004535D01*
X002817Y004535D02*
X003385Y004535D01*
X003286Y004437D02*
X002915Y004437D01*
X003014Y004338D02*
X003188Y004338D01*
X003141Y004240D02*
X003061Y004240D01*
X003061Y004141D02*
X003141Y004141D01*
X003141Y004043D02*
X003061Y004043D01*
X003061Y003944D02*
X003141Y003944D01*
X003206Y003845D02*
X002996Y003845D01*
X002897Y003747D02*
X003304Y003747D01*
X003403Y003648D02*
X002799Y003648D01*
X002792Y002663D02*
X003410Y002663D01*
X003257Y002564D02*
X002944Y002564D01*
X003032Y002466D02*
X003169Y002466D01*
X003129Y002367D02*
X003073Y002367D01*
X003101Y002269D02*
X003101Y002269D01*
X003101Y002170D02*
X003101Y002170D01*
X003101Y002072D02*
X003101Y002072D01*
X003101Y001973D02*
X003101Y001973D01*
X003101Y001875D02*
X003101Y001875D01*
X003101Y001776D02*
X003101Y001776D01*
X003101Y001677D02*
X003101Y001677D01*
X003101Y001579D02*
X003101Y001579D01*
X003092Y001480D02*
X003109Y001480D01*
X003150Y001382D02*
X003051Y001382D01*
X002990Y001283D02*
X003211Y001283D01*
X003310Y001185D02*
X002892Y001185D01*
X002310Y001185D02*
X001892Y001185D01*
X001990Y001283D02*
X002211Y001283D01*
X002150Y001382D02*
X002051Y001382D01*
X002092Y001480D02*
X002109Y001480D01*
X002101Y001579D02*
X002101Y001579D01*
X002101Y001677D02*
X002101Y001677D01*
X002101Y001776D02*
X002101Y001776D01*
X002101Y001875D02*
X002101Y001875D01*
X002101Y001973D02*
X002101Y001973D01*
X002101Y002072D02*
X002101Y002072D01*
X002101Y002170D02*
X002101Y002170D01*
X002101Y002269D02*
X002101Y002269D01*
X002073Y002367D02*
X002129Y002367D01*
X002169Y002466D02*
X002032Y002466D01*
X001944Y002564D02*
X002257Y002564D01*
X002410Y002663D02*
X001792Y002663D01*
X003792Y002663D02*
X004410Y002663D01*
X004257Y002564D02*
X003944Y002564D01*
X004032Y002466D02*
X004169Y002466D01*
X004129Y002367D02*
X004073Y002367D01*
X004101Y002269D02*
X004101Y002269D01*
X004101Y002170D02*
X004101Y002170D01*
X004101Y002072D02*
X004101Y002072D01*
X004101Y001973D02*
X004101Y001973D01*
X004101Y001875D02*
X004101Y001875D01*
X004101Y001776D02*
X004101Y001776D01*
X004101Y001677D02*
X004101Y001677D01*
X004101Y001579D02*
X004101Y001579D01*
X004092Y001480D02*
X004109Y001480D01*
X004150Y001382D02*
X004051Y001382D01*
X003990Y001283D02*
X004211Y001283D01*
X004310Y001185D02*
X003892Y001185D01*
X004892Y001185D02*
X005310Y001185D01*
X005211Y001283D02*
X004990Y001283D01*
X005051Y001382D02*
X005150Y001382D01*
X005109Y001480D02*
X005092Y001480D01*
X005101Y001579D02*
X005101Y001579D01*
X005101Y001677D02*
X005101Y001677D01*
X005101Y001776D02*
X005101Y001776D01*
X005101Y001875D02*
X005101Y001875D01*
X005101Y001973D02*
X005101Y001973D01*
X005101Y002072D02*
X005101Y002072D01*
X005101Y002170D02*
X005101Y002170D01*
X005101Y002269D02*
X005101Y002269D01*
X005073Y002367D02*
X005129Y002367D01*
X005169Y002466D02*
X005032Y002466D01*
X004944Y002564D02*
X005257Y002564D01*
X005410Y002663D02*
X004792Y002663D01*
X005792Y002663D02*
X006410Y002663D01*
X006257Y002564D02*
X005944Y002564D01*
X006032Y002466D02*
X006169Y002466D01*
X006129Y002367D02*
X006073Y002367D01*
X006101Y002269D02*
X006101Y002269D01*
X006101Y002170D02*
X006101Y002170D01*
X006101Y002072D02*
X006101Y002072D01*
X006101Y001973D02*
X006101Y001973D01*
X006101Y001875D02*
X006101Y001875D01*
X006101Y001776D02*
X006101Y001776D01*
X006101Y001677D02*
X006101Y001677D01*
X006101Y001579D02*
X006101Y001579D01*
X006092Y001480D02*
X006109Y001480D01*
X006150Y001382D02*
X006051Y001382D01*
X005990Y001283D02*
X006211Y001283D01*
X006310Y001185D02*
X005892Y001185D01*
X006892Y001185D02*
X007310Y001185D01*
X007211Y001283D02*
X006990Y001283D01*
X007051Y001382D02*
X007150Y001382D01*
X007109Y001480D02*
X007092Y001480D01*
X007101Y001579D02*
X007101Y001579D01*
X007101Y001677D02*
X007101Y001677D01*
X007101Y001776D02*
X007101Y001776D01*
X007101Y001875D02*
X007101Y001875D01*
X007101Y001973D02*
X007101Y001973D01*
X007101Y002072D02*
X007101Y002072D01*
X007101Y002170D02*
X007101Y002170D01*
X007101Y002269D02*
X007101Y002269D01*
X007073Y002367D02*
X007129Y002367D01*
X007169Y002466D02*
X007032Y002466D01*
X006944Y002564D02*
X007257Y002564D01*
X007410Y002663D02*
X006792Y002663D01*
X016982Y002367D02*
X017217Y002367D01*
X017141Y002269D02*
X017058Y002269D01*
X017058Y002170D02*
X017141Y002170D01*
X017141Y002072D02*
X017058Y002072D01*
X017058Y001973D02*
X017141Y001973D01*
X017176Y001875D02*
X017058Y001875D01*
X017058Y001776D02*
X017275Y001776D01*
X017374Y001677D02*
X017058Y001677D01*
D34*
X015101Y007601D03*
X014601Y008101D03*
X015101Y013601D03*
D35*
X014101Y014601D02*
X014101Y008601D01*
X014601Y008101D01*
X016351Y007351D02*
X018101Y009101D01*
X018101Y012101D01*
D36*
X017601Y010601D02*
X017601Y016101D01*
X014101Y020601D02*
X014101Y021601D01*
X021851Y021601D02*
X022601Y021601D01*
X022601Y020601D01*
X012601Y007101D02*
X012601Y001601D01*
X013601Y000601D01*
X034101Y000601D01*
X034101Y001601D01*
D37*
X033101Y021101D02*
X032101Y022101D01*
X032101Y022601D01*
X031101Y021601D01*
X024101Y021601D01*
X032101Y022601D02*
X032101Y027101D01*
X032601Y027601D01*
D38*
X034101Y027601D01*
X034601Y027101D01*
X034601Y026601D01*
X024101Y021601D02*
X022601Y023101D01*
X020601Y023101D01*
X020601Y025601D01*
X018290Y027912D01*
X018077Y027912D01*
X020601Y023101D02*
X019601Y021601D01*
X018601Y021601D01*
M02*
