G75*
G70*
%OFA0B0*%
%FSLAX24Y24*%
%IPPOS*%
%LPD*%
%AMOC8*
5,1,8,0,0,1.08239X$1,22.5*
%
%ADD10C,0.0000*%
%ADD11C,0.0520*%
%ADD12OC8,0.0740*%
%ADD13C,0.0600*%
%ADD14OC8,0.0520*%
%ADD15C,0.0650*%
%ADD16R,0.0515X0.0515*%
%ADD17C,0.0515*%
%ADD18R,0.0594X0.0594*%
%ADD19OC8,0.0630*%
%ADD20R,0.0600X0.0600*%
%ADD21C,0.0600*%
%ADD22C,0.0660*%
%ADD23C,0.0860*%
%ADD24C,0.1500*%
%ADD25C,0.0650*%
%ADD26OC8,0.0768*%
%ADD27OC8,0.0600*%
%ADD28C,0.0750*%
%ADD29C,0.0160*%
%ADD30C,0.0360*%
%ADD31C,0.0320*%
%ADD32C,0.0300*%
%ADD33C,0.0100*%
%ADD34C,0.0120*%
%ADD35C,0.0320*%
%ADD36C,0.0150*%
%ADD37C,0.0540*%
%ADD38C,0.0560*%
D10*
X000101Y000101D02*
X000101Y029101D01*
X036101Y029101D01*
X036101Y000101D01*
X000101Y000101D01*
D11*
X003601Y009341D02*
X003601Y009861D01*
X004601Y009861D02*
X004601Y009341D01*
X005601Y009341D02*
X005601Y009861D01*
X006601Y009861D02*
X006601Y009341D01*
X007601Y009341D02*
X007601Y009861D01*
X008601Y009861D02*
X008601Y009341D01*
X009601Y009341D02*
X009601Y009861D01*
X010601Y009861D02*
X010601Y009341D01*
X011601Y009341D02*
X011601Y009861D01*
X012601Y009861D02*
X012601Y009341D01*
X013601Y009341D02*
X013601Y009861D01*
X014601Y009861D02*
X014601Y009341D01*
X015601Y009341D02*
X015601Y009861D01*
X016601Y009861D02*
X016601Y009341D01*
X016601Y012341D02*
X016601Y012861D01*
X015601Y012861D02*
X015601Y012341D01*
X014601Y012341D02*
X014601Y012861D01*
X013601Y012861D02*
X013601Y012341D01*
X012601Y012341D02*
X012601Y012861D01*
X011601Y012861D02*
X011601Y012341D01*
X010601Y012341D02*
X010601Y012861D01*
X009601Y012861D02*
X009601Y012341D01*
X008601Y012341D02*
X008601Y012861D01*
X007601Y012861D02*
X007601Y012341D01*
X006601Y012341D02*
X006601Y012861D01*
X005601Y012861D02*
X005601Y012341D01*
X004601Y012341D02*
X004601Y012861D01*
X003601Y012861D02*
X003601Y012341D01*
X033841Y014601D02*
X034361Y014601D01*
X034361Y015601D02*
X033841Y015601D01*
X033841Y016601D02*
X034361Y016601D01*
D12*
X034101Y011101D03*
X033101Y011101D03*
X033101Y010101D03*
X034101Y010101D03*
X034101Y009101D03*
X033101Y009101D03*
X033101Y008101D03*
X034101Y008101D03*
X034101Y007101D03*
X033101Y007101D03*
X033101Y006101D03*
X034101Y006101D03*
X034101Y005101D03*
X034101Y004101D03*
X033101Y004101D03*
X033101Y005101D03*
D13*
X007601Y002201D02*
X007601Y001601D01*
X006601Y001601D02*
X006601Y002201D01*
X005601Y002201D02*
X005601Y001601D01*
X004601Y001601D02*
X004601Y002201D01*
X003601Y002201D02*
X003601Y001601D01*
X002601Y001601D02*
X002601Y002201D01*
X001601Y002201D02*
X001601Y001601D01*
X001901Y022601D02*
X001301Y022601D01*
X001301Y023601D02*
X001901Y023601D01*
X001901Y024601D02*
X001301Y024601D01*
D14*
X001601Y020101D03*
X002601Y020101D03*
X001601Y018101D03*
X001601Y014101D03*
X001601Y013101D03*
X001601Y009101D03*
X001601Y008101D03*
X002601Y008101D03*
X003601Y008101D03*
X003601Y004101D03*
X002601Y004101D03*
X001601Y004101D03*
X014101Y002601D03*
X015601Y002601D03*
X017601Y002101D03*
X021601Y002101D03*
X015601Y006601D03*
X014101Y006601D03*
X021101Y011101D03*
X021101Y012701D03*
X021101Y015601D03*
X025101Y015601D03*
X028601Y015601D03*
X025101Y012701D03*
X025101Y011101D03*
X032601Y015601D03*
X026601Y019601D03*
X026601Y020601D03*
X022601Y020601D03*
X022601Y019601D03*
X021101Y021101D03*
X021851Y021601D03*
X021101Y022101D03*
X014101Y021601D03*
X014101Y020601D03*
X010101Y020601D03*
X010101Y021601D03*
D15*
X011601Y016601D03*
X012601Y016601D03*
D16*
X020101Y006601D03*
X016601Y001951D03*
X014901Y001951D03*
X010782Y005101D03*
X008813Y005101D03*
D17*
X017101Y006601D03*
X018101Y006601D03*
X019101Y006601D03*
X019101Y007601D03*
X020101Y007601D03*
X020101Y003601D03*
X019101Y003601D03*
X018101Y003601D03*
X017101Y003601D03*
X030601Y025117D03*
X030601Y027085D03*
D18*
X030087Y005101D03*
X022115Y005101D03*
D19*
X033101Y020101D03*
X033101Y021101D03*
X026601Y022801D03*
X026601Y023801D03*
X005601Y023601D03*
X005601Y024601D03*
D20*
X003601Y016101D03*
D21*
X004601Y016101D03*
X005601Y016101D03*
X006601Y016101D03*
X007601Y016101D03*
D22*
X030601Y019601D03*
X030601Y023601D03*
D23*
X015601Y026101D03*
X015601Y028101D03*
D24*
X014569Y024101D03*
X016931Y024101D03*
X010632Y024101D03*
X008270Y024101D03*
D25*
X018276Y022498D02*
X018926Y022498D01*
X018926Y021601D02*
X018276Y021601D01*
X018276Y020703D02*
X018926Y020703D01*
D26*
X018077Y027912D03*
X021030Y027912D03*
X024577Y027912D03*
X027530Y027912D03*
X013030Y027912D03*
X010077Y027912D03*
X005030Y027912D03*
X002077Y027912D03*
D27*
X007601Y027601D03*
D28*
X033101Y025931D02*
X033851Y025931D01*
X034601Y025261D02*
X035351Y025261D01*
X033851Y024611D02*
X033101Y024611D01*
X034601Y023921D02*
X035351Y023921D01*
X035351Y026601D02*
X034601Y026601D01*
D29*
X027601Y019601D02*
X028601Y018601D01*
X031101Y018601D01*
X028601Y017101D02*
X027101Y018601D01*
X007601Y018601D01*
X006601Y017601D01*
X006601Y016101D01*
X003601Y013101D01*
X003601Y012601D01*
X004601Y012601D02*
X004601Y013101D01*
X007601Y016101D01*
X007601Y017601D01*
X008101Y018101D01*
X026601Y018101D01*
X027601Y017101D01*
X027601Y015601D01*
X028601Y015601D02*
X028601Y017101D01*
X030601Y014601D02*
X026101Y014601D01*
X025101Y015601D01*
X030601Y014601D02*
X033101Y012101D01*
X033101Y011101D01*
X034101Y011101D02*
X034101Y014601D01*
X034101Y015601D02*
X032601Y015601D01*
X021101Y022101D02*
X019601Y020601D01*
X019601Y020101D01*
X015101Y013601D02*
X014601Y013101D01*
X014601Y012601D01*
X014601Y009601D02*
X014601Y008101D01*
X014101Y007601D02*
X015101Y007601D01*
X014101Y007601D02*
X011601Y005101D01*
X010782Y005101D01*
X009601Y004601D02*
X009601Y005601D01*
X012601Y008601D01*
X012601Y009601D01*
X009601Y009601D02*
X009601Y008101D01*
X006601Y005101D01*
X006601Y001901D01*
X005601Y001901D02*
X005601Y005101D01*
X008601Y008101D01*
X008601Y009601D01*
X007601Y009601D02*
X007601Y008101D01*
X004601Y005101D01*
X004601Y001901D01*
X003601Y001901D02*
X003601Y004101D01*
X003601Y005101D01*
X006601Y008101D01*
X006601Y009601D01*
X005601Y009601D02*
X005601Y008101D01*
X002601Y005101D01*
X002601Y004101D01*
X002601Y001901D01*
X001601Y001901D02*
X001601Y004101D01*
X001601Y005101D01*
X004601Y008101D01*
X004601Y009601D01*
X001601Y013101D02*
X003601Y015101D01*
X003601Y016101D01*
X001601Y018101D02*
X001601Y020101D01*
X018101Y006601D02*
X018101Y006101D01*
X019101Y005101D01*
X022115Y005101D01*
X020101Y006601D02*
X020101Y007601D01*
X019101Y007601D02*
X019101Y006601D01*
X019101Y003601D02*
X019101Y003101D01*
X018101Y002101D01*
X017601Y002101D01*
X017101Y002601D02*
X018101Y003601D01*
X017101Y003601D02*
X015101Y003601D01*
X014101Y002601D01*
X014251Y002601D01*
X014901Y001951D01*
X015601Y002601D02*
X015951Y002601D01*
X016601Y001951D01*
X017101Y002601D02*
X015601Y002601D01*
X020101Y003101D02*
X020101Y003601D01*
X020101Y003101D02*
X021101Y002101D01*
X021601Y002101D01*
X009601Y004601D02*
X007601Y002601D01*
X007601Y001901D01*
D30*
X012601Y007101D03*
X014851Y004751D03*
X016351Y007351D03*
X017601Y010601D03*
X018101Y012101D03*
X027601Y010101D03*
X031101Y005101D03*
X032101Y001601D03*
X034101Y001601D03*
X027601Y015601D03*
X004101Y018601D03*
D31*
X024577Y027912D02*
X026601Y026101D01*
X026601Y023801D01*
X027451Y023801D01*
X027626Y023626D01*
X029151Y022101D01*
X029601Y022101D01*
X033101Y024101D02*
X033601Y024601D01*
X033101Y002601D02*
X032101Y001601D01*
D32*
X033101Y002601D02*
X033101Y004101D01*
X031101Y022101D02*
X029601Y022101D01*
X031101Y022101D02*
X033101Y024101D01*
X033601Y024601D02*
X033851Y024611D01*
X030601Y027085D02*
X030601Y027101D01*
X027601Y024101D01*
X027601Y023601D01*
X027626Y023626D01*
X027401Y023901D02*
X027601Y024101D01*
X004601Y018101D02*
X004601Y016101D01*
X004601Y018101D02*
X004101Y018601D01*
D33*
X004580Y018829D02*
X004550Y018901D01*
X004401Y019050D01*
X004206Y019131D01*
X003995Y019131D01*
X003801Y019050D01*
X003651Y018901D01*
X003571Y018706D01*
X003571Y018495D01*
X003651Y018301D01*
X003801Y018151D01*
X003873Y018121D01*
X004101Y017894D01*
X004101Y016520D01*
X004083Y016502D01*
X003984Y016601D01*
X003218Y016601D01*
X003101Y016484D01*
X003101Y015718D01*
X003218Y015601D01*
X003321Y015601D01*
X003321Y015217D01*
X002211Y014107D01*
X002211Y014353D01*
X001853Y014711D01*
X001348Y014711D01*
X000991Y014353D01*
X000991Y013848D01*
X001344Y013495D01*
X001141Y013291D01*
X001141Y012910D01*
X001326Y012725D01*
X001326Y011546D01*
X001368Y011445D01*
X001445Y011368D01*
X003141Y009672D01*
X003141Y009249D01*
X003211Y009080D01*
X003340Y008951D01*
X003509Y008881D01*
X003692Y008881D01*
X003861Y008951D01*
X003991Y009080D01*
X004061Y009249D01*
X004061Y009952D01*
X003991Y010121D01*
X003861Y010251D01*
X004340Y010251D01*
X004211Y010121D01*
X004141Y009952D01*
X004141Y009249D01*
X004211Y009080D01*
X004321Y008970D01*
X004321Y008217D01*
X004211Y008107D01*
X004211Y008353D01*
X003853Y008711D01*
X003348Y008711D01*
X003101Y008463D01*
X002853Y008711D01*
X002348Y008711D01*
X002101Y008463D01*
X001963Y008601D01*
X002211Y008848D01*
X002211Y009353D01*
X001853Y009711D01*
X001348Y009711D01*
X000991Y009353D01*
X000991Y008848D01*
X001238Y008601D01*
X000991Y008353D01*
X000991Y007848D01*
X001348Y007491D01*
X001853Y007491D01*
X002101Y007738D01*
X002348Y007491D01*
X002853Y007491D01*
X003101Y007738D01*
X003348Y007491D01*
X003595Y007491D01*
X001363Y005259D01*
X001321Y005156D01*
X001321Y005045D01*
X001321Y004471D01*
X001141Y004291D01*
X001141Y003910D01*
X001321Y003730D01*
X001321Y002626D01*
X001318Y002625D01*
X001177Y002484D01*
X001101Y002300D01*
X001101Y001501D01*
X001177Y001318D01*
X001318Y001177D01*
X001501Y001101D01*
X001700Y001101D01*
X001884Y001177D01*
X002025Y001318D01*
X002101Y001501D01*
X002177Y001318D01*
X002318Y001177D01*
X002501Y001101D01*
X002700Y001101D01*
X002884Y001177D01*
X003025Y001318D01*
X003101Y001501D01*
X003177Y001318D01*
X003318Y001177D01*
X003501Y001101D01*
X003700Y001101D01*
X003884Y001177D01*
X004025Y001318D01*
X004101Y001501D01*
X004177Y001318D01*
X004318Y001177D01*
X004501Y001101D01*
X004700Y001101D01*
X004884Y001177D01*
X005025Y001318D01*
X005101Y001501D01*
X005177Y001318D01*
X005318Y001177D01*
X005501Y001101D01*
X005700Y001101D01*
X005884Y001177D01*
X006025Y001318D01*
X006101Y001501D01*
X006177Y001318D01*
X006318Y001177D01*
X006501Y001101D01*
X006700Y001101D01*
X006884Y001177D01*
X007025Y001318D01*
X007101Y001501D01*
X007177Y001318D01*
X007318Y001177D01*
X007501Y001101D01*
X007700Y001101D01*
X007884Y001177D01*
X008025Y001318D01*
X008101Y001501D01*
X008101Y002300D01*
X008025Y002484D01*
X007952Y002556D01*
X009759Y004363D01*
X009838Y004442D01*
X009881Y004545D01*
X009881Y005485D01*
X012759Y008363D01*
X012838Y008442D01*
X012881Y008545D01*
X012881Y008970D01*
X012991Y009080D01*
X013061Y009249D01*
X013061Y009952D01*
X012991Y010121D01*
X012861Y010251D01*
X013340Y010251D01*
X013211Y010121D01*
X013141Y009952D01*
X013141Y009249D01*
X013211Y009080D01*
X013326Y008965D01*
X013326Y008215D01*
X012592Y007481D01*
X012525Y007481D01*
X012386Y007423D01*
X012279Y007316D01*
X012221Y007176D01*
X012221Y007025D01*
X012279Y006886D01*
X012386Y006779D01*
X012525Y006721D01*
X012676Y006721D01*
X012816Y006779D01*
X012923Y006886D01*
X012981Y007025D01*
X012981Y007092D01*
X013834Y007945D01*
X013876Y008046D01*
X013876Y008155D01*
X013876Y008965D01*
X013991Y009080D01*
X014061Y009249D01*
X014061Y009952D01*
X013991Y010121D01*
X013861Y010251D01*
X014340Y010251D01*
X014211Y010121D01*
X014141Y009952D01*
X014141Y009249D01*
X014211Y009080D01*
X014321Y008970D01*
X014321Y008330D01*
X014296Y008305D01*
X014241Y008172D01*
X014241Y008029D01*
X014296Y007897D01*
X014312Y007881D01*
X014045Y007881D01*
X013942Y007838D01*
X013863Y007759D01*
X011485Y005381D01*
X011239Y005381D01*
X011239Y005441D01*
X011122Y005558D01*
X010442Y005558D01*
X010324Y005441D01*
X010324Y004760D01*
X010442Y004643D01*
X011122Y004643D01*
X011239Y004760D01*
X011239Y004821D01*
X011545Y004821D01*
X011656Y004821D01*
X011759Y004863D01*
X013491Y006595D01*
X013491Y006348D01*
X013848Y005991D01*
X014353Y005991D01*
X014711Y006348D01*
X014711Y006853D01*
X014353Y007211D01*
X014107Y007211D01*
X014217Y007321D01*
X014872Y007321D01*
X014897Y007296D01*
X015029Y007241D01*
X015172Y007241D01*
X015305Y007296D01*
X015406Y007397D01*
X015461Y007529D01*
X015461Y007672D01*
X015406Y007805D01*
X015305Y007906D01*
X015172Y007961D01*
X015029Y007961D01*
X014912Y007912D01*
X014961Y008029D01*
X014961Y008172D01*
X014906Y008305D01*
X014881Y008330D01*
X014881Y008970D01*
X014991Y009080D01*
X015061Y009249D01*
X015061Y009952D01*
X014991Y010121D01*
X014861Y010251D01*
X015326Y010251D01*
X015326Y010236D02*
X015211Y010121D01*
X015141Y009952D01*
X015141Y009249D01*
X015211Y009080D01*
X015340Y008951D01*
X015509Y008881D01*
X015692Y008881D01*
X015861Y008951D01*
X015991Y009080D01*
X016061Y009249D01*
X016061Y009952D01*
X015991Y010121D01*
X015876Y010236D01*
X015876Y010326D01*
X017338Y010326D01*
X017386Y010279D01*
X017525Y010221D01*
X017676Y010221D01*
X017816Y010279D01*
X017923Y010386D01*
X017981Y010525D01*
X017981Y010676D01*
X017923Y010816D01*
X017888Y010851D01*
X017997Y010851D01*
X019459Y009389D01*
X019551Y009351D01*
X019651Y009351D01*
X024497Y009351D01*
X029889Y003959D01*
X029959Y003889D01*
X030051Y003851D01*
X031151Y003851D01*
X031242Y003889D01*
X031313Y003959D01*
X031704Y004351D01*
X032381Y004351D01*
X032381Y003803D01*
X032601Y003583D01*
X032601Y002822D01*
X031849Y002070D01*
X031801Y002050D01*
X031651Y001901D01*
X031571Y001706D01*
X031571Y001495D01*
X031651Y001301D01*
X031801Y001151D01*
X031995Y001071D01*
X032206Y001071D01*
X032401Y001151D01*
X032550Y001301D01*
X032570Y001349D01*
X033533Y002312D01*
X033611Y002499D01*
X033611Y002702D01*
X033601Y002726D01*
X033601Y003583D01*
X033742Y003724D01*
X033885Y003581D01*
X034051Y003581D01*
X034051Y004051D01*
X034151Y004051D01*
X034151Y004151D01*
X034621Y004151D01*
X034621Y004316D01*
X034371Y004565D01*
X034671Y004865D01*
X034671Y005337D01*
X034407Y005601D01*
X034671Y005865D01*
X034671Y006337D01*
X034407Y006601D01*
X034671Y006865D01*
X034671Y007337D01*
X034407Y007601D01*
X034671Y007865D01*
X034671Y008337D01*
X034407Y008601D01*
X034671Y008865D01*
X034671Y009337D01*
X034407Y009601D01*
X034671Y009865D01*
X034671Y010337D01*
X034407Y010601D01*
X034671Y010865D01*
X034671Y011337D01*
X034381Y011627D01*
X034381Y014141D01*
X034452Y014141D01*
X034621Y014211D01*
X034751Y014340D01*
X034821Y014509D01*
X034821Y014692D01*
X034751Y014861D01*
X034621Y014991D01*
X034452Y015061D01*
X033749Y015061D01*
X033580Y014991D01*
X033451Y014861D01*
X033381Y014692D01*
X033381Y014509D01*
X033451Y014340D01*
X033580Y014211D01*
X033749Y014141D01*
X033821Y014141D01*
X033821Y011627D01*
X033601Y011407D01*
X033381Y011627D01*
X033381Y012045D01*
X033381Y012156D01*
X033338Y012259D01*
X030838Y014759D01*
X030759Y014838D01*
X030656Y014881D01*
X026217Y014881D01*
X025561Y015537D01*
X025561Y015791D01*
X025291Y016061D01*
X024910Y016061D01*
X024641Y015791D01*
X024641Y015410D01*
X024910Y015141D01*
X025165Y015141D01*
X025942Y014363D01*
X025973Y014351D01*
X022677Y014351D01*
X022652Y014361D01*
X020708Y014361D01*
X019248Y015821D01*
X019152Y015861D01*
X019049Y015861D01*
X009549Y015861D01*
X009454Y015821D01*
X009380Y015748D01*
X009370Y015724D01*
X007459Y013813D01*
X007389Y013742D01*
X007351Y013651D01*
X007351Y013255D01*
X007340Y013251D01*
X007211Y013121D01*
X007141Y012952D01*
X007141Y012249D01*
X007211Y012080D01*
X007340Y011951D01*
X007509Y011881D01*
X007692Y011881D01*
X007861Y011951D01*
X007991Y012080D01*
X008061Y012249D01*
X008061Y012952D01*
X007991Y013121D01*
X007861Y013251D01*
X007851Y013255D01*
X007851Y013497D01*
X009694Y015341D01*
X010001Y015341D01*
X009954Y015321D01*
X009880Y015248D01*
X009870Y015224D01*
X008389Y013742D01*
X008351Y013651D01*
X008351Y013551D01*
X008351Y013255D01*
X008340Y013251D01*
X008211Y013121D01*
X008141Y012952D01*
X008141Y012249D01*
X008211Y012080D01*
X008340Y011951D01*
X008509Y011881D01*
X008692Y011881D01*
X008861Y011951D01*
X008991Y012080D01*
X009061Y012249D01*
X009061Y012952D01*
X008991Y013121D01*
X008861Y013251D01*
X008851Y013255D01*
X008851Y013497D01*
X010194Y014841D01*
X011501Y014841D01*
X011454Y014821D01*
X011380Y014748D01*
X011370Y014724D01*
X009879Y013233D01*
X009861Y013251D01*
X009692Y013321D01*
X009509Y013321D01*
X009340Y013251D01*
X009211Y013121D01*
X009141Y012952D01*
X009141Y012249D01*
X009211Y012080D01*
X009340Y011951D01*
X009509Y011881D01*
X009692Y011881D01*
X009861Y011951D01*
X009991Y012080D01*
X010061Y012249D01*
X010061Y012707D01*
X010141Y012787D01*
X010141Y012249D01*
X010211Y012080D01*
X010340Y011951D01*
X010509Y011881D01*
X010692Y011881D01*
X010861Y011951D01*
X010991Y012080D01*
X011020Y012150D01*
X011084Y011995D01*
X011228Y011851D01*
X007204Y011851D01*
X006983Y012072D01*
X006991Y012080D01*
X007061Y012249D01*
X007061Y012952D01*
X006991Y013121D01*
X006861Y013251D01*
X006692Y013321D01*
X006509Y013321D01*
X006340Y013251D01*
X006211Y013121D01*
X006141Y012952D01*
X006141Y012249D01*
X006211Y012080D01*
X006340Y011951D01*
X006438Y011911D01*
X006889Y011459D01*
X006959Y011389D01*
X007051Y011351D01*
X018497Y011351D01*
X019889Y009959D01*
X019959Y009889D01*
X020051Y009851D01*
X024997Y009851D01*
X028889Y005959D01*
X028959Y005889D01*
X029051Y005851D01*
X030497Y005851D01*
X030889Y005459D01*
X030914Y005434D01*
X030886Y005423D01*
X030779Y005316D01*
X030721Y005176D01*
X030721Y005025D01*
X030779Y004886D01*
X030886Y004779D01*
X031025Y004721D01*
X031176Y004721D01*
X031316Y004779D01*
X031388Y004851D01*
X032545Y004851D01*
X031651Y004851D01*
X031551Y004851D01*
X031459Y004813D01*
X030997Y004351D01*
X030204Y004351D01*
X029901Y004654D01*
X030039Y004654D01*
X030039Y005052D01*
X030135Y005052D01*
X030135Y004654D01*
X030404Y004654D01*
X030442Y004664D01*
X030476Y004684D01*
X030504Y004712D01*
X030524Y004746D01*
X030534Y004784D01*
X030534Y005052D01*
X030136Y005052D01*
X030136Y005149D01*
X030534Y005149D01*
X030534Y005417D01*
X030524Y005456D01*
X030504Y005490D01*
X030476Y005518D01*
X030442Y005537D01*
X030404Y005548D01*
X030135Y005548D01*
X030135Y005149D01*
X030039Y005149D01*
X030039Y005548D01*
X029770Y005548D01*
X029732Y005537D01*
X029698Y005518D01*
X029670Y005490D01*
X029650Y005456D01*
X029640Y005417D01*
X029640Y005149D01*
X030038Y005149D01*
X030038Y005052D01*
X029640Y005052D01*
X029640Y004915D01*
X024813Y009742D01*
X024742Y009813D01*
X024651Y009851D01*
X019704Y009851D01*
X018313Y011242D01*
X018242Y011313D01*
X018151Y011351D01*
X006204Y011351D01*
X005851Y011704D01*
X005851Y011946D01*
X005861Y011951D01*
X005991Y012080D01*
X006061Y012249D01*
X006061Y012952D01*
X005991Y013121D01*
X005861Y013251D01*
X005692Y013321D01*
X005509Y013321D01*
X005340Y013251D01*
X005211Y013121D01*
X005141Y012952D01*
X005141Y012249D01*
X005211Y012080D01*
X005340Y011951D01*
X005351Y011946D01*
X005351Y011551D01*
X005389Y011459D01*
X005459Y011389D01*
X005959Y010889D01*
X006051Y010851D01*
X006151Y010851D01*
X015486Y010851D01*
X015445Y010834D01*
X015368Y010757D01*
X015326Y010655D01*
X015326Y010546D01*
X015326Y010236D01*
X015326Y010349D02*
X003241Y010349D01*
X003340Y010251D02*
X003340Y010251D01*
X003340Y010250D01*
X001876Y011715D01*
X001876Y012725D01*
X002061Y012910D01*
X002061Y013165D01*
X003759Y014863D01*
X003759Y014863D01*
X003838Y014942D01*
X003881Y015045D01*
X003881Y015601D01*
X003984Y015601D01*
X004083Y015700D01*
X004233Y015550D01*
X004471Y015451D01*
X004730Y015451D01*
X004969Y015550D01*
X005152Y015733D01*
X005211Y015875D01*
X005216Y015865D01*
X005258Y015808D01*
X005308Y015758D01*
X005365Y015716D01*
X005428Y015684D01*
X005495Y015662D01*
X005551Y015653D01*
X005551Y016051D01*
X005651Y016051D01*
X005651Y016151D01*
X005551Y016151D01*
X005551Y016548D01*
X005495Y016540D01*
X005428Y016518D01*
X005365Y016486D01*
X005308Y016444D01*
X005258Y016394D01*
X005216Y016337D01*
X005211Y016327D01*
X005152Y016469D01*
X005101Y016520D01*
X005101Y018001D01*
X005101Y018200D01*
X005025Y018384D01*
X004580Y018829D01*
X004585Y018824D02*
X007428Y018824D01*
X007442Y018838D02*
X006442Y017838D01*
X006363Y017759D01*
X006321Y017656D01*
X006321Y016526D01*
X006318Y016525D01*
X006177Y016384D01*
X006101Y016200D01*
X006101Y016001D01*
X006102Y015998D01*
X006003Y015899D01*
X006018Y015928D01*
X006040Y015995D01*
X006048Y016051D01*
X005651Y016051D01*
X005651Y015653D01*
X005706Y015662D01*
X005774Y015684D01*
X005803Y015699D01*
X003442Y013338D01*
X003365Y013261D01*
X003340Y013251D01*
X003211Y013121D01*
X003141Y012952D01*
X003141Y012249D01*
X003211Y012080D01*
X003340Y011951D01*
X003509Y011881D01*
X003692Y011881D01*
X003861Y011951D01*
X003991Y012080D01*
X004061Y012249D01*
X004061Y012952D01*
X003998Y013103D01*
X006498Y015602D01*
X006501Y015601D01*
X006700Y015601D01*
X006708Y015604D01*
X004365Y013261D01*
X004340Y013251D01*
X004211Y013121D01*
X004141Y012952D01*
X004141Y012249D01*
X004211Y012080D01*
X004340Y011951D01*
X004509Y011881D01*
X004692Y011881D01*
X004861Y011951D01*
X004991Y012080D01*
X005061Y012249D01*
X005061Y012952D01*
X004998Y013103D01*
X007498Y015602D01*
X007501Y015601D01*
X007700Y015601D01*
X007884Y015677D01*
X008025Y015818D01*
X008051Y015881D01*
X008051Y015580D01*
X008080Y015551D01*
X009121Y015551D01*
X009151Y015580D01*
X009151Y016621D01*
X009121Y016651D01*
X008080Y016651D01*
X008051Y016621D01*
X008051Y016321D01*
X008025Y016384D01*
X007884Y016525D01*
X007881Y016526D01*
X007881Y017485D01*
X008217Y017821D01*
X026485Y017821D01*
X027321Y016985D01*
X027321Y015858D01*
X027279Y015816D01*
X027221Y015676D01*
X027221Y015525D01*
X027279Y015386D01*
X027386Y015279D01*
X027525Y015221D01*
X027676Y015221D01*
X027816Y015279D01*
X027923Y015386D01*
X027981Y015525D01*
X027981Y015676D01*
X027923Y015816D01*
X027881Y015858D01*
X027881Y017156D01*
X027838Y017259D01*
X027759Y017338D01*
X026777Y018321D01*
X026985Y018321D01*
X028321Y016985D01*
X028321Y015971D01*
X028141Y015791D01*
X028141Y015410D01*
X028410Y015141D01*
X028791Y015141D01*
X029061Y015410D01*
X029061Y015791D01*
X028881Y015971D01*
X028881Y017045D01*
X028881Y017156D01*
X028838Y017259D01*
X027338Y018759D01*
X027259Y018838D01*
X027156Y018881D01*
X007656Y018881D01*
X007545Y018881D01*
X007442Y018838D01*
X007330Y018725D02*
X004683Y018725D01*
X004782Y018627D02*
X007231Y018627D01*
X007132Y018528D02*
X004880Y018528D01*
X004979Y018430D02*
X007034Y018430D01*
X006935Y018331D02*
X005046Y018331D01*
X005087Y018233D02*
X006837Y018233D01*
X006738Y018134D02*
X005101Y018134D01*
X005101Y018036D02*
X006640Y018036D01*
X006541Y017937D02*
X005101Y017937D01*
X005101Y017839D02*
X006443Y017839D01*
X006355Y017740D02*
X005101Y017740D01*
X005101Y017641D02*
X006321Y017641D01*
X006321Y017543D02*
X005101Y017543D01*
X005101Y017444D02*
X006321Y017444D01*
X006321Y017346D02*
X005101Y017346D01*
X005101Y017247D02*
X006321Y017247D01*
X006321Y017149D02*
X005101Y017149D01*
X005101Y017050D02*
X006321Y017050D01*
X006321Y016952D02*
X005101Y016952D01*
X005101Y016853D02*
X006321Y016853D01*
X006321Y016755D02*
X005101Y016755D01*
X005101Y016656D02*
X006321Y016656D01*
X006321Y016558D02*
X005101Y016558D01*
X005156Y016459D02*
X005328Y016459D01*
X005233Y016360D02*
X005197Y016360D01*
X005551Y016360D02*
X005651Y016360D01*
X005651Y016262D02*
X005551Y016262D01*
X005551Y016163D02*
X005651Y016163D01*
X005651Y016151D02*
X005651Y016548D01*
X005706Y016540D01*
X005774Y016518D01*
X005837Y016486D01*
X005894Y016444D01*
X005944Y016394D01*
X005986Y016337D01*
X006018Y016274D01*
X006040Y016206D01*
X006048Y016151D01*
X005651Y016151D01*
X005651Y016065D02*
X006101Y016065D01*
X006101Y016163D02*
X006046Y016163D01*
X006022Y016262D02*
X006126Y016262D01*
X006167Y016360D02*
X005968Y016360D01*
X005873Y016459D02*
X006252Y016459D01*
X005651Y016459D02*
X005551Y016459D01*
X005551Y015966D02*
X005651Y015966D01*
X005651Y015868D02*
X005551Y015868D01*
X005551Y015769D02*
X005651Y015769D01*
X005651Y015671D02*
X005551Y015671D01*
X005468Y015671D02*
X005090Y015671D01*
X005167Y015769D02*
X005296Y015769D01*
X005214Y015868D02*
X005208Y015868D01*
X004991Y015572D02*
X005676Y015572D01*
X005733Y015671D02*
X005775Y015671D01*
X005578Y015474D02*
X004785Y015474D01*
X004416Y015474D02*
X003881Y015474D01*
X003881Y015572D02*
X004210Y015572D01*
X004112Y015671D02*
X004053Y015671D01*
X003881Y015375D02*
X005479Y015375D01*
X005381Y015276D02*
X003881Y015276D01*
X003881Y015178D02*
X005282Y015178D01*
X005183Y015079D02*
X003881Y015079D01*
X003854Y014981D02*
X005085Y014981D01*
X004986Y014882D02*
X003778Y014882D01*
X003680Y014784D02*
X004888Y014784D01*
X004789Y014685D02*
X003581Y014685D01*
X003483Y014587D02*
X004691Y014587D01*
X004592Y014488D02*
X003384Y014488D01*
X003285Y014390D02*
X004494Y014390D01*
X004395Y014291D02*
X003187Y014291D01*
X003088Y014192D02*
X004297Y014192D01*
X004198Y014094D02*
X002990Y014094D01*
X002891Y013995D02*
X004099Y013995D01*
X004001Y013897D02*
X002793Y013897D01*
X002694Y013798D02*
X003902Y013798D01*
X003804Y013700D02*
X002596Y013700D01*
X002497Y013601D02*
X003705Y013601D01*
X003607Y013503D02*
X002399Y013503D01*
X002300Y013404D02*
X003508Y013404D01*
X003442Y013338D02*
X003442Y013338D01*
X003410Y013306D02*
X002201Y013306D01*
X002103Y013207D02*
X003297Y013207D01*
X003206Y013109D02*
X002061Y013109D01*
X002061Y013010D02*
X003165Y013010D01*
X003141Y012911D02*
X002061Y012911D01*
X001963Y012813D02*
X003141Y012813D01*
X003141Y012714D02*
X001876Y012714D01*
X001876Y012616D02*
X003141Y012616D01*
X003141Y012517D02*
X001876Y012517D01*
X001876Y012419D02*
X003141Y012419D01*
X003141Y012320D02*
X001876Y012320D01*
X001876Y012222D02*
X003152Y012222D01*
X003193Y012123D02*
X001876Y012123D01*
X001876Y012025D02*
X003266Y012025D01*
X003400Y011926D02*
X001876Y011926D01*
X001876Y011827D02*
X005351Y011827D01*
X005351Y011729D02*
X001876Y011729D01*
X001960Y011630D02*
X005351Y011630D01*
X005359Y011532D02*
X002059Y011532D01*
X002157Y011433D02*
X005415Y011433D01*
X005513Y011335D02*
X002256Y011335D01*
X002354Y011236D02*
X005612Y011236D01*
X005710Y011138D02*
X002453Y011138D01*
X002551Y011039D02*
X005809Y011039D01*
X005907Y010941D02*
X002650Y010941D01*
X002748Y010842D02*
X015465Y010842D01*
X015362Y010743D02*
X002847Y010743D01*
X002946Y010645D02*
X015326Y010645D01*
X015326Y010546D02*
X003044Y010546D01*
X003143Y010448D02*
X015326Y010448D01*
X015242Y010152D02*
X014960Y010152D01*
X015019Y010054D02*
X015183Y010054D01*
X015142Y009955D02*
X015060Y009955D01*
X015061Y009857D02*
X015141Y009857D01*
X015141Y009758D02*
X015061Y009758D01*
X015061Y009659D02*
X015141Y009659D01*
X015141Y009561D02*
X015061Y009561D01*
X015061Y009462D02*
X015141Y009462D01*
X015141Y009364D02*
X015061Y009364D01*
X015061Y009265D02*
X015141Y009265D01*
X015175Y009167D02*
X015027Y009167D01*
X014979Y009068D02*
X015223Y009068D01*
X015321Y008970D02*
X014881Y008970D01*
X014881Y008871D02*
X016963Y008871D01*
X016872Y008962D02*
X017341Y008493D01*
X017341Y006930D01*
X017314Y006949D01*
X017257Y006978D01*
X017196Y006998D01*
X017133Y007008D01*
X017130Y007008D01*
X017130Y006630D01*
X017072Y006630D01*
X017072Y007008D01*
X017069Y007008D01*
X017005Y006998D01*
X016944Y006978D01*
X016887Y006949D01*
X016835Y006912D01*
X016790Y006866D01*
X016752Y006814D01*
X016723Y006757D01*
X016703Y006696D01*
X016693Y006633D01*
X016693Y006630D01*
X017072Y006630D01*
X017072Y006572D01*
X017130Y006572D01*
X017130Y006193D01*
X017133Y006193D01*
X017196Y006203D01*
X017257Y006223D01*
X017314Y006252D01*
X017341Y006272D01*
X017341Y005201D01*
X017321Y005248D01*
X016611Y005958D01*
X016611Y007073D01*
X016673Y007136D01*
X016731Y007275D01*
X016731Y007426D01*
X016673Y007566D01*
X016566Y007673D01*
X016426Y007731D01*
X016275Y007731D01*
X016136Y007673D01*
X016029Y007566D01*
X015971Y007426D01*
X015971Y007275D01*
X016029Y007136D01*
X016091Y007073D01*
X016091Y006973D01*
X015853Y007211D01*
X015348Y007211D01*
X014991Y006853D01*
X014991Y006348D01*
X015348Y005991D01*
X015853Y005991D01*
X016091Y006228D01*
X016091Y005799D01*
X016130Y005704D01*
X016204Y005630D01*
X016841Y004993D01*
X016841Y003988D01*
X016734Y003881D01*
X015156Y003881D01*
X015045Y003881D01*
X014942Y003838D01*
X014165Y003061D01*
X013910Y003061D01*
X013641Y002791D01*
X013641Y002410D01*
X013910Y002141D01*
X014291Y002141D01*
X014303Y002153D01*
X014443Y002012D01*
X014443Y001610D01*
X014560Y001493D01*
X015241Y001493D01*
X015358Y001610D01*
X015358Y002193D01*
X015410Y002141D01*
X015791Y002141D01*
X015903Y002253D01*
X016143Y002012D01*
X016143Y001610D01*
X016260Y001493D01*
X016941Y001493D01*
X017058Y001610D01*
X017058Y002291D01*
X017029Y002321D01*
X017045Y002321D01*
X017156Y002321D01*
X017180Y002331D01*
X017141Y002291D01*
X017141Y001910D01*
X017410Y001641D01*
X017791Y001641D01*
X017971Y001821D01*
X018045Y001821D01*
X018156Y001821D01*
X018259Y001863D01*
X019259Y002863D01*
X019338Y002942D01*
X019381Y003045D01*
X019381Y003234D01*
X019489Y003342D01*
X019520Y003416D01*
X019586Y003257D01*
X019671Y003172D01*
X019671Y003015D01*
X019736Y002857D01*
X020857Y001736D01*
X021015Y001671D01*
X021168Y001671D01*
X021348Y001491D01*
X021853Y001491D01*
X022211Y001848D01*
X022211Y002353D01*
X021853Y002711D01*
X021348Y002711D01*
X021224Y002586D01*
X020584Y003225D01*
X020616Y003257D01*
X020708Y003480D01*
X020708Y003722D01*
X020616Y003945D01*
X020445Y004116D01*
X020222Y004208D01*
X019980Y004208D01*
X019757Y004116D01*
X019586Y003945D01*
X019520Y003785D01*
X019489Y003860D01*
X019360Y003989D01*
X019192Y004058D01*
X019010Y004058D01*
X018842Y003989D01*
X018713Y003860D01*
X018643Y003692D01*
X018643Y003510D01*
X018713Y003342D01*
X018821Y003234D01*
X018821Y003217D01*
X017985Y002381D01*
X017971Y002381D01*
X017791Y002561D01*
X017457Y002561D01*
X018039Y003143D01*
X018192Y003143D01*
X018360Y003213D01*
X018489Y003342D01*
X018558Y003510D01*
X018558Y003692D01*
X018489Y003860D01*
X018361Y003988D01*
X018361Y004049D01*
X018361Y004152D01*
X018321Y004248D01*
X017861Y004708D01*
X017861Y005949D01*
X017863Y005942D01*
X018863Y004942D01*
X018942Y004863D01*
X019045Y004821D01*
X021618Y004821D01*
X021618Y004721D01*
X021735Y004604D01*
X022494Y004604D01*
X022611Y004721D01*
X022611Y005480D01*
X022494Y005598D01*
X021735Y005598D01*
X021618Y005480D01*
X021618Y005381D01*
X019217Y005381D01*
X018381Y006217D01*
X018381Y006234D01*
X018489Y006342D01*
X018558Y006510D01*
X018558Y006692D01*
X018489Y006860D01*
X018360Y006989D01*
X018192Y007058D01*
X018010Y007058D01*
X017861Y006996D01*
X017861Y008549D01*
X017861Y008652D01*
X017821Y008748D01*
X017061Y009508D01*
X017061Y009952D01*
X016991Y010121D01*
X016861Y010251D01*
X017453Y010251D01*
X017749Y010251D02*
X018597Y010251D01*
X018499Y010349D02*
X017887Y010349D01*
X017949Y010448D02*
X018400Y010448D01*
X018302Y010546D02*
X017981Y010546D01*
X017981Y010645D02*
X018203Y010645D01*
X018105Y010743D02*
X017953Y010743D01*
X018006Y010842D02*
X017897Y010842D01*
X018101Y011101D02*
X006101Y011101D01*
X005601Y011601D01*
X005601Y012601D01*
X006061Y012616D02*
X006141Y012616D01*
X006141Y012714D02*
X006061Y012714D01*
X006061Y012813D02*
X006141Y012813D01*
X006141Y012911D02*
X006061Y012911D01*
X006037Y013010D02*
X006165Y013010D01*
X006206Y013109D02*
X005996Y013109D01*
X005905Y013207D02*
X006297Y013207D01*
X006473Y013306D02*
X005729Y013306D01*
X005473Y013306D02*
X005201Y013306D01*
X005297Y013207D02*
X005103Y013207D01*
X005004Y013109D02*
X005206Y013109D01*
X005165Y013010D02*
X005037Y013010D01*
X005061Y012911D02*
X005141Y012911D01*
X005141Y012813D02*
X005061Y012813D01*
X005061Y012714D02*
X005141Y012714D01*
X005141Y012616D02*
X005061Y012616D01*
X005061Y012517D02*
X005141Y012517D01*
X005141Y012419D02*
X005061Y012419D01*
X005061Y012320D02*
X005141Y012320D01*
X005152Y012222D02*
X005049Y012222D01*
X005008Y012123D02*
X005193Y012123D01*
X005266Y012025D02*
X004935Y012025D01*
X004801Y011926D02*
X005351Y011926D01*
X005851Y011926D02*
X006400Y011926D01*
X006521Y011827D02*
X005851Y011827D01*
X005851Y011729D02*
X006619Y011729D01*
X006718Y011630D02*
X005925Y011630D01*
X006023Y011532D02*
X006816Y011532D01*
X006915Y011433D02*
X006122Y011433D01*
X006266Y012025D02*
X005935Y012025D01*
X006008Y012123D02*
X006193Y012123D01*
X006152Y012222D02*
X006049Y012222D01*
X006061Y012320D02*
X006141Y012320D01*
X006141Y012419D02*
X006061Y012419D01*
X006061Y012517D02*
X006141Y012517D01*
X006601Y012601D02*
X006601Y012101D01*
X007101Y011601D01*
X018601Y011601D01*
X020101Y010101D01*
X025101Y010101D01*
X029101Y006101D01*
X030601Y006101D01*
X031101Y005601D01*
X033601Y005601D01*
X034101Y006101D01*
X034524Y005718D02*
X035326Y005718D01*
X035326Y005816D02*
X034622Y005816D01*
X034671Y005915D02*
X035326Y005915D01*
X035326Y006013D02*
X034671Y006013D01*
X034671Y006112D02*
X035326Y006112D01*
X035326Y006210D02*
X034671Y006210D01*
X034671Y006309D02*
X035326Y006309D01*
X035326Y006408D02*
X034600Y006408D01*
X034501Y006506D02*
X035326Y006506D01*
X035326Y006605D02*
X034411Y006605D01*
X034509Y006703D02*
X035326Y006703D01*
X035326Y006802D02*
X034608Y006802D01*
X034671Y006900D02*
X035326Y006900D01*
X035326Y006999D02*
X034671Y006999D01*
X034671Y007097D02*
X035326Y007097D01*
X035326Y007196D02*
X034671Y007196D01*
X034671Y007294D02*
X035326Y007294D01*
X035326Y007393D02*
X034615Y007393D01*
X034516Y007492D02*
X035326Y007492D01*
X035326Y007590D02*
X034418Y007590D01*
X034495Y007689D02*
X035326Y007689D01*
X035326Y007787D02*
X034593Y007787D01*
X034671Y007886D02*
X035326Y007886D01*
X035326Y007984D02*
X034671Y007984D01*
X034671Y008083D02*
X035326Y008083D01*
X035326Y008181D02*
X034671Y008181D01*
X034671Y008280D02*
X035326Y008280D01*
X035326Y008378D02*
X034629Y008378D01*
X034531Y008477D02*
X035326Y008477D01*
X035326Y008576D02*
X034432Y008576D01*
X034480Y008674D02*
X035326Y008674D01*
X035326Y008773D02*
X034579Y008773D01*
X034671Y008871D02*
X035326Y008871D01*
X035326Y008970D02*
X034671Y008970D01*
X034671Y009068D02*
X035326Y009068D01*
X035326Y009167D02*
X034671Y009167D01*
X034671Y009265D02*
X035326Y009265D01*
X035326Y009364D02*
X034644Y009364D01*
X034545Y009462D02*
X035326Y009462D01*
X035326Y009561D02*
X034447Y009561D01*
X034466Y009659D02*
X035326Y009659D01*
X035326Y009758D02*
X034564Y009758D01*
X034663Y009857D02*
X035326Y009857D01*
X035326Y009955D02*
X034671Y009955D01*
X034671Y010054D02*
X035326Y010054D01*
X035326Y010152D02*
X034671Y010152D01*
X034671Y010251D02*
X035326Y010251D01*
X035326Y010349D02*
X034658Y010349D01*
X034560Y010448D02*
X035326Y010448D01*
X035326Y010546D02*
X034461Y010546D01*
X034451Y010645D02*
X035326Y010645D01*
X035326Y010743D02*
X034550Y010743D01*
X034648Y010842D02*
X035326Y010842D01*
X035326Y010941D02*
X034671Y010941D01*
X034671Y011039D02*
X035326Y011039D01*
X035326Y011138D02*
X034671Y011138D01*
X034671Y011236D02*
X035326Y011236D01*
X035326Y011335D02*
X034671Y011335D01*
X034574Y011433D02*
X035326Y011433D01*
X035326Y011532D02*
X034476Y011532D01*
X034381Y011630D02*
X035326Y011630D01*
X035326Y011729D02*
X034381Y011729D01*
X034381Y011827D02*
X035326Y011827D01*
X035326Y011926D02*
X034381Y011926D01*
X034381Y012025D02*
X035326Y012025D01*
X035326Y012123D02*
X034381Y012123D01*
X034381Y012222D02*
X035326Y012222D01*
X035326Y012320D02*
X034381Y012320D01*
X034381Y012419D02*
X035326Y012419D01*
X035326Y012517D02*
X034381Y012517D01*
X034381Y012616D02*
X035326Y012616D01*
X035326Y012714D02*
X034381Y012714D01*
X034381Y012813D02*
X035326Y012813D01*
X035326Y012911D02*
X034381Y012911D01*
X034381Y013010D02*
X035326Y013010D01*
X035326Y013109D02*
X034381Y013109D01*
X034381Y013207D02*
X035326Y013207D01*
X035326Y013306D02*
X034381Y013306D01*
X034381Y013404D02*
X035326Y013404D01*
X035326Y013503D02*
X034381Y013503D01*
X034381Y013601D02*
X035326Y013601D01*
X035326Y013700D02*
X034381Y013700D01*
X034381Y013798D02*
X035326Y013798D01*
X035326Y013897D02*
X034381Y013897D01*
X034381Y013995D02*
X035326Y013995D01*
X035326Y014094D02*
X034381Y014094D01*
X034577Y014192D02*
X035326Y014192D01*
X035326Y014291D02*
X034702Y014291D01*
X034771Y014390D02*
X035326Y014390D01*
X035326Y014488D02*
X034812Y014488D01*
X034821Y014587D02*
X035326Y014587D01*
X035326Y014685D02*
X034821Y014685D01*
X034783Y014784D02*
X035326Y014784D01*
X035326Y014882D02*
X034730Y014882D01*
X034631Y014981D02*
X035326Y014981D01*
X035326Y015079D02*
X026018Y015079D01*
X026117Y014981D02*
X033570Y014981D01*
X033472Y014882D02*
X026215Y014882D01*
X025920Y015178D02*
X028373Y015178D01*
X028275Y015276D02*
X027811Y015276D01*
X027912Y015375D02*
X028176Y015375D01*
X028141Y015474D02*
X027959Y015474D01*
X027981Y015572D02*
X028141Y015572D01*
X028141Y015671D02*
X027981Y015671D01*
X027942Y015769D02*
X028141Y015769D01*
X028217Y015868D02*
X027881Y015868D01*
X027881Y015966D02*
X028316Y015966D01*
X028321Y016065D02*
X027881Y016065D01*
X027881Y016163D02*
X028321Y016163D01*
X028321Y016262D02*
X027881Y016262D01*
X027881Y016360D02*
X028321Y016360D01*
X028321Y016459D02*
X027881Y016459D01*
X027881Y016558D02*
X028321Y016558D01*
X028321Y016656D02*
X027881Y016656D01*
X027881Y016755D02*
X028321Y016755D01*
X028321Y016853D02*
X027881Y016853D01*
X027881Y016952D02*
X028321Y016952D01*
X028255Y017050D02*
X027881Y017050D01*
X027881Y017149D02*
X028157Y017149D01*
X028058Y017247D02*
X027843Y017247D01*
X027752Y017346D02*
X027960Y017346D01*
X027861Y017444D02*
X027653Y017444D01*
X027555Y017543D02*
X027763Y017543D01*
X027664Y017641D02*
X027456Y017641D01*
X027357Y017740D02*
X027566Y017740D01*
X027467Y017839D02*
X027259Y017839D01*
X027160Y017937D02*
X027368Y017937D01*
X027270Y018036D02*
X027062Y018036D01*
X026963Y018134D02*
X027171Y018134D01*
X027073Y018233D02*
X026865Y018233D01*
X027471Y018627D02*
X028179Y018627D01*
X028277Y018528D02*
X027569Y018528D01*
X027668Y018430D02*
X028376Y018430D01*
X028363Y018442D02*
X028442Y018363D01*
X028545Y018321D01*
X031156Y018321D01*
X031168Y018326D01*
X035326Y018326D01*
X035326Y003215D01*
X034092Y001981D01*
X034025Y001981D01*
X033886Y001923D01*
X033779Y001816D01*
X033721Y001676D01*
X033721Y001525D01*
X033779Y001386D01*
X033886Y001279D01*
X034025Y001221D01*
X034176Y001221D01*
X034316Y001279D01*
X034423Y001386D01*
X034481Y001525D01*
X034481Y001592D01*
X035601Y002712D01*
X035601Y000601D01*
X000601Y000601D01*
X000601Y028601D01*
X001728Y028601D01*
X001343Y028216D01*
X001343Y027608D01*
X001447Y027504D01*
X001447Y027250D01*
X001447Y026999D01*
X001543Y026768D01*
X002567Y025744D01*
X002744Y025567D01*
X002975Y025471D01*
X008975Y025471D01*
X009226Y025471D01*
X009458Y025567D01*
X010230Y026339D01*
X010725Y026085D01*
X010744Y026067D01*
X010836Y026028D01*
X010925Y025983D01*
X010951Y025981D01*
X010975Y025971D01*
X011076Y025971D01*
X011175Y025963D01*
X011200Y025971D01*
X013080Y025971D01*
X011840Y024731D01*
X011539Y024731D01*
X011512Y024776D01*
X011308Y024981D01*
X011057Y025126D01*
X010777Y025201D01*
X010487Y025201D01*
X010208Y025126D01*
X009957Y024981D01*
X009752Y024776D01*
X009726Y024731D01*
X009176Y024731D01*
X009150Y024776D01*
X008945Y024981D01*
X008695Y025126D01*
X008415Y025201D01*
X008125Y025201D01*
X007845Y025126D01*
X007595Y024981D01*
X007390Y024776D01*
X007245Y024525D01*
X007170Y024246D01*
X007170Y023956D01*
X007245Y023676D01*
X007390Y023425D01*
X007594Y023221D01*
X006221Y023221D01*
X006221Y023280D01*
X006266Y023325D01*
X006266Y023876D01*
X005900Y024242D01*
X006066Y024408D01*
X006066Y024571D01*
X005631Y024571D01*
X005631Y024631D01*
X005571Y024631D01*
X005571Y025066D01*
X005408Y025066D01*
X005136Y024793D01*
X005136Y024631D01*
X005571Y024631D01*
X005571Y024571D01*
X005136Y024571D01*
X005136Y024408D01*
X005302Y024242D01*
X004936Y023876D01*
X004936Y023325D01*
X004981Y023280D01*
X004981Y023231D01*
X002157Y023231D01*
X002194Y023258D01*
X002244Y023308D01*
X002286Y023365D01*
X002318Y023428D01*
X002340Y023495D01*
X002348Y023551D01*
X001651Y023551D01*
X001651Y023651D01*
X002348Y023651D01*
X002340Y023706D01*
X002318Y023774D01*
X002286Y023837D01*
X002244Y023894D01*
X002194Y023944D01*
X002137Y023986D01*
X002127Y023991D01*
X002269Y024050D01*
X002452Y024233D01*
X002551Y024471D01*
X002551Y024730D01*
X002452Y024969D01*
X002269Y025152D01*
X002030Y025251D01*
X001171Y025251D01*
X000933Y025152D01*
X000750Y024969D01*
X000651Y024730D01*
X000651Y024471D01*
X000750Y024233D01*
X000933Y024050D01*
X001075Y023991D01*
X001065Y023986D01*
X001008Y023944D01*
X000958Y023894D01*
X000916Y023837D01*
X000884Y023774D01*
X000862Y023706D01*
X000853Y023651D01*
X001551Y023651D01*
X001551Y023551D01*
X000853Y023551D01*
X000862Y023495D01*
X000884Y023428D01*
X000916Y023365D01*
X000958Y023308D01*
X001008Y023258D01*
X001065Y023216D01*
X001075Y023211D01*
X000933Y023152D01*
X000750Y022969D01*
X000651Y022730D01*
X000651Y022471D01*
X000750Y022233D01*
X000933Y022050D01*
X001171Y021951D01*
X002030Y021951D01*
X002078Y021971D01*
X005298Y021971D01*
X006558Y020291D01*
X006575Y020250D01*
X006631Y020193D01*
X006679Y020130D01*
X006718Y020107D01*
X006750Y020075D01*
X006823Y020045D01*
X006891Y020004D01*
X006936Y019998D01*
X006977Y019981D01*
X007057Y019981D01*
X007135Y019970D01*
X007179Y019981D01*
X010224Y019981D01*
X010248Y019991D01*
X010353Y019991D01*
X010428Y020065D01*
X010452Y020075D01*
X010626Y020250D01*
X010636Y020274D01*
X010711Y020348D01*
X010711Y020453D01*
X010721Y020477D01*
X010721Y020724D01*
X010711Y020748D01*
X010711Y020853D01*
X010636Y020928D01*
X010626Y020952D01*
X010452Y021126D01*
X010428Y021136D01*
X010353Y021211D01*
X010291Y021211D01*
X010511Y021431D01*
X010511Y021571D01*
X010131Y021571D01*
X010131Y021631D01*
X010511Y021631D01*
X010511Y021771D01*
X010301Y021981D01*
X011451Y021981D01*
X011475Y021971D01*
X012975Y021971D01*
X013226Y021971D01*
X013458Y022067D01*
X014399Y023008D01*
X014424Y023001D01*
X014714Y023001D01*
X014994Y023076D01*
X015245Y023221D01*
X015449Y023425D01*
X015476Y023471D01*
X016025Y023471D01*
X016051Y023425D01*
X016256Y023221D01*
X016507Y023076D01*
X016787Y023001D01*
X017076Y023001D01*
X017356Y023076D01*
X017607Y023221D01*
X017812Y023425D01*
X017838Y023471D01*
X017971Y023471D01*
X017971Y023102D01*
X017894Y023070D01*
X017704Y022881D01*
X017601Y022633D01*
X017601Y022364D01*
X017704Y022116D01*
X017771Y022050D01*
X017704Y021983D01*
X017601Y021735D01*
X017601Y021467D01*
X017704Y021219D01*
X017877Y021046D01*
X017831Y021000D01*
X017751Y020808D01*
X017751Y020599D01*
X017831Y020406D01*
X017979Y020258D01*
X018172Y020178D01*
X019030Y020178D01*
X019104Y020209D01*
X019358Y019954D01*
X019363Y019942D01*
X019442Y019863D01*
X019545Y019821D01*
X019656Y019821D01*
X019669Y019826D01*
X021326Y019826D01*
X021326Y019655D01*
X021326Y019546D01*
X021368Y019445D01*
X021445Y019368D01*
X021546Y019326D01*
X022225Y019326D01*
X022410Y019141D01*
X022791Y019141D01*
X023061Y019410D01*
X023061Y019791D01*
X022791Y020061D01*
X022410Y020061D01*
X022225Y019876D01*
X021876Y019876D01*
X021876Y020046D01*
X021876Y020155D01*
X021834Y020257D01*
X021757Y020334D01*
X021655Y020376D01*
X019881Y020376D01*
X019881Y020485D01*
X021037Y021641D01*
X021291Y021641D01*
X021391Y021740D01*
X021391Y021410D01*
X021660Y021141D01*
X022041Y021141D01*
X022311Y021410D01*
X022311Y021791D01*
X022041Y022061D01*
X021660Y022061D01*
X021561Y021961D01*
X021561Y022291D01*
X021291Y022561D01*
X020910Y022561D01*
X020641Y022291D01*
X020641Y022037D01*
X019439Y020835D01*
X019370Y021000D01*
X019325Y021046D01*
X019498Y021219D01*
X019600Y021467D01*
X019600Y021735D01*
X019498Y021983D01*
X019431Y022050D01*
X019498Y022116D01*
X019600Y022364D01*
X019600Y022633D01*
X019498Y022881D01*
X019308Y023070D01*
X019231Y023102D01*
X019231Y023481D01*
X023981Y023481D01*
X023981Y019977D01*
X024075Y019750D01*
X024250Y019575D01*
X024750Y019075D01*
X024977Y018981D01*
X025224Y018981D01*
X026724Y018981D01*
X026748Y018991D01*
X026853Y018991D01*
X026928Y019065D01*
X026952Y019075D01*
X027126Y019250D01*
X027136Y019274D01*
X027211Y019348D01*
X027211Y019453D01*
X027221Y019477D01*
X027221Y019592D01*
X027358Y019454D01*
X027363Y019442D01*
X028363Y018442D01*
X028363Y018442D01*
X028520Y018331D02*
X027766Y018331D01*
X027865Y018233D02*
X035326Y018233D01*
X035326Y018134D02*
X027963Y018134D01*
X028062Y018036D02*
X035326Y018036D01*
X035326Y017937D02*
X028160Y017937D01*
X028259Y017839D02*
X035326Y017839D01*
X035326Y017740D02*
X028357Y017740D01*
X028456Y017641D02*
X035326Y017641D01*
X035326Y017543D02*
X028555Y017543D01*
X028653Y017444D02*
X035326Y017444D01*
X035326Y017346D02*
X028752Y017346D01*
X028843Y017247D02*
X035326Y017247D01*
X035326Y017149D02*
X028881Y017149D01*
X028881Y017050D02*
X035326Y017050D01*
X035326Y016952D02*
X034575Y016952D01*
X034576Y016951D02*
X034518Y016981D01*
X034457Y017001D01*
X034393Y017011D01*
X034131Y017011D01*
X034131Y016631D01*
X034071Y016631D01*
X034071Y017011D01*
X033808Y017011D01*
X033745Y017001D01*
X033683Y016981D01*
X033626Y016951D01*
X033574Y016914D01*
X033528Y016868D01*
X033490Y016816D01*
X033461Y016758D01*
X033441Y016697D01*
X033431Y016633D01*
X033431Y016631D01*
X034071Y016631D01*
X034071Y016571D01*
X034131Y016571D01*
X034131Y016631D01*
X034771Y016631D01*
X034771Y016633D01*
X034761Y016697D01*
X034741Y016758D01*
X034711Y016816D01*
X034674Y016868D01*
X034628Y016914D01*
X034576Y016951D01*
X034684Y016853D02*
X035326Y016853D01*
X035326Y016755D02*
X034742Y016755D01*
X034767Y016656D02*
X035326Y016656D01*
X035326Y016558D02*
X034769Y016558D01*
X034771Y016568D02*
X034771Y016571D01*
X034131Y016571D01*
X034131Y016191D01*
X034393Y016191D01*
X034457Y016201D01*
X034518Y016221D01*
X034576Y016250D01*
X034628Y016288D01*
X034674Y016334D01*
X034711Y016386D01*
X034741Y016443D01*
X034761Y016505D01*
X034771Y016568D01*
X034746Y016459D02*
X035326Y016459D01*
X035326Y016360D02*
X034693Y016360D01*
X034592Y016262D02*
X035326Y016262D01*
X035326Y016163D02*
X028881Y016163D01*
X028881Y016065D02*
X035326Y016065D01*
X035326Y015966D02*
X034646Y015966D01*
X034621Y015991D02*
X034452Y016061D01*
X033749Y016061D01*
X033580Y015991D01*
X033470Y015881D01*
X032971Y015881D01*
X032791Y016061D01*
X032410Y016061D01*
X032141Y015791D01*
X032141Y015410D01*
X032410Y015141D01*
X032791Y015141D01*
X032971Y015321D01*
X033470Y015321D01*
X033580Y015211D01*
X033749Y015141D01*
X034452Y015141D01*
X034621Y015211D01*
X034751Y015340D01*
X034821Y015509D01*
X034821Y015692D01*
X034751Y015861D01*
X034621Y015991D01*
X034744Y015868D02*
X035326Y015868D01*
X035326Y015769D02*
X034789Y015769D01*
X034821Y015671D02*
X035326Y015671D01*
X035326Y015572D02*
X034821Y015572D01*
X034806Y015474D02*
X035326Y015474D01*
X035326Y015375D02*
X034765Y015375D01*
X034687Y015276D02*
X035326Y015276D01*
X035326Y015178D02*
X034542Y015178D01*
X033660Y015178D02*
X032828Y015178D01*
X032927Y015276D02*
X033515Y015276D01*
X033419Y014784D02*
X030814Y014784D01*
X030912Y014685D02*
X033381Y014685D01*
X033381Y014587D02*
X031011Y014587D01*
X031109Y014488D02*
X033390Y014488D01*
X033430Y014390D02*
X031208Y014390D01*
X031306Y014291D02*
X033500Y014291D01*
X033624Y014192D02*
X031405Y014192D01*
X031504Y014094D02*
X033821Y014094D01*
X033821Y013995D02*
X031602Y013995D01*
X031701Y013897D02*
X033821Y013897D01*
X033821Y013798D02*
X031799Y013798D01*
X031898Y013700D02*
X033821Y013700D01*
X033821Y013601D02*
X031996Y013601D01*
X032095Y013503D02*
X033821Y013503D01*
X033821Y013404D02*
X032193Y013404D01*
X032292Y013306D02*
X033821Y013306D01*
X033821Y013207D02*
X032390Y013207D01*
X032489Y013109D02*
X033821Y013109D01*
X033821Y013010D02*
X032588Y013010D01*
X032686Y012911D02*
X033821Y012911D01*
X033821Y012813D02*
X032785Y012813D01*
X032883Y012714D02*
X033821Y012714D01*
X033821Y012616D02*
X032982Y012616D01*
X033080Y012517D02*
X033821Y012517D01*
X033821Y012419D02*
X033179Y012419D01*
X033277Y012320D02*
X033821Y012320D01*
X033821Y012222D02*
X033354Y012222D01*
X033381Y012123D02*
X033821Y012123D01*
X033821Y012025D02*
X033381Y012025D01*
X033381Y011926D02*
X033821Y011926D01*
X033821Y011827D02*
X033381Y011827D01*
X033381Y011729D02*
X033821Y011729D01*
X033821Y011630D02*
X033381Y011630D01*
X033476Y011532D02*
X033726Y011532D01*
X033627Y011433D02*
X033574Y011433D01*
X033601Y010601D02*
X032601Y010601D01*
X029101Y014101D01*
X022601Y014101D01*
X021541Y015178D02*
X024873Y015178D01*
X024775Y015276D02*
X021639Y015276D01*
X021711Y015348D02*
X021353Y014991D01*
X020848Y014991D01*
X020491Y015348D01*
X020491Y015853D01*
X020848Y016211D01*
X021353Y016211D01*
X021711Y015853D01*
X021711Y015348D01*
X021711Y015375D02*
X024676Y015375D01*
X024641Y015474D02*
X021711Y015474D01*
X021711Y015572D02*
X024641Y015572D01*
X024641Y015671D02*
X021711Y015671D01*
X021711Y015769D02*
X024641Y015769D01*
X024717Y015868D02*
X021696Y015868D01*
X021598Y015966D02*
X024816Y015966D01*
X025386Y015966D02*
X027321Y015966D01*
X027321Y015868D02*
X025484Y015868D01*
X025561Y015769D02*
X027259Y015769D01*
X027221Y015671D02*
X025561Y015671D01*
X025561Y015572D02*
X027221Y015572D01*
X027242Y015474D02*
X025624Y015474D01*
X025722Y015375D02*
X027289Y015375D01*
X027391Y015276D02*
X025821Y015276D01*
X025325Y014981D02*
X020088Y014981D01*
X019990Y015079D02*
X020760Y015079D01*
X020661Y015178D02*
X019891Y015178D01*
X019793Y015276D02*
X020562Y015276D01*
X020491Y015375D02*
X019694Y015375D01*
X019596Y015474D02*
X020491Y015474D01*
X020491Y015572D02*
X019497Y015572D01*
X019399Y015671D02*
X020491Y015671D01*
X020491Y015769D02*
X019300Y015769D01*
X018793Y014841D02*
X018201Y014841D01*
X018248Y014821D01*
X018821Y014248D01*
X018831Y014224D01*
X020704Y012351D01*
X020871Y012351D01*
X020691Y012531D01*
X020691Y012671D01*
X021071Y012671D01*
X021071Y012731D01*
X021071Y013111D01*
X020931Y013111D01*
X020691Y012871D01*
X020691Y012731D01*
X021071Y012731D01*
X021131Y012731D01*
X021131Y013111D01*
X021271Y013111D01*
X021511Y012871D01*
X021511Y012731D01*
X021131Y012731D01*
X021131Y012671D01*
X021511Y012671D01*
X021511Y012531D01*
X021331Y012351D01*
X024800Y012351D01*
X024641Y012510D01*
X024641Y012891D01*
X024900Y013151D01*
X020551Y013151D01*
X020459Y013189D01*
X020389Y013259D01*
X019278Y014370D01*
X019254Y014380D01*
X018793Y014841D01*
X018850Y014784D02*
X018285Y014784D01*
X018384Y014685D02*
X018949Y014685D01*
X019047Y014587D02*
X018483Y014587D01*
X018581Y014488D02*
X019146Y014488D01*
X019244Y014390D02*
X018680Y014390D01*
X018778Y014291D02*
X019357Y014291D01*
X019456Y014192D02*
X018863Y014192D01*
X018961Y014094D02*
X019554Y014094D01*
X019653Y013995D02*
X019060Y013995D01*
X019158Y013897D02*
X019751Y013897D01*
X019850Y013798D02*
X019257Y013798D01*
X019355Y013700D02*
X019948Y013700D01*
X020047Y013601D02*
X019454Y013601D01*
X019552Y013503D02*
X020145Y013503D01*
X020244Y013404D02*
X019651Y013404D01*
X019749Y013306D02*
X020342Y013306D01*
X020441Y013207D02*
X019848Y013207D01*
X019947Y013109D02*
X020929Y013109D01*
X020830Y013010D02*
X020045Y013010D01*
X020144Y012911D02*
X020732Y012911D01*
X020691Y012813D02*
X020242Y012813D01*
X020341Y012714D02*
X021071Y012714D01*
X021131Y012714D02*
X024641Y012714D01*
X024641Y012616D02*
X021511Y012616D01*
X021497Y012517D02*
X024641Y012517D01*
X024732Y012419D02*
X021398Y012419D01*
X021511Y012813D02*
X024641Y012813D01*
X024661Y012911D02*
X021470Y012911D01*
X021371Y013010D02*
X024759Y013010D01*
X024858Y013109D02*
X021273Y013109D01*
X021131Y013109D02*
X021071Y013109D01*
X021071Y013010D02*
X021131Y013010D01*
X021131Y012911D02*
X021071Y012911D01*
X021071Y012813D02*
X021131Y012813D01*
X020691Y012616D02*
X020439Y012616D01*
X020538Y012517D02*
X020704Y012517D01*
X020636Y012419D02*
X020803Y012419D01*
X020601Y012101D02*
X018601Y014101D01*
X018101Y013601D02*
X020101Y011601D01*
X022601Y011601D01*
X023601Y010601D01*
X029101Y010601D01*
X030601Y009101D01*
X033101Y009101D01*
X033601Y009601D02*
X031101Y009601D01*
X028601Y012101D01*
X020601Y012101D01*
X019915Y011433D02*
X019122Y011433D01*
X019220Y011335D02*
X020491Y011335D01*
X020491Y011351D02*
X020491Y010848D01*
X020848Y010491D01*
X021353Y010491D01*
X021711Y010848D01*
X021711Y011351D01*
X022497Y011351D01*
X023389Y010459D01*
X023459Y010389D01*
X023551Y010351D01*
X027313Y010351D01*
X027279Y010316D01*
X027221Y010176D01*
X027221Y010025D01*
X027279Y009886D01*
X027386Y009779D01*
X027525Y009721D01*
X027627Y009721D01*
X031459Y005889D01*
X031551Y005851D01*
X031651Y005851D01*
X032545Y005851D01*
X031204Y005851D01*
X030742Y006313D01*
X030651Y006351D01*
X030551Y006351D01*
X029204Y006351D01*
X025242Y010313D01*
X025151Y010351D01*
X025051Y010351D01*
X020204Y010351D01*
X018742Y011813D01*
X018651Y011851D01*
X018551Y011851D01*
X018388Y011851D01*
X018423Y011886D01*
X018481Y012025D01*
X018481Y012176D01*
X018423Y012316D01*
X018316Y012423D01*
X018176Y012481D01*
X018088Y012481D01*
X017821Y012748D01*
X017748Y012821D01*
X017652Y012861D01*
X017061Y012861D01*
X017061Y012952D01*
X016991Y013121D01*
X016861Y013251D01*
X016692Y013321D01*
X016509Y013321D01*
X016340Y013251D01*
X016211Y013121D01*
X016141Y012952D01*
X016141Y012249D01*
X016211Y012080D01*
X016340Y011951D01*
X016509Y011881D01*
X016692Y011881D01*
X016861Y011951D01*
X016991Y012080D01*
X017061Y012249D01*
X017061Y012341D01*
X017493Y012341D01*
X017721Y012113D01*
X017721Y012025D01*
X017779Y011886D01*
X017813Y011851D01*
X011973Y011851D01*
X012118Y011995D01*
X012210Y012217D01*
X012221Y012183D01*
X012250Y012126D01*
X012288Y012074D01*
X012334Y012028D01*
X012386Y011990D01*
X012443Y011961D01*
X012505Y011941D01*
X012568Y011931D01*
X012571Y011931D01*
X012571Y012571D01*
X012631Y012571D01*
X012631Y012631D01*
X012571Y012631D01*
X012571Y013271D01*
X012568Y013271D01*
X012505Y013261D01*
X012443Y013241D01*
X012386Y013211D01*
X012334Y013174D01*
X012288Y013128D01*
X012250Y013076D01*
X012221Y013018D01*
X012210Y012984D01*
X012118Y013206D01*
X011946Y013378D01*
X011794Y013441D01*
X012194Y013841D01*
X014832Y013841D01*
X014796Y013805D01*
X014741Y013672D01*
X014741Y013637D01*
X014442Y013338D01*
X014365Y013261D01*
X014340Y013251D01*
X014211Y013121D01*
X014141Y012952D01*
X014141Y012249D01*
X014211Y012080D01*
X014340Y011951D01*
X014509Y011881D01*
X014692Y011881D01*
X014861Y011951D01*
X014991Y012080D01*
X015061Y012249D01*
X015061Y012952D01*
X014998Y013103D01*
X015137Y013241D01*
X015172Y013241D01*
X015305Y013296D01*
X015406Y013397D01*
X015461Y013529D01*
X015461Y013672D01*
X015406Y013805D01*
X015370Y013841D01*
X017493Y013841D01*
X017954Y013380D01*
X017978Y013370D01*
X019889Y011459D01*
X019959Y011389D01*
X020051Y011351D01*
X020491Y011351D01*
X020491Y011236D02*
X019319Y011236D01*
X019417Y011138D02*
X020491Y011138D01*
X020491Y011039D02*
X019516Y011039D01*
X019614Y010941D02*
X020491Y010941D01*
X020497Y010842D02*
X019713Y010842D01*
X019812Y010743D02*
X020595Y010743D01*
X020694Y010645D02*
X019910Y010645D01*
X020009Y010546D02*
X020793Y010546D01*
X020107Y010448D02*
X023400Y010448D01*
X023302Y010546D02*
X021409Y010546D01*
X021508Y010645D02*
X023203Y010645D01*
X023105Y010743D02*
X021606Y010743D01*
X021705Y010842D02*
X023006Y010842D01*
X022907Y010941D02*
X021711Y010941D01*
X021711Y011039D02*
X022809Y011039D01*
X022710Y011138D02*
X021711Y011138D01*
X021711Y011236D02*
X022612Y011236D01*
X022513Y011335D02*
X021711Y011335D01*
X019816Y011532D02*
X019023Y011532D01*
X018925Y011630D02*
X019718Y011630D01*
X019619Y011729D02*
X018826Y011729D01*
X018707Y011827D02*
X019521Y011827D01*
X019422Y011926D02*
X018440Y011926D01*
X018480Y012025D02*
X019324Y012025D01*
X019225Y012123D02*
X018481Y012123D01*
X018462Y012222D02*
X019126Y012222D01*
X019028Y012320D02*
X018419Y012320D01*
X018320Y012419D02*
X018929Y012419D01*
X018831Y012517D02*
X018052Y012517D01*
X017953Y012616D02*
X018732Y012616D01*
X018634Y012714D02*
X017855Y012714D01*
X017756Y012813D02*
X018535Y012813D01*
X018437Y012911D02*
X017061Y012911D01*
X017037Y013010D02*
X018338Y013010D01*
X018240Y013109D02*
X016996Y013109D01*
X016905Y013207D02*
X018141Y013207D01*
X018042Y013306D02*
X016729Y013306D01*
X016473Y013306D02*
X015729Y013306D01*
X015692Y013321D02*
X015509Y013321D01*
X015340Y013251D01*
X015211Y013121D01*
X015141Y012952D01*
X015141Y012249D01*
X015211Y012080D01*
X015340Y011951D01*
X015509Y011881D01*
X015692Y011881D01*
X015861Y011951D01*
X015991Y012080D01*
X016061Y012249D01*
X016061Y012952D01*
X015991Y013121D01*
X015861Y013251D01*
X015692Y013321D01*
X015473Y013306D02*
X015315Y013306D01*
X015297Y013207D02*
X015103Y013207D01*
X015004Y013109D02*
X015206Y013109D01*
X015165Y013010D02*
X015037Y013010D01*
X015061Y012911D02*
X015141Y012911D01*
X015141Y012813D02*
X015061Y012813D01*
X015061Y012714D02*
X015141Y012714D01*
X015141Y012616D02*
X015061Y012616D01*
X015061Y012517D02*
X015141Y012517D01*
X015141Y012419D02*
X015061Y012419D01*
X015061Y012320D02*
X015141Y012320D01*
X015152Y012222D02*
X015049Y012222D01*
X015008Y012123D02*
X015193Y012123D01*
X015266Y012025D02*
X014935Y012025D01*
X014801Y011926D02*
X015400Y011926D01*
X015801Y011926D02*
X016400Y011926D01*
X016266Y012025D02*
X015935Y012025D01*
X016008Y012123D02*
X016193Y012123D01*
X016152Y012222D02*
X016049Y012222D01*
X016061Y012320D02*
X016141Y012320D01*
X016141Y012419D02*
X016061Y012419D01*
X016061Y012517D02*
X016141Y012517D01*
X016141Y012616D02*
X016061Y012616D01*
X016061Y012714D02*
X016141Y012714D01*
X016141Y012813D02*
X016061Y012813D01*
X016061Y012911D02*
X016141Y012911D01*
X016165Y013010D02*
X016037Y013010D01*
X015996Y013109D02*
X016206Y013109D01*
X016297Y013207D02*
X015905Y013207D01*
X015409Y013404D02*
X017930Y013404D01*
X017831Y013503D02*
X015450Y013503D01*
X015461Y013601D02*
X017733Y013601D01*
X017634Y013700D02*
X015449Y013700D01*
X015409Y013798D02*
X017536Y013798D01*
X017514Y012320D02*
X017061Y012320D01*
X017049Y012222D02*
X017612Y012222D01*
X017711Y012123D02*
X017008Y012123D01*
X016935Y012025D02*
X017721Y012025D01*
X017762Y011926D02*
X016801Y011926D01*
X018189Y011335D02*
X018513Y011335D01*
X018612Y011236D02*
X018319Y011236D01*
X018417Y011138D02*
X018710Y011138D01*
X018809Y011039D02*
X018516Y011039D01*
X018614Y010941D02*
X018907Y010941D01*
X019006Y010842D02*
X018713Y010842D01*
X018812Y010743D02*
X019105Y010743D01*
X019203Y010645D02*
X018910Y010645D01*
X019009Y010546D02*
X019302Y010546D01*
X019400Y010448D02*
X019107Y010448D01*
X019206Y010349D02*
X019499Y010349D01*
X019597Y010251D02*
X019304Y010251D01*
X019403Y010152D02*
X019696Y010152D01*
X019794Y010054D02*
X019501Y010054D01*
X019600Y009955D02*
X019893Y009955D01*
X020037Y009857D02*
X019698Y009857D01*
X019601Y009601D02*
X018101Y011101D01*
X016861Y010251D02*
X016692Y010321D01*
X016509Y010321D01*
X016340Y010251D01*
X016211Y010121D01*
X016141Y009952D01*
X016141Y009249D01*
X016211Y009080D01*
X016340Y008951D01*
X016509Y008881D01*
X016692Y008881D01*
X016861Y008951D01*
X016872Y008962D01*
X017061Y008773D02*
X014881Y008773D01*
X014881Y008674D02*
X017160Y008674D01*
X017258Y008576D02*
X014881Y008576D01*
X014881Y008477D02*
X017341Y008477D01*
X017341Y008378D02*
X014881Y008378D01*
X014916Y008280D02*
X017341Y008280D01*
X017341Y008181D02*
X014957Y008181D01*
X014961Y008083D02*
X017341Y008083D01*
X017341Y007984D02*
X014942Y007984D01*
X015325Y007886D02*
X017341Y007886D01*
X017341Y007787D02*
X015413Y007787D01*
X015454Y007689D02*
X016173Y007689D01*
X016053Y007590D02*
X015461Y007590D01*
X015445Y007492D02*
X015998Y007492D01*
X015971Y007393D02*
X015402Y007393D01*
X015302Y007294D02*
X015971Y007294D01*
X016004Y007196D02*
X015868Y007196D01*
X015967Y007097D02*
X016067Y007097D01*
X016065Y006999D02*
X016091Y006999D01*
X016611Y006999D02*
X017009Y006999D01*
X017072Y006999D02*
X017130Y006999D01*
X017192Y006999D02*
X017341Y006999D01*
X017341Y007097D02*
X016635Y007097D01*
X016698Y007196D02*
X017341Y007196D01*
X017341Y007294D02*
X016731Y007294D01*
X016731Y007393D02*
X017341Y007393D01*
X017341Y007492D02*
X016704Y007492D01*
X016649Y007590D02*
X017341Y007590D01*
X017341Y007689D02*
X016528Y007689D01*
X016611Y006900D02*
X016824Y006900D01*
X016746Y006802D02*
X016611Y006802D01*
X016611Y006703D02*
X016706Y006703D01*
X016693Y006572D02*
X016693Y006569D01*
X016703Y006505D01*
X016723Y006444D01*
X016752Y006387D01*
X016790Y006335D01*
X016835Y006290D01*
X016887Y006252D01*
X016944Y006223D01*
X017005Y006203D01*
X017069Y006193D01*
X017072Y006193D01*
X017072Y006572D01*
X016693Y006572D01*
X016703Y006506D02*
X016611Y006506D01*
X016611Y006408D02*
X016742Y006408D01*
X016816Y006309D02*
X016611Y006309D01*
X016611Y006210D02*
X016983Y006210D01*
X017072Y006210D02*
X017130Y006210D01*
X017218Y006210D02*
X017341Y006210D01*
X017341Y006112D02*
X016611Y006112D01*
X016611Y006013D02*
X017341Y006013D01*
X017341Y005915D02*
X016654Y005915D01*
X016753Y005816D02*
X017341Y005816D01*
X017341Y005718D02*
X016851Y005718D01*
X016950Y005619D02*
X017341Y005619D01*
X017341Y005521D02*
X017049Y005521D01*
X017147Y005422D02*
X017341Y005422D01*
X017341Y005324D02*
X017246Y005324D01*
X017331Y005225D02*
X017341Y005225D01*
X017861Y005225D02*
X018581Y005225D01*
X018679Y005126D02*
X017861Y005126D01*
X017861Y005028D02*
X018778Y005028D01*
X018876Y004929D02*
X017861Y004929D01*
X017861Y004831D02*
X019021Y004831D01*
X019175Y005422D02*
X021618Y005422D01*
X021658Y005521D02*
X019077Y005521D01*
X018978Y005619D02*
X028229Y005619D01*
X028327Y005521D02*
X022571Y005521D01*
X022611Y005422D02*
X028426Y005422D01*
X028524Y005324D02*
X022611Y005324D01*
X022611Y005225D02*
X028623Y005225D01*
X028722Y005126D02*
X022611Y005126D01*
X022611Y005028D02*
X028820Y005028D01*
X028919Y004929D02*
X022611Y004929D01*
X022611Y004831D02*
X029017Y004831D01*
X029116Y004732D02*
X022611Y004732D01*
X022524Y004634D02*
X029214Y004634D01*
X029313Y004535D02*
X018034Y004535D01*
X018133Y004437D02*
X029411Y004437D01*
X029510Y004338D02*
X018231Y004338D01*
X018325Y004240D02*
X029608Y004240D01*
X029707Y004141D02*
X020384Y004141D01*
X020518Y004043D02*
X029806Y004043D01*
X029889Y003959D02*
X029889Y003959D01*
X029904Y003944D02*
X020616Y003944D01*
X020657Y003845D02*
X032381Y003845D01*
X032381Y003944D02*
X031297Y003944D01*
X031396Y004043D02*
X032381Y004043D01*
X032381Y004141D02*
X031495Y004141D01*
X031593Y004240D02*
X032381Y004240D01*
X032381Y004338D02*
X031692Y004338D01*
X031601Y004601D02*
X031101Y004101D01*
X030101Y004101D01*
X024601Y009601D01*
X019601Y009601D01*
X019519Y009364D02*
X017205Y009364D01*
X017107Y009462D02*
X019386Y009462D01*
X019287Y009561D02*
X017061Y009561D01*
X017061Y009659D02*
X019189Y009659D01*
X019090Y009758D02*
X017061Y009758D01*
X017061Y009857D02*
X018991Y009857D01*
X018893Y009955D02*
X017060Y009955D01*
X017019Y010054D02*
X018794Y010054D01*
X018696Y010152D02*
X016960Y010152D01*
X016340Y010251D02*
X015876Y010251D01*
X015960Y010152D02*
X016242Y010152D01*
X016183Y010054D02*
X016019Y010054D01*
X016060Y009955D02*
X016142Y009955D01*
X016141Y009857D02*
X016061Y009857D01*
X016061Y009758D02*
X016141Y009758D01*
X016141Y009659D02*
X016061Y009659D01*
X016061Y009561D02*
X016141Y009561D01*
X016141Y009462D02*
X016061Y009462D01*
X016061Y009364D02*
X016141Y009364D01*
X016141Y009265D02*
X016061Y009265D01*
X016027Y009167D02*
X016175Y009167D01*
X016223Y009068D02*
X015979Y009068D01*
X015880Y008970D02*
X016321Y008970D01*
X017304Y009265D02*
X024583Y009265D01*
X024681Y009167D02*
X017402Y009167D01*
X017501Y009068D02*
X024780Y009068D01*
X024878Y008970D02*
X017600Y008970D01*
X017698Y008871D02*
X024977Y008871D01*
X025075Y008773D02*
X017797Y008773D01*
X017852Y008674D02*
X025174Y008674D01*
X025273Y008576D02*
X017861Y008576D01*
X017861Y008477D02*
X025371Y008477D01*
X025470Y008378D02*
X017861Y008378D01*
X017861Y008280D02*
X025568Y008280D01*
X025667Y008181D02*
X017861Y008181D01*
X017861Y008083D02*
X025765Y008083D01*
X025864Y007984D02*
X020364Y007984D01*
X020360Y007989D02*
X020192Y008058D01*
X020010Y008058D01*
X019842Y007989D01*
X019713Y007860D01*
X019643Y007692D01*
X019643Y007510D01*
X019713Y007342D01*
X019821Y007234D01*
X019821Y007058D01*
X019760Y007058D01*
X019643Y006941D01*
X019643Y006260D01*
X019760Y006143D01*
X020441Y006143D01*
X020558Y006260D01*
X020558Y006941D01*
X020441Y007058D01*
X020381Y007058D01*
X020381Y007234D01*
X020489Y007342D01*
X020558Y007510D01*
X020558Y007692D01*
X020489Y007860D01*
X020360Y007989D01*
X020463Y007886D02*
X025962Y007886D01*
X026061Y007787D02*
X020519Y007787D01*
X020558Y007689D02*
X026159Y007689D01*
X026258Y007590D02*
X020558Y007590D01*
X020551Y007492D02*
X026356Y007492D01*
X026455Y007393D02*
X020510Y007393D01*
X020441Y007294D02*
X026554Y007294D01*
X026652Y007196D02*
X020381Y007196D01*
X020381Y007097D02*
X026751Y007097D01*
X026849Y006999D02*
X020501Y006999D01*
X020558Y006900D02*
X026948Y006900D01*
X027046Y006802D02*
X020558Y006802D01*
X020558Y006703D02*
X027145Y006703D01*
X027243Y006605D02*
X020558Y006605D01*
X020558Y006506D02*
X027342Y006506D01*
X027440Y006408D02*
X020558Y006408D01*
X020558Y006309D02*
X027539Y006309D01*
X027638Y006210D02*
X020508Y006210D01*
X019693Y006210D02*
X019354Y006210D01*
X019360Y006213D02*
X019192Y006143D01*
X019010Y006143D01*
X018842Y006213D01*
X018713Y006342D01*
X018643Y006510D01*
X018643Y006692D01*
X018713Y006860D01*
X018821Y006968D01*
X018821Y007234D01*
X018713Y007342D01*
X018643Y007510D01*
X018643Y007692D01*
X018713Y007860D01*
X018842Y007989D01*
X019010Y008058D01*
X019192Y008058D01*
X019360Y007989D01*
X019489Y007860D01*
X019558Y007692D01*
X019558Y007510D01*
X019489Y007342D01*
X019381Y007234D01*
X019381Y006968D01*
X019489Y006860D01*
X019558Y006692D01*
X019558Y006510D01*
X019489Y006342D01*
X019360Y006213D01*
X019456Y006309D02*
X019643Y006309D01*
X019643Y006408D02*
X019516Y006408D01*
X019557Y006506D02*
X019643Y006506D01*
X019643Y006605D02*
X019558Y006605D01*
X019554Y006703D02*
X019643Y006703D01*
X019643Y006802D02*
X019513Y006802D01*
X019448Y006900D02*
X019643Y006900D01*
X019701Y006999D02*
X019381Y006999D01*
X019381Y007097D02*
X019821Y007097D01*
X019821Y007196D02*
X019381Y007196D01*
X019441Y007294D02*
X019760Y007294D01*
X019692Y007393D02*
X019510Y007393D01*
X019551Y007492D02*
X019651Y007492D01*
X019643Y007590D02*
X019558Y007590D01*
X019558Y007689D02*
X019643Y007689D01*
X019683Y007787D02*
X019519Y007787D01*
X019463Y007886D02*
X019739Y007886D01*
X019837Y007984D02*
X019364Y007984D01*
X018837Y007984D02*
X017861Y007984D01*
X017861Y007886D02*
X018739Y007886D01*
X018683Y007787D02*
X017861Y007787D01*
X017861Y007689D02*
X018643Y007689D01*
X018643Y007590D02*
X017861Y007590D01*
X017861Y007492D02*
X018651Y007492D01*
X018692Y007393D02*
X017861Y007393D01*
X017861Y007294D02*
X018760Y007294D01*
X018821Y007196D02*
X017861Y007196D01*
X017861Y007097D02*
X018821Y007097D01*
X018821Y006999D02*
X018335Y006999D01*
X018448Y006900D02*
X018753Y006900D01*
X018689Y006802D02*
X018513Y006802D01*
X018554Y006703D02*
X018648Y006703D01*
X018643Y006605D02*
X018558Y006605D01*
X018557Y006506D02*
X018645Y006506D01*
X018686Y006408D02*
X018516Y006408D01*
X018456Y006309D02*
X018746Y006309D01*
X018848Y006210D02*
X018387Y006210D01*
X018486Y006112D02*
X027736Y006112D01*
X027835Y006013D02*
X018584Y006013D01*
X018683Y005915D02*
X027933Y005915D01*
X028032Y005816D02*
X018781Y005816D01*
X018880Y005718D02*
X028130Y005718D01*
X028443Y006112D02*
X028736Y006112D01*
X028638Y006210D02*
X028345Y006210D01*
X028246Y006309D02*
X028539Y006309D01*
X028440Y006408D02*
X028147Y006408D01*
X028049Y006506D02*
X028342Y006506D01*
X028243Y006605D02*
X027950Y006605D01*
X027852Y006703D02*
X028145Y006703D01*
X028046Y006802D02*
X027753Y006802D01*
X027655Y006900D02*
X027948Y006900D01*
X027849Y006999D02*
X027556Y006999D01*
X027458Y007097D02*
X027751Y007097D01*
X027652Y007196D02*
X027359Y007196D01*
X027261Y007294D02*
X027554Y007294D01*
X027455Y007393D02*
X027162Y007393D01*
X027064Y007492D02*
X027356Y007492D01*
X027258Y007590D02*
X026965Y007590D01*
X026866Y007689D02*
X027159Y007689D01*
X027061Y007787D02*
X026768Y007787D01*
X026669Y007886D02*
X026962Y007886D01*
X026864Y007984D02*
X026571Y007984D01*
X026472Y008083D02*
X026765Y008083D01*
X026667Y008181D02*
X026374Y008181D01*
X026275Y008280D02*
X026568Y008280D01*
X026470Y008378D02*
X026177Y008378D01*
X026078Y008477D02*
X026371Y008477D01*
X026273Y008576D02*
X025980Y008576D01*
X025881Y008674D02*
X026174Y008674D01*
X026075Y008773D02*
X025782Y008773D01*
X025684Y008871D02*
X025977Y008871D01*
X025878Y008970D02*
X025585Y008970D01*
X025487Y009068D02*
X025780Y009068D01*
X025681Y009167D02*
X025388Y009167D01*
X025290Y009265D02*
X025583Y009265D01*
X025484Y009364D02*
X025191Y009364D01*
X025093Y009462D02*
X025386Y009462D01*
X025287Y009561D02*
X024994Y009561D01*
X024896Y009659D02*
X025189Y009659D01*
X025090Y009758D02*
X024797Y009758D01*
X025154Y010349D02*
X027312Y010349D01*
X027252Y010251D02*
X025304Y010251D01*
X025403Y010152D02*
X027221Y010152D01*
X027221Y010054D02*
X025501Y010054D01*
X025600Y009955D02*
X027250Y009955D01*
X027308Y009857D02*
X025698Y009857D01*
X025797Y009758D02*
X027435Y009758D01*
X027689Y009659D02*
X025896Y009659D01*
X025994Y009561D02*
X027787Y009561D01*
X027886Y009462D02*
X026093Y009462D01*
X026191Y009364D02*
X027984Y009364D01*
X028083Y009265D02*
X026290Y009265D01*
X026388Y009167D02*
X028181Y009167D01*
X028280Y009068D02*
X026487Y009068D01*
X026585Y008970D02*
X028378Y008970D01*
X028477Y008871D02*
X026684Y008871D01*
X026782Y008773D02*
X028575Y008773D01*
X028674Y008674D02*
X026881Y008674D01*
X026980Y008576D02*
X028773Y008576D01*
X028871Y008477D02*
X027078Y008477D01*
X027177Y008378D02*
X028970Y008378D01*
X029068Y008280D02*
X027275Y008280D01*
X027374Y008181D02*
X029167Y008181D01*
X029265Y008083D02*
X027472Y008083D01*
X027571Y007984D02*
X029364Y007984D01*
X029462Y007886D02*
X027669Y007886D01*
X027768Y007787D02*
X029561Y007787D01*
X029659Y007689D02*
X027866Y007689D01*
X027965Y007590D02*
X029758Y007590D01*
X029856Y007492D02*
X028064Y007492D01*
X028162Y007393D02*
X029955Y007393D01*
X030054Y007294D02*
X028261Y007294D01*
X028359Y007196D02*
X030152Y007196D01*
X030251Y007097D02*
X028458Y007097D01*
X028556Y006999D02*
X030349Y006999D01*
X030448Y006900D02*
X028655Y006900D01*
X028753Y006802D02*
X030546Y006802D01*
X030645Y006703D02*
X028852Y006703D01*
X028950Y006605D02*
X030743Y006605D01*
X030842Y006506D02*
X029049Y006506D01*
X029147Y006408D02*
X030940Y006408D01*
X031039Y006309D02*
X030746Y006309D01*
X030845Y006210D02*
X031138Y006210D01*
X031236Y006112D02*
X030943Y006112D01*
X031042Y006013D02*
X031335Y006013D01*
X031433Y005915D02*
X031140Y005915D01*
X031601Y006101D02*
X027601Y010101D01*
X028301Y013401D02*
X031601Y010101D01*
X033101Y010101D01*
X033601Y010601D02*
X034101Y010101D01*
X033601Y009601D02*
X034101Y009101D01*
X033101Y006101D02*
X031601Y006101D01*
X030827Y005521D02*
X030471Y005521D01*
X030533Y005422D02*
X030885Y005422D01*
X030786Y005324D02*
X030534Y005324D01*
X030534Y005225D02*
X030741Y005225D01*
X030721Y005126D02*
X030136Y005126D01*
X030038Y005126D02*
X029429Y005126D01*
X029527Y005028D02*
X029640Y005028D01*
X029626Y004929D02*
X029640Y004929D01*
X029640Y005225D02*
X029330Y005225D01*
X029231Y005324D02*
X029640Y005324D01*
X029641Y005422D02*
X029133Y005422D01*
X029034Y005521D02*
X029703Y005521D01*
X030039Y005521D02*
X030135Y005521D01*
X030135Y005422D02*
X030039Y005422D01*
X030039Y005324D02*
X030135Y005324D01*
X030135Y005225D02*
X030039Y005225D01*
X030039Y005028D02*
X030135Y005028D01*
X030135Y004929D02*
X030039Y004929D01*
X030039Y004831D02*
X030135Y004831D01*
X030135Y004732D02*
X030039Y004732D01*
X029921Y004634D02*
X031280Y004634D01*
X031204Y004732D02*
X031379Y004732D01*
X031368Y004831D02*
X031503Y004831D01*
X031601Y004601D02*
X033601Y004601D01*
X034101Y005101D01*
X034487Y005521D02*
X035326Y005521D01*
X035326Y005619D02*
X034425Y005619D01*
X034585Y005422D02*
X035326Y005422D01*
X035326Y005324D02*
X034671Y005324D01*
X034671Y005225D02*
X035326Y005225D01*
X035326Y005126D02*
X034671Y005126D01*
X034671Y005028D02*
X035326Y005028D01*
X035326Y004929D02*
X034671Y004929D01*
X034637Y004831D02*
X035326Y004831D01*
X035326Y004732D02*
X034538Y004732D01*
X034440Y004634D02*
X035326Y004634D01*
X035326Y004535D02*
X034402Y004535D01*
X034500Y004437D02*
X035326Y004437D01*
X035326Y004338D02*
X034599Y004338D01*
X034621Y004240D02*
X035326Y004240D01*
X035326Y004141D02*
X034151Y004141D01*
X034151Y004051D02*
X034621Y004051D01*
X034621Y003885D01*
X034316Y003581D01*
X034151Y003581D01*
X034151Y004051D01*
X034151Y004043D02*
X034051Y004043D01*
X034051Y003944D02*
X034151Y003944D01*
X034151Y003845D02*
X034051Y003845D01*
X034051Y003747D02*
X034151Y003747D01*
X034151Y003648D02*
X034051Y003648D01*
X033818Y003648D02*
X033666Y003648D01*
X033601Y003550D02*
X035326Y003550D01*
X035326Y003648D02*
X034384Y003648D01*
X034482Y003747D02*
X035326Y003747D01*
X035326Y003845D02*
X034581Y003845D01*
X034621Y003944D02*
X035326Y003944D01*
X035326Y004043D02*
X034621Y004043D01*
X035326Y003451D02*
X033601Y003451D01*
X033601Y003353D02*
X035326Y003353D01*
X035326Y003254D02*
X033601Y003254D01*
X033601Y003156D02*
X035267Y003156D01*
X035168Y003057D02*
X033601Y003057D01*
X033601Y002959D02*
X035070Y002959D01*
X034971Y002860D02*
X033601Y002860D01*
X033601Y002761D02*
X034873Y002761D01*
X034774Y002663D02*
X033611Y002663D01*
X033611Y002564D02*
X034675Y002564D01*
X034577Y002466D02*
X033597Y002466D01*
X033556Y002367D02*
X034478Y002367D01*
X034380Y002269D02*
X033490Y002269D01*
X033391Y002170D02*
X034281Y002170D01*
X034183Y002072D02*
X033293Y002072D01*
X033194Y001973D02*
X034007Y001973D01*
X033837Y001875D02*
X033096Y001875D01*
X032997Y001776D02*
X033762Y001776D01*
X033721Y001677D02*
X032899Y001677D01*
X032800Y001579D02*
X033721Y001579D01*
X033739Y001480D02*
X032702Y001480D01*
X032603Y001382D02*
X033782Y001382D01*
X033881Y001283D02*
X032533Y001283D01*
X032434Y001185D02*
X035601Y001185D01*
X035601Y001283D02*
X034321Y001283D01*
X034419Y001382D02*
X035601Y001382D01*
X035601Y001480D02*
X034462Y001480D01*
X034481Y001579D02*
X035601Y001579D01*
X035601Y001677D02*
X034566Y001677D01*
X034665Y001776D02*
X035601Y001776D01*
X035601Y001875D02*
X034763Y001875D01*
X034862Y001973D02*
X035601Y001973D01*
X035601Y002072D02*
X034961Y002072D01*
X035059Y002170D02*
X035601Y002170D01*
X035601Y002269D02*
X035158Y002269D01*
X035256Y002367D02*
X035601Y002367D01*
X035601Y002466D02*
X035355Y002466D01*
X035453Y002564D02*
X035601Y002564D01*
X035601Y002663D02*
X035552Y002663D01*
X035601Y001086D02*
X032243Y001086D01*
X031958Y001086D02*
X000601Y001086D01*
X000601Y000988D02*
X035601Y000988D01*
X035601Y000889D02*
X000601Y000889D01*
X000601Y000791D02*
X035601Y000791D01*
X035601Y000692D02*
X000601Y000692D01*
X000601Y001185D02*
X001310Y001185D01*
X001211Y001283D02*
X000601Y001283D01*
X000601Y001382D02*
X001150Y001382D01*
X001109Y001480D02*
X000601Y001480D01*
X000601Y001579D02*
X001101Y001579D01*
X001101Y001677D02*
X000601Y001677D01*
X000601Y001776D02*
X001101Y001776D01*
X001101Y001875D02*
X000601Y001875D01*
X000601Y001973D02*
X001101Y001973D01*
X001101Y002072D02*
X000601Y002072D01*
X000601Y002170D02*
X001101Y002170D01*
X001101Y002269D02*
X000601Y002269D01*
X000601Y002367D02*
X001129Y002367D01*
X001169Y002466D02*
X000601Y002466D01*
X000601Y002564D02*
X001257Y002564D01*
X001321Y002663D02*
X000601Y002663D01*
X000601Y002761D02*
X001321Y002761D01*
X001321Y002860D02*
X000601Y002860D01*
X000601Y002959D02*
X001321Y002959D01*
X001321Y003057D02*
X000601Y003057D01*
X000601Y003156D02*
X001321Y003156D01*
X001321Y003254D02*
X000601Y003254D01*
X000601Y003353D02*
X001321Y003353D01*
X001321Y003451D02*
X000601Y003451D01*
X000601Y003550D02*
X001321Y003550D01*
X001321Y003648D02*
X000601Y003648D01*
X000601Y003747D02*
X001304Y003747D01*
X001206Y003845D02*
X000601Y003845D01*
X000601Y003944D02*
X001141Y003944D01*
X001141Y004043D02*
X000601Y004043D01*
X000601Y004141D02*
X001141Y004141D01*
X001141Y004240D02*
X000601Y004240D01*
X000601Y004338D02*
X001188Y004338D01*
X001286Y004437D02*
X000601Y004437D01*
X000601Y004535D02*
X001321Y004535D01*
X001321Y004634D02*
X000601Y004634D01*
X000601Y004732D02*
X001321Y004732D01*
X001321Y004831D02*
X000601Y004831D01*
X000601Y004929D02*
X001321Y004929D01*
X001321Y005028D02*
X000601Y005028D01*
X000601Y005126D02*
X001321Y005126D01*
X001349Y005225D02*
X000601Y005225D01*
X000601Y005324D02*
X001428Y005324D01*
X001526Y005422D02*
X000601Y005422D01*
X000601Y005521D02*
X001625Y005521D01*
X001723Y005619D02*
X000601Y005619D01*
X000601Y005718D02*
X001822Y005718D01*
X001920Y005816D02*
X000601Y005816D01*
X000601Y005915D02*
X002019Y005915D01*
X002117Y006013D02*
X000601Y006013D01*
X000601Y006112D02*
X002216Y006112D01*
X002315Y006210D02*
X000601Y006210D01*
X000601Y006309D02*
X002413Y006309D01*
X002512Y006408D02*
X000601Y006408D01*
X000601Y006506D02*
X002610Y006506D01*
X002709Y006605D02*
X000601Y006605D01*
X000601Y006703D02*
X002807Y006703D01*
X002906Y006802D02*
X000601Y006802D01*
X000601Y006900D02*
X003004Y006900D01*
X003103Y006999D02*
X000601Y006999D01*
X000601Y007097D02*
X003201Y007097D01*
X003300Y007196D02*
X000601Y007196D01*
X000601Y007294D02*
X003399Y007294D01*
X003497Y007393D02*
X000601Y007393D01*
X000601Y007492D02*
X001347Y007492D01*
X001249Y007590D02*
X000601Y007590D01*
X000601Y007689D02*
X001150Y007689D01*
X001052Y007787D02*
X000601Y007787D01*
X000601Y007886D02*
X000991Y007886D01*
X000991Y007984D02*
X000601Y007984D01*
X000601Y008083D02*
X000991Y008083D01*
X000991Y008181D02*
X000601Y008181D01*
X000601Y008280D02*
X000991Y008280D01*
X001016Y008378D02*
X000601Y008378D01*
X000601Y008477D02*
X001114Y008477D01*
X001213Y008576D02*
X000601Y008576D01*
X000601Y008674D02*
X001165Y008674D01*
X001066Y008773D02*
X000601Y008773D01*
X000601Y008871D02*
X000991Y008871D01*
X000991Y008970D02*
X000601Y008970D01*
X000601Y009068D02*
X000991Y009068D01*
X000991Y009167D02*
X000601Y009167D01*
X000601Y009265D02*
X000991Y009265D01*
X001001Y009364D02*
X000601Y009364D01*
X000601Y009462D02*
X001100Y009462D01*
X001198Y009561D02*
X000601Y009561D01*
X000601Y009659D02*
X001297Y009659D01*
X001905Y009659D02*
X003141Y009659D01*
X003141Y009561D02*
X002003Y009561D01*
X002102Y009462D02*
X003141Y009462D01*
X003141Y009364D02*
X002200Y009364D01*
X002211Y009265D02*
X003141Y009265D01*
X003175Y009167D02*
X002211Y009167D01*
X002211Y009068D02*
X003223Y009068D01*
X003321Y008970D02*
X002211Y008970D01*
X002211Y008871D02*
X004321Y008871D01*
X004321Y008773D02*
X002135Y008773D01*
X002037Y008674D02*
X002311Y008674D01*
X002213Y008576D02*
X001989Y008576D01*
X002087Y008477D02*
X002114Y008477D01*
X002890Y008674D02*
X003311Y008674D01*
X003213Y008576D02*
X002989Y008576D01*
X003087Y008477D02*
X003114Y008477D01*
X003890Y008674D02*
X004321Y008674D01*
X004321Y008576D02*
X003989Y008576D01*
X004087Y008477D02*
X004321Y008477D01*
X004321Y008378D02*
X004186Y008378D01*
X004211Y008280D02*
X004321Y008280D01*
X004285Y008181D02*
X004211Y008181D01*
X004782Y007886D02*
X004990Y007886D01*
X005088Y007984D02*
X004856Y007984D01*
X004838Y007942D02*
X004881Y008045D01*
X004881Y008156D01*
X004881Y008970D01*
X004991Y009080D01*
X005061Y009249D01*
X005061Y009952D01*
X004991Y010121D01*
X004861Y010251D01*
X005340Y010251D01*
X005211Y010121D01*
X005141Y009952D01*
X005141Y009249D01*
X005211Y009080D01*
X005321Y008970D01*
X005321Y008217D01*
X002442Y005338D01*
X002363Y005259D01*
X002321Y005156D01*
X002321Y004471D01*
X002141Y004291D01*
X002141Y003910D01*
X002321Y003730D01*
X002321Y002626D01*
X002318Y002625D01*
X002177Y002484D01*
X002101Y002300D01*
X002101Y001501D01*
X002101Y002300D01*
X002025Y002484D01*
X001884Y002625D01*
X001881Y002626D01*
X001881Y003730D01*
X002061Y003910D01*
X002061Y004291D01*
X001881Y004471D01*
X001881Y004985D01*
X004838Y007942D01*
X004881Y008083D02*
X005187Y008083D01*
X005285Y008181D02*
X004881Y008181D01*
X004881Y008280D02*
X005321Y008280D01*
X005321Y008378D02*
X004881Y008378D01*
X004881Y008477D02*
X005321Y008477D01*
X005321Y008576D02*
X004881Y008576D01*
X004881Y008674D02*
X005321Y008674D01*
X005321Y008773D02*
X004881Y008773D01*
X004881Y008871D02*
X005321Y008871D01*
X005321Y008970D02*
X004881Y008970D01*
X004979Y009068D02*
X005223Y009068D01*
X005175Y009167D02*
X005027Y009167D01*
X005061Y009265D02*
X005141Y009265D01*
X005141Y009364D02*
X005061Y009364D01*
X005061Y009462D02*
X005141Y009462D01*
X005141Y009561D02*
X005061Y009561D01*
X005061Y009659D02*
X005141Y009659D01*
X005141Y009758D02*
X005061Y009758D01*
X005061Y009857D02*
X005141Y009857D01*
X005142Y009955D02*
X005060Y009955D01*
X005019Y010054D02*
X005183Y010054D01*
X005242Y010152D02*
X004960Y010152D01*
X004861Y010251D02*
X004692Y010321D01*
X004509Y010321D01*
X004340Y010251D01*
X004242Y010152D02*
X003960Y010152D01*
X004019Y010054D02*
X004183Y010054D01*
X004142Y009955D02*
X004060Y009955D01*
X004061Y009857D02*
X004141Y009857D01*
X004141Y009758D02*
X004061Y009758D01*
X004061Y009659D02*
X004141Y009659D01*
X004141Y009561D02*
X004061Y009561D01*
X004061Y009462D02*
X004141Y009462D01*
X004141Y009364D02*
X004061Y009364D01*
X004061Y009265D02*
X004141Y009265D01*
X004175Y009167D02*
X004027Y009167D01*
X003979Y009068D02*
X004223Y009068D01*
X004321Y008970D02*
X003880Y008970D01*
X003055Y009758D02*
X000601Y009758D01*
X000601Y009857D02*
X002956Y009857D01*
X002858Y009955D02*
X000601Y009955D01*
X000601Y010054D02*
X002759Y010054D01*
X002660Y010152D02*
X000601Y010152D01*
X000601Y010251D02*
X002562Y010251D01*
X002463Y010349D02*
X000601Y010349D01*
X000601Y010448D02*
X002365Y010448D01*
X002266Y010546D02*
X000601Y010546D01*
X000601Y010645D02*
X002168Y010645D01*
X002069Y010743D02*
X000601Y010743D01*
X000601Y010842D02*
X001971Y010842D01*
X001872Y010941D02*
X000601Y010941D01*
X000601Y011039D02*
X001774Y011039D01*
X001675Y011138D02*
X000601Y011138D01*
X000601Y011236D02*
X001576Y011236D01*
X001478Y011335D02*
X000601Y011335D01*
X000601Y011433D02*
X001379Y011433D01*
X001445Y011368D02*
X001445Y011368D01*
X001332Y011532D02*
X000601Y011532D01*
X000601Y011630D02*
X001326Y011630D01*
X001326Y011729D02*
X000601Y011729D01*
X000601Y011827D02*
X001326Y011827D01*
X001326Y011926D02*
X000601Y011926D01*
X000601Y012025D02*
X001326Y012025D01*
X001326Y012123D02*
X000601Y012123D01*
X000601Y012222D02*
X001326Y012222D01*
X001326Y012320D02*
X000601Y012320D01*
X000601Y012419D02*
X001326Y012419D01*
X001326Y012517D02*
X000601Y012517D01*
X000601Y012616D02*
X001326Y012616D01*
X001326Y012714D02*
X000601Y012714D01*
X000601Y012813D02*
X001238Y012813D01*
X001141Y012911D02*
X000601Y012911D01*
X000601Y013010D02*
X001141Y013010D01*
X001141Y013109D02*
X000601Y013109D01*
X000601Y013207D02*
X001141Y013207D01*
X001155Y013306D02*
X000601Y013306D01*
X000601Y013404D02*
X001254Y013404D01*
X001336Y013503D02*
X000601Y013503D01*
X000601Y013601D02*
X001238Y013601D01*
X001139Y013700D02*
X000601Y013700D01*
X000601Y013798D02*
X001041Y013798D01*
X000991Y013897D02*
X000601Y013897D01*
X000601Y013995D02*
X000991Y013995D01*
X000991Y014094D02*
X000601Y014094D01*
X000601Y014192D02*
X000991Y014192D01*
X000991Y014291D02*
X000601Y014291D01*
X000601Y014390D02*
X001027Y014390D01*
X001125Y014488D02*
X000601Y014488D01*
X000601Y014587D02*
X001224Y014587D01*
X001323Y014685D02*
X000601Y014685D01*
X000601Y014784D02*
X002888Y014784D01*
X002986Y014882D02*
X000601Y014882D01*
X000601Y014981D02*
X003085Y014981D01*
X003183Y015079D02*
X000601Y015079D01*
X000601Y015178D02*
X003282Y015178D01*
X003321Y015276D02*
X000601Y015276D01*
X000601Y015375D02*
X003321Y015375D01*
X003321Y015474D02*
X000601Y015474D01*
X000601Y015572D02*
X003321Y015572D01*
X003148Y015671D02*
X000601Y015671D01*
X000601Y015769D02*
X003101Y015769D01*
X003101Y015868D02*
X000601Y015868D01*
X000601Y015966D02*
X003101Y015966D01*
X003101Y016065D02*
X000601Y016065D01*
X000601Y016163D02*
X003101Y016163D01*
X003101Y016262D02*
X000601Y016262D01*
X000601Y016360D02*
X003101Y016360D01*
X003101Y016459D02*
X000601Y016459D01*
X000601Y016558D02*
X003175Y016558D01*
X004027Y016558D02*
X004101Y016558D01*
X004101Y016656D02*
X000601Y016656D01*
X000601Y016755D02*
X004101Y016755D01*
X004101Y016853D02*
X000601Y016853D01*
X000601Y016952D02*
X004101Y016952D01*
X004101Y017050D02*
X000601Y017050D01*
X000601Y017149D02*
X004101Y017149D01*
X004101Y017247D02*
X000601Y017247D01*
X000601Y017346D02*
X004101Y017346D01*
X004101Y017444D02*
X000601Y017444D01*
X000601Y017543D02*
X004101Y017543D01*
X004101Y017641D02*
X001792Y017641D01*
X001791Y017641D02*
X002061Y017910D01*
X002061Y018291D01*
X001881Y018471D01*
X001881Y019730D01*
X002061Y019910D01*
X002061Y020291D01*
X001791Y020561D01*
X001410Y020561D01*
X001141Y020291D01*
X001141Y019910D01*
X001321Y019730D01*
X001321Y018471D01*
X001141Y018291D01*
X001141Y017910D01*
X001410Y017641D01*
X001791Y017641D01*
X001891Y017740D02*
X004101Y017740D01*
X004101Y017839D02*
X001989Y017839D01*
X002061Y017937D02*
X004057Y017937D01*
X003959Y018036D02*
X002061Y018036D01*
X002061Y018134D02*
X003842Y018134D01*
X003719Y018233D02*
X002061Y018233D01*
X002021Y018331D02*
X003639Y018331D01*
X003598Y018430D02*
X001922Y018430D01*
X001881Y018528D02*
X003571Y018528D01*
X003571Y018627D02*
X001881Y018627D01*
X001881Y018725D02*
X003579Y018725D01*
X003620Y018824D02*
X001881Y018824D01*
X001881Y018923D02*
X003673Y018923D01*
X003772Y019021D02*
X001881Y019021D01*
X001881Y019120D02*
X003969Y019120D01*
X004233Y019120D02*
X024705Y019120D01*
X024607Y019218D02*
X022869Y019218D01*
X022967Y019317D02*
X024508Y019317D01*
X024409Y019415D02*
X023061Y019415D01*
X023061Y019514D02*
X024311Y019514D01*
X024212Y019612D02*
X023061Y019612D01*
X023061Y019711D02*
X024114Y019711D01*
X024050Y019809D02*
X023043Y019809D01*
X022944Y019908D02*
X024010Y019908D01*
X023981Y020007D02*
X022846Y020007D01*
X022791Y020141D02*
X023061Y020410D01*
X023061Y020791D01*
X022791Y021061D01*
X022410Y021061D01*
X022141Y020791D01*
X022141Y020410D01*
X022410Y020141D01*
X022791Y020141D01*
X022854Y020204D02*
X023981Y020204D01*
X023981Y020302D02*
X022953Y020302D01*
X023051Y020401D02*
X023981Y020401D01*
X023981Y020499D02*
X023061Y020499D01*
X023061Y020598D02*
X023981Y020598D01*
X023981Y020696D02*
X023061Y020696D01*
X023057Y020795D02*
X023981Y020795D01*
X023981Y020893D02*
X022959Y020893D01*
X022860Y020992D02*
X023981Y020992D01*
X023981Y021091D02*
X021131Y021091D01*
X021131Y021071D02*
X021131Y021131D01*
X021071Y021131D01*
X021071Y021511D01*
X020931Y021511D01*
X020691Y021271D01*
X020691Y021131D01*
X021071Y021131D01*
X021071Y021071D01*
X020691Y021071D01*
X020691Y020931D01*
X020931Y020691D01*
X021071Y020691D01*
X021071Y021071D01*
X021131Y021071D01*
X021511Y021071D01*
X021511Y020931D01*
X021271Y020691D01*
X021131Y020691D01*
X021131Y021071D01*
X021131Y021131D02*
X021511Y021131D01*
X021511Y021271D01*
X021271Y021511D01*
X021131Y021511D01*
X021131Y021131D01*
X021131Y021189D02*
X021071Y021189D01*
X021071Y021091D02*
X020486Y021091D01*
X020585Y021189D02*
X020691Y021189D01*
X020684Y021288D02*
X020708Y021288D01*
X020782Y021386D02*
X020806Y021386D01*
X020881Y021485D02*
X020905Y021485D01*
X020979Y021583D02*
X021391Y021583D01*
X021391Y021485D02*
X021297Y021485D01*
X021395Y021386D02*
X021415Y021386D01*
X021494Y021288D02*
X021513Y021288D01*
X021511Y021189D02*
X021612Y021189D01*
X021511Y020992D02*
X022341Y020992D01*
X022243Y020893D02*
X021473Y020893D01*
X021375Y020795D02*
X022144Y020795D01*
X022141Y020696D02*
X021276Y020696D01*
X021131Y020696D02*
X021071Y020696D01*
X021071Y020795D02*
X021131Y020795D01*
X021131Y020893D02*
X021071Y020893D01*
X021071Y020992D02*
X021131Y020992D01*
X021131Y021288D02*
X021071Y021288D01*
X021071Y021386D02*
X021131Y021386D01*
X021131Y021485D02*
X021071Y021485D01*
X021332Y021682D02*
X021391Y021682D01*
X021561Y021977D02*
X021577Y021977D01*
X021561Y022076D02*
X023981Y022076D01*
X023981Y022174D02*
X021561Y022174D01*
X021561Y022273D02*
X023981Y022273D01*
X023981Y022372D02*
X021480Y022372D01*
X021382Y022470D02*
X023981Y022470D01*
X023981Y022569D02*
X019600Y022569D01*
X019600Y022470D02*
X020820Y022470D01*
X020721Y022372D02*
X019600Y022372D01*
X019563Y022273D02*
X020641Y022273D01*
X020641Y022174D02*
X019522Y022174D01*
X019457Y022076D02*
X020641Y022076D01*
X020581Y021977D02*
X019500Y021977D01*
X019541Y021879D02*
X020483Y021879D01*
X020384Y021780D02*
X019582Y021780D01*
X019600Y021682D02*
X020286Y021682D01*
X020187Y021583D02*
X019600Y021583D01*
X019600Y021485D02*
X020089Y021485D01*
X019990Y021386D02*
X019567Y021386D01*
X019526Y021288D02*
X019892Y021288D01*
X019793Y021189D02*
X019468Y021189D01*
X019370Y021091D02*
X019695Y021091D01*
X019596Y020992D02*
X019374Y020992D01*
X019415Y020893D02*
X019498Y020893D01*
X019895Y020499D02*
X022141Y020499D01*
X022150Y020401D02*
X019881Y020401D01*
X019994Y020598D02*
X022141Y020598D01*
X022249Y020302D02*
X021788Y020302D01*
X021856Y020204D02*
X022347Y020204D01*
X022356Y020007D02*
X021876Y020007D01*
X021876Y020105D02*
X023981Y020105D01*
X025221Y020358D02*
X025221Y023977D01*
X025221Y024224D01*
X025126Y024452D01*
X024952Y024626D01*
X024724Y024721D01*
X018750Y024721D01*
X018726Y024731D01*
X018475Y024731D01*
X017838Y024731D01*
X017812Y024776D01*
X017607Y024981D01*
X017356Y025126D01*
X017076Y025201D01*
X016787Y025201D01*
X016507Y025126D01*
X016256Y024981D01*
X016051Y024776D01*
X016025Y024731D01*
X015476Y024731D01*
X015449Y024776D01*
X015245Y024981D01*
X015008Y025117D01*
X015135Y025244D01*
X015280Y025389D01*
X015446Y025321D01*
X015756Y025321D01*
X016043Y025440D01*
X016262Y025659D01*
X016381Y025946D01*
X016381Y026256D01*
X016262Y026543D01*
X016043Y026762D01*
X015756Y026881D01*
X015446Y026881D01*
X015159Y026762D01*
X015128Y026731D01*
X015122Y026731D01*
X015712Y027321D01*
X015756Y027321D01*
X016043Y027440D01*
X016262Y027659D01*
X016381Y027946D01*
X016381Y028256D01*
X016262Y028543D01*
X016204Y028601D01*
X017728Y028601D01*
X017343Y028216D01*
X017343Y027608D01*
X017773Y027178D01*
X018381Y027178D01*
X018811Y027608D01*
X018811Y028216D01*
X018426Y028601D01*
X024228Y028601D01*
X023843Y028216D01*
X023843Y027608D01*
X024273Y027178D01*
X024632Y027178D01*
X026091Y025873D01*
X026091Y024231D01*
X025936Y024076D01*
X025936Y023525D01*
X026302Y023159D01*
X026136Y022993D01*
X026136Y022831D01*
X026571Y022831D01*
X026571Y022771D01*
X026631Y022771D01*
X026631Y022831D01*
X027066Y022831D01*
X027066Y022993D01*
X026900Y023159D01*
X027031Y023291D01*
X027204Y023291D01*
X027318Y023177D01*
X027379Y023152D01*
X028862Y021668D01*
X029049Y021591D01*
X029252Y021591D01*
X029702Y021591D01*
X029726Y021601D01*
X031001Y021601D01*
X031200Y021601D01*
X031384Y021677D01*
X033366Y023658D01*
X033390Y023668D01*
X033607Y023886D01*
X033995Y023886D01*
X034200Y023971D01*
X034551Y023971D01*
X034551Y024406D01*
X034576Y024467D01*
X034576Y024755D01*
X034551Y024815D01*
X034551Y025211D01*
X034276Y025211D01*
X034261Y025225D01*
X033995Y025336D01*
X032957Y025336D01*
X032690Y025225D01*
X032486Y025021D01*
X032376Y024755D01*
X032376Y024467D01*
X032486Y024200D01*
X032490Y024197D01*
X030894Y022601D01*
X029726Y022601D01*
X029702Y022611D01*
X029362Y022611D01*
X028101Y023872D01*
X028101Y023894D01*
X030685Y026478D01*
X030722Y026478D01*
X030945Y026570D01*
X031116Y026741D01*
X031208Y026964D01*
X031208Y027206D01*
X031116Y027429D01*
X030945Y027600D01*
X030722Y027692D01*
X030480Y027692D01*
X030257Y027600D01*
X030086Y027429D01*
X029993Y027206D01*
X029993Y027200D01*
X026137Y027200D01*
X026247Y027102D02*
X029895Y027102D01*
X029993Y027200D02*
X027318Y024525D01*
X027177Y024384D01*
X027111Y024318D01*
X027111Y026014D01*
X027116Y026028D01*
X027111Y026115D01*
X027111Y026202D01*
X027105Y026216D01*
X027104Y026230D01*
X027066Y026309D01*
X027033Y026390D01*
X027023Y026400D01*
X027016Y026413D01*
X026951Y026471D01*
X026890Y026533D01*
X026876Y026539D01*
X025311Y027939D01*
X025311Y028216D01*
X024926Y028601D01*
X035601Y028601D01*
X035601Y027282D01*
X035495Y027326D01*
X034457Y027326D01*
X034190Y027215D01*
X033986Y027011D01*
X033876Y026745D01*
X033876Y026506D01*
X032986Y026506D01*
X032775Y026418D01*
X032733Y026376D01*
X032546Y026376D01*
X032445Y026334D01*
X032368Y026257D01*
X032368Y026256D02*
X031003Y024892D01*
X031058Y025026D01*
X031058Y025208D01*
X030989Y025376D01*
X030860Y025504D01*
X030692Y025574D01*
X030510Y025574D01*
X030342Y025504D01*
X030213Y025376D01*
X030143Y025208D01*
X030143Y025026D01*
X030213Y024857D01*
X030326Y024745D01*
X030326Y024546D01*
X030326Y024061D01*
X030301Y024050D01*
X030151Y023901D01*
X030071Y023706D01*
X030071Y023495D01*
X030151Y023301D01*
X030301Y023151D01*
X030495Y023071D01*
X030706Y023071D01*
X030901Y023151D01*
X031050Y023301D01*
X031131Y023495D01*
X031131Y023706D01*
X031050Y023901D01*
X030901Y024050D01*
X030876Y024061D01*
X030876Y024326D01*
X031155Y024326D01*
X031257Y024368D01*
X031334Y024445D01*
X032578Y025689D01*
X032613Y025605D01*
X032775Y025443D01*
X032986Y025356D01*
X033965Y025356D01*
X034097Y025411D01*
X034089Y025384D01*
X034077Y025311D01*
X034551Y025311D01*
X034551Y025784D01*
X034478Y025773D01*
X034399Y025747D01*
X034397Y025746D01*
X034426Y025816D01*
X034426Y025889D01*
X034457Y025876D01*
X035495Y025876D01*
X035601Y025920D01*
X035601Y025723D01*
X035552Y025747D01*
X035474Y025773D01*
X035392Y025786D01*
X034651Y025786D01*
X034651Y025311D01*
X034551Y025311D01*
X034551Y025211D01*
X034651Y025211D01*
X034651Y024736D01*
X035392Y024736D01*
X035474Y024749D01*
X035552Y024774D01*
X035601Y024799D01*
X035601Y024383D01*
X035552Y024407D01*
X035474Y024433D01*
X035392Y024446D01*
X034651Y024446D01*
X034651Y023971D01*
X034551Y023971D01*
X034551Y023871D01*
X034651Y023871D01*
X034651Y023396D01*
X035392Y023396D01*
X035474Y023409D01*
X035552Y023434D01*
X035601Y023459D01*
X035601Y018876D01*
X031168Y018876D01*
X031156Y018881D01*
X028717Y018881D01*
X027759Y019838D01*
X027747Y019843D01*
X027061Y020530D01*
X027061Y020791D01*
X026791Y021061D01*
X026410Y021061D01*
X026141Y020791D01*
X026141Y020410D01*
X026330Y020221D01*
X025358Y020221D01*
X025221Y020358D01*
X025221Y020401D02*
X026150Y020401D01*
X026141Y020499D02*
X025221Y020499D01*
X025221Y020598D02*
X026141Y020598D01*
X026141Y020696D02*
X025221Y020696D01*
X025221Y020795D02*
X026144Y020795D01*
X026243Y020893D02*
X025221Y020893D01*
X025221Y020992D02*
X026341Y020992D01*
X026860Y020992D02*
X032436Y020992D01*
X032436Y021091D02*
X025221Y021091D01*
X025221Y021189D02*
X032436Y021189D01*
X032436Y021288D02*
X025221Y021288D01*
X025221Y021386D02*
X032446Y021386D01*
X032436Y021376D02*
X032436Y020825D01*
X032802Y020459D01*
X032636Y020293D01*
X032636Y020131D01*
X033071Y020131D01*
X033071Y020071D01*
X032636Y020071D01*
X032636Y019908D01*
X030971Y019908D01*
X030967Y019913D02*
X030913Y019967D01*
X030852Y020011D01*
X030785Y020046D01*
X030713Y020069D01*
X030651Y020079D01*
X030651Y019651D01*
X030551Y019651D01*
X030551Y020079D01*
X030488Y020069D01*
X030416Y020046D01*
X030349Y020011D01*
X030288Y019967D01*
X030235Y019913D01*
X030190Y019852D01*
X030156Y019785D01*
X030133Y019713D01*
X030123Y019651D01*
X030551Y019651D01*
X030551Y019551D01*
X030123Y019551D01*
X030133Y019488D01*
X030156Y019416D01*
X030190Y019349D01*
X030235Y019288D01*
X030288Y019235D01*
X030349Y019190D01*
X030416Y019156D01*
X030488Y019133D01*
X030551Y019123D01*
X030551Y019551D01*
X030651Y019551D01*
X030651Y019651D01*
X031079Y019651D01*
X031069Y019713D01*
X031046Y019785D01*
X031011Y019852D01*
X030967Y019913D01*
X031033Y019809D02*
X032735Y019809D01*
X032833Y019711D02*
X031069Y019711D01*
X031079Y019551D02*
X030651Y019551D01*
X030651Y019123D01*
X030713Y019133D01*
X030785Y019156D01*
X030852Y019190D01*
X030913Y019235D01*
X030967Y019288D01*
X031011Y019349D01*
X031046Y019416D01*
X031069Y019488D01*
X031079Y019551D01*
X031073Y019514D02*
X035601Y019514D01*
X035601Y019612D02*
X030651Y019612D01*
X030651Y019514D02*
X030551Y019514D01*
X030551Y019612D02*
X027985Y019612D01*
X028084Y019514D02*
X030129Y019514D01*
X030157Y019415D02*
X028182Y019415D01*
X028281Y019317D02*
X030214Y019317D01*
X030311Y019218D02*
X028379Y019218D01*
X028478Y019120D02*
X035601Y019120D01*
X035601Y019218D02*
X030891Y019218D01*
X030988Y019317D02*
X035601Y019317D01*
X035601Y019415D02*
X031045Y019415D01*
X030651Y019415D02*
X030551Y019415D01*
X030551Y019317D02*
X030651Y019317D01*
X030651Y019218D02*
X030551Y019218D01*
X030551Y019711D02*
X030651Y019711D01*
X030651Y019809D02*
X030551Y019809D01*
X030551Y019908D02*
X030651Y019908D01*
X030651Y020007D02*
X030551Y020007D01*
X030343Y020007D02*
X027584Y020007D01*
X027485Y020105D02*
X033071Y020105D01*
X033071Y020071D02*
X033131Y020071D01*
X033131Y020131D01*
X033566Y020131D01*
X033566Y020293D01*
X033400Y020459D01*
X033766Y020825D01*
X033766Y021376D01*
X033376Y021766D01*
X032825Y021766D01*
X032436Y021376D01*
X032544Y021485D02*
X025221Y021485D01*
X025221Y021583D02*
X032643Y021583D01*
X032741Y021682D02*
X031389Y021682D01*
X031487Y021780D02*
X035601Y021780D01*
X035601Y021682D02*
X033460Y021682D01*
X033559Y021583D02*
X035601Y021583D01*
X035601Y021485D02*
X033657Y021485D01*
X033756Y021386D02*
X035601Y021386D01*
X035601Y021288D02*
X033766Y021288D01*
X033766Y021189D02*
X035601Y021189D01*
X035601Y021091D02*
X033766Y021091D01*
X033766Y020992D02*
X035601Y020992D01*
X035601Y020893D02*
X033766Y020893D01*
X033735Y020795D02*
X035601Y020795D01*
X035601Y020696D02*
X033637Y020696D01*
X033538Y020598D02*
X035601Y020598D01*
X035601Y020499D02*
X033440Y020499D01*
X033458Y020401D02*
X035601Y020401D01*
X035601Y020302D02*
X033557Y020302D01*
X033566Y020204D02*
X035601Y020204D01*
X035601Y020105D02*
X033131Y020105D01*
X033131Y020071D02*
X033566Y020071D01*
X033566Y019908D01*
X033293Y019636D01*
X033131Y019636D01*
X033131Y020071D01*
X033071Y020071D02*
X033071Y019636D01*
X032908Y019636D01*
X032636Y019908D01*
X032636Y020007D02*
X030859Y020007D01*
X030231Y019908D02*
X027682Y019908D01*
X027788Y019809D02*
X030168Y019809D01*
X030132Y019711D02*
X027887Y019711D01*
X027489Y019317D02*
X027179Y019317D01*
X027211Y019415D02*
X027390Y019415D01*
X027299Y019514D02*
X027221Y019514D01*
X027095Y019218D02*
X027587Y019218D01*
X027686Y019120D02*
X026996Y019120D01*
X026884Y019021D02*
X027784Y019021D01*
X027883Y018923D02*
X004529Y018923D01*
X004430Y019021D02*
X024880Y019021D01*
X025276Y020302D02*
X026249Y020302D01*
X027061Y020598D02*
X032663Y020598D01*
X032565Y020696D02*
X027061Y020696D01*
X027057Y020795D02*
X032466Y020795D01*
X032436Y020893D02*
X026959Y020893D01*
X027091Y020499D02*
X032762Y020499D01*
X032743Y020401D02*
X027190Y020401D01*
X027288Y020302D02*
X032645Y020302D01*
X032636Y020204D02*
X027387Y020204D01*
X028576Y019021D02*
X035601Y019021D01*
X035601Y018923D02*
X028675Y018923D01*
X028080Y018725D02*
X027372Y018725D01*
X027273Y018824D02*
X027982Y018824D01*
X026763Y017543D02*
X007939Y017543D01*
X007881Y017444D02*
X026861Y017444D01*
X026960Y017346D02*
X007881Y017346D01*
X007881Y017247D02*
X011398Y017247D01*
X011466Y017276D02*
X011218Y017173D01*
X011029Y016983D01*
X010926Y016735D01*
X010926Y016466D01*
X011029Y016218D01*
X011218Y016029D01*
X011466Y015926D01*
X011735Y015926D01*
X011983Y016029D01*
X012173Y016218D01*
X012216Y016322D01*
X012238Y016291D01*
X012291Y016238D01*
X012352Y016195D01*
X012418Y016161D01*
X012490Y016137D01*
X012563Y016126D01*
X012582Y016126D01*
X012582Y016582D01*
X012620Y016582D01*
X012620Y016620D01*
X013076Y016620D01*
X013076Y016638D01*
X013064Y016712D01*
X013041Y016783D01*
X013007Y016850D01*
X012963Y016910D01*
X012910Y016963D01*
X012850Y017007D01*
X012783Y017041D01*
X012712Y017064D01*
X012638Y017076D01*
X012620Y017076D01*
X012620Y016620D01*
X012582Y016620D01*
X012582Y017076D01*
X012563Y017076D01*
X012490Y017064D01*
X012418Y017041D01*
X012352Y017007D01*
X012291Y016963D01*
X012238Y016910D01*
X012216Y016879D01*
X012173Y016983D01*
X011983Y017173D01*
X011735Y017276D01*
X011466Y017276D01*
X011194Y017149D02*
X007881Y017149D01*
X007881Y017050D02*
X011096Y017050D01*
X011016Y016952D02*
X007881Y016952D01*
X007881Y016853D02*
X010975Y016853D01*
X010934Y016755D02*
X007881Y016755D01*
X007881Y016656D02*
X010926Y016656D01*
X010926Y016558D02*
X009151Y016558D01*
X009151Y016459D02*
X010929Y016459D01*
X010970Y016360D02*
X009151Y016360D01*
X009151Y016262D02*
X011011Y016262D01*
X011084Y016163D02*
X009151Y016163D01*
X009151Y016065D02*
X011182Y016065D01*
X011369Y015966D02*
X009151Y015966D01*
X009151Y015868D02*
X020505Y015868D01*
X020604Y015966D02*
X011833Y015966D01*
X012019Y016065D02*
X020702Y016065D01*
X020801Y016163D02*
X012789Y016163D01*
X012783Y016161D02*
X012850Y016195D01*
X012910Y016238D01*
X012963Y016291D01*
X013007Y016352D01*
X013041Y016418D01*
X013064Y016490D01*
X013076Y016563D01*
X013076Y016582D01*
X012620Y016582D01*
X012620Y016126D01*
X012638Y016126D01*
X012712Y016137D01*
X012783Y016161D01*
X012620Y016163D02*
X012582Y016163D01*
X012582Y016262D02*
X012620Y016262D01*
X012620Y016360D02*
X012582Y016360D01*
X012582Y016459D02*
X012620Y016459D01*
X012620Y016558D02*
X012582Y016558D01*
X012582Y016656D02*
X012620Y016656D01*
X012620Y016755D02*
X012582Y016755D01*
X012582Y016853D02*
X012620Y016853D01*
X012620Y016952D02*
X012582Y016952D01*
X012582Y017050D02*
X012620Y017050D01*
X012755Y017050D02*
X027255Y017050D01*
X027321Y016952D02*
X012922Y016952D01*
X013005Y016853D02*
X027321Y016853D01*
X027321Y016755D02*
X013050Y016755D01*
X013073Y016656D02*
X027321Y016656D01*
X027321Y016558D02*
X013075Y016558D01*
X013054Y016459D02*
X027321Y016459D01*
X027321Y016360D02*
X013011Y016360D01*
X012934Y016262D02*
X027321Y016262D01*
X027321Y016163D02*
X021401Y016163D01*
X021499Y016065D02*
X027321Y016065D01*
X027157Y017149D02*
X012007Y017149D01*
X012106Y017050D02*
X012447Y017050D01*
X012280Y016952D02*
X012186Y016952D01*
X011804Y017247D02*
X027058Y017247D01*
X026664Y017641D02*
X008037Y017641D01*
X008136Y017740D02*
X026566Y017740D01*
X028881Y016952D02*
X033626Y016952D01*
X033517Y016853D02*
X028881Y016853D01*
X028881Y016755D02*
X033460Y016755D01*
X033434Y016656D02*
X028881Y016656D01*
X028881Y016558D02*
X033432Y016558D01*
X033431Y016568D02*
X033441Y016505D01*
X033461Y016443D01*
X033490Y016386D01*
X033528Y016334D01*
X033574Y016288D01*
X033626Y016250D01*
X033683Y016221D01*
X033745Y016201D01*
X033808Y016191D01*
X034071Y016191D01*
X034071Y016571D01*
X033431Y016571D01*
X033431Y016568D01*
X033456Y016459D02*
X028881Y016459D01*
X028881Y016360D02*
X033509Y016360D01*
X033610Y016262D02*
X028881Y016262D01*
X028886Y015966D02*
X032316Y015966D01*
X032217Y015868D02*
X028984Y015868D01*
X029061Y015769D02*
X032141Y015769D01*
X032141Y015671D02*
X029061Y015671D01*
X029061Y015572D02*
X032141Y015572D01*
X032141Y015474D02*
X029061Y015474D01*
X029026Y015375D02*
X032176Y015375D01*
X032275Y015276D02*
X028927Y015276D01*
X028828Y015178D02*
X032373Y015178D01*
X032886Y015966D02*
X033556Y015966D01*
X034071Y016262D02*
X034131Y016262D01*
X034131Y016360D02*
X034071Y016360D01*
X034071Y016459D02*
X034131Y016459D01*
X034131Y016558D02*
X034071Y016558D01*
X034071Y016656D02*
X034131Y016656D01*
X034131Y016755D02*
X034071Y016755D01*
X034071Y016853D02*
X034131Y016853D01*
X034131Y016952D02*
X034071Y016952D01*
X033368Y019711D02*
X035601Y019711D01*
X035601Y019809D02*
X033467Y019809D01*
X033566Y019908D02*
X035601Y019908D01*
X035601Y020007D02*
X033566Y020007D01*
X033131Y020007D02*
X033071Y020007D01*
X033071Y019908D02*
X033131Y019908D01*
X033131Y019809D02*
X033071Y019809D01*
X033071Y019711D02*
X033131Y019711D01*
X031586Y021879D02*
X035601Y021879D01*
X035601Y021977D02*
X031684Y021977D01*
X031783Y022076D02*
X035601Y022076D01*
X035601Y022174D02*
X031882Y022174D01*
X031980Y022273D02*
X035601Y022273D01*
X035601Y022372D02*
X032079Y022372D01*
X032177Y022470D02*
X035601Y022470D01*
X035601Y022569D02*
X032276Y022569D01*
X032374Y022667D02*
X035601Y022667D01*
X035601Y022766D02*
X032473Y022766D01*
X032571Y022864D02*
X035601Y022864D01*
X035601Y022963D02*
X032670Y022963D01*
X032768Y023061D02*
X035601Y023061D01*
X035601Y023160D02*
X032867Y023160D01*
X032966Y023258D02*
X035601Y023258D01*
X035601Y023357D02*
X033064Y023357D01*
X033163Y023456D02*
X034357Y023456D01*
X034326Y023472D02*
X034399Y023434D01*
X034478Y023409D01*
X034551Y023397D01*
X034551Y023871D01*
X034077Y023871D01*
X034089Y023798D01*
X034114Y023719D01*
X034152Y023646D01*
X034200Y023579D01*
X034259Y023520D01*
X034326Y023472D01*
X034225Y023554D02*
X033261Y023554D01*
X033360Y023653D02*
X034148Y023653D01*
X034104Y023751D02*
X033472Y023751D01*
X033571Y023850D02*
X034080Y023850D01*
X034146Y023948D02*
X034551Y023948D01*
X034551Y023850D02*
X034651Y023850D01*
X034651Y023751D02*
X034551Y023751D01*
X034551Y023653D02*
X034651Y023653D01*
X034651Y023554D02*
X034551Y023554D01*
X034551Y023456D02*
X034651Y023456D01*
X034651Y024047D02*
X034551Y024047D01*
X034551Y024145D02*
X034651Y024145D01*
X034651Y024244D02*
X034551Y024244D01*
X034551Y024342D02*
X034651Y024342D01*
X034651Y024441D02*
X034565Y024441D01*
X034576Y024540D02*
X035601Y024540D01*
X035601Y024638D02*
X034576Y024638D01*
X034576Y024737D02*
X034651Y024737D01*
X034651Y024835D02*
X034551Y024835D01*
X034551Y024934D02*
X034651Y024934D01*
X034651Y025032D02*
X034551Y025032D01*
X034551Y025131D02*
X034651Y025131D01*
X034551Y025229D02*
X034252Y025229D01*
X034080Y025328D02*
X034014Y025328D01*
X034551Y025328D02*
X034651Y025328D01*
X034651Y025426D02*
X034551Y025426D01*
X034551Y025525D02*
X034651Y025525D01*
X034651Y025624D02*
X034551Y025624D01*
X034551Y025722D02*
X034651Y025722D01*
X034426Y025821D02*
X035601Y025821D01*
X035600Y025919D02*
X035601Y025919D01*
X035601Y024737D02*
X035397Y024737D01*
X035422Y024441D02*
X035601Y024441D01*
X035594Y023456D02*
X035601Y023456D01*
X032938Y025328D02*
X032217Y025328D01*
X032315Y025426D02*
X032816Y025426D01*
X032693Y025525D02*
X032414Y025525D01*
X032512Y025624D02*
X032606Y025624D01*
X032700Y025229D02*
X032118Y025229D01*
X032020Y025131D02*
X032595Y025131D01*
X032497Y025032D02*
X031921Y025032D01*
X031823Y024934D02*
X032450Y024934D01*
X032409Y024835D02*
X031724Y024835D01*
X031625Y024737D02*
X032376Y024737D01*
X032376Y024638D02*
X031527Y024638D01*
X031428Y024540D02*
X032376Y024540D01*
X032386Y024441D02*
X031330Y024441D01*
X031334Y024445D02*
X031334Y024445D01*
X031196Y024342D02*
X032427Y024342D01*
X032468Y024244D02*
X030876Y024244D01*
X030876Y024145D02*
X032438Y024145D01*
X032340Y024047D02*
X030904Y024047D01*
X031003Y023948D02*
X032241Y023948D01*
X032143Y023850D02*
X031071Y023850D01*
X031112Y023751D02*
X032044Y023751D01*
X031946Y023653D02*
X031131Y023653D01*
X031131Y023554D02*
X031847Y023554D01*
X031749Y023456D02*
X031114Y023456D01*
X031073Y023357D02*
X031650Y023357D01*
X031551Y023258D02*
X031008Y023258D01*
X030909Y023160D02*
X031453Y023160D01*
X031354Y023061D02*
X028911Y023061D01*
X029010Y022963D02*
X031256Y022963D01*
X031157Y022864D02*
X029108Y022864D01*
X029207Y022766D02*
X031059Y022766D01*
X030960Y022667D02*
X029306Y022667D01*
X028813Y023160D02*
X030292Y023160D01*
X030194Y023258D02*
X028714Y023258D01*
X028616Y023357D02*
X030128Y023357D01*
X030087Y023456D02*
X028517Y023456D01*
X028419Y023554D02*
X030071Y023554D01*
X030071Y023653D02*
X028320Y023653D01*
X028222Y023751D02*
X030089Y023751D01*
X030130Y023850D02*
X028123Y023850D01*
X028155Y023948D02*
X030199Y023948D01*
X030297Y024047D02*
X028254Y024047D01*
X028352Y024145D02*
X030326Y024145D01*
X030326Y024244D02*
X028451Y024244D01*
X028550Y024342D02*
X030326Y024342D01*
X030326Y024441D02*
X028648Y024441D01*
X028747Y024540D02*
X030326Y024540D01*
X030326Y024638D02*
X028845Y024638D01*
X028944Y024737D02*
X030326Y024737D01*
X030235Y024835D02*
X029042Y024835D01*
X029141Y024934D02*
X030181Y024934D01*
X030143Y025032D02*
X029239Y025032D01*
X029338Y025131D02*
X030143Y025131D01*
X030152Y025229D02*
X029436Y025229D01*
X029535Y025328D02*
X030193Y025328D01*
X030264Y025426D02*
X029634Y025426D01*
X029732Y025525D02*
X030391Y025525D01*
X030810Y025525D02*
X031636Y025525D01*
X031538Y025426D02*
X030938Y025426D01*
X031008Y025328D02*
X031439Y025328D01*
X031340Y025229D02*
X031049Y025229D01*
X031058Y025131D02*
X031242Y025131D01*
X031143Y025032D02*
X031058Y025032D01*
X031045Y024934D02*
X031020Y024934D01*
X031735Y025624D02*
X029831Y025624D01*
X029929Y025722D02*
X031833Y025722D01*
X031932Y025821D02*
X030028Y025821D01*
X030126Y025919D02*
X032030Y025919D01*
X032129Y026018D02*
X030225Y026018D01*
X030323Y026116D02*
X032227Y026116D01*
X032326Y026215D02*
X030422Y026215D01*
X030520Y026313D02*
X032424Y026313D01*
X032368Y026257D02*
X032368Y026256D01*
X032769Y026412D02*
X030619Y026412D01*
X030801Y026510D02*
X033876Y026510D01*
X033876Y026609D02*
X030984Y026609D01*
X031082Y026707D02*
X033876Y026707D01*
X033901Y026806D02*
X031143Y026806D01*
X031184Y026905D02*
X033942Y026905D01*
X033983Y027003D02*
X031208Y027003D01*
X031208Y027102D02*
X034076Y027102D01*
X034175Y027200D02*
X031208Y027200D01*
X031170Y027299D02*
X034391Y027299D01*
X035560Y027299D02*
X035601Y027299D01*
X035601Y027397D02*
X031129Y027397D01*
X031049Y027496D02*
X035601Y027496D01*
X035601Y027594D02*
X030951Y027594D01*
X030251Y027594D02*
X027967Y027594D01*
X028064Y027691D02*
X028064Y027862D01*
X027580Y027862D01*
X027580Y027962D01*
X027480Y027962D01*
X027480Y028446D01*
X027309Y028446D01*
X026996Y028133D01*
X026996Y027962D01*
X027480Y027962D01*
X027480Y027862D01*
X026996Y027862D01*
X026996Y027691D01*
X027309Y027378D01*
X027480Y027378D01*
X027480Y027862D01*
X027580Y027862D01*
X027580Y027378D01*
X027751Y027378D01*
X028064Y027691D01*
X028064Y027693D02*
X035601Y027693D01*
X035601Y027791D02*
X028064Y027791D01*
X028064Y027962D02*
X028064Y028133D01*
X027751Y028446D01*
X027580Y028446D01*
X027580Y027962D01*
X028064Y027962D01*
X028064Y027989D02*
X035601Y027989D01*
X035601Y028087D02*
X028064Y028087D01*
X028011Y028186D02*
X035601Y028186D01*
X035601Y028284D02*
X027912Y028284D01*
X027814Y028383D02*
X035601Y028383D01*
X035601Y028481D02*
X025045Y028481D01*
X024947Y028580D02*
X035601Y028580D01*
X035601Y027890D02*
X027580Y027890D01*
X027580Y027989D02*
X027480Y027989D01*
X027480Y028087D02*
X027580Y028087D01*
X027580Y028186D02*
X027480Y028186D01*
X027480Y028284D02*
X027580Y028284D01*
X027580Y028383D02*
X027480Y028383D01*
X027246Y028383D02*
X025144Y028383D01*
X025243Y028284D02*
X027147Y028284D01*
X027049Y028186D02*
X025311Y028186D01*
X025311Y028087D02*
X026996Y028087D01*
X026996Y027989D02*
X025311Y027989D01*
X025366Y027890D02*
X027480Y027890D01*
X027480Y027791D02*
X027580Y027791D01*
X027580Y027693D02*
X027480Y027693D01*
X027480Y027594D02*
X027580Y027594D01*
X027580Y027496D02*
X027480Y027496D01*
X027480Y027397D02*
X027580Y027397D01*
X027770Y027397D02*
X030073Y027397D01*
X030032Y027299D02*
X026027Y027299D01*
X025917Y027397D02*
X027289Y027397D01*
X027191Y027496D02*
X025807Y027496D01*
X025697Y027594D02*
X027092Y027594D01*
X026996Y027693D02*
X025586Y027693D01*
X025476Y027791D02*
X026996Y027791D01*
X027869Y027496D02*
X030152Y027496D01*
X029796Y027003D02*
X026357Y027003D01*
X026467Y026905D02*
X029697Y026905D01*
X029599Y026806D02*
X026577Y026806D01*
X026688Y026707D02*
X029500Y026707D01*
X029402Y026609D02*
X026798Y026609D01*
X026912Y026510D02*
X029303Y026510D01*
X029205Y026412D02*
X027017Y026412D01*
X027065Y026313D02*
X029106Y026313D01*
X029008Y026215D02*
X027106Y026215D01*
X027111Y026116D02*
X028909Y026116D01*
X028811Y026018D02*
X027112Y026018D01*
X027111Y025919D02*
X028712Y025919D01*
X028614Y025821D02*
X027111Y025821D01*
X027111Y025722D02*
X028515Y025722D01*
X028416Y025624D02*
X027111Y025624D01*
X027111Y025525D02*
X028318Y025525D01*
X028219Y025426D02*
X027111Y025426D01*
X027111Y025328D02*
X028121Y025328D01*
X028022Y025229D02*
X027111Y025229D01*
X027111Y025131D02*
X027924Y025131D01*
X027825Y025032D02*
X027111Y025032D01*
X027111Y024934D02*
X027727Y024934D01*
X027628Y024835D02*
X027111Y024835D01*
X027111Y024737D02*
X027530Y024737D01*
X027431Y024638D02*
X027111Y024638D01*
X027111Y024540D02*
X027332Y024540D01*
X027234Y024441D02*
X027111Y024441D01*
X027111Y024342D02*
X027135Y024342D01*
X026091Y024342D02*
X025172Y024342D01*
X025213Y024244D02*
X026091Y024244D01*
X026005Y024145D02*
X025221Y024145D01*
X025221Y024047D02*
X025936Y024047D01*
X025936Y023948D02*
X025221Y023948D01*
X025221Y023850D02*
X025936Y023850D01*
X025936Y023751D02*
X025221Y023751D01*
X025221Y023653D02*
X025936Y023653D01*
X025936Y023554D02*
X025221Y023554D01*
X025221Y023456D02*
X026006Y023456D01*
X026104Y023357D02*
X025221Y023357D01*
X025221Y023258D02*
X026203Y023258D01*
X026301Y023160D02*
X025221Y023160D01*
X025221Y023061D02*
X026204Y023061D01*
X026136Y022963D02*
X025221Y022963D01*
X025221Y022864D02*
X026136Y022864D01*
X026136Y022771D02*
X026136Y022608D01*
X026408Y022336D01*
X026571Y022336D01*
X026571Y022771D01*
X026136Y022771D01*
X026136Y022766D02*
X025221Y022766D01*
X025221Y022667D02*
X026136Y022667D01*
X026175Y022569D02*
X025221Y022569D01*
X025221Y022470D02*
X026274Y022470D01*
X026372Y022372D02*
X025221Y022372D01*
X025221Y022273D02*
X028257Y022273D01*
X028159Y022372D02*
X026829Y022372D01*
X026793Y022336D02*
X027066Y022608D01*
X027066Y022771D01*
X026631Y022771D01*
X026631Y022336D01*
X026793Y022336D01*
X026631Y022372D02*
X026571Y022372D01*
X026571Y022470D02*
X026631Y022470D01*
X026631Y022569D02*
X026571Y022569D01*
X026571Y022667D02*
X026631Y022667D01*
X026631Y022766D02*
X026571Y022766D01*
X026928Y022470D02*
X028060Y022470D01*
X027962Y022569D02*
X027026Y022569D01*
X027066Y022667D02*
X027863Y022667D01*
X027765Y022766D02*
X027066Y022766D01*
X027066Y022864D02*
X027666Y022864D01*
X027567Y022963D02*
X027066Y022963D01*
X026998Y023061D02*
X027469Y023061D01*
X027359Y023160D02*
X026900Y023160D01*
X026999Y023258D02*
X027236Y023258D01*
X028356Y022174D02*
X025221Y022174D01*
X025221Y022076D02*
X028454Y022076D01*
X028553Y021977D02*
X025221Y021977D01*
X025221Y021879D02*
X028651Y021879D01*
X028750Y021780D02*
X025221Y021780D01*
X025221Y021682D02*
X028849Y021682D01*
X026091Y024441D02*
X025131Y024441D01*
X025039Y024540D02*
X026091Y024540D01*
X026091Y024638D02*
X024924Y024638D01*
X026091Y024737D02*
X017835Y024737D01*
X017753Y024835D02*
X026091Y024835D01*
X026091Y024934D02*
X017654Y024934D01*
X017518Y025032D02*
X026091Y025032D01*
X026091Y025131D02*
X017337Y025131D01*
X016526Y025131D02*
X015022Y025131D01*
X015120Y025229D02*
X026091Y025229D01*
X026091Y025328D02*
X015773Y025328D01*
X016011Y025426D02*
X026091Y025426D01*
X026091Y025525D02*
X016128Y025525D01*
X016227Y025624D02*
X026091Y025624D01*
X026091Y025722D02*
X016288Y025722D01*
X016329Y025821D02*
X026091Y025821D01*
X026039Y025919D02*
X016370Y025919D01*
X016381Y026018D02*
X025929Y026018D01*
X025819Y026116D02*
X016381Y026116D01*
X016381Y026215D02*
X025709Y026215D01*
X025599Y026313D02*
X016357Y026313D01*
X016316Y026412D02*
X025488Y026412D01*
X025378Y026510D02*
X016275Y026510D01*
X016196Y026609D02*
X025268Y026609D01*
X025158Y026707D02*
X016097Y026707D01*
X015936Y026806D02*
X025048Y026806D01*
X024938Y026905D02*
X015295Y026905D01*
X015265Y026806D02*
X015197Y026806D01*
X015394Y027003D02*
X024828Y027003D01*
X024718Y027102D02*
X015493Y027102D01*
X015591Y027200D02*
X017751Y027200D01*
X017652Y027299D02*
X015690Y027299D01*
X015941Y027397D02*
X017554Y027397D01*
X017455Y027496D02*
X016099Y027496D01*
X016197Y027594D02*
X017357Y027594D01*
X017343Y027693D02*
X016276Y027693D01*
X016317Y027791D02*
X017343Y027791D01*
X017343Y027890D02*
X016358Y027890D01*
X016381Y027989D02*
X017343Y027989D01*
X017343Y028087D02*
X016381Y028087D01*
X016381Y028186D02*
X017343Y028186D01*
X017412Y028284D02*
X016369Y028284D01*
X016328Y028383D02*
X017510Y028383D01*
X017609Y028481D02*
X016287Y028481D01*
X016225Y028580D02*
X017707Y028580D01*
X018447Y028580D02*
X024207Y028580D01*
X024109Y028481D02*
X018545Y028481D01*
X018644Y028383D02*
X020746Y028383D01*
X020809Y028446D02*
X020496Y028133D01*
X020496Y027962D01*
X020980Y027962D01*
X020980Y028446D01*
X020809Y028446D01*
X020980Y028383D02*
X021080Y028383D01*
X021080Y028446D02*
X021251Y028446D01*
X021564Y028133D01*
X021564Y027962D01*
X021080Y027962D01*
X020980Y027962D01*
X020980Y027862D01*
X020496Y027862D01*
X020496Y027691D01*
X020809Y027378D01*
X020980Y027378D01*
X020980Y027862D01*
X021080Y027862D01*
X021080Y027962D01*
X021080Y028446D01*
X021080Y028284D02*
X020980Y028284D01*
X020980Y028186D02*
X021080Y028186D01*
X021080Y028087D02*
X020980Y028087D01*
X020980Y027989D02*
X021080Y027989D01*
X021080Y027890D02*
X023843Y027890D01*
X023843Y027989D02*
X021564Y027989D01*
X021564Y028087D02*
X023843Y028087D01*
X023843Y028186D02*
X021511Y028186D01*
X021412Y028284D02*
X023912Y028284D01*
X024010Y028383D02*
X021314Y028383D01*
X021080Y027862D02*
X021564Y027862D01*
X021564Y027691D01*
X021251Y027378D01*
X021080Y027378D01*
X021080Y027862D01*
X021080Y027791D02*
X020980Y027791D01*
X020980Y027693D02*
X021080Y027693D01*
X021080Y027594D02*
X020980Y027594D01*
X020980Y027496D02*
X021080Y027496D01*
X021080Y027397D02*
X020980Y027397D01*
X020789Y027397D02*
X018600Y027397D01*
X018502Y027299D02*
X024152Y027299D01*
X024054Y027397D02*
X021270Y027397D01*
X021369Y027496D02*
X023955Y027496D01*
X023857Y027594D02*
X021467Y027594D01*
X021564Y027693D02*
X023843Y027693D01*
X023843Y027791D02*
X021564Y027791D01*
X020980Y027890D02*
X018811Y027890D01*
X018811Y027989D02*
X020496Y027989D01*
X020496Y028087D02*
X018811Y028087D01*
X018811Y028186D02*
X020549Y028186D01*
X020647Y028284D02*
X018743Y028284D01*
X018811Y027791D02*
X020496Y027791D01*
X020496Y027693D02*
X018811Y027693D01*
X018798Y027594D02*
X020592Y027594D01*
X020691Y027496D02*
X018699Y027496D01*
X018403Y027200D02*
X024251Y027200D01*
X023981Y023456D02*
X019231Y023456D01*
X019231Y023357D02*
X023981Y023357D01*
X023981Y023258D02*
X019231Y023258D01*
X019231Y023160D02*
X023981Y023160D01*
X023981Y023061D02*
X019317Y023061D01*
X019415Y022963D02*
X023981Y022963D01*
X023981Y022864D02*
X019504Y022864D01*
X019545Y022766D02*
X023981Y022766D01*
X023981Y022667D02*
X019586Y022667D01*
X017971Y023160D02*
X017502Y023160D01*
X017645Y023258D02*
X017971Y023258D01*
X017971Y023357D02*
X017743Y023357D01*
X017829Y023456D02*
X017971Y023456D01*
X017885Y023061D02*
X017302Y023061D01*
X017697Y022864D02*
X014255Y022864D01*
X014157Y022766D02*
X017656Y022766D01*
X017616Y022667D02*
X014058Y022667D01*
X013960Y022569D02*
X017601Y022569D01*
X017601Y022470D02*
X013861Y022470D01*
X013763Y022372D02*
X017601Y022372D01*
X017639Y022273D02*
X013664Y022273D01*
X013565Y022174D02*
X017680Y022174D01*
X017744Y022076D02*
X013467Y022076D01*
X013242Y021977D02*
X013827Y021977D01*
X013910Y022061D02*
X013641Y021791D01*
X013641Y021410D01*
X013910Y021141D01*
X014291Y021141D01*
X014561Y021410D01*
X014561Y021791D01*
X014291Y022061D01*
X013910Y022061D01*
X013728Y021879D02*
X010402Y021879D01*
X010304Y021977D02*
X011459Y021977D01*
X010501Y021780D02*
X013641Y021780D01*
X013641Y021682D02*
X010511Y021682D01*
X010511Y021485D02*
X013641Y021485D01*
X013641Y021583D02*
X010131Y021583D01*
X010071Y021583D02*
X007139Y021583D01*
X007213Y021485D02*
X009691Y021485D01*
X009691Y021431D02*
X009901Y021221D01*
X007411Y021221D01*
X006841Y021981D01*
X009901Y021981D01*
X009691Y021771D01*
X009691Y021631D01*
X010071Y021631D01*
X010071Y021571D01*
X009691Y021571D01*
X009691Y021431D01*
X009736Y021386D02*
X007287Y021386D01*
X007361Y021288D02*
X009834Y021288D01*
X010367Y021288D02*
X013763Y021288D01*
X013665Y021386D02*
X010466Y021386D01*
X010375Y021189D02*
X013862Y021189D01*
X013910Y021061D02*
X013641Y020791D01*
X013641Y020410D01*
X013910Y020141D01*
X014291Y020141D01*
X014561Y020410D01*
X014561Y020791D01*
X014291Y021061D01*
X013910Y021061D01*
X013841Y020992D02*
X010586Y020992D01*
X010671Y020893D02*
X013743Y020893D01*
X013644Y020795D02*
X010711Y020795D01*
X010721Y020696D02*
X013641Y020696D01*
X013641Y020598D02*
X010721Y020598D01*
X010721Y020499D02*
X013641Y020499D01*
X013650Y020401D02*
X010711Y020401D01*
X010665Y020302D02*
X013749Y020302D01*
X013847Y020204D02*
X010580Y020204D01*
X010482Y020105D02*
X019208Y020105D01*
X019306Y020007D02*
X010369Y020007D01*
X010488Y021091D02*
X017832Y021091D01*
X017828Y020992D02*
X014360Y020992D01*
X014459Y020893D02*
X017787Y020893D01*
X017751Y020795D02*
X014557Y020795D01*
X014561Y020696D02*
X017751Y020696D01*
X017752Y020598D02*
X014561Y020598D01*
X014561Y020499D02*
X017792Y020499D01*
X017836Y020401D02*
X014551Y020401D01*
X014453Y020302D02*
X017935Y020302D01*
X018111Y020204D02*
X014354Y020204D01*
X014340Y021189D02*
X017733Y021189D01*
X017675Y021288D02*
X014438Y021288D01*
X014537Y021386D02*
X017634Y021386D01*
X017601Y021485D02*
X014561Y021485D01*
X014561Y021583D02*
X017601Y021583D01*
X017601Y021682D02*
X014561Y021682D01*
X014561Y021780D02*
X017620Y021780D01*
X017661Y021879D02*
X014473Y021879D01*
X014375Y021977D02*
X017702Y021977D01*
X017786Y022963D02*
X014354Y022963D01*
X014940Y023061D02*
X016561Y023061D01*
X016361Y023160D02*
X015140Y023160D01*
X015283Y023258D02*
X016218Y023258D01*
X016120Y023357D02*
X015381Y023357D01*
X015467Y023456D02*
X016034Y023456D01*
X016028Y024737D02*
X015472Y024737D01*
X015391Y024835D02*
X016110Y024835D01*
X016209Y024934D02*
X015292Y024934D01*
X015156Y025032D02*
X016345Y025032D01*
X015428Y025328D02*
X015219Y025328D01*
X013028Y025919D02*
X009810Y025919D01*
X009711Y025821D02*
X012930Y025821D01*
X012831Y025722D02*
X009613Y025722D01*
X009514Y025624D02*
X012733Y025624D01*
X012634Y025525D02*
X009357Y025525D01*
X008993Y024934D02*
X009910Y024934D01*
X009811Y024835D02*
X009091Y024835D01*
X009173Y024737D02*
X009729Y024737D01*
X010046Y025032D02*
X008857Y025032D01*
X008676Y025131D02*
X010226Y025131D01*
X011038Y025131D02*
X012240Y025131D01*
X012338Y025229D02*
X002082Y025229D01*
X002290Y025131D02*
X007864Y025131D01*
X007683Y025032D02*
X005827Y025032D01*
X005793Y025066D02*
X005631Y025066D01*
X005631Y024631D01*
X006066Y024631D01*
X006066Y024793D01*
X005793Y025066D01*
X005631Y025032D02*
X005571Y025032D01*
X005571Y024934D02*
X005631Y024934D01*
X005631Y024835D02*
X005571Y024835D01*
X005571Y024737D02*
X005631Y024737D01*
X005631Y024638D02*
X005571Y024638D01*
X005276Y024934D02*
X002466Y024934D01*
X002507Y024835D02*
X005178Y024835D01*
X005136Y024737D02*
X002548Y024737D01*
X002551Y024638D02*
X005136Y024638D01*
X005136Y024540D02*
X002551Y024540D01*
X002538Y024441D02*
X005136Y024441D01*
X005202Y024342D02*
X002497Y024342D01*
X002456Y024244D02*
X005300Y024244D01*
X005205Y024145D02*
X002365Y024145D01*
X002262Y024047D02*
X005106Y024047D01*
X005008Y023948D02*
X002188Y023948D01*
X002276Y023850D02*
X004936Y023850D01*
X004936Y023751D02*
X002325Y023751D01*
X002348Y023653D02*
X004936Y023653D01*
X004936Y023554D02*
X001651Y023554D01*
X001551Y023554D02*
X000601Y023554D01*
X000601Y023456D02*
X000875Y023456D01*
X000922Y023357D02*
X000601Y023357D01*
X000601Y023258D02*
X001007Y023258D01*
X000952Y023160D02*
X000601Y023160D01*
X000601Y023061D02*
X000842Y023061D01*
X000747Y022963D02*
X000601Y022963D01*
X000601Y022864D02*
X000706Y022864D01*
X000666Y022766D02*
X000601Y022766D01*
X000601Y022667D02*
X000651Y022667D01*
X000651Y022569D02*
X000601Y022569D01*
X000601Y022470D02*
X000651Y022470D01*
X000692Y022372D02*
X000601Y022372D01*
X000601Y022273D02*
X000733Y022273D01*
X000808Y022174D02*
X000601Y022174D01*
X000601Y022076D02*
X000906Y022076D01*
X001107Y021977D02*
X000601Y021977D01*
X000601Y021879D02*
X005367Y021879D01*
X005441Y021780D02*
X000601Y021780D01*
X000601Y021682D02*
X005515Y021682D01*
X005589Y021583D02*
X000601Y021583D01*
X000601Y021485D02*
X005663Y021485D01*
X005737Y021386D02*
X000601Y021386D01*
X000601Y021288D02*
X005811Y021288D01*
X005885Y021189D02*
X000601Y021189D01*
X000601Y021091D02*
X005959Y021091D01*
X006032Y020992D02*
X000601Y020992D01*
X000601Y020893D02*
X006106Y020893D01*
X006180Y020795D02*
X000601Y020795D01*
X000601Y020696D02*
X006254Y020696D01*
X006328Y020598D02*
X000601Y020598D01*
X000601Y020499D02*
X001349Y020499D01*
X001250Y020401D02*
X000601Y020401D01*
X000601Y020302D02*
X001152Y020302D01*
X001141Y020204D02*
X000601Y020204D01*
X000601Y020105D02*
X001141Y020105D01*
X001141Y020007D02*
X000601Y020007D01*
X000601Y019908D02*
X001143Y019908D01*
X001242Y019809D02*
X000601Y019809D01*
X000601Y019711D02*
X001321Y019711D01*
X001321Y019612D02*
X000601Y019612D01*
X000601Y019514D02*
X001321Y019514D01*
X001321Y019415D02*
X000601Y019415D01*
X000601Y019317D02*
X001321Y019317D01*
X001321Y019218D02*
X000601Y019218D01*
X000601Y019120D02*
X001321Y019120D01*
X001321Y019021D02*
X000601Y019021D01*
X000601Y018923D02*
X001321Y018923D01*
X001321Y018824D02*
X000601Y018824D01*
X000601Y018725D02*
X001321Y018725D01*
X001321Y018627D02*
X000601Y018627D01*
X000601Y018528D02*
X001321Y018528D01*
X001279Y018430D02*
X000601Y018430D01*
X000601Y018331D02*
X001181Y018331D01*
X001141Y018233D02*
X000601Y018233D01*
X000601Y018134D02*
X001141Y018134D01*
X001141Y018036D02*
X000601Y018036D01*
X000601Y017937D02*
X001141Y017937D01*
X001212Y017839D02*
X000601Y017839D01*
X000601Y017740D02*
X001311Y017740D01*
X001410Y017641D02*
X000601Y017641D01*
X001881Y019218D02*
X022333Y019218D01*
X022234Y019317D02*
X001881Y019317D01*
X001881Y019415D02*
X021397Y019415D01*
X021339Y019514D02*
X001881Y019514D01*
X001881Y019612D02*
X021326Y019612D01*
X021326Y019711D02*
X002791Y019711D01*
X002771Y019691D02*
X003011Y019931D01*
X003011Y020071D01*
X002631Y020071D01*
X002631Y020131D01*
X003011Y020131D01*
X003011Y020271D01*
X002771Y020511D01*
X002631Y020511D01*
X002631Y020131D01*
X002571Y020131D01*
X002571Y020511D01*
X002431Y020511D01*
X002191Y020271D01*
X002191Y020131D01*
X002571Y020131D01*
X002571Y020071D01*
X002631Y020071D01*
X002631Y019691D01*
X002771Y019691D01*
X002631Y019711D02*
X002571Y019711D01*
X002571Y019691D02*
X002571Y020071D01*
X002191Y020071D01*
X002191Y019931D01*
X002431Y019691D01*
X002571Y019691D01*
X002571Y019809D02*
X002631Y019809D01*
X002631Y019908D02*
X002571Y019908D01*
X002571Y020007D02*
X002631Y020007D01*
X002631Y020105D02*
X006720Y020105D01*
X006621Y020204D02*
X003011Y020204D01*
X002979Y020302D02*
X006550Y020302D01*
X006476Y020401D02*
X002881Y020401D01*
X002782Y020499D02*
X006402Y020499D01*
X006887Y020007D02*
X003011Y020007D01*
X002988Y019908D02*
X019398Y019908D01*
X019109Y020204D02*
X019091Y020204D01*
X020092Y020696D02*
X020925Y020696D01*
X020827Y020795D02*
X020191Y020795D01*
X020289Y020893D02*
X020728Y020893D01*
X020691Y020992D02*
X020388Y020992D01*
X021326Y019809D02*
X002889Y019809D01*
X002571Y020105D02*
X002061Y020105D01*
X002061Y020007D02*
X002191Y020007D01*
X002214Y019908D02*
X002058Y019908D01*
X001960Y019809D02*
X002312Y019809D01*
X002411Y019711D02*
X001881Y019711D01*
X002061Y020204D02*
X002191Y020204D01*
X002222Y020302D02*
X002050Y020302D01*
X001951Y020401D02*
X002321Y020401D01*
X002419Y020499D02*
X001853Y020499D01*
X002571Y020499D02*
X002631Y020499D01*
X002631Y020401D02*
X002571Y020401D01*
X002571Y020302D02*
X002631Y020302D01*
X002631Y020204D02*
X002571Y020204D01*
X002195Y023258D02*
X004981Y023258D01*
X004936Y023357D02*
X002280Y023357D01*
X002327Y023456D02*
X004936Y023456D01*
X005901Y024244D02*
X007170Y024244D01*
X007170Y024145D02*
X005997Y024145D01*
X006095Y024047D02*
X007170Y024047D01*
X007172Y023948D02*
X006194Y023948D01*
X006266Y023850D02*
X007199Y023850D01*
X007225Y023751D02*
X006266Y023751D01*
X006266Y023653D02*
X007259Y023653D01*
X007316Y023554D02*
X006266Y023554D01*
X006266Y023456D02*
X007372Y023456D01*
X007458Y023357D02*
X006266Y023357D01*
X006221Y023258D02*
X007557Y023258D01*
X007196Y024342D02*
X006000Y024342D01*
X006066Y024441D02*
X007222Y024441D01*
X007253Y024540D02*
X006066Y024540D01*
X006066Y024638D02*
X007310Y024638D01*
X007367Y024737D02*
X006066Y024737D01*
X006024Y024835D02*
X007449Y024835D01*
X007547Y024934D02*
X005925Y024934D01*
X005375Y025032D02*
X002389Y025032D01*
X002687Y025624D02*
X000601Y025624D01*
X000601Y025722D02*
X002589Y025722D01*
X002490Y025821D02*
X000601Y025821D01*
X000601Y025919D02*
X002391Y025919D01*
X002293Y026018D02*
X000601Y026018D01*
X000601Y026116D02*
X002194Y026116D01*
X002096Y026215D02*
X000601Y026215D01*
X000601Y026313D02*
X001997Y026313D01*
X001899Y026412D02*
X000601Y026412D01*
X000601Y026510D02*
X001800Y026510D01*
X001702Y026609D02*
X000601Y026609D01*
X000601Y026707D02*
X001603Y026707D01*
X001527Y026806D02*
X000601Y026806D01*
X000601Y026905D02*
X001486Y026905D01*
X001447Y027003D02*
X000601Y027003D01*
X000601Y027102D02*
X001447Y027102D01*
X001447Y027200D02*
X000601Y027200D01*
X000601Y027299D02*
X001447Y027299D01*
X001447Y027397D02*
X000601Y027397D01*
X000601Y027496D02*
X001447Y027496D01*
X001357Y027594D02*
X000601Y027594D01*
X000601Y027693D02*
X001343Y027693D01*
X001343Y027791D02*
X000601Y027791D01*
X000601Y027890D02*
X001343Y027890D01*
X001343Y027989D02*
X000601Y027989D01*
X000601Y028087D02*
X001343Y028087D01*
X001343Y028186D02*
X000601Y028186D01*
X000601Y028284D02*
X001412Y028284D01*
X001510Y028383D02*
X000601Y028383D01*
X000601Y028481D02*
X001609Y028481D01*
X001707Y028580D02*
X000601Y028580D01*
X002426Y028601D02*
X009728Y028601D01*
X009343Y028216D01*
X009343Y027608D01*
X009447Y027504D01*
X009447Y027338D01*
X008840Y026731D01*
X003362Y026731D01*
X002707Y027385D01*
X002707Y027504D01*
X002811Y027608D01*
X002811Y028216D01*
X002426Y028601D01*
X002447Y028580D02*
X009707Y028580D01*
X009609Y028481D02*
X002545Y028481D01*
X002644Y028383D02*
X004746Y028383D01*
X004809Y028446D02*
X004496Y028133D01*
X004496Y027962D01*
X004980Y027962D01*
X004980Y028446D01*
X004809Y028446D01*
X004980Y028383D02*
X005080Y028383D01*
X005080Y028446D02*
X005251Y028446D01*
X005564Y028133D01*
X005564Y027962D01*
X005080Y027962D01*
X004980Y027962D01*
X004980Y027862D01*
X004496Y027862D01*
X004496Y027691D01*
X004809Y027378D01*
X004980Y027378D01*
X004980Y027862D01*
X005080Y027862D01*
X005080Y027962D01*
X005080Y028446D01*
X005080Y028284D02*
X004980Y028284D01*
X004980Y028186D02*
X005080Y028186D01*
X005080Y028087D02*
X004980Y028087D01*
X004980Y027989D02*
X005080Y027989D01*
X005080Y027890D02*
X007183Y027890D01*
X007101Y027808D02*
X007101Y027394D01*
X007394Y027101D01*
X007808Y027101D01*
X008101Y027394D01*
X008101Y027808D01*
X007808Y028101D01*
X007394Y028101D01*
X007101Y027808D01*
X007101Y027791D02*
X005564Y027791D01*
X005564Y027862D02*
X005080Y027862D01*
X005080Y027378D01*
X005251Y027378D01*
X005564Y027691D01*
X005564Y027862D01*
X005564Y027989D02*
X007281Y027989D01*
X007380Y028087D02*
X005564Y028087D01*
X005511Y028186D02*
X009343Y028186D01*
X009343Y028087D02*
X007822Y028087D01*
X007920Y027989D02*
X009343Y027989D01*
X009343Y027890D02*
X008019Y027890D01*
X008101Y027791D02*
X009343Y027791D01*
X009343Y027693D02*
X008101Y027693D01*
X008101Y027594D02*
X009357Y027594D01*
X009447Y027496D02*
X008101Y027496D01*
X008101Y027397D02*
X009447Y027397D01*
X009408Y027299D02*
X008006Y027299D01*
X007907Y027200D02*
X009309Y027200D01*
X009211Y027102D02*
X007809Y027102D01*
X007393Y027102D02*
X002991Y027102D01*
X002892Y027200D02*
X007294Y027200D01*
X007196Y027299D02*
X002794Y027299D01*
X002707Y027397D02*
X004789Y027397D01*
X004691Y027496D02*
X002707Y027496D01*
X002798Y027594D02*
X004592Y027594D01*
X004496Y027693D02*
X002811Y027693D01*
X002811Y027791D02*
X004496Y027791D01*
X004496Y027989D02*
X002811Y027989D01*
X002811Y028087D02*
X004496Y028087D01*
X004549Y028186D02*
X002811Y028186D01*
X002743Y028284D02*
X004647Y028284D01*
X004980Y027890D02*
X002811Y027890D01*
X003089Y027003D02*
X009112Y027003D01*
X009014Y026905D02*
X003188Y026905D01*
X003286Y026806D02*
X008915Y026806D01*
X009909Y026018D02*
X010857Y026018D01*
X010665Y026116D02*
X010007Y026116D01*
X010106Y026215D02*
X010472Y026215D01*
X010279Y026313D02*
X010204Y026313D01*
X010731Y027498D02*
X011253Y027231D01*
X013840Y027231D01*
X014821Y028212D01*
X014821Y028256D01*
X014940Y028543D01*
X014998Y028601D01*
X010426Y028601D01*
X010811Y028216D01*
X010811Y027608D01*
X010731Y027528D01*
X010731Y027498D01*
X010734Y027496D02*
X012691Y027496D01*
X012592Y027594D02*
X010798Y027594D01*
X010811Y027693D02*
X012496Y027693D01*
X012496Y027691D02*
X012809Y027378D01*
X012980Y027378D01*
X012980Y027862D01*
X012496Y027862D01*
X012496Y027691D01*
X012496Y027791D02*
X010811Y027791D01*
X010811Y027890D02*
X012980Y027890D01*
X012980Y027862D02*
X012980Y027962D01*
X012980Y028446D01*
X012809Y028446D01*
X012496Y028133D01*
X012496Y027962D01*
X012980Y027962D01*
X013080Y027962D01*
X013080Y028446D01*
X013251Y028446D01*
X013564Y028133D01*
X013564Y027962D01*
X013080Y027962D01*
X013080Y027862D01*
X013564Y027862D01*
X013564Y027691D01*
X013251Y027378D01*
X013080Y027378D01*
X013080Y027862D01*
X012980Y027862D01*
X012980Y027791D02*
X013080Y027791D01*
X013080Y027693D02*
X012980Y027693D01*
X012980Y027594D02*
X013080Y027594D01*
X013080Y027496D02*
X012980Y027496D01*
X012980Y027397D02*
X013080Y027397D01*
X013270Y027397D02*
X014006Y027397D01*
X013908Y027299D02*
X011120Y027299D01*
X010927Y027397D02*
X012789Y027397D01*
X013369Y027496D02*
X014105Y027496D01*
X014203Y027594D02*
X013467Y027594D01*
X013564Y027693D02*
X014302Y027693D01*
X014401Y027791D02*
X013564Y027791D01*
X013564Y027989D02*
X014598Y027989D01*
X014696Y028087D02*
X013564Y028087D01*
X013511Y028186D02*
X014795Y028186D01*
X014833Y028284D02*
X013412Y028284D01*
X013314Y028383D02*
X014873Y028383D01*
X014914Y028481D02*
X010545Y028481D01*
X010447Y028580D02*
X014977Y028580D01*
X014499Y027890D02*
X013080Y027890D01*
X013080Y027989D02*
X012980Y027989D01*
X012980Y028087D02*
X013080Y028087D01*
X013080Y028186D02*
X012980Y028186D01*
X012980Y028284D02*
X013080Y028284D01*
X013080Y028383D02*
X012980Y028383D01*
X012746Y028383D02*
X010644Y028383D01*
X010743Y028284D02*
X012647Y028284D01*
X012549Y028186D02*
X010811Y028186D01*
X010811Y028087D02*
X012496Y028087D01*
X012496Y027989D02*
X010811Y027989D01*
X009510Y028383D02*
X005314Y028383D01*
X005412Y028284D02*
X009412Y028284D01*
X007101Y027693D02*
X005564Y027693D01*
X005467Y027594D02*
X007101Y027594D01*
X007101Y027496D02*
X005369Y027496D01*
X005270Y027397D02*
X007101Y027397D01*
X005080Y027397D02*
X004980Y027397D01*
X004980Y027496D02*
X005080Y027496D01*
X005080Y027594D02*
X004980Y027594D01*
X004980Y027693D02*
X005080Y027693D01*
X005080Y027791D02*
X004980Y027791D01*
X002845Y025525D02*
X000601Y025525D01*
X000601Y025426D02*
X012536Y025426D01*
X012437Y025328D02*
X000601Y025328D01*
X000601Y025229D02*
X001120Y025229D01*
X000912Y025131D02*
X000601Y025131D01*
X000601Y025032D02*
X000813Y025032D01*
X000735Y024934D02*
X000601Y024934D01*
X000601Y024835D02*
X000694Y024835D01*
X000654Y024737D02*
X000601Y024737D01*
X000601Y024638D02*
X000651Y024638D01*
X000651Y024540D02*
X000601Y024540D01*
X000601Y024441D02*
X000663Y024441D01*
X000704Y024342D02*
X000601Y024342D01*
X000601Y024244D02*
X000745Y024244D01*
X000837Y024145D02*
X000601Y024145D01*
X000601Y024047D02*
X000940Y024047D01*
X001014Y023948D02*
X000601Y023948D01*
X000601Y023850D02*
X000925Y023850D01*
X000876Y023751D02*
X000601Y023751D01*
X000601Y023653D02*
X000853Y023653D01*
X006843Y021977D02*
X009898Y021977D01*
X009799Y021879D02*
X006917Y021879D01*
X006991Y021780D02*
X009701Y021780D01*
X009691Y021682D02*
X007065Y021682D01*
X011219Y025032D02*
X012141Y025032D01*
X012043Y024934D02*
X011355Y024934D01*
X011454Y024835D02*
X011944Y024835D01*
X011846Y024737D02*
X011535Y024737D01*
X008051Y016558D02*
X007881Y016558D01*
X007950Y016459D02*
X008051Y016459D01*
X008051Y016360D02*
X008034Y016360D01*
X008045Y015868D02*
X008051Y015868D01*
X008051Y015769D02*
X007976Y015769D01*
X008051Y015671D02*
X007869Y015671D01*
X008059Y015572D02*
X007468Y015572D01*
X007369Y015474D02*
X009120Y015474D01*
X009143Y015572D02*
X009219Y015572D01*
X009151Y015671D02*
X009317Y015671D01*
X009401Y015769D02*
X009151Y015769D01*
X009022Y015375D02*
X007271Y015375D01*
X007172Y015276D02*
X008923Y015276D01*
X008824Y015178D02*
X007074Y015178D01*
X006975Y015079D02*
X008726Y015079D01*
X008627Y014981D02*
X006877Y014981D01*
X006778Y014882D02*
X008529Y014882D01*
X008430Y014784D02*
X006680Y014784D01*
X006581Y014685D02*
X008332Y014685D01*
X008233Y014587D02*
X006483Y014587D01*
X006384Y014488D02*
X008135Y014488D01*
X008036Y014390D02*
X006285Y014390D01*
X006187Y014291D02*
X007938Y014291D01*
X007839Y014192D02*
X006088Y014192D01*
X005990Y014094D02*
X007740Y014094D01*
X007642Y013995D02*
X005891Y013995D01*
X005793Y013897D02*
X007543Y013897D01*
X007459Y013813D02*
X007459Y013813D01*
X007445Y013798D02*
X005694Y013798D01*
X005596Y013700D02*
X007371Y013700D01*
X007351Y013601D02*
X005497Y013601D01*
X005399Y013503D02*
X007351Y013503D01*
X007351Y013404D02*
X005300Y013404D01*
X004902Y013798D02*
X004694Y013798D01*
X004596Y013700D02*
X004804Y013700D01*
X004705Y013601D02*
X004497Y013601D01*
X004399Y013503D02*
X004607Y013503D01*
X004508Y013404D02*
X004300Y013404D01*
X004201Y013306D02*
X004410Y013306D01*
X004297Y013207D02*
X004103Y013207D01*
X004004Y013109D02*
X004206Y013109D01*
X004165Y013010D02*
X004037Y013010D01*
X004061Y012911D02*
X004141Y012911D01*
X004141Y012813D02*
X004061Y012813D01*
X004061Y012714D02*
X004141Y012714D01*
X004141Y012616D02*
X004061Y012616D01*
X004061Y012517D02*
X004141Y012517D01*
X004141Y012419D02*
X004061Y012419D01*
X004061Y012320D02*
X004141Y012320D01*
X004152Y012222D02*
X004049Y012222D01*
X004008Y012123D02*
X004193Y012123D01*
X004266Y012025D02*
X003935Y012025D01*
X003801Y011926D02*
X004400Y011926D01*
X003692Y010321D02*
X003509Y010321D01*
X003340Y010251D01*
X003692Y010321D02*
X003861Y010251D01*
X005340Y010251D02*
X005509Y010321D01*
X005692Y010321D01*
X005861Y010251D01*
X006340Y010251D01*
X006211Y010121D01*
X006141Y009952D01*
X006141Y009249D01*
X006211Y009080D01*
X006321Y008970D01*
X006321Y008217D01*
X003363Y005259D01*
X003321Y005156D01*
X003321Y005045D01*
X003321Y004471D01*
X003141Y004291D01*
X003141Y003910D01*
X003321Y003730D01*
X003321Y002626D01*
X003318Y002625D01*
X003177Y002484D01*
X003101Y002300D01*
X003101Y001501D01*
X003101Y002300D01*
X003025Y002484D01*
X002884Y002625D01*
X002881Y002626D01*
X002881Y003730D01*
X003061Y003910D01*
X003061Y004291D01*
X002881Y004471D01*
X002881Y004985D01*
X005838Y007942D01*
X005881Y008045D01*
X005881Y008156D01*
X005881Y008970D01*
X005991Y009080D01*
X006061Y009249D01*
X006061Y009952D01*
X005991Y010121D01*
X005861Y010251D01*
X005960Y010152D02*
X006242Y010152D01*
X006183Y010054D02*
X006019Y010054D01*
X006060Y009955D02*
X006142Y009955D01*
X006141Y009857D02*
X006061Y009857D01*
X006061Y009758D02*
X006141Y009758D01*
X006141Y009659D02*
X006061Y009659D01*
X006061Y009561D02*
X006141Y009561D01*
X006141Y009462D02*
X006061Y009462D01*
X006061Y009364D02*
X006141Y009364D01*
X006141Y009265D02*
X006061Y009265D01*
X006027Y009167D02*
X006175Y009167D01*
X006223Y009068D02*
X005979Y009068D01*
X005881Y008970D02*
X006321Y008970D01*
X006321Y008871D02*
X005881Y008871D01*
X005881Y008773D02*
X006321Y008773D01*
X006321Y008674D02*
X005881Y008674D01*
X005881Y008576D02*
X006321Y008576D01*
X006321Y008477D02*
X005881Y008477D01*
X005881Y008378D02*
X006321Y008378D01*
X006321Y008280D02*
X005881Y008280D01*
X005881Y008181D02*
X006285Y008181D01*
X006187Y008083D02*
X005881Y008083D01*
X005856Y007984D02*
X006088Y007984D01*
X005990Y007886D02*
X005782Y007886D01*
X005683Y007787D02*
X005891Y007787D01*
X005793Y007689D02*
X005585Y007689D01*
X005486Y007590D02*
X005694Y007590D01*
X005596Y007492D02*
X005387Y007492D01*
X005289Y007393D02*
X005497Y007393D01*
X005399Y007294D02*
X005190Y007294D01*
X005092Y007196D02*
X005300Y007196D01*
X005201Y007097D02*
X004993Y007097D01*
X004895Y006999D02*
X005103Y006999D01*
X005004Y006900D02*
X004796Y006900D01*
X004698Y006802D02*
X004906Y006802D01*
X004807Y006703D02*
X004599Y006703D01*
X004501Y006605D02*
X004709Y006605D01*
X004610Y006506D02*
X004402Y006506D01*
X004304Y006408D02*
X004512Y006408D01*
X004413Y006309D02*
X004205Y006309D01*
X004106Y006210D02*
X004315Y006210D01*
X004216Y006112D02*
X004008Y006112D01*
X003909Y006013D02*
X004117Y006013D01*
X004019Y005915D02*
X003811Y005915D01*
X003712Y005816D02*
X003920Y005816D01*
X003822Y005718D02*
X003614Y005718D01*
X003515Y005619D02*
X003723Y005619D01*
X003625Y005521D02*
X003417Y005521D01*
X003318Y005422D02*
X003526Y005422D01*
X003428Y005324D02*
X003220Y005324D01*
X003121Y005225D02*
X003349Y005225D01*
X003321Y005126D02*
X003022Y005126D01*
X002924Y005028D02*
X003321Y005028D01*
X003321Y004929D02*
X002881Y004929D01*
X002881Y004831D02*
X003321Y004831D01*
X003321Y004732D02*
X002881Y004732D01*
X002881Y004634D02*
X003321Y004634D01*
X003321Y004535D02*
X002881Y004535D01*
X002915Y004437D02*
X003286Y004437D01*
X003188Y004338D02*
X003014Y004338D01*
X003061Y004240D02*
X003141Y004240D01*
X003141Y004141D02*
X003061Y004141D01*
X003061Y004043D02*
X003141Y004043D01*
X003141Y003944D02*
X003061Y003944D01*
X002996Y003845D02*
X003206Y003845D01*
X003304Y003747D02*
X002897Y003747D01*
X002881Y003648D02*
X003321Y003648D01*
X003321Y003550D02*
X002881Y003550D01*
X002881Y003451D02*
X003321Y003451D01*
X003321Y003353D02*
X002881Y003353D01*
X002881Y003254D02*
X003321Y003254D01*
X003321Y003156D02*
X002881Y003156D01*
X002881Y003057D02*
X003321Y003057D01*
X003321Y002959D02*
X002881Y002959D01*
X002881Y002860D02*
X003321Y002860D01*
X003321Y002761D02*
X002881Y002761D01*
X002881Y002663D02*
X003321Y002663D01*
X003257Y002564D02*
X002944Y002564D01*
X003032Y002466D02*
X003169Y002466D01*
X003129Y002367D02*
X003073Y002367D01*
X003101Y002269D02*
X003101Y002269D01*
X003101Y002170D02*
X003101Y002170D01*
X003101Y002072D02*
X003101Y002072D01*
X003101Y001973D02*
X003101Y001973D01*
X003101Y001875D02*
X003101Y001875D01*
X003101Y001776D02*
X003101Y001776D01*
X003101Y001677D02*
X003101Y001677D01*
X003101Y001579D02*
X003101Y001579D01*
X003092Y001480D02*
X003109Y001480D01*
X003150Y001382D02*
X003051Y001382D01*
X002990Y001283D02*
X003211Y001283D01*
X003310Y001185D02*
X002892Y001185D01*
X002310Y001185D02*
X001892Y001185D01*
X001990Y001283D02*
X002211Y001283D01*
X002150Y001382D02*
X002051Y001382D01*
X002092Y001480D02*
X002109Y001480D01*
X002101Y001579D02*
X002101Y001579D01*
X002101Y001677D02*
X002101Y001677D01*
X002101Y001776D02*
X002101Y001776D01*
X002101Y001875D02*
X002101Y001875D01*
X002101Y001973D02*
X002101Y001973D01*
X002101Y002072D02*
X002101Y002072D01*
X002101Y002170D02*
X002101Y002170D01*
X002101Y002269D02*
X002101Y002269D01*
X002073Y002367D02*
X002129Y002367D01*
X002169Y002466D02*
X002032Y002466D01*
X001944Y002564D02*
X002257Y002564D01*
X002321Y002663D02*
X001881Y002663D01*
X001881Y002761D02*
X002321Y002761D01*
X002321Y002860D02*
X001881Y002860D01*
X001881Y002959D02*
X002321Y002959D01*
X002321Y003057D02*
X001881Y003057D01*
X001881Y003156D02*
X002321Y003156D01*
X002321Y003254D02*
X001881Y003254D01*
X001881Y003353D02*
X002321Y003353D01*
X002321Y003451D02*
X001881Y003451D01*
X001881Y003550D02*
X002321Y003550D01*
X002321Y003648D02*
X001881Y003648D01*
X001897Y003747D02*
X002304Y003747D01*
X002206Y003845D02*
X001996Y003845D01*
X002061Y003944D02*
X002141Y003944D01*
X002141Y004043D02*
X002061Y004043D01*
X002061Y004141D02*
X002141Y004141D01*
X002141Y004240D02*
X002061Y004240D01*
X002014Y004338D02*
X002188Y004338D01*
X002286Y004437D02*
X001915Y004437D01*
X001881Y004535D02*
X002321Y004535D01*
X002321Y004634D02*
X001881Y004634D01*
X001881Y004732D02*
X002321Y004732D01*
X002321Y004831D02*
X001881Y004831D01*
X001881Y004929D02*
X002321Y004929D01*
X002321Y005028D02*
X001924Y005028D01*
X002022Y005126D02*
X002321Y005126D01*
X002349Y005225D02*
X002121Y005225D01*
X002220Y005324D02*
X002428Y005324D01*
X002526Y005422D02*
X002318Y005422D01*
X002417Y005521D02*
X002625Y005521D01*
X002723Y005619D02*
X002515Y005619D01*
X002614Y005718D02*
X002822Y005718D01*
X002920Y005816D02*
X002712Y005816D01*
X002811Y005915D02*
X003019Y005915D01*
X003117Y006013D02*
X002909Y006013D01*
X003008Y006112D02*
X003216Y006112D01*
X003315Y006210D02*
X003106Y006210D01*
X003205Y006309D02*
X003413Y006309D01*
X003512Y006408D02*
X003304Y006408D01*
X003402Y006506D02*
X003610Y006506D01*
X003709Y006605D02*
X003501Y006605D01*
X003599Y006703D02*
X003807Y006703D01*
X003906Y006802D02*
X003698Y006802D01*
X003796Y006900D02*
X004004Y006900D01*
X004103Y006999D02*
X003895Y006999D01*
X003993Y007097D02*
X004201Y007097D01*
X004300Y007196D02*
X004092Y007196D01*
X004190Y007294D02*
X004399Y007294D01*
X004497Y007393D02*
X004289Y007393D01*
X004387Y007492D02*
X004596Y007492D01*
X004694Y007590D02*
X004486Y007590D01*
X004585Y007689D02*
X004793Y007689D01*
X004891Y007787D02*
X004683Y007787D01*
X005698Y006802D02*
X005906Y006802D01*
X006004Y006900D02*
X005796Y006900D01*
X005895Y006999D02*
X006103Y006999D01*
X006201Y007097D02*
X005993Y007097D01*
X006092Y007196D02*
X006300Y007196D01*
X006399Y007294D02*
X006190Y007294D01*
X006289Y007393D02*
X006497Y007393D01*
X006596Y007492D02*
X006387Y007492D01*
X006486Y007590D02*
X006694Y007590D01*
X006793Y007689D02*
X006585Y007689D01*
X006683Y007787D02*
X006891Y007787D01*
X006990Y007886D02*
X006782Y007886D01*
X006838Y007942D02*
X006881Y008045D01*
X006881Y008156D01*
X006881Y008970D01*
X006991Y009080D01*
X007061Y009249D01*
X007061Y009952D01*
X006991Y010121D01*
X006861Y010251D01*
X007340Y010251D01*
X007211Y010121D01*
X007141Y009952D01*
X007141Y009249D01*
X007211Y009080D01*
X007321Y008970D01*
X007321Y008217D01*
X004363Y005259D01*
X004321Y005156D01*
X004321Y005045D01*
X004321Y002626D01*
X004318Y002625D01*
X004177Y002484D01*
X004101Y002300D01*
X004101Y001501D01*
X004101Y002300D01*
X004025Y002484D01*
X003884Y002625D01*
X003881Y002626D01*
X003881Y003730D01*
X004061Y003910D01*
X004061Y004291D01*
X003881Y004471D01*
X003881Y004985D01*
X006838Y007942D01*
X006856Y007984D02*
X007088Y007984D01*
X007187Y008083D02*
X006881Y008083D01*
X006881Y008181D02*
X007285Y008181D01*
X007321Y008280D02*
X006881Y008280D01*
X006881Y008378D02*
X007321Y008378D01*
X007321Y008477D02*
X006881Y008477D01*
X006881Y008576D02*
X007321Y008576D01*
X007321Y008674D02*
X006881Y008674D01*
X006881Y008773D02*
X007321Y008773D01*
X007321Y008871D02*
X006881Y008871D01*
X006881Y008970D02*
X007321Y008970D01*
X007223Y009068D02*
X006979Y009068D01*
X007027Y009167D02*
X007175Y009167D01*
X007141Y009265D02*
X007061Y009265D01*
X007061Y009364D02*
X007141Y009364D01*
X007141Y009462D02*
X007061Y009462D01*
X007061Y009561D02*
X007141Y009561D01*
X007141Y009659D02*
X007061Y009659D01*
X007061Y009758D02*
X007141Y009758D01*
X007141Y009857D02*
X007061Y009857D01*
X007060Y009955D02*
X007142Y009955D01*
X007183Y010054D02*
X007019Y010054D01*
X006960Y010152D02*
X007242Y010152D01*
X007340Y010251D02*
X007509Y010321D01*
X007692Y010321D01*
X007861Y010251D01*
X008340Y010251D01*
X008211Y010121D01*
X008141Y009952D01*
X008141Y009249D01*
X008211Y009080D01*
X008321Y008970D01*
X008321Y008217D01*
X005442Y005338D01*
X005363Y005259D01*
X005321Y005156D01*
X005321Y002626D01*
X005318Y002625D01*
X005177Y002484D01*
X005101Y002300D01*
X005101Y001501D01*
X005101Y002300D01*
X005025Y002484D01*
X004884Y002625D01*
X004881Y002626D01*
X004881Y004985D01*
X007759Y007863D01*
X007838Y007942D01*
X007881Y008045D01*
X007881Y008970D01*
X007991Y009080D01*
X008061Y009249D01*
X008061Y009952D01*
X007991Y010121D01*
X007861Y010251D01*
X007960Y010152D02*
X008242Y010152D01*
X008183Y010054D02*
X008019Y010054D01*
X008060Y009955D02*
X008142Y009955D01*
X008141Y009857D02*
X008061Y009857D01*
X008061Y009758D02*
X008141Y009758D01*
X008141Y009659D02*
X008061Y009659D01*
X008061Y009561D02*
X008141Y009561D01*
X008141Y009462D02*
X008061Y009462D01*
X008061Y009364D02*
X008141Y009364D01*
X008141Y009265D02*
X008061Y009265D01*
X008027Y009167D02*
X008175Y009167D01*
X008223Y009068D02*
X007979Y009068D01*
X007881Y008970D02*
X008321Y008970D01*
X008321Y008871D02*
X007881Y008871D01*
X007881Y008773D02*
X008321Y008773D01*
X008321Y008674D02*
X007881Y008674D01*
X007881Y008576D02*
X008321Y008576D01*
X008321Y008477D02*
X007881Y008477D01*
X007881Y008378D02*
X008321Y008378D01*
X008321Y008280D02*
X007881Y008280D01*
X007881Y008181D02*
X008285Y008181D01*
X008187Y008083D02*
X007881Y008083D01*
X007856Y007984D02*
X008088Y007984D01*
X007990Y007886D02*
X007782Y007886D01*
X007683Y007787D02*
X007891Y007787D01*
X007793Y007689D02*
X007585Y007689D01*
X007486Y007590D02*
X007694Y007590D01*
X007596Y007492D02*
X007387Y007492D01*
X007289Y007393D02*
X007497Y007393D01*
X007399Y007294D02*
X007190Y007294D01*
X007092Y007196D02*
X007300Y007196D01*
X007201Y007097D02*
X006993Y007097D01*
X006895Y006999D02*
X007103Y006999D01*
X007004Y006900D02*
X006796Y006900D01*
X006698Y006802D02*
X006906Y006802D01*
X006807Y006703D02*
X006599Y006703D01*
X006501Y006605D02*
X006709Y006605D01*
X006610Y006506D02*
X006402Y006506D01*
X006304Y006408D02*
X006512Y006408D01*
X006413Y006309D02*
X006205Y006309D01*
X006106Y006210D02*
X006315Y006210D01*
X006216Y006112D02*
X006008Y006112D01*
X005909Y006013D02*
X006117Y006013D01*
X006019Y005915D02*
X005811Y005915D01*
X005712Y005816D02*
X005920Y005816D01*
X005822Y005718D02*
X005614Y005718D01*
X005515Y005619D02*
X005723Y005619D01*
X005625Y005521D02*
X005417Y005521D01*
X005318Y005422D02*
X005526Y005422D01*
X005428Y005324D02*
X005220Y005324D01*
X005121Y005225D02*
X005349Y005225D01*
X005321Y005126D02*
X005022Y005126D01*
X004924Y005028D02*
X005321Y005028D01*
X005321Y004929D02*
X004881Y004929D01*
X004881Y004831D02*
X005321Y004831D01*
X005321Y004732D02*
X004881Y004732D01*
X004881Y004634D02*
X005321Y004634D01*
X005321Y004535D02*
X004881Y004535D01*
X004881Y004437D02*
X005321Y004437D01*
X005321Y004338D02*
X004881Y004338D01*
X004881Y004240D02*
X005321Y004240D01*
X005321Y004141D02*
X004881Y004141D01*
X004881Y004043D02*
X005321Y004043D01*
X005321Y003944D02*
X004881Y003944D01*
X004881Y003845D02*
X005321Y003845D01*
X005321Y003747D02*
X004881Y003747D01*
X004881Y003648D02*
X005321Y003648D01*
X005321Y003550D02*
X004881Y003550D01*
X004881Y003451D02*
X005321Y003451D01*
X005321Y003353D02*
X004881Y003353D01*
X004881Y003254D02*
X005321Y003254D01*
X005321Y003156D02*
X004881Y003156D01*
X004881Y003057D02*
X005321Y003057D01*
X005321Y002959D02*
X004881Y002959D01*
X004881Y002860D02*
X005321Y002860D01*
X005321Y002761D02*
X004881Y002761D01*
X004881Y002663D02*
X005321Y002663D01*
X005257Y002564D02*
X004944Y002564D01*
X005032Y002466D02*
X005169Y002466D01*
X005129Y002367D02*
X005073Y002367D01*
X005101Y002269D02*
X005101Y002269D01*
X005101Y002170D02*
X005101Y002170D01*
X005101Y002072D02*
X005101Y002072D01*
X005101Y001973D02*
X005101Y001973D01*
X005101Y001875D02*
X005101Y001875D01*
X005101Y001776D02*
X005101Y001776D01*
X005101Y001677D02*
X005101Y001677D01*
X005101Y001579D02*
X005101Y001579D01*
X005092Y001480D02*
X005109Y001480D01*
X005150Y001382D02*
X005051Y001382D01*
X004990Y001283D02*
X005211Y001283D01*
X005310Y001185D02*
X004892Y001185D01*
X004310Y001185D02*
X003892Y001185D01*
X003990Y001283D02*
X004211Y001283D01*
X004150Y001382D02*
X004051Y001382D01*
X004092Y001480D02*
X004109Y001480D01*
X004101Y001579D02*
X004101Y001579D01*
X004101Y001677D02*
X004101Y001677D01*
X004101Y001776D02*
X004101Y001776D01*
X004101Y001875D02*
X004101Y001875D01*
X004101Y001973D02*
X004101Y001973D01*
X004101Y002072D02*
X004101Y002072D01*
X004101Y002170D02*
X004101Y002170D01*
X004101Y002269D02*
X004101Y002269D01*
X004073Y002367D02*
X004129Y002367D01*
X004169Y002466D02*
X004032Y002466D01*
X003944Y002564D02*
X004257Y002564D01*
X004321Y002663D02*
X003881Y002663D01*
X003881Y002761D02*
X004321Y002761D01*
X004321Y002860D02*
X003881Y002860D01*
X003881Y002959D02*
X004321Y002959D01*
X004321Y003057D02*
X003881Y003057D01*
X003881Y003156D02*
X004321Y003156D01*
X004321Y003254D02*
X003881Y003254D01*
X003881Y003353D02*
X004321Y003353D01*
X004321Y003451D02*
X003881Y003451D01*
X003881Y003550D02*
X004321Y003550D01*
X004321Y003648D02*
X003881Y003648D01*
X003897Y003747D02*
X004321Y003747D01*
X004321Y003845D02*
X003996Y003845D01*
X004061Y003944D02*
X004321Y003944D01*
X004321Y004043D02*
X004061Y004043D01*
X004061Y004141D02*
X004321Y004141D01*
X004321Y004240D02*
X004061Y004240D01*
X004014Y004338D02*
X004321Y004338D01*
X004321Y004437D02*
X003915Y004437D01*
X003881Y004535D02*
X004321Y004535D01*
X004321Y004634D02*
X003881Y004634D01*
X003881Y004732D02*
X004321Y004732D01*
X004321Y004831D02*
X003881Y004831D01*
X003881Y004929D02*
X004321Y004929D01*
X004321Y005028D02*
X003924Y005028D01*
X004022Y005126D02*
X004321Y005126D01*
X004349Y005225D02*
X004121Y005225D01*
X004220Y005324D02*
X004428Y005324D01*
X004526Y005422D02*
X004318Y005422D01*
X004417Y005521D02*
X004625Y005521D01*
X004723Y005619D02*
X004515Y005619D01*
X004614Y005718D02*
X004822Y005718D01*
X004920Y005816D02*
X004712Y005816D01*
X004811Y005915D02*
X005019Y005915D01*
X005117Y006013D02*
X004909Y006013D01*
X005008Y006112D02*
X005216Y006112D01*
X005315Y006210D02*
X005106Y006210D01*
X005205Y006309D02*
X005413Y006309D01*
X005512Y006408D02*
X005304Y006408D01*
X005402Y006506D02*
X005610Y006506D01*
X005709Y006605D02*
X005501Y006605D01*
X005599Y006703D02*
X005807Y006703D01*
X006712Y005816D02*
X006920Y005816D01*
X006822Y005718D02*
X006614Y005718D01*
X006515Y005619D02*
X006723Y005619D01*
X006625Y005521D02*
X006417Y005521D01*
X006318Y005422D02*
X006526Y005422D01*
X006428Y005324D02*
X006220Y005324D01*
X006121Y005225D02*
X006349Y005225D01*
X006363Y005259D02*
X006321Y005156D01*
X006321Y005045D01*
X006321Y002626D01*
X006318Y002625D01*
X006177Y002484D01*
X006101Y002300D01*
X006101Y001501D01*
X006101Y002300D01*
X006025Y002484D01*
X005884Y002625D01*
X005881Y002626D01*
X005881Y004985D01*
X008838Y007942D01*
X008881Y008045D01*
X008881Y008156D01*
X008881Y008970D01*
X008991Y009080D01*
X009061Y009249D01*
X009061Y009952D01*
X008991Y010121D01*
X008861Y010251D01*
X009340Y010251D01*
X009211Y010121D01*
X009141Y009952D01*
X009141Y009249D01*
X009211Y009080D01*
X009321Y008970D01*
X009321Y008217D01*
X006363Y005259D01*
X006321Y005126D02*
X006022Y005126D01*
X005924Y005028D02*
X006321Y005028D01*
X006321Y004929D02*
X005881Y004929D01*
X005881Y004831D02*
X006321Y004831D01*
X006321Y004732D02*
X005881Y004732D01*
X005881Y004634D02*
X006321Y004634D01*
X006321Y004535D02*
X005881Y004535D01*
X005881Y004437D02*
X006321Y004437D01*
X006321Y004338D02*
X005881Y004338D01*
X005881Y004240D02*
X006321Y004240D01*
X006321Y004141D02*
X005881Y004141D01*
X005881Y004043D02*
X006321Y004043D01*
X006321Y003944D02*
X005881Y003944D01*
X005881Y003845D02*
X006321Y003845D01*
X006321Y003747D02*
X005881Y003747D01*
X005881Y003648D02*
X006321Y003648D01*
X006321Y003550D02*
X005881Y003550D01*
X005881Y003451D02*
X006321Y003451D01*
X006321Y003353D02*
X005881Y003353D01*
X005881Y003254D02*
X006321Y003254D01*
X006321Y003156D02*
X005881Y003156D01*
X005881Y003057D02*
X006321Y003057D01*
X006321Y002959D02*
X005881Y002959D01*
X005881Y002860D02*
X006321Y002860D01*
X006321Y002761D02*
X005881Y002761D01*
X005881Y002663D02*
X006321Y002663D01*
X006257Y002564D02*
X005944Y002564D01*
X006032Y002466D02*
X006169Y002466D01*
X006129Y002367D02*
X006073Y002367D01*
X006101Y002269D02*
X006101Y002269D01*
X006101Y002170D02*
X006101Y002170D01*
X006101Y002072D02*
X006101Y002072D01*
X006101Y001973D02*
X006101Y001973D01*
X006101Y001875D02*
X006101Y001875D01*
X006101Y001776D02*
X006101Y001776D01*
X006101Y001677D02*
X006101Y001677D01*
X006101Y001579D02*
X006101Y001579D01*
X006092Y001480D02*
X006109Y001480D01*
X006150Y001382D02*
X006051Y001382D01*
X005990Y001283D02*
X006211Y001283D01*
X006310Y001185D02*
X005892Y001185D01*
X006892Y001185D02*
X007310Y001185D01*
X007211Y001283D02*
X006990Y001283D01*
X007051Y001382D02*
X007150Y001382D01*
X007109Y001480D02*
X007092Y001480D01*
X007101Y001501D02*
X007101Y002300D01*
X007101Y001501D01*
X007101Y001579D02*
X007101Y001579D01*
X007101Y001677D02*
X007101Y001677D01*
X007101Y001776D02*
X007101Y001776D01*
X007101Y001875D02*
X007101Y001875D01*
X007101Y001973D02*
X007101Y001973D01*
X007101Y002072D02*
X007101Y002072D01*
X007101Y002170D02*
X007101Y002170D01*
X007101Y002269D02*
X007101Y002269D01*
X007101Y002300D02*
X007177Y002484D01*
X007318Y002625D01*
X007321Y002626D01*
X007321Y002656D01*
X007363Y002759D01*
X009321Y004717D01*
X009321Y005545D01*
X009321Y005656D01*
X009363Y005759D01*
X012321Y008717D01*
X012321Y008970D01*
X012211Y009080D01*
X012141Y009249D01*
X012141Y009952D01*
X012211Y010121D01*
X012340Y010251D01*
X012509Y010321D01*
X012692Y010321D01*
X012861Y010251D01*
X012960Y010152D02*
X013242Y010152D01*
X013183Y010054D02*
X013019Y010054D01*
X013060Y009955D02*
X013142Y009955D01*
X013141Y009857D02*
X013061Y009857D01*
X013061Y009758D02*
X013141Y009758D01*
X013141Y009659D02*
X013061Y009659D01*
X013061Y009561D02*
X013141Y009561D01*
X013141Y009462D02*
X013061Y009462D01*
X013061Y009364D02*
X013141Y009364D01*
X013141Y009265D02*
X013061Y009265D01*
X013027Y009167D02*
X013175Y009167D01*
X013223Y009068D02*
X012979Y009068D01*
X012881Y008970D02*
X013321Y008970D01*
X013326Y008871D02*
X012881Y008871D01*
X012881Y008773D02*
X013326Y008773D01*
X013326Y008674D02*
X012881Y008674D01*
X012881Y008576D02*
X013326Y008576D01*
X013326Y008477D02*
X012853Y008477D01*
X012774Y008378D02*
X013326Y008378D01*
X013326Y008280D02*
X012676Y008280D01*
X012577Y008181D02*
X013292Y008181D01*
X013194Y008083D02*
X012479Y008083D01*
X012380Y007984D02*
X013095Y007984D01*
X012997Y007886D02*
X012282Y007886D01*
X012183Y007787D02*
X012898Y007787D01*
X012800Y007689D02*
X012085Y007689D01*
X011986Y007590D02*
X012701Y007590D01*
X012603Y007492D02*
X011887Y007492D01*
X011789Y007393D02*
X012356Y007393D01*
X012270Y007294D02*
X011690Y007294D01*
X011592Y007196D02*
X012229Y007196D01*
X012221Y007097D02*
X011493Y007097D01*
X011395Y006999D02*
X012232Y006999D01*
X012272Y006900D02*
X011296Y006900D01*
X011198Y006802D02*
X012362Y006802D01*
X012610Y006506D02*
X010902Y006506D01*
X010804Y006408D02*
X012512Y006408D01*
X012413Y006309D02*
X010705Y006309D01*
X010606Y006210D02*
X012315Y006210D01*
X012216Y006112D02*
X010508Y006112D01*
X010409Y006013D02*
X012117Y006013D01*
X012019Y005915D02*
X010311Y005915D01*
X010212Y005816D02*
X011920Y005816D01*
X011822Y005718D02*
X010114Y005718D01*
X010015Y005619D02*
X011723Y005619D01*
X011625Y005521D02*
X011160Y005521D01*
X011239Y005422D02*
X011526Y005422D01*
X011924Y005028D02*
X016806Y005028D01*
X016841Y004929D02*
X011825Y004929D01*
X011681Y004831D02*
X016841Y004831D01*
X016841Y004732D02*
X011211Y004732D01*
X012022Y005126D02*
X016707Y005126D01*
X016609Y005225D02*
X012121Y005225D01*
X012219Y005324D02*
X016510Y005324D01*
X016412Y005422D02*
X012318Y005422D01*
X012417Y005521D02*
X016313Y005521D01*
X016215Y005619D02*
X012515Y005619D01*
X012614Y005718D02*
X016124Y005718D01*
X016091Y005816D02*
X012712Y005816D01*
X012811Y005915D02*
X016091Y005915D01*
X016091Y006013D02*
X015876Y006013D01*
X015975Y006112D02*
X016091Y006112D01*
X016091Y006210D02*
X016073Y006210D01*
X016611Y006605D02*
X017072Y006605D01*
X017072Y006703D02*
X017130Y006703D01*
X017130Y006802D02*
X017072Y006802D01*
X017072Y006900D02*
X017130Y006900D01*
X017130Y006506D02*
X017072Y006506D01*
X017072Y006408D02*
X017130Y006408D01*
X017130Y006309D02*
X017072Y006309D01*
X017861Y005915D02*
X017891Y005915D01*
X017861Y005816D02*
X017989Y005816D01*
X018088Y005718D02*
X017861Y005718D01*
X017861Y005619D02*
X018186Y005619D01*
X018285Y005521D02*
X017861Y005521D01*
X017861Y005422D02*
X018383Y005422D01*
X018482Y005324D02*
X017861Y005324D01*
X017861Y004732D02*
X021618Y004732D01*
X021705Y004634D02*
X017935Y004634D01*
X018361Y004141D02*
X019818Y004141D01*
X019683Y004043D02*
X019230Y004043D01*
X019405Y003944D02*
X019585Y003944D01*
X019545Y003845D02*
X019495Y003845D01*
X019493Y003353D02*
X019546Y003353D01*
X019588Y003254D02*
X019401Y003254D01*
X019381Y003156D02*
X019671Y003156D01*
X019671Y003057D02*
X019381Y003057D01*
X019345Y002959D02*
X019694Y002959D01*
X019735Y002860D02*
X019256Y002860D01*
X019157Y002761D02*
X019832Y002761D01*
X019931Y002663D02*
X019059Y002663D01*
X018960Y002564D02*
X020029Y002564D01*
X020128Y002466D02*
X018862Y002466D01*
X018763Y002367D02*
X020226Y002367D01*
X020325Y002269D02*
X018665Y002269D01*
X018566Y002170D02*
X020423Y002170D01*
X020522Y002072D02*
X018468Y002072D01*
X018369Y001973D02*
X020620Y001973D01*
X020719Y001875D02*
X018271Y001875D01*
X017926Y001776D02*
X020817Y001776D01*
X020999Y001677D02*
X017828Y001677D01*
X017374Y001677D02*
X017058Y001677D01*
X017058Y001776D02*
X017275Y001776D01*
X017176Y001875D02*
X017058Y001875D01*
X017058Y001973D02*
X017141Y001973D01*
X017141Y002072D02*
X017058Y002072D01*
X017058Y002170D02*
X017141Y002170D01*
X017141Y002269D02*
X017058Y002269D01*
X017460Y002564D02*
X018168Y002564D01*
X018070Y002466D02*
X017886Y002466D01*
X017657Y002761D02*
X018366Y002761D01*
X018464Y002860D02*
X017756Y002860D01*
X017854Y002959D02*
X018563Y002959D01*
X018661Y003057D02*
X017953Y003057D01*
X018221Y003156D02*
X018760Y003156D01*
X018800Y003254D02*
X018401Y003254D01*
X018493Y003353D02*
X018708Y003353D01*
X018668Y003451D02*
X018534Y003451D01*
X018558Y003550D02*
X018643Y003550D01*
X018643Y003648D02*
X018558Y003648D01*
X018535Y003747D02*
X018666Y003747D01*
X018707Y003845D02*
X018495Y003845D01*
X018405Y003944D02*
X018797Y003944D01*
X018972Y004043D02*
X018361Y004043D01*
X018267Y002663D02*
X017559Y002663D01*
X017027Y001579D02*
X021260Y001579D01*
X021942Y001579D02*
X031571Y001579D01*
X031571Y001677D02*
X022040Y001677D01*
X022139Y001776D02*
X031600Y001776D01*
X031641Y001875D02*
X022211Y001875D01*
X022211Y001973D02*
X031724Y001973D01*
X031850Y002072D02*
X022211Y002072D01*
X022211Y002170D02*
X031949Y002170D01*
X032048Y002269D02*
X022211Y002269D01*
X022197Y002367D02*
X032146Y002367D01*
X032245Y002466D02*
X022098Y002466D01*
X022000Y002564D02*
X032343Y002564D01*
X032442Y002663D02*
X021901Y002663D01*
X021300Y002663D02*
X021147Y002663D01*
X021048Y002761D02*
X032540Y002761D01*
X032601Y002860D02*
X020950Y002860D01*
X020851Y002959D02*
X032601Y002959D01*
X032601Y003057D02*
X020753Y003057D01*
X020654Y003156D02*
X032601Y003156D01*
X032601Y003254D02*
X020613Y003254D01*
X020656Y003353D02*
X032601Y003353D01*
X032601Y003451D02*
X020696Y003451D01*
X020708Y003550D02*
X032601Y003550D01*
X032535Y003648D02*
X020708Y003648D01*
X020698Y003747D02*
X032436Y003747D01*
X032545Y004851D02*
X032545Y004851D01*
X033101Y005101D02*
X031101Y005101D01*
X030833Y004831D02*
X030534Y004831D01*
X030534Y004929D02*
X030760Y004929D01*
X030721Y005028D02*
X030534Y005028D01*
X030516Y004732D02*
X030997Y004732D01*
X031182Y004535D02*
X030020Y004535D01*
X030118Y004437D02*
X031083Y004437D01*
X030729Y005619D02*
X028936Y005619D01*
X028837Y005718D02*
X030630Y005718D01*
X030532Y005816D02*
X028739Y005816D01*
X028640Y005915D02*
X028933Y005915D01*
X028835Y006013D02*
X028542Y006013D01*
X032545Y005851D02*
X032545Y005851D01*
X031577Y001480D02*
X008092Y001480D01*
X008101Y001579D02*
X014475Y001579D01*
X014443Y001677D02*
X008101Y001677D01*
X008101Y001776D02*
X014443Y001776D01*
X014443Y001875D02*
X008101Y001875D01*
X008101Y001973D02*
X014443Y001973D01*
X014384Y002072D02*
X008101Y002072D01*
X008101Y002170D02*
X013881Y002170D01*
X013782Y002269D02*
X008101Y002269D01*
X008073Y002367D02*
X013684Y002367D01*
X013641Y002466D02*
X008032Y002466D01*
X007960Y002564D02*
X013641Y002564D01*
X013641Y002663D02*
X008059Y002663D01*
X008157Y002761D02*
X013641Y002761D01*
X013709Y002860D02*
X008256Y002860D01*
X008354Y002959D02*
X013808Y002959D01*
X013907Y003057D02*
X008453Y003057D01*
X008552Y003156D02*
X014260Y003156D01*
X014358Y003254D02*
X008650Y003254D01*
X008749Y003353D02*
X014457Y003353D01*
X014555Y003451D02*
X008847Y003451D01*
X008946Y003550D02*
X014654Y003550D01*
X014752Y003648D02*
X009044Y003648D01*
X009143Y003747D02*
X014851Y003747D01*
X014960Y003845D02*
X009241Y003845D01*
X009340Y003944D02*
X016797Y003944D01*
X016841Y004043D02*
X009438Y004043D01*
X009537Y004141D02*
X016841Y004141D01*
X016841Y004240D02*
X009636Y004240D01*
X009734Y004338D02*
X016841Y004338D01*
X016841Y004437D02*
X009833Y004437D01*
X009877Y004535D02*
X016841Y004535D01*
X016841Y004634D02*
X009881Y004634D01*
X009881Y004732D02*
X010353Y004732D01*
X010324Y004831D02*
X009881Y004831D01*
X009881Y004929D02*
X010324Y004929D01*
X010324Y005028D02*
X009881Y005028D01*
X009881Y005126D02*
X010324Y005126D01*
X010324Y005225D02*
X009881Y005225D01*
X009881Y005324D02*
X010324Y005324D01*
X010324Y005422D02*
X009881Y005422D01*
X009917Y005521D02*
X010404Y005521D01*
X009716Y006112D02*
X008008Y006112D01*
X008106Y006210D02*
X009815Y006210D01*
X009913Y006309D02*
X008205Y006309D01*
X008304Y006408D02*
X010012Y006408D01*
X010110Y006506D02*
X008402Y006506D01*
X008501Y006605D02*
X010209Y006605D01*
X010307Y006703D02*
X008599Y006703D01*
X008698Y006802D02*
X010406Y006802D01*
X010504Y006900D02*
X008796Y006900D01*
X008895Y006999D02*
X010603Y006999D01*
X010701Y007097D02*
X008993Y007097D01*
X009092Y007196D02*
X010800Y007196D01*
X010899Y007294D02*
X009190Y007294D01*
X009289Y007393D02*
X010997Y007393D01*
X011096Y007492D02*
X009387Y007492D01*
X009486Y007590D02*
X011194Y007590D01*
X011293Y007689D02*
X009585Y007689D01*
X009683Y007787D02*
X011391Y007787D01*
X011490Y007886D02*
X009782Y007886D01*
X009759Y007863D02*
X009838Y007942D01*
X009881Y008045D01*
X009881Y008970D01*
X009991Y009080D01*
X010061Y009249D01*
X010061Y009952D01*
X009991Y010121D01*
X009861Y010251D01*
X010474Y010251D01*
X010505Y010261D02*
X010443Y010241D01*
X010386Y010211D01*
X010334Y010174D01*
X010288Y010128D01*
X010250Y010076D01*
X010221Y010018D01*
X010201Y009957D01*
X010191Y009893D01*
X010191Y009631D01*
X010571Y009631D01*
X010571Y010271D01*
X010568Y010271D01*
X010505Y010261D01*
X010571Y010251D02*
X010631Y010251D01*
X010631Y010271D02*
X010631Y009631D01*
X011011Y009631D01*
X011011Y009893D01*
X011001Y009957D01*
X010981Y010018D01*
X010951Y010076D01*
X010914Y010128D01*
X010868Y010174D01*
X010816Y010211D01*
X010758Y010241D01*
X010697Y010261D01*
X010633Y010271D01*
X010631Y010271D01*
X010727Y010251D02*
X011340Y010251D01*
X011211Y010121D01*
X011141Y009952D01*
X011141Y009249D01*
X011211Y009080D01*
X011340Y008951D01*
X011509Y008881D01*
X011692Y008881D01*
X011861Y008951D01*
X011991Y009080D01*
X012061Y009249D01*
X012061Y009952D01*
X011991Y010121D01*
X011861Y010251D01*
X012340Y010251D01*
X012242Y010152D02*
X011960Y010152D01*
X012019Y010054D02*
X012183Y010054D01*
X012142Y009955D02*
X012060Y009955D01*
X012061Y009857D02*
X012141Y009857D01*
X012141Y009758D02*
X012061Y009758D01*
X012061Y009659D02*
X012141Y009659D01*
X012141Y009561D02*
X012061Y009561D01*
X012061Y009462D02*
X012141Y009462D01*
X012141Y009364D02*
X012061Y009364D01*
X012061Y009265D02*
X012141Y009265D01*
X012175Y009167D02*
X012027Y009167D01*
X011979Y009068D02*
X012223Y009068D01*
X012321Y008970D02*
X011880Y008970D01*
X012180Y008576D02*
X009881Y008576D01*
X009881Y008674D02*
X012278Y008674D01*
X012321Y008773D02*
X009881Y008773D01*
X009881Y008871D02*
X012321Y008871D01*
X012081Y008477D02*
X009881Y008477D01*
X009881Y008378D02*
X011982Y008378D01*
X011884Y008280D02*
X009881Y008280D01*
X009881Y008181D02*
X011785Y008181D01*
X011687Y008083D02*
X009881Y008083D01*
X009856Y007984D02*
X011588Y007984D01*
X011321Y008970D02*
X010776Y008970D01*
X010758Y008961D02*
X010816Y008990D01*
X010868Y009028D01*
X010914Y009074D01*
X010951Y009126D01*
X010981Y009183D01*
X011001Y009245D01*
X011011Y009308D01*
X011011Y009571D01*
X010631Y009571D01*
X010631Y009631D01*
X010571Y009631D01*
X010571Y009571D01*
X010631Y009571D01*
X010631Y008931D01*
X010633Y008931D01*
X010697Y008941D01*
X010758Y008961D01*
X010631Y008970D02*
X010571Y008970D01*
X010571Y008931D02*
X010571Y009571D01*
X010191Y009571D01*
X010191Y009308D01*
X010201Y009245D01*
X010221Y009183D01*
X010250Y009126D01*
X010288Y009074D01*
X010334Y009028D01*
X010386Y008990D01*
X010443Y008961D01*
X010505Y008941D01*
X010568Y008931D01*
X010571Y008931D01*
X010571Y009068D02*
X010631Y009068D01*
X010631Y009167D02*
X010571Y009167D01*
X010571Y009265D02*
X010631Y009265D01*
X010631Y009364D02*
X010571Y009364D01*
X010571Y009462D02*
X010631Y009462D01*
X010631Y009561D02*
X010571Y009561D01*
X010571Y009659D02*
X010631Y009659D01*
X010631Y009758D02*
X010571Y009758D01*
X010571Y009857D02*
X010631Y009857D01*
X010631Y009955D02*
X010571Y009955D01*
X010571Y010054D02*
X010631Y010054D01*
X010631Y010152D02*
X010571Y010152D01*
X010312Y010152D02*
X009960Y010152D01*
X010019Y010054D02*
X010239Y010054D01*
X010201Y009955D02*
X010060Y009955D01*
X010061Y009857D02*
X010191Y009857D01*
X010191Y009758D02*
X010061Y009758D01*
X010061Y009659D02*
X010191Y009659D01*
X010191Y009561D02*
X010061Y009561D01*
X010061Y009462D02*
X010191Y009462D01*
X010191Y009364D02*
X010061Y009364D01*
X010061Y009265D02*
X010198Y009265D01*
X010229Y009167D02*
X010027Y009167D01*
X009979Y009068D02*
X010293Y009068D01*
X010426Y008970D02*
X009881Y008970D01*
X009321Y008970D02*
X008881Y008970D01*
X008881Y008871D02*
X009321Y008871D01*
X009321Y008773D02*
X008881Y008773D01*
X008881Y008674D02*
X009321Y008674D01*
X009321Y008576D02*
X008881Y008576D01*
X008881Y008477D02*
X009321Y008477D01*
X009321Y008378D02*
X008881Y008378D01*
X008881Y008280D02*
X009321Y008280D01*
X009285Y008181D02*
X008881Y008181D01*
X008881Y008083D02*
X009187Y008083D01*
X009088Y007984D02*
X008856Y007984D01*
X008782Y007886D02*
X008990Y007886D01*
X008891Y007787D02*
X008683Y007787D01*
X008585Y007689D02*
X008793Y007689D01*
X008694Y007590D02*
X008486Y007590D01*
X008387Y007492D02*
X008596Y007492D01*
X008497Y007393D02*
X008289Y007393D01*
X008190Y007294D02*
X008399Y007294D01*
X008300Y007196D02*
X008092Y007196D01*
X007993Y007097D02*
X008201Y007097D01*
X008103Y006999D02*
X007895Y006999D01*
X007796Y006900D02*
X008004Y006900D01*
X007906Y006802D02*
X007698Y006802D01*
X007599Y006703D02*
X007807Y006703D01*
X007709Y006605D02*
X007501Y006605D01*
X007402Y006506D02*
X007610Y006506D01*
X007512Y006408D02*
X007304Y006408D01*
X007205Y006309D02*
X007413Y006309D01*
X007315Y006210D02*
X007106Y006210D01*
X007008Y006112D02*
X007216Y006112D01*
X007117Y006013D02*
X006909Y006013D01*
X006811Y005915D02*
X007019Y005915D01*
X007417Y005521D02*
X009321Y005521D01*
X009321Y005619D02*
X007515Y005619D01*
X007614Y005718D02*
X009346Y005718D01*
X009420Y005816D02*
X007712Y005816D01*
X007811Y005915D02*
X009519Y005915D01*
X009617Y006013D02*
X007909Y006013D01*
X008464Y005478D02*
X008436Y005450D01*
X008416Y005416D01*
X008406Y005378D01*
X008406Y005130D01*
X008784Y005130D01*
X008784Y005072D01*
X008406Y005072D01*
X008406Y004824D01*
X008416Y004785D01*
X008436Y004751D01*
X008464Y004723D01*
X008498Y004704D01*
X008536Y004693D01*
X008785Y004693D01*
X008785Y005072D01*
X008842Y005072D01*
X008842Y004693D01*
X009091Y004693D01*
X009129Y004704D01*
X009163Y004723D01*
X009191Y004751D01*
X009211Y004785D01*
X009221Y004824D01*
X009221Y005072D01*
X008842Y005072D01*
X008842Y005130D01*
X008785Y005130D01*
X008785Y005508D01*
X008536Y005508D01*
X008498Y005498D01*
X008464Y005478D01*
X008420Y005422D02*
X007318Y005422D01*
X007220Y005324D02*
X008406Y005324D01*
X008406Y005225D02*
X007121Y005225D01*
X007022Y005126D02*
X008784Y005126D01*
X008842Y005130D02*
X008842Y005508D01*
X009091Y005508D01*
X009129Y005498D01*
X009163Y005478D01*
X009191Y005450D01*
X009211Y005416D01*
X009221Y005378D01*
X009221Y005130D01*
X008842Y005130D01*
X008842Y005126D02*
X009321Y005126D01*
X009321Y005028D02*
X009221Y005028D01*
X009221Y004929D02*
X009321Y004929D01*
X009321Y004831D02*
X009221Y004831D01*
X009172Y004732D02*
X009321Y004732D01*
X009238Y004634D02*
X006881Y004634D01*
X006881Y004732D02*
X008455Y004732D01*
X008406Y004831D02*
X006881Y004831D01*
X006881Y004929D02*
X008406Y004929D01*
X008406Y005028D02*
X006924Y005028D01*
X006881Y004985D02*
X009759Y007863D01*
X011001Y006605D02*
X012709Y006605D01*
X012807Y006703D02*
X011099Y006703D01*
X009321Y005422D02*
X009207Y005422D01*
X009221Y005324D02*
X009321Y005324D01*
X009321Y005225D02*
X009221Y005225D01*
X008842Y005225D02*
X008785Y005225D01*
X008785Y005324D02*
X008842Y005324D01*
X008842Y005422D02*
X008785Y005422D01*
X008785Y005028D02*
X008842Y005028D01*
X008842Y004929D02*
X008785Y004929D01*
X008785Y004831D02*
X008842Y004831D01*
X008842Y004732D02*
X008785Y004732D01*
X009041Y004437D02*
X006881Y004437D01*
X006881Y004535D02*
X009139Y004535D01*
X008942Y004338D02*
X006881Y004338D01*
X006881Y004240D02*
X008844Y004240D01*
X008745Y004141D02*
X006881Y004141D01*
X006881Y004043D02*
X008647Y004043D01*
X008548Y003944D02*
X006881Y003944D01*
X006881Y003845D02*
X008449Y003845D01*
X008351Y003747D02*
X006881Y003747D01*
X006881Y003648D02*
X008252Y003648D01*
X008154Y003550D02*
X006881Y003550D01*
X006881Y003451D02*
X008055Y003451D01*
X007957Y003353D02*
X006881Y003353D01*
X006881Y003254D02*
X007858Y003254D01*
X007760Y003156D02*
X006881Y003156D01*
X006881Y003057D02*
X007661Y003057D01*
X007563Y002959D02*
X006881Y002959D01*
X006881Y002860D02*
X007464Y002860D01*
X007366Y002761D02*
X006881Y002761D01*
X006881Y002663D02*
X007323Y002663D01*
X007257Y002564D02*
X006944Y002564D01*
X006884Y002625D02*
X006881Y002626D01*
X006881Y004985D01*
X006884Y002625D02*
X007025Y002484D01*
X007101Y002300D01*
X007073Y002367D02*
X007129Y002367D01*
X007169Y002466D02*
X007032Y002466D01*
X008051Y001382D02*
X031618Y001382D01*
X031669Y001283D02*
X007990Y001283D01*
X007892Y001185D02*
X031767Y001185D01*
X017866Y006999D02*
X017861Y006999D01*
X015333Y007196D02*
X014368Y007196D01*
X014467Y007097D02*
X015235Y007097D01*
X015136Y006999D02*
X014565Y006999D01*
X014664Y006900D02*
X015038Y006900D01*
X014991Y006802D02*
X014711Y006802D01*
X014711Y006703D02*
X014991Y006703D01*
X014991Y006605D02*
X014711Y006605D01*
X014711Y006506D02*
X014991Y006506D01*
X014991Y006408D02*
X014711Y006408D01*
X014672Y006309D02*
X015030Y006309D01*
X015128Y006210D02*
X014573Y006210D01*
X014475Y006112D02*
X015227Y006112D01*
X015326Y006013D02*
X014376Y006013D01*
X013826Y006013D02*
X012909Y006013D01*
X013008Y006112D02*
X013727Y006112D01*
X013628Y006210D02*
X013106Y006210D01*
X013205Y006309D02*
X013530Y006309D01*
X013491Y006408D02*
X013303Y006408D01*
X013402Y006506D02*
X013491Y006506D01*
X013103Y006999D02*
X012970Y006999D01*
X012986Y007097D02*
X013201Y007097D01*
X013300Y007196D02*
X013085Y007196D01*
X013183Y007294D02*
X013399Y007294D01*
X013497Y007393D02*
X013282Y007393D01*
X013380Y007492D02*
X013596Y007492D01*
X013694Y007590D02*
X013479Y007590D01*
X013578Y007689D02*
X013793Y007689D01*
X013891Y007787D02*
X013676Y007787D01*
X013775Y007886D02*
X014307Y007886D01*
X014259Y007984D02*
X013850Y007984D01*
X013876Y008083D02*
X014241Y008083D01*
X014245Y008181D02*
X013876Y008181D01*
X013876Y008280D02*
X014285Y008280D01*
X014321Y008378D02*
X013876Y008378D01*
X013876Y008477D02*
X014321Y008477D01*
X014321Y008576D02*
X013876Y008576D01*
X013876Y008674D02*
X014321Y008674D01*
X014321Y008773D02*
X013876Y008773D01*
X013876Y008871D02*
X014321Y008871D01*
X014321Y008970D02*
X013880Y008970D01*
X013979Y009068D02*
X014223Y009068D01*
X014175Y009167D02*
X014027Y009167D01*
X014061Y009265D02*
X014141Y009265D01*
X014141Y009364D02*
X014061Y009364D01*
X014061Y009462D02*
X014141Y009462D01*
X014141Y009561D02*
X014061Y009561D01*
X014061Y009659D02*
X014141Y009659D01*
X014141Y009758D02*
X014061Y009758D01*
X014061Y009857D02*
X014141Y009857D01*
X014142Y009955D02*
X014060Y009955D01*
X014019Y010054D02*
X014183Y010054D01*
X014242Y010152D02*
X013960Y010152D01*
X013861Y010251D02*
X013692Y010321D01*
X013509Y010321D01*
X013340Y010251D01*
X014340Y010251D02*
X014509Y010321D01*
X014692Y010321D01*
X014861Y010251D01*
X014400Y011926D02*
X013801Y011926D01*
X013861Y011951D02*
X013991Y012080D01*
X014061Y012249D01*
X014061Y012952D01*
X013991Y013121D01*
X013861Y013251D01*
X013692Y013321D01*
X013509Y013321D01*
X013340Y013251D01*
X013211Y013121D01*
X013141Y012952D01*
X013141Y012249D01*
X013211Y012080D01*
X013340Y011951D01*
X013509Y011881D01*
X013692Y011881D01*
X013861Y011951D01*
X013935Y012025D02*
X014266Y012025D01*
X014193Y012123D02*
X014008Y012123D01*
X014049Y012222D02*
X014152Y012222D01*
X014141Y012320D02*
X014061Y012320D01*
X014061Y012419D02*
X014141Y012419D01*
X014141Y012517D02*
X014061Y012517D01*
X014061Y012616D02*
X014141Y012616D01*
X014141Y012714D02*
X014061Y012714D01*
X014061Y012813D02*
X014141Y012813D01*
X014141Y012911D02*
X014061Y012911D01*
X014037Y013010D02*
X014165Y013010D01*
X014206Y013109D02*
X013996Y013109D01*
X013905Y013207D02*
X014297Y013207D01*
X014410Y013306D02*
X013729Y013306D01*
X013473Y013306D02*
X012019Y013306D01*
X012117Y013207D02*
X012380Y013207D01*
X012274Y013109D02*
X012158Y013109D01*
X012199Y013010D02*
X012218Y013010D01*
X012571Y013010D02*
X012631Y013010D01*
X012631Y013109D02*
X012571Y013109D01*
X012571Y013207D02*
X012631Y013207D01*
X012631Y013271D02*
X012631Y012631D01*
X013011Y012631D01*
X013011Y012893D01*
X013001Y012957D01*
X012981Y013018D01*
X012951Y013076D01*
X012914Y013128D01*
X012868Y013174D01*
X012816Y013211D01*
X012758Y013241D01*
X012697Y013261D01*
X012633Y013271D01*
X012631Y013271D01*
X012822Y013207D02*
X013297Y013207D01*
X013206Y013109D02*
X012928Y013109D01*
X012983Y013010D02*
X013165Y013010D01*
X013141Y012911D02*
X013008Y012911D01*
X013011Y012813D02*
X013141Y012813D01*
X013141Y012714D02*
X013011Y012714D01*
X013011Y012571D02*
X012631Y012571D01*
X012631Y011931D01*
X012633Y011931D01*
X012697Y011941D01*
X012758Y011961D01*
X012816Y011990D01*
X012868Y012028D01*
X012914Y012074D01*
X012951Y012126D01*
X012981Y012183D01*
X013001Y012245D01*
X013011Y012308D01*
X013011Y012571D01*
X013011Y012517D02*
X013141Y012517D01*
X013141Y012419D02*
X013011Y012419D01*
X013011Y012320D02*
X013141Y012320D01*
X013152Y012222D02*
X012993Y012222D01*
X012949Y012123D02*
X013193Y012123D01*
X013266Y012025D02*
X012863Y012025D01*
X012631Y012025D02*
X012571Y012025D01*
X012571Y012123D02*
X012631Y012123D01*
X012631Y012222D02*
X012571Y012222D01*
X012571Y012320D02*
X012631Y012320D01*
X012631Y012419D02*
X012571Y012419D01*
X012571Y012517D02*
X012631Y012517D01*
X012631Y012616D02*
X013141Y012616D01*
X012631Y012714D02*
X012571Y012714D01*
X012571Y012813D02*
X012631Y012813D01*
X012631Y012911D02*
X012571Y012911D01*
X011883Y013404D02*
X014508Y013404D01*
X014607Y013503D02*
X011856Y013503D01*
X011955Y013601D02*
X014705Y013601D01*
X014752Y013700D02*
X012053Y013700D01*
X012152Y013798D02*
X014793Y013798D01*
X012338Y012025D02*
X012130Y012025D01*
X012171Y012123D02*
X012252Y012123D01*
X012049Y011926D02*
X013400Y011926D01*
X011861Y010251D02*
X011692Y010321D01*
X011509Y010321D01*
X011340Y010251D01*
X011242Y010152D02*
X010889Y010152D01*
X010963Y010054D02*
X011183Y010054D01*
X011142Y009955D02*
X011001Y009955D01*
X011011Y009857D02*
X011141Y009857D01*
X011141Y009758D02*
X011011Y009758D01*
X011011Y009659D02*
X011141Y009659D01*
X011141Y009561D02*
X011011Y009561D01*
X011011Y009462D02*
X011141Y009462D01*
X011141Y009364D02*
X011011Y009364D01*
X011004Y009265D02*
X011141Y009265D01*
X011175Y009167D02*
X010972Y009167D01*
X010908Y009068D02*
X011223Y009068D01*
X009861Y010251D02*
X009692Y010321D01*
X009509Y010321D01*
X009340Y010251D01*
X009242Y010152D02*
X008960Y010152D01*
X009019Y010054D02*
X009183Y010054D01*
X009142Y009955D02*
X009060Y009955D01*
X009061Y009857D02*
X009141Y009857D01*
X009141Y009758D02*
X009061Y009758D01*
X009061Y009659D02*
X009141Y009659D01*
X009141Y009561D02*
X009061Y009561D01*
X009061Y009462D02*
X009141Y009462D01*
X009141Y009364D02*
X009061Y009364D01*
X009061Y009265D02*
X009141Y009265D01*
X009175Y009167D02*
X009027Y009167D01*
X008979Y009068D02*
X009223Y009068D01*
X008861Y010251D02*
X008692Y010321D01*
X008509Y010321D01*
X008340Y010251D01*
X006861Y010251D02*
X006692Y010321D01*
X006509Y010321D01*
X006340Y010251D01*
X007129Y011926D02*
X007400Y011926D01*
X007266Y012025D02*
X007031Y012025D01*
X007008Y012123D02*
X007193Y012123D01*
X007152Y012222D02*
X007049Y012222D01*
X007061Y012320D02*
X007141Y012320D01*
X007141Y012419D02*
X007061Y012419D01*
X007061Y012517D02*
X007141Y012517D01*
X007141Y012616D02*
X007061Y012616D01*
X007061Y012714D02*
X007141Y012714D01*
X007141Y012813D02*
X007061Y012813D01*
X007061Y012911D02*
X007141Y012911D01*
X007165Y013010D02*
X007037Y013010D01*
X006996Y013109D02*
X007206Y013109D01*
X007297Y013207D02*
X006905Y013207D01*
X006729Y013306D02*
X007351Y013306D01*
X007601Y013601D02*
X007601Y012601D01*
X008061Y012616D02*
X008141Y012616D01*
X008141Y012714D02*
X008061Y012714D01*
X008061Y012813D02*
X008141Y012813D01*
X008141Y012911D02*
X008061Y012911D01*
X008037Y013010D02*
X008165Y013010D01*
X008206Y013109D02*
X007996Y013109D01*
X007905Y013207D02*
X008297Y013207D01*
X008351Y013306D02*
X007851Y013306D01*
X007851Y013404D02*
X008351Y013404D01*
X008351Y013503D02*
X007856Y013503D01*
X007955Y013601D02*
X008351Y013601D01*
X008371Y013700D02*
X008053Y013700D01*
X008152Y013798D02*
X008445Y013798D01*
X008543Y013897D02*
X008250Y013897D01*
X008349Y013995D02*
X008642Y013995D01*
X008740Y014094D02*
X008447Y014094D01*
X008546Y014192D02*
X008839Y014192D01*
X008938Y014291D02*
X008644Y014291D01*
X008743Y014390D02*
X009036Y014390D01*
X009135Y014488D02*
X008842Y014488D01*
X008940Y014587D02*
X009233Y014587D01*
X009332Y014685D02*
X009039Y014685D01*
X009137Y014784D02*
X009430Y014784D01*
X009529Y014882D02*
X009236Y014882D01*
X009334Y014981D02*
X009627Y014981D01*
X009726Y015079D02*
X009433Y015079D01*
X009531Y015178D02*
X009824Y015178D01*
X009909Y015276D02*
X009630Y015276D01*
X009601Y015601D02*
X007601Y013601D01*
X008601Y013601D02*
X008601Y012601D01*
X009061Y012616D02*
X009141Y012616D01*
X009141Y012714D02*
X009061Y012714D01*
X009061Y012813D02*
X009141Y012813D01*
X009141Y012911D02*
X009061Y012911D01*
X009037Y013010D02*
X009165Y013010D01*
X009206Y013109D02*
X008996Y013109D01*
X008905Y013207D02*
X009297Y013207D01*
X009473Y013306D02*
X008851Y013306D01*
X008851Y013404D02*
X010051Y013404D01*
X010149Y013503D02*
X008856Y013503D01*
X008955Y013601D02*
X010248Y013601D01*
X010346Y013700D02*
X009053Y013700D01*
X009152Y013798D02*
X010445Y013798D01*
X010543Y013897D02*
X009250Y013897D01*
X009349Y013995D02*
X010642Y013995D01*
X010740Y014094D02*
X009447Y014094D01*
X009546Y014192D02*
X010839Y014192D01*
X010938Y014291D02*
X009645Y014291D01*
X009743Y014390D02*
X011036Y014390D01*
X011135Y014488D02*
X009842Y014488D01*
X009940Y014587D02*
X011233Y014587D01*
X011332Y014685D02*
X010039Y014685D01*
X010137Y014784D02*
X011416Y014784D01*
X011601Y014601D02*
X009601Y012601D01*
X009141Y012517D02*
X009061Y012517D01*
X009061Y012419D02*
X009141Y012419D01*
X009141Y012320D02*
X009061Y012320D01*
X009049Y012222D02*
X009152Y012222D01*
X009193Y012123D02*
X009008Y012123D01*
X008935Y012025D02*
X009266Y012025D01*
X009400Y011926D02*
X008801Y011926D01*
X008400Y011926D02*
X007801Y011926D01*
X007935Y012025D02*
X008266Y012025D01*
X008193Y012123D02*
X008008Y012123D01*
X008049Y012222D02*
X008152Y012222D01*
X008141Y012320D02*
X008061Y012320D01*
X008061Y012419D02*
X008141Y012419D01*
X008141Y012517D02*
X008061Y012517D01*
X008601Y013601D02*
X010101Y015101D01*
X012101Y014101D02*
X010601Y012601D01*
X010141Y012616D02*
X010061Y012616D01*
X010068Y012714D02*
X010141Y012714D01*
X010141Y012517D02*
X010061Y012517D01*
X010061Y012419D02*
X010141Y012419D01*
X010141Y012320D02*
X010061Y012320D01*
X010049Y012222D02*
X010152Y012222D01*
X010193Y012123D02*
X010008Y012123D01*
X009935Y012025D02*
X010266Y012025D01*
X010400Y011926D02*
X009801Y011926D01*
X010801Y011926D02*
X011153Y011926D01*
X011071Y012025D02*
X010935Y012025D01*
X011008Y012123D02*
X011031Y012123D01*
X009952Y013306D02*
X009729Y013306D01*
X006676Y015572D02*
X006468Y015572D01*
X006369Y015474D02*
X006578Y015474D01*
X006479Y015375D02*
X006271Y015375D01*
X006172Y015276D02*
X006381Y015276D01*
X006282Y015178D02*
X006074Y015178D01*
X005975Y015079D02*
X006183Y015079D01*
X006085Y014981D02*
X005877Y014981D01*
X005778Y014882D02*
X005986Y014882D01*
X005888Y014784D02*
X005680Y014784D01*
X005581Y014685D02*
X005789Y014685D01*
X005691Y014587D02*
X005483Y014587D01*
X005384Y014488D02*
X005592Y014488D01*
X005494Y014390D02*
X005285Y014390D01*
X005187Y014291D02*
X005395Y014291D01*
X005297Y014192D02*
X005088Y014192D01*
X004990Y014094D02*
X005198Y014094D01*
X005099Y013995D02*
X004891Y013995D01*
X004793Y013897D02*
X005001Y013897D01*
X002789Y014685D02*
X001879Y014685D01*
X001978Y014587D02*
X002691Y014587D01*
X002592Y014488D02*
X002076Y014488D01*
X002175Y014390D02*
X002494Y014390D01*
X002395Y014291D02*
X002211Y014291D01*
X002211Y014192D02*
X002297Y014192D01*
X006030Y015966D02*
X006070Y015966D01*
X012118Y016163D02*
X012413Y016163D01*
X012268Y016262D02*
X012191Y016262D01*
X019401Y014601D02*
X020601Y013401D01*
X028301Y013401D01*
X025916Y014390D02*
X020680Y014390D01*
X020581Y014488D02*
X025817Y014488D01*
X025719Y014587D02*
X020483Y014587D01*
X020384Y014685D02*
X025620Y014685D01*
X025522Y014784D02*
X020285Y014784D01*
X020187Y014882D02*
X025423Y014882D01*
X025226Y015079D02*
X021442Y015079D01*
X021876Y019908D02*
X022257Y019908D01*
X022090Y021189D02*
X023981Y021189D01*
X023981Y021288D02*
X022188Y021288D01*
X022287Y021386D02*
X023981Y021386D01*
X023981Y021485D02*
X022311Y021485D01*
X022311Y021583D02*
X023981Y021583D01*
X023981Y021682D02*
X022311Y021682D01*
X022311Y021780D02*
X023981Y021780D01*
X023981Y021879D02*
X022223Y021879D01*
X022125Y021977D02*
X023981Y021977D01*
X014900Y007294D02*
X014190Y007294D01*
X013004Y006900D02*
X012929Y006900D01*
X012906Y006802D02*
X012839Y006802D01*
X015358Y002170D02*
X015381Y002170D01*
X015358Y002072D02*
X016084Y002072D01*
X016143Y001973D02*
X015358Y001973D01*
X015358Y001875D02*
X016143Y001875D01*
X016143Y001776D02*
X015358Y001776D01*
X015358Y001677D02*
X016143Y001677D01*
X016175Y001579D02*
X015327Y001579D01*
X015821Y002170D02*
X015985Y002170D01*
X003347Y007492D02*
X002854Y007492D01*
X002953Y007590D02*
X003249Y007590D01*
X003150Y007689D02*
X003051Y007689D01*
X002347Y007492D02*
X001854Y007492D01*
X001953Y007590D02*
X002249Y007590D01*
X002150Y007689D02*
X002051Y007689D01*
D34*
X010101Y015101D02*
X018901Y015101D01*
X019401Y014601D01*
X018601Y014101D02*
X018101Y014601D01*
X011601Y014601D01*
X012101Y014101D02*
X017601Y014101D01*
X018101Y013601D01*
X017601Y012601D02*
X016601Y012601D01*
X017601Y012601D02*
X018101Y012101D01*
X020601Y014101D02*
X022601Y014101D01*
X020601Y014101D02*
X019101Y015601D01*
X009601Y015601D01*
X016601Y009601D02*
X017601Y008601D01*
X017601Y004601D01*
X018101Y004101D01*
X018101Y003601D01*
X017101Y003601D02*
X017101Y005101D01*
X016351Y005851D01*
X016351Y007351D01*
D35*
X015101Y007601D03*
X014601Y008101D03*
X015101Y013601D03*
D36*
X015601Y010601D02*
X017601Y010601D01*
X015601Y010601D02*
X015601Y009601D01*
X013601Y009601D02*
X013601Y008101D01*
X012601Y007101D01*
X003601Y009601D02*
X001601Y011601D01*
X001601Y013101D01*
X018601Y020601D02*
X018601Y020703D01*
X018601Y020601D02*
X019101Y020601D01*
X019601Y020101D01*
X021601Y020101D01*
X021601Y019601D01*
X022601Y019601D01*
X026601Y020601D02*
X027601Y019601D01*
X031101Y018601D02*
X035601Y018601D01*
X035601Y003101D01*
X034101Y001601D01*
X030601Y023601D02*
X030601Y024601D01*
X031101Y024601D01*
X032601Y026101D01*
X033601Y026101D01*
X033851Y025931D01*
X030601Y025117D02*
X030601Y024601D01*
D37*
X024601Y024101D02*
X024601Y020101D01*
X025101Y019601D01*
X026601Y019601D01*
X024601Y024101D02*
X018601Y024101D01*
X017101Y024101D02*
X016931Y024101D01*
X018601Y022601D02*
X018601Y022498D01*
X014601Y024101D02*
X014569Y024101D01*
X011601Y022601D02*
X005601Y022601D01*
X005601Y023601D01*
X005601Y022601D02*
X007101Y020601D01*
X010101Y020601D01*
D38*
X011601Y022601D02*
X013101Y022601D01*
X014601Y024101D01*
X014601Y024069D01*
X014569Y024101D01*
X014601Y024101D02*
X016931Y024101D01*
X018601Y024101D01*
X018601Y022601D01*
X015101Y026101D02*
X014601Y025601D01*
X013601Y025601D01*
X012101Y024101D01*
X010632Y024101D01*
X008270Y024101D01*
X009101Y026101D02*
X010101Y027101D01*
X010101Y027888D01*
X010077Y027912D01*
X010077Y027124D01*
X011101Y026601D01*
X014101Y026601D01*
X015601Y028101D01*
X015601Y026101D02*
X015101Y026101D01*
X009101Y026101D02*
X003101Y026101D01*
X002077Y027124D01*
X002077Y027912D01*
X001601Y022601D02*
X005601Y022601D01*
M02*
