G75*
G70*
%OFA0B0*%
%FSLAX24Y24*%
%IPPOS*%
%LPD*%
%AMOC8*
5,1,8,0,0,1.08239X$1,22.5*
%
%ADD10C,0.0000*%
%ADD11C,0.0001*%
%ADD12C,0.0560*%
%ADD13OC8,0.0780*%
%ADD14C,0.0640*%
%ADD15OC8,0.0560*%
%ADD16C,0.0690*%
%ADD17R,0.0555X0.0555*%
%ADD18C,0.0555*%
%ADD19R,0.0634X0.0634*%
%ADD20OC8,0.0670*%
%ADD21R,0.0640X0.0640*%
%ADD22C,0.0640*%
%ADD23C,0.0700*%
%ADD24C,0.0900*%
%ADD25C,0.1540*%
%ADD26C,0.0690*%
%ADD27OC8,0.0808*%
%ADD28OC8,0.0640*%
%ADD29C,0.0790*%
D10*
X000101Y000101D02*
X000101Y029101D01*
X036101Y029101D01*
X036101Y000101D01*
X000101Y000101D01*
X018851Y008101D02*
X020351Y008101D01*
X020351Y010651D01*
X020101Y010901D01*
X019301Y010901D01*
X019151Y010901D01*
X018851Y010601D01*
X018851Y008101D01*
D11*
X020351Y008101D01*
X020351Y008102D02*
X018851Y008102D01*
X018851Y008103D02*
X020351Y008103D01*
X020351Y008104D02*
X018851Y008104D01*
X018851Y008105D02*
X020351Y008105D01*
X020351Y008106D02*
X018851Y008106D01*
X018851Y008107D02*
X020351Y008107D01*
X020351Y008108D02*
X018851Y008108D01*
X018851Y008109D02*
X020351Y008109D01*
X020351Y008110D02*
X018851Y008110D01*
X018851Y008111D02*
X020351Y008111D01*
X018851Y008111D01*
X018851Y008112D02*
X020351Y008112D01*
X020351Y008113D02*
X018851Y008113D01*
X018851Y008114D02*
X020351Y008114D01*
X020351Y008115D02*
X018851Y008115D01*
X018851Y008116D02*
X020351Y008116D01*
X020351Y008117D02*
X018851Y008117D01*
X018851Y008118D02*
X020351Y008118D01*
X020351Y008119D02*
X018851Y008119D01*
X018851Y008120D02*
X020351Y008120D01*
X020351Y008121D02*
X018851Y008121D01*
X018851Y008122D02*
X020351Y008122D01*
X020351Y008123D02*
X018851Y008123D01*
X018851Y008124D02*
X020351Y008124D01*
X020351Y008125D02*
X018851Y008125D01*
X018851Y008126D02*
X020351Y008126D01*
X020351Y008127D02*
X018851Y008127D01*
X018851Y008128D02*
X020351Y008128D01*
X020351Y008129D02*
X018851Y008129D01*
X020351Y008129D01*
X020351Y008130D02*
X018851Y008130D01*
X018851Y008131D02*
X020351Y008131D01*
X020351Y008132D02*
X018851Y008132D01*
X018851Y008133D02*
X020351Y008133D01*
X020351Y008134D02*
X018851Y008134D01*
X018851Y008135D02*
X020351Y008135D01*
X020351Y008136D02*
X018851Y008136D01*
X018851Y008137D02*
X020351Y008137D01*
X020351Y008138D02*
X018851Y008138D01*
X018851Y008139D02*
X020351Y008139D01*
X020351Y008140D02*
X018851Y008140D01*
X018851Y008141D02*
X020351Y008141D01*
X020351Y008142D02*
X018851Y008142D01*
X018851Y008143D02*
X020351Y008143D01*
X020351Y008144D02*
X018851Y008144D01*
X018851Y008145D02*
X020351Y008145D01*
X020351Y008146D02*
X018851Y008146D01*
X020351Y008146D01*
X020351Y008147D02*
X018851Y008147D01*
X018851Y008148D02*
X020351Y008148D01*
X020351Y008149D02*
X018851Y008149D01*
X018851Y008150D02*
X020351Y008150D01*
X020351Y008151D02*
X018851Y008151D01*
X018851Y008152D02*
X020351Y008152D01*
X020351Y008153D02*
X018851Y008153D01*
X018851Y008154D02*
X020351Y008154D01*
X020351Y008155D02*
X018851Y008155D01*
X018851Y008156D02*
X020351Y008156D01*
X020351Y008157D02*
X018851Y008157D01*
X018851Y008158D02*
X020351Y008158D01*
X020351Y008159D02*
X018851Y008159D01*
X018851Y008160D02*
X020351Y008160D01*
X020351Y008161D02*
X018851Y008161D01*
X018851Y008162D02*
X020351Y008162D01*
X020351Y008163D02*
X018851Y008163D01*
X020351Y008163D01*
X020351Y008164D02*
X018851Y008164D01*
X018851Y008165D02*
X020351Y008165D01*
X020351Y008166D02*
X018851Y008166D01*
X018851Y008167D02*
X020351Y008167D01*
X020351Y008168D02*
X018851Y008168D01*
X018851Y008169D02*
X020351Y008169D01*
X020351Y008170D02*
X018851Y008170D01*
X018851Y008171D02*
X020351Y008171D01*
X020351Y008172D02*
X018851Y008172D01*
X018851Y008173D02*
X020351Y008173D01*
X020351Y008174D02*
X018851Y008174D01*
X018851Y008175D02*
X020351Y008175D01*
X020351Y008176D02*
X018851Y008176D01*
X018851Y008177D02*
X020351Y008177D01*
X020351Y008178D02*
X018851Y008178D01*
X018851Y008179D02*
X020351Y008179D01*
X020351Y008180D02*
X018851Y008180D01*
X020351Y008180D01*
X020351Y008181D02*
X018851Y008181D01*
X018851Y008182D02*
X020351Y008182D01*
X020351Y008183D02*
X018851Y008183D01*
X018851Y008184D02*
X020351Y008184D01*
X020351Y008185D02*
X018851Y008185D01*
X018851Y008186D02*
X020351Y008186D01*
X020351Y008187D02*
X018851Y008187D01*
X018851Y008188D02*
X020351Y008188D01*
X020351Y008189D02*
X018851Y008189D01*
X018851Y008190D02*
X020351Y008190D01*
X020351Y008191D02*
X018851Y008191D01*
X018851Y008192D02*
X020351Y008192D01*
X020351Y008193D02*
X018851Y008193D01*
X018851Y008194D02*
X020351Y008194D01*
X020351Y008195D02*
X018851Y008195D01*
X018851Y008196D02*
X020351Y008196D01*
X020351Y008197D02*
X018851Y008197D01*
X020351Y008197D01*
X020351Y008198D02*
X018851Y008198D01*
X018851Y008199D02*
X020351Y008199D01*
X020351Y008200D02*
X018851Y008200D01*
X018851Y008201D02*
X020351Y008201D01*
X020351Y008202D02*
X018851Y008202D01*
X018851Y008203D02*
X020351Y008203D01*
X020351Y008204D02*
X018851Y008204D01*
X018851Y008205D02*
X020351Y008205D01*
X020351Y008206D02*
X018851Y008206D01*
X018851Y008207D02*
X020351Y008207D01*
X020351Y008208D02*
X018851Y008208D01*
X018851Y008209D02*
X020351Y008209D01*
X020351Y008210D02*
X018851Y008210D01*
X018851Y008211D02*
X020351Y008211D01*
X020351Y008212D02*
X018851Y008212D01*
X018851Y008213D02*
X020351Y008213D01*
X020351Y008214D02*
X018851Y008214D01*
X020351Y008214D01*
X020351Y008215D02*
X018851Y008215D01*
X018851Y008216D02*
X020351Y008216D01*
X020351Y008217D02*
X018851Y008217D01*
X018851Y008218D02*
X020351Y008218D01*
X020351Y008219D02*
X018851Y008219D01*
X018851Y008220D02*
X020351Y008220D01*
X020351Y008221D02*
X018851Y008221D01*
X018851Y008222D02*
X020351Y008222D01*
X020351Y008223D02*
X018851Y008223D01*
X018851Y008224D02*
X020351Y008224D01*
X020351Y008225D02*
X018851Y008225D01*
X018851Y008226D02*
X020351Y008226D01*
X020351Y008227D02*
X018851Y008227D01*
X018851Y008228D02*
X020351Y008228D01*
X020351Y008229D02*
X018851Y008229D01*
X018851Y008230D02*
X020351Y008230D01*
X020351Y008231D02*
X018851Y008231D01*
X020351Y008231D01*
X020351Y008232D02*
X018851Y008232D01*
X018851Y008233D02*
X020351Y008233D01*
X020351Y008234D02*
X018851Y008234D01*
X018851Y008235D02*
X020351Y008235D01*
X020351Y008236D02*
X018851Y008236D01*
X018851Y008237D02*
X020351Y008237D01*
X020351Y008238D02*
X018851Y008238D01*
X018851Y008239D02*
X020351Y008239D01*
X020351Y008240D02*
X018851Y008240D01*
X018851Y008241D02*
X020351Y008241D01*
X020351Y008242D02*
X018851Y008242D01*
X018851Y008243D02*
X020351Y008243D01*
X020351Y008244D02*
X018851Y008244D01*
X018851Y008245D02*
X020351Y008245D01*
X020351Y008246D02*
X018851Y008246D01*
X018851Y008247D02*
X020351Y008247D01*
X020351Y008248D02*
X018851Y008248D01*
X018851Y008249D02*
X020351Y008249D01*
X018851Y008249D01*
X018851Y008250D02*
X020351Y008250D01*
X020351Y008251D02*
X018851Y008251D01*
X018851Y008252D02*
X020351Y008252D01*
X020351Y008253D02*
X018851Y008253D01*
X018851Y008254D02*
X020351Y008254D01*
X020351Y008255D02*
X018851Y008255D01*
X018851Y008256D02*
X020351Y008256D01*
X020351Y008257D02*
X018851Y008257D01*
X018851Y008258D02*
X020351Y008258D01*
X020351Y008259D02*
X018851Y008259D01*
X018851Y008260D02*
X020351Y008260D01*
X020351Y008261D02*
X018851Y008261D01*
X018851Y008262D02*
X020351Y008262D01*
X020351Y008263D02*
X018851Y008263D01*
X018851Y008264D02*
X020351Y008264D01*
X020351Y008265D02*
X018851Y008265D01*
X018851Y008266D02*
X020351Y008266D01*
X018851Y008266D01*
X018851Y008267D02*
X020351Y008267D01*
X020351Y008268D02*
X018851Y008268D01*
X018851Y008269D02*
X020351Y008269D01*
X020351Y008270D02*
X018851Y008270D01*
X018851Y008271D02*
X020351Y008271D01*
X020351Y008272D02*
X018851Y008272D01*
X018851Y008273D02*
X020351Y008273D01*
X020351Y008274D02*
X018851Y008274D01*
X018851Y008275D02*
X020351Y008275D01*
X020351Y008276D02*
X018851Y008276D01*
X018851Y008277D02*
X020351Y008277D01*
X020351Y008278D02*
X018851Y008278D01*
X018851Y008279D02*
X020351Y008279D01*
X020351Y008280D02*
X018851Y008280D01*
X018851Y008281D02*
X020351Y008281D01*
X020351Y008282D02*
X018851Y008282D01*
X018851Y008283D02*
X020351Y008283D01*
X018851Y008283D01*
X018851Y008284D02*
X020351Y008284D01*
X020351Y008285D02*
X018851Y008285D01*
X018851Y008286D02*
X020351Y008286D01*
X020351Y008287D02*
X018851Y008287D01*
X018851Y008288D02*
X020351Y008288D01*
X020351Y008289D02*
X018851Y008289D01*
X018851Y008290D02*
X020351Y008290D01*
X020351Y008291D02*
X018851Y008291D01*
X018851Y008292D02*
X020351Y008292D01*
X020351Y008293D02*
X018851Y008293D01*
X018851Y008294D02*
X020351Y008294D01*
X020351Y008295D02*
X018851Y008295D01*
X018851Y008296D02*
X020351Y008296D01*
X020351Y008297D02*
X018851Y008297D01*
X018851Y008298D02*
X020351Y008298D01*
X020351Y008299D02*
X018851Y008299D01*
X018851Y008300D02*
X020351Y008300D01*
X018851Y008300D01*
X018851Y008301D02*
X020351Y008301D01*
X020351Y008302D02*
X018851Y008302D01*
X018851Y008303D02*
X020351Y008303D01*
X020351Y008304D02*
X018851Y008304D01*
X018851Y008305D02*
X020351Y008305D01*
X020351Y008306D02*
X018851Y008306D01*
X018851Y008307D02*
X020351Y008307D01*
X020351Y008308D02*
X018851Y008308D01*
X018851Y008309D02*
X020351Y008309D01*
X020351Y008310D02*
X018851Y008310D01*
X018851Y008311D02*
X020351Y008311D01*
X020351Y008312D02*
X018851Y008312D01*
X018851Y008313D02*
X020351Y008313D01*
X020351Y008314D02*
X018851Y008314D01*
X018851Y008315D02*
X020351Y008315D01*
X020351Y008316D02*
X018851Y008316D01*
X018851Y008317D02*
X020351Y008317D01*
X018851Y008317D01*
X018851Y008318D02*
X020351Y008318D01*
X020351Y008319D02*
X018851Y008319D01*
X018851Y008320D02*
X020351Y008320D01*
X020351Y008321D02*
X018851Y008321D01*
X018851Y008322D02*
X020351Y008322D01*
X020351Y008323D02*
X018851Y008323D01*
X018851Y008324D02*
X020351Y008324D01*
X020351Y008325D02*
X018851Y008325D01*
X018851Y008326D02*
X020351Y008326D01*
X020351Y008327D02*
X018851Y008327D01*
X018851Y008328D02*
X020351Y008328D01*
X020351Y008329D02*
X018851Y008329D01*
X018851Y008330D02*
X020351Y008330D01*
X020351Y008331D02*
X018851Y008331D01*
X018851Y008332D02*
X020351Y008332D01*
X020351Y008333D02*
X018851Y008333D01*
X018851Y008334D02*
X020351Y008334D01*
X018851Y008334D01*
X018851Y008335D02*
X020351Y008335D01*
X020351Y008336D02*
X018851Y008336D01*
X018851Y008337D02*
X020351Y008337D01*
X020351Y008338D02*
X018851Y008338D01*
X018851Y008339D02*
X020351Y008339D01*
X020351Y008340D02*
X018851Y008340D01*
X018851Y008341D02*
X020351Y008341D01*
X020351Y008342D02*
X018851Y008342D01*
X018851Y008343D02*
X020351Y008343D01*
X020351Y008344D02*
X018851Y008344D01*
X018851Y008345D02*
X020351Y008345D01*
X020351Y008346D02*
X018851Y008346D01*
X018851Y008347D02*
X020351Y008347D01*
X020351Y008348D02*
X018851Y008348D01*
X018851Y008349D02*
X020351Y008349D01*
X020351Y008350D02*
X018851Y008350D01*
X018851Y008351D02*
X020351Y008351D01*
X018851Y008351D01*
X018851Y008352D02*
X020351Y008352D01*
X020351Y008353D02*
X018851Y008353D01*
X018851Y008354D02*
X020351Y008354D01*
X020351Y008355D02*
X018851Y008355D01*
X018851Y008356D02*
X020351Y008356D01*
X020351Y008357D02*
X018851Y008357D01*
X018851Y008358D02*
X020351Y008358D01*
X020351Y008359D02*
X018851Y008359D01*
X018851Y008360D02*
X020351Y008360D01*
X020351Y008361D02*
X018851Y008361D01*
X018851Y008362D02*
X020351Y008362D01*
X020351Y008363D02*
X018851Y008363D01*
X018851Y008364D02*
X020351Y008364D01*
X020351Y008365D02*
X018851Y008365D01*
X018851Y008366D02*
X020351Y008366D01*
X020351Y008367D02*
X018851Y008367D01*
X018851Y008368D02*
X020351Y008368D01*
X020351Y008369D02*
X018851Y008369D01*
X020351Y008369D01*
X020351Y008370D02*
X018851Y008370D01*
X018851Y008371D02*
X020351Y008371D01*
X020351Y008372D02*
X018851Y008372D01*
X018851Y008373D02*
X020351Y008373D01*
X020351Y008374D02*
X018851Y008374D01*
X018851Y008375D02*
X020351Y008375D01*
X020351Y008376D02*
X018851Y008376D01*
X018851Y008377D02*
X020351Y008377D01*
X020351Y008378D02*
X018851Y008378D01*
X018851Y008379D02*
X020351Y008379D01*
X020351Y008380D02*
X018851Y008380D01*
X018851Y008381D02*
X020351Y008381D01*
X020351Y008382D02*
X018851Y008382D01*
X018851Y008383D02*
X020351Y008383D01*
X020351Y008384D02*
X018851Y008384D01*
X018851Y008385D02*
X020351Y008385D01*
X020351Y008386D02*
X018851Y008386D01*
X020351Y008386D01*
X020351Y008387D02*
X018851Y008387D01*
X018851Y008388D02*
X020351Y008388D01*
X020351Y008389D02*
X018851Y008389D01*
X018851Y008390D02*
X020351Y008390D01*
X020351Y008391D02*
X018851Y008391D01*
X018851Y008392D02*
X020351Y008392D01*
X020351Y008393D02*
X018851Y008393D01*
X018851Y008394D02*
X020351Y008394D01*
X020351Y008395D02*
X018851Y008395D01*
X018851Y008396D02*
X020351Y008396D01*
X020351Y008397D02*
X018851Y008397D01*
X018851Y008398D02*
X020351Y008398D01*
X020351Y008399D02*
X018851Y008399D01*
X018851Y008400D02*
X020351Y008400D01*
X020351Y008401D02*
X018851Y008401D01*
X018851Y008402D02*
X020351Y008402D01*
X020351Y008403D02*
X018851Y008403D01*
X020351Y008403D01*
X020351Y008404D02*
X018851Y008404D01*
X018851Y008405D02*
X020351Y008405D01*
X020351Y008406D02*
X018851Y008406D01*
X018851Y008407D02*
X020351Y008407D01*
X020351Y008408D02*
X018851Y008408D01*
X018851Y008409D02*
X020351Y008409D01*
X020351Y008410D02*
X018851Y008410D01*
X018851Y008411D02*
X020351Y008411D01*
X020351Y008412D02*
X018851Y008412D01*
X018851Y008413D02*
X020351Y008413D01*
X020351Y008414D02*
X018851Y008414D01*
X018851Y008415D02*
X020351Y008415D01*
X020351Y008416D02*
X018851Y008416D01*
X018851Y008417D02*
X020351Y008417D01*
X020351Y008418D02*
X018851Y008418D01*
X018851Y008419D02*
X020351Y008419D01*
X020351Y008420D02*
X018851Y008420D01*
X020351Y008420D01*
X020351Y008421D02*
X018851Y008421D01*
X018851Y008422D02*
X020351Y008422D01*
X020351Y008423D02*
X018851Y008423D01*
X018851Y008424D02*
X020351Y008424D01*
X020351Y008425D02*
X018851Y008425D01*
X018851Y008426D02*
X020351Y008426D01*
X020351Y008427D02*
X018851Y008427D01*
X018851Y008428D02*
X020351Y008428D01*
X020351Y008429D02*
X018851Y008429D01*
X018851Y008430D02*
X020351Y008430D01*
X020351Y008431D02*
X018851Y008431D01*
X018851Y008432D02*
X020351Y008432D01*
X020351Y008433D02*
X018851Y008433D01*
X018851Y008434D02*
X020351Y008434D01*
X020351Y008435D02*
X018851Y008435D01*
X018851Y008436D02*
X020351Y008436D01*
X020351Y008437D02*
X018851Y008437D01*
X020351Y008437D01*
X020351Y008438D02*
X018851Y008438D01*
X018851Y008439D02*
X020351Y008439D01*
X020351Y008440D02*
X018851Y008440D01*
X018851Y008441D02*
X020351Y008441D01*
X020351Y008442D02*
X018851Y008442D01*
X018851Y008443D02*
X020351Y008443D01*
X020351Y008444D02*
X018851Y008444D01*
X018851Y008445D02*
X020351Y008445D01*
X020351Y008446D02*
X018851Y008446D01*
X018851Y008447D02*
X020351Y008447D01*
X020351Y008448D02*
X018851Y008448D01*
X018851Y008449D02*
X020351Y008449D01*
X020351Y008450D02*
X018851Y008450D01*
X018851Y008451D02*
X020351Y008451D01*
X020351Y008452D02*
X018851Y008452D01*
X018851Y008453D02*
X020351Y008453D01*
X020351Y008454D02*
X018851Y008454D01*
X020351Y008454D01*
X020351Y008455D02*
X018851Y008455D01*
X018851Y008456D02*
X020351Y008456D01*
X020351Y008457D02*
X018851Y008457D01*
X018851Y008458D02*
X020351Y008458D01*
X020351Y008459D02*
X018851Y008459D01*
X018851Y008460D02*
X020351Y008460D01*
X020351Y008461D02*
X018851Y008461D01*
X018851Y008462D02*
X020351Y008462D01*
X020351Y008463D02*
X018851Y008463D01*
X018851Y008464D02*
X020351Y008464D01*
X020351Y008465D02*
X018851Y008465D01*
X018851Y008466D02*
X020351Y008466D01*
X020351Y008467D02*
X018851Y008467D01*
X018851Y008468D02*
X020351Y008468D01*
X020351Y008469D02*
X018851Y008469D01*
X018851Y008470D02*
X020351Y008470D01*
X020351Y008471D02*
X018851Y008471D01*
X020351Y008471D01*
X020351Y008472D02*
X018851Y008472D01*
X018851Y008473D02*
X020351Y008473D01*
X020351Y008474D02*
X018851Y008474D01*
X018851Y008475D02*
X020351Y008475D01*
X020351Y008476D02*
X018851Y008476D01*
X018851Y008477D02*
X020351Y008477D01*
X020351Y008478D02*
X018851Y008478D01*
X018851Y008479D02*
X020351Y008479D01*
X020351Y008480D02*
X018851Y008480D01*
X018851Y008481D02*
X020351Y008481D01*
X020351Y008482D02*
X018851Y008482D01*
X018851Y008483D02*
X020351Y008483D01*
X020351Y008484D02*
X018851Y008484D01*
X018851Y008485D02*
X020351Y008485D01*
X020351Y008486D02*
X018851Y008486D01*
X018851Y008487D02*
X020351Y008487D01*
X020351Y008488D02*
X018851Y008488D01*
X018851Y008489D02*
X020351Y008489D01*
X018851Y008489D01*
X018851Y008490D02*
X020351Y008490D01*
X020351Y008491D02*
X018851Y008491D01*
X018851Y008492D02*
X020351Y008492D01*
X020351Y008493D02*
X018851Y008493D01*
X018851Y008494D02*
X020351Y008494D01*
X020351Y008495D02*
X018851Y008495D01*
X018851Y008496D02*
X020351Y008496D01*
X020351Y008497D02*
X018851Y008497D01*
X018851Y008498D02*
X020351Y008498D01*
X020351Y008499D02*
X018851Y008499D01*
X018851Y008500D02*
X020351Y008500D01*
X020351Y008501D02*
X018851Y008501D01*
X018851Y008502D02*
X020351Y008502D01*
X020351Y008503D02*
X018851Y008503D01*
X018851Y008504D02*
X020351Y008504D01*
X020351Y008505D02*
X018851Y008505D01*
X018851Y008506D02*
X020351Y008506D01*
X018851Y008506D01*
X018851Y008507D02*
X020351Y008507D01*
X020351Y008508D02*
X018851Y008508D01*
X018851Y008509D02*
X020351Y008509D01*
X020351Y008510D02*
X018851Y008510D01*
X018851Y008511D02*
X020351Y008511D01*
X020351Y008512D02*
X018851Y008512D01*
X018851Y008513D02*
X020351Y008513D01*
X020351Y008514D02*
X018851Y008514D01*
X018851Y008515D02*
X020351Y008515D01*
X020351Y008516D02*
X018851Y008516D01*
X018851Y008517D02*
X020351Y008517D01*
X020351Y008518D02*
X018851Y008518D01*
X018851Y008519D02*
X020351Y008519D01*
X020351Y008520D02*
X018851Y008520D01*
X018851Y008521D02*
X020351Y008521D01*
X020351Y008522D02*
X018851Y008522D01*
X018851Y008523D02*
X020351Y008523D01*
X018851Y008523D01*
X018851Y008524D02*
X020351Y008524D01*
X020351Y008525D02*
X018851Y008525D01*
X018851Y008526D02*
X020351Y008526D01*
X020351Y008527D02*
X018851Y008527D01*
X018851Y008528D02*
X020351Y008528D01*
X020351Y008529D02*
X018851Y008529D01*
X018851Y008530D02*
X020351Y008530D01*
X020351Y008531D02*
X018851Y008531D01*
X018851Y008532D02*
X020351Y008532D01*
X020351Y008533D02*
X018851Y008533D01*
X018851Y008534D02*
X020351Y008534D01*
X020351Y008535D02*
X018851Y008535D01*
X018851Y008536D02*
X020351Y008536D01*
X020351Y008537D02*
X018851Y008537D01*
X018851Y008538D02*
X020351Y008538D01*
X020351Y008539D02*
X018851Y008539D01*
X018851Y008540D02*
X020351Y008540D01*
X018851Y008540D01*
X018851Y008541D02*
X020351Y008541D01*
X020351Y008542D02*
X018851Y008542D01*
X018851Y008543D02*
X020351Y008543D01*
X020351Y008544D02*
X018851Y008544D01*
X018851Y008545D02*
X020351Y008545D01*
X020351Y008546D02*
X018851Y008546D01*
X018851Y008547D02*
X020351Y008547D01*
X020351Y008548D02*
X018851Y008548D01*
X018851Y008549D02*
X020351Y008549D01*
X020351Y008550D02*
X018851Y008550D01*
X018851Y008551D02*
X020351Y008551D01*
X020351Y008552D02*
X018851Y008552D01*
X018851Y008553D02*
X020351Y008553D01*
X020351Y008554D02*
X018851Y008554D01*
X018851Y008555D02*
X020351Y008555D01*
X020351Y008556D02*
X018851Y008556D01*
X018851Y008557D02*
X020351Y008557D01*
X018851Y008557D01*
X018851Y008558D02*
X020351Y008558D01*
X020351Y008559D02*
X018851Y008559D01*
X018851Y008560D02*
X020351Y008560D01*
X020351Y008561D02*
X018851Y008561D01*
X018851Y008562D02*
X020351Y008562D01*
X020351Y008563D02*
X018851Y008563D01*
X018851Y008564D02*
X020351Y008564D01*
X020351Y008565D02*
X018851Y008565D01*
X018851Y008566D02*
X020351Y008566D01*
X020351Y008567D02*
X018851Y008567D01*
X018851Y008568D02*
X020351Y008568D01*
X020351Y008569D02*
X018851Y008569D01*
X018851Y008570D02*
X020351Y008570D01*
X020351Y008571D02*
X018851Y008571D01*
X018851Y008572D02*
X020351Y008572D01*
X020351Y008573D02*
X018851Y008573D01*
X018851Y008574D02*
X020351Y008574D01*
X018851Y008574D01*
X018851Y008575D02*
X020351Y008575D01*
X020351Y008576D02*
X018851Y008576D01*
X018851Y008577D02*
X020351Y008577D01*
X020351Y008578D02*
X018851Y008578D01*
X018851Y008579D02*
X020351Y008579D01*
X020351Y008580D02*
X018851Y008580D01*
X018851Y008581D02*
X020351Y008581D01*
X020351Y008582D02*
X018851Y008582D01*
X018851Y008583D02*
X020351Y008583D01*
X020351Y008584D02*
X018851Y008584D01*
X018851Y008585D02*
X020351Y008585D01*
X020351Y008586D02*
X018851Y008586D01*
X018851Y008587D02*
X020351Y008587D01*
X020351Y008588D02*
X018851Y008588D01*
X018851Y008589D02*
X020351Y008589D01*
X020351Y008590D02*
X018851Y008590D01*
X018851Y008591D02*
X020351Y008591D01*
X018851Y008591D01*
X018851Y008592D02*
X020351Y008592D01*
X020351Y008593D02*
X018851Y008593D01*
X018851Y008594D02*
X020351Y008594D01*
X020351Y008595D02*
X018851Y008595D01*
X018851Y008596D02*
X020351Y008596D01*
X020351Y008597D02*
X018851Y008597D01*
X018851Y008598D02*
X020351Y008598D01*
X020351Y008599D02*
X018851Y008599D01*
X018851Y008600D02*
X020351Y008600D01*
X020351Y008601D02*
X018851Y008601D01*
X018851Y008602D02*
X020351Y008602D01*
X020351Y008603D02*
X018851Y008603D01*
X018851Y008604D02*
X020351Y008604D01*
X020351Y008605D02*
X018851Y008605D01*
X018851Y008606D02*
X020351Y008606D01*
X020351Y008607D02*
X018851Y008607D01*
X018851Y008608D02*
X020351Y008608D01*
X020351Y008609D02*
X018851Y008609D01*
X020351Y008609D01*
X020351Y008610D02*
X018851Y008610D01*
X018851Y008611D02*
X020351Y008611D01*
X020351Y008612D02*
X018851Y008612D01*
X018851Y008613D02*
X020351Y008613D01*
X020351Y008614D02*
X018851Y008614D01*
X018851Y008615D02*
X020351Y008615D01*
X020351Y008616D02*
X018851Y008616D01*
X018851Y008617D02*
X020351Y008617D01*
X020351Y008618D02*
X018851Y008618D01*
X018851Y008619D02*
X020351Y008619D01*
X020351Y008620D02*
X018851Y008620D01*
X018851Y008621D02*
X020351Y008621D01*
X020351Y008622D02*
X018851Y008622D01*
X018851Y008623D02*
X020351Y008623D01*
X020351Y008624D02*
X018851Y008624D01*
X018851Y008625D02*
X020351Y008625D01*
X020351Y008626D02*
X018851Y008626D01*
X020351Y008626D01*
X020351Y008627D02*
X018851Y008627D01*
X018851Y008628D02*
X020351Y008628D01*
X020351Y008629D02*
X018851Y008629D01*
X018851Y008630D02*
X020351Y008630D01*
X020351Y008631D02*
X018851Y008631D01*
X018851Y008632D02*
X020351Y008632D01*
X020351Y008633D02*
X018851Y008633D01*
X018851Y008634D02*
X020351Y008634D01*
X020351Y008635D02*
X018851Y008635D01*
X018851Y008636D02*
X020351Y008636D01*
X020351Y008637D02*
X018851Y008637D01*
X018851Y008638D02*
X020351Y008638D01*
X020351Y008639D02*
X018851Y008639D01*
X018851Y008640D02*
X020351Y008640D01*
X020351Y008641D02*
X018851Y008641D01*
X018851Y008642D02*
X020351Y008642D01*
X020351Y008643D02*
X018851Y008643D01*
X020351Y008643D01*
X020351Y008644D02*
X018851Y008644D01*
X018851Y008645D02*
X020351Y008645D01*
X020351Y008646D02*
X018851Y008646D01*
X018851Y008647D02*
X020351Y008647D01*
X020351Y008648D02*
X018851Y008648D01*
X018851Y008649D02*
X020351Y008649D01*
X020351Y008650D02*
X018851Y008650D01*
X018851Y008651D02*
X020351Y008651D01*
X020351Y008652D02*
X018851Y008652D01*
X018851Y008653D02*
X020351Y008653D01*
X020351Y008654D02*
X018851Y008654D01*
X018851Y008655D02*
X020351Y008655D01*
X020351Y008656D02*
X018851Y008656D01*
X018851Y008657D02*
X020351Y008657D01*
X020351Y008658D02*
X018851Y008658D01*
X018851Y008659D02*
X020351Y008659D01*
X020351Y008660D02*
X018851Y008660D01*
X020351Y008660D01*
X020351Y008661D02*
X018851Y008661D01*
X018851Y008662D02*
X020351Y008662D01*
X020351Y008663D02*
X018851Y008663D01*
X018851Y008664D02*
X020351Y008664D01*
X020351Y008665D02*
X018851Y008665D01*
X018851Y008666D02*
X020351Y008666D01*
X020351Y008667D02*
X018851Y008667D01*
X018851Y008668D02*
X020351Y008668D01*
X020351Y008669D02*
X018851Y008669D01*
X018851Y008670D02*
X020351Y008670D01*
X020351Y008671D02*
X018851Y008671D01*
X018851Y008672D02*
X020351Y008672D01*
X020351Y008673D02*
X018851Y008673D01*
X018851Y008674D02*
X020351Y008674D01*
X020351Y008675D02*
X018851Y008675D01*
X018851Y008676D02*
X020351Y008676D01*
X020351Y008677D02*
X018851Y008677D01*
X020351Y008677D01*
X020351Y008678D02*
X018851Y008678D01*
X018851Y008679D02*
X020351Y008679D01*
X020351Y008680D02*
X018851Y008680D01*
X018851Y008681D02*
X020351Y008681D01*
X020351Y008682D02*
X018851Y008682D01*
X018851Y008683D02*
X020351Y008683D01*
X020351Y008684D02*
X018851Y008684D01*
X018851Y008685D02*
X020351Y008685D01*
X020351Y008686D02*
X018851Y008686D01*
X018851Y008687D02*
X020351Y008687D01*
X020351Y008688D02*
X018851Y008688D01*
X018851Y008689D02*
X020351Y008689D01*
X020351Y008690D02*
X018851Y008690D01*
X018851Y008691D02*
X020351Y008691D01*
X020351Y008692D02*
X018851Y008692D01*
X018851Y008693D02*
X020351Y008693D01*
X020351Y008694D02*
X018851Y008694D01*
X020351Y008694D01*
X020351Y008695D02*
X018851Y008695D01*
X018851Y008696D02*
X020351Y008696D01*
X020351Y008697D02*
X018851Y008697D01*
X018851Y008698D02*
X020351Y008698D01*
X020351Y008699D02*
X018851Y008699D01*
X018851Y008700D02*
X020351Y008700D01*
X020351Y008701D02*
X018851Y008701D01*
X018851Y008702D02*
X020351Y008702D01*
X020351Y008703D02*
X018851Y008703D01*
X018851Y008704D02*
X020351Y008704D01*
X020351Y008705D02*
X018851Y008705D01*
X018851Y008706D02*
X020351Y008706D01*
X020351Y008707D02*
X018851Y008707D01*
X018851Y008708D02*
X020351Y008708D01*
X020351Y008709D02*
X018851Y008709D01*
X018851Y008710D02*
X020351Y008710D01*
X020351Y008711D02*
X018851Y008711D01*
X020351Y008711D01*
X020351Y008712D02*
X018851Y008712D01*
X018851Y008713D02*
X020351Y008713D01*
X020351Y008714D02*
X018851Y008714D01*
X018851Y008715D02*
X020351Y008715D01*
X020351Y008716D02*
X018851Y008716D01*
X018851Y008717D02*
X020351Y008717D01*
X020351Y008718D02*
X018851Y008718D01*
X018851Y008719D02*
X020351Y008719D01*
X020351Y008720D02*
X018851Y008720D01*
X018851Y008721D02*
X020351Y008721D01*
X020351Y008722D02*
X018851Y008722D01*
X018851Y008723D02*
X020351Y008723D01*
X020351Y008724D02*
X018851Y008724D01*
X018851Y008725D02*
X020351Y008725D01*
X020351Y008726D02*
X018851Y008726D01*
X018851Y008727D02*
X020351Y008727D01*
X020351Y008728D02*
X018851Y008728D01*
X018851Y008729D02*
X020351Y008729D01*
X018851Y008729D01*
X018851Y008730D02*
X020351Y008730D01*
X020351Y008731D02*
X018851Y008731D01*
X018851Y008732D02*
X020351Y008732D01*
X020351Y008733D02*
X018851Y008733D01*
X018851Y008734D02*
X020351Y008734D01*
X020351Y008735D02*
X018851Y008735D01*
X018851Y008736D02*
X020351Y008736D01*
X020351Y008737D02*
X018851Y008737D01*
X018851Y008738D02*
X020351Y008738D01*
X020351Y008739D02*
X018851Y008739D01*
X018851Y008740D02*
X020351Y008740D01*
X020351Y008741D02*
X018851Y008741D01*
X018851Y008742D02*
X020351Y008742D01*
X020351Y008743D02*
X018851Y008743D01*
X018851Y008744D02*
X020351Y008744D01*
X020351Y008745D02*
X018851Y008745D01*
X018851Y008746D02*
X020351Y008746D01*
X018851Y008746D01*
X018851Y008747D02*
X020351Y008747D01*
X020351Y008748D02*
X018851Y008748D01*
X018851Y008749D02*
X020351Y008749D01*
X020351Y008750D02*
X018851Y008750D01*
X018851Y008751D02*
X020351Y008751D01*
X020351Y008752D02*
X018851Y008752D01*
X018851Y008753D02*
X020351Y008753D01*
X020351Y008754D02*
X018851Y008754D01*
X018851Y008755D02*
X020351Y008755D01*
X020351Y008756D02*
X018851Y008756D01*
X018851Y008757D02*
X020351Y008757D01*
X020351Y008758D02*
X018851Y008758D01*
X018851Y008759D02*
X020351Y008759D01*
X020351Y008760D02*
X018851Y008760D01*
X018851Y008761D02*
X020351Y008761D01*
X020351Y008762D02*
X018851Y008762D01*
X018851Y008763D02*
X020351Y008763D01*
X018851Y008763D01*
X018851Y008764D02*
X020351Y008764D01*
X020351Y008765D02*
X018851Y008765D01*
X018851Y008766D02*
X020351Y008766D01*
X020351Y008767D02*
X018851Y008767D01*
X018851Y008768D02*
X020351Y008768D01*
X020351Y008769D02*
X018851Y008769D01*
X018851Y008770D02*
X020351Y008770D01*
X020351Y008771D02*
X018851Y008771D01*
X018851Y008772D02*
X020351Y008772D01*
X020351Y008773D02*
X018851Y008773D01*
X018851Y008774D02*
X020351Y008774D01*
X020351Y008775D02*
X018851Y008775D01*
X018851Y008776D02*
X020351Y008776D01*
X020351Y008777D02*
X018851Y008777D01*
X018851Y008778D02*
X020351Y008778D01*
X020351Y008779D02*
X018851Y008779D01*
X018851Y008780D02*
X020351Y008780D01*
X018851Y008780D01*
X018851Y008781D02*
X020351Y008781D01*
X020351Y008782D02*
X018851Y008782D01*
X018851Y008783D02*
X020351Y008783D01*
X020351Y008784D02*
X018851Y008784D01*
X018851Y008785D02*
X020351Y008785D01*
X020351Y008786D02*
X018851Y008786D01*
X018851Y008787D02*
X020351Y008787D01*
X020351Y008788D02*
X018851Y008788D01*
X018851Y008789D02*
X020351Y008789D01*
X020351Y008790D02*
X018851Y008790D01*
X018851Y008791D02*
X020351Y008791D01*
X020351Y008792D02*
X018851Y008792D01*
X018851Y008793D02*
X020351Y008793D01*
X020351Y008794D02*
X018851Y008794D01*
X018851Y008795D02*
X020351Y008795D01*
X020351Y008796D02*
X018851Y008796D01*
X018851Y008797D02*
X020351Y008797D01*
X018851Y008797D01*
X018851Y008798D02*
X020351Y008798D01*
X020351Y008799D02*
X018851Y008799D01*
X018851Y008800D02*
X020351Y008800D01*
X020351Y008801D02*
X018851Y008801D01*
X018851Y008802D02*
X020351Y008802D01*
X020351Y008803D02*
X018851Y008803D01*
X018851Y008804D02*
X020351Y008804D01*
X020351Y008805D02*
X018851Y008805D01*
X018851Y008806D02*
X020351Y008806D01*
X020351Y008807D02*
X018851Y008807D01*
X018851Y008808D02*
X020351Y008808D01*
X020351Y008809D02*
X018851Y008809D01*
X018851Y008810D02*
X020351Y008810D01*
X020351Y008811D02*
X018851Y008811D01*
X018851Y008812D02*
X020351Y008812D01*
X020351Y008813D02*
X018851Y008813D01*
X018851Y008814D02*
X020351Y008814D01*
X018851Y008814D01*
X018851Y008815D02*
X020351Y008815D01*
X020351Y008816D02*
X018851Y008816D01*
X018851Y008817D02*
X020351Y008817D01*
X020351Y008818D02*
X018851Y008818D01*
X018851Y008819D02*
X020351Y008819D01*
X020351Y008820D02*
X018851Y008820D01*
X018851Y008821D02*
X020351Y008821D01*
X020351Y008822D02*
X018851Y008822D01*
X018851Y008823D02*
X020351Y008823D01*
X020351Y008824D02*
X018851Y008824D01*
X018851Y008825D02*
X020351Y008825D01*
X020351Y008826D02*
X018851Y008826D01*
X018851Y008827D02*
X020351Y008827D01*
X020351Y008828D02*
X018851Y008828D01*
X018851Y008829D02*
X020351Y008829D01*
X020351Y008830D02*
X018851Y008830D01*
X018851Y008831D02*
X020351Y008831D01*
X018851Y008831D01*
X018851Y008832D02*
X020351Y008832D01*
X020351Y008833D02*
X018851Y008833D01*
X018851Y008834D02*
X020351Y008834D01*
X020351Y008835D02*
X018851Y008835D01*
X018851Y008836D02*
X020351Y008836D01*
X020351Y008837D02*
X018851Y008837D01*
X018851Y008838D02*
X020351Y008838D01*
X020351Y008839D02*
X018851Y008839D01*
X018851Y008840D02*
X020351Y008840D01*
X020351Y008841D02*
X018851Y008841D01*
X018851Y008842D02*
X020351Y008842D01*
X020351Y008843D02*
X018851Y008843D01*
X018851Y008844D02*
X020351Y008844D01*
X020351Y008845D02*
X018851Y008845D01*
X018851Y008846D02*
X020351Y008846D01*
X020351Y008847D02*
X018851Y008847D01*
X018851Y008848D02*
X020351Y008848D01*
X020351Y008849D02*
X018851Y008849D01*
X020351Y008849D01*
X020351Y008850D02*
X018851Y008850D01*
X018851Y008851D02*
X020351Y008851D01*
X020351Y008852D02*
X018851Y008852D01*
X018851Y008853D02*
X020351Y008853D01*
X020351Y008854D02*
X018851Y008854D01*
X018851Y008855D02*
X020351Y008855D01*
X020351Y008856D02*
X018851Y008856D01*
X018851Y008857D02*
X020351Y008857D01*
X020351Y008858D02*
X018851Y008858D01*
X018851Y008859D02*
X020351Y008859D01*
X020351Y008860D02*
X018851Y008860D01*
X018851Y008861D02*
X020351Y008861D01*
X020351Y008862D02*
X018851Y008862D01*
X018851Y008863D02*
X020351Y008863D01*
X020351Y008864D02*
X018851Y008864D01*
X018851Y008865D02*
X020351Y008865D01*
X020351Y008866D02*
X018851Y008866D01*
X020351Y008866D01*
X020351Y008867D02*
X018851Y008867D01*
X018851Y008868D02*
X020351Y008868D01*
X020351Y008869D02*
X018851Y008869D01*
X018851Y008870D02*
X020351Y008870D01*
X020351Y008871D02*
X018851Y008871D01*
X018851Y008872D02*
X020351Y008872D01*
X020351Y008873D02*
X018851Y008873D01*
X018851Y008874D02*
X020351Y008874D01*
X020351Y008875D02*
X018851Y008875D01*
X018851Y008876D02*
X020351Y008876D01*
X020351Y008877D02*
X018851Y008877D01*
X018851Y008878D02*
X020351Y008878D01*
X020351Y008879D02*
X018851Y008879D01*
X018851Y008880D02*
X020351Y008880D01*
X020351Y008881D02*
X018851Y008881D01*
X018851Y008882D02*
X020351Y008882D01*
X020351Y008883D02*
X018851Y008883D01*
X020351Y008883D01*
X020351Y008884D02*
X018851Y008884D01*
X018851Y008885D02*
X020351Y008885D01*
X020351Y008886D02*
X018851Y008886D01*
X018851Y008887D02*
X020351Y008887D01*
X020351Y008888D02*
X018851Y008888D01*
X018851Y008889D02*
X020351Y008889D01*
X020351Y008890D02*
X018851Y008890D01*
X018851Y008891D02*
X020351Y008891D01*
X020351Y008892D02*
X018851Y008892D01*
X018851Y008893D02*
X020351Y008893D01*
X020351Y008894D02*
X018851Y008894D01*
X018851Y008895D02*
X020351Y008895D01*
X020351Y008896D02*
X018851Y008896D01*
X018851Y008897D02*
X020351Y008897D01*
X020351Y008898D02*
X018851Y008898D01*
X018851Y008899D02*
X020351Y008899D01*
X020351Y008900D02*
X018851Y008900D01*
X020351Y008900D01*
X020351Y008901D02*
X018851Y008901D01*
X018851Y008902D02*
X020351Y008902D01*
X020351Y008903D02*
X018851Y008903D01*
X018851Y008904D02*
X020351Y008904D01*
X020351Y008905D02*
X018851Y008905D01*
X018851Y008906D02*
X020351Y008906D01*
X020351Y008907D02*
X018851Y008907D01*
X018851Y008908D02*
X020351Y008908D01*
X020351Y008909D02*
X018851Y008909D01*
X018851Y008910D02*
X020351Y008910D01*
X020351Y008911D02*
X018851Y008911D01*
X018851Y008912D02*
X020351Y008912D01*
X020351Y008913D02*
X018851Y008913D01*
X018851Y008914D02*
X020351Y008914D01*
X020351Y008915D02*
X018851Y008915D01*
X018851Y008916D02*
X020351Y008916D01*
X020351Y008917D02*
X018851Y008917D01*
X020351Y008917D01*
X020351Y008918D02*
X018851Y008918D01*
X018851Y008919D02*
X020351Y008919D01*
X020351Y008920D02*
X018851Y008920D01*
X018851Y008921D02*
X020351Y008921D01*
X020351Y008922D02*
X018851Y008922D01*
X018851Y008923D02*
X020351Y008923D01*
X020351Y008924D02*
X018851Y008924D01*
X018851Y008925D02*
X020351Y008925D01*
X020351Y008926D02*
X018851Y008926D01*
X018851Y008927D02*
X020351Y008927D01*
X020351Y008928D02*
X018851Y008928D01*
X018851Y008929D02*
X020351Y008929D01*
X020351Y008930D02*
X018851Y008930D01*
X018851Y008931D02*
X020351Y008931D01*
X020351Y008932D02*
X018851Y008932D01*
X018851Y008933D02*
X020351Y008933D01*
X020351Y008934D02*
X018851Y008934D01*
X020351Y008934D01*
X020351Y008935D02*
X018851Y008935D01*
X018851Y008936D02*
X020351Y008936D01*
X020351Y008937D02*
X018851Y008937D01*
X018851Y008938D02*
X020351Y008938D01*
X020351Y008939D02*
X018851Y008939D01*
X018851Y008940D02*
X020351Y008940D01*
X020351Y008941D02*
X018851Y008941D01*
X018851Y008942D02*
X020351Y008942D01*
X020351Y008943D02*
X018851Y008943D01*
X018851Y008944D02*
X020351Y008944D01*
X020351Y008945D02*
X018851Y008945D01*
X018851Y008946D02*
X020351Y008946D01*
X020351Y008947D02*
X018851Y008947D01*
X018851Y008948D02*
X020351Y008948D01*
X020351Y008949D02*
X018851Y008949D01*
X018851Y008950D02*
X020351Y008950D01*
X020351Y008951D02*
X018851Y008951D01*
X020351Y008951D01*
X020351Y008952D02*
X018851Y008952D01*
X018851Y008953D02*
X020351Y008953D01*
X020351Y008954D02*
X018851Y008954D01*
X018851Y008955D02*
X020351Y008955D01*
X020351Y008956D02*
X018851Y008956D01*
X018851Y008957D02*
X020351Y008957D01*
X020351Y008958D02*
X018851Y008958D01*
X018851Y008959D02*
X020351Y008959D01*
X020351Y008960D02*
X018851Y008960D01*
X018851Y008961D02*
X020351Y008961D01*
X020351Y008962D02*
X018851Y008962D01*
X018851Y008963D02*
X020351Y008963D01*
X020351Y008964D02*
X018851Y008964D01*
X018851Y008965D02*
X020351Y008965D01*
X020351Y008966D02*
X018851Y008966D01*
X018851Y008967D02*
X020351Y008967D01*
X020351Y008968D02*
X018851Y008968D01*
X018851Y008969D02*
X020351Y008969D01*
X018851Y008969D01*
X018851Y008970D02*
X020351Y008970D01*
X020351Y008971D02*
X018851Y008971D01*
X018851Y008972D02*
X020351Y008972D01*
X020351Y008973D02*
X018851Y008973D01*
X018851Y008974D02*
X020351Y008974D01*
X020351Y008975D02*
X018851Y008975D01*
X018851Y008976D02*
X020351Y008976D01*
X020351Y008977D02*
X018851Y008977D01*
X018851Y008978D02*
X020351Y008978D01*
X020351Y008979D02*
X018851Y008979D01*
X018851Y008980D02*
X020351Y008980D01*
X020351Y008981D02*
X018851Y008981D01*
X018851Y008982D02*
X020351Y008982D01*
X020351Y008983D02*
X018851Y008983D01*
X018851Y008984D02*
X020351Y008984D01*
X020351Y008985D02*
X018851Y008985D01*
X018851Y008986D02*
X020351Y008986D01*
X018851Y008986D01*
X018851Y008987D02*
X020351Y008987D01*
X020351Y008988D02*
X018851Y008988D01*
X018851Y008989D02*
X020351Y008989D01*
X020351Y008990D02*
X018851Y008990D01*
X018851Y008991D02*
X020351Y008991D01*
X020351Y008992D02*
X018851Y008992D01*
X018851Y008993D02*
X020351Y008993D01*
X020351Y008994D02*
X018851Y008994D01*
X018851Y008995D02*
X020351Y008995D01*
X020351Y008996D02*
X018851Y008996D01*
X018851Y008997D02*
X020351Y008997D01*
X020351Y008998D02*
X018851Y008998D01*
X018851Y008999D02*
X020351Y008999D01*
X020351Y009000D02*
X018851Y009000D01*
X018851Y009001D02*
X020351Y009001D01*
X020351Y009002D02*
X018851Y009002D01*
X018851Y009003D02*
X020351Y009003D01*
X018851Y009003D01*
X018851Y009004D02*
X020351Y009004D01*
X020351Y009005D02*
X018851Y009005D01*
X018851Y009006D02*
X020351Y009006D01*
X020351Y009007D02*
X018851Y009007D01*
X018851Y009008D02*
X020351Y009008D01*
X020351Y009009D02*
X018851Y009009D01*
X018851Y009010D02*
X020351Y009010D01*
X020351Y009011D02*
X018851Y009011D01*
X018851Y009012D02*
X020351Y009012D01*
X020351Y009013D02*
X018851Y009013D01*
X018851Y009014D02*
X020351Y009014D01*
X020351Y009015D02*
X018851Y009015D01*
X018851Y009016D02*
X020351Y009016D01*
X020351Y009017D02*
X018851Y009017D01*
X018851Y009018D02*
X020351Y009018D01*
X020351Y009019D02*
X018851Y009019D01*
X018851Y009020D02*
X020351Y009020D01*
X018851Y009020D01*
X018851Y009021D02*
X020351Y009021D01*
X020351Y009022D02*
X018851Y009022D01*
X018851Y009023D02*
X020351Y009023D01*
X020351Y009024D02*
X018851Y009024D01*
X018851Y009025D02*
X020351Y009025D01*
X020351Y009026D02*
X018851Y009026D01*
X018851Y009027D02*
X020351Y009027D01*
X020351Y009028D02*
X018851Y009028D01*
X018851Y009029D02*
X020351Y009029D01*
X020351Y009030D02*
X018851Y009030D01*
X018851Y009031D02*
X020351Y009031D01*
X020351Y009032D02*
X018851Y009032D01*
X018851Y009033D02*
X020351Y009033D01*
X020351Y009034D02*
X018851Y009034D01*
X018851Y009035D02*
X020351Y009035D01*
X020351Y009036D02*
X018851Y009036D01*
X018851Y009037D02*
X020351Y009037D01*
X018851Y009037D01*
X018851Y009038D02*
X020351Y009038D01*
X020351Y009039D02*
X018851Y009039D01*
X018851Y009040D02*
X020351Y009040D01*
X020351Y009041D02*
X018851Y009041D01*
X018851Y009042D02*
X020351Y009042D01*
X020351Y009043D02*
X018851Y009043D01*
X018851Y009044D02*
X020351Y009044D01*
X020351Y009045D02*
X018851Y009045D01*
X018851Y009046D02*
X020351Y009046D01*
X020351Y009047D02*
X018851Y009047D01*
X018851Y009048D02*
X020351Y009048D01*
X020351Y009049D02*
X018851Y009049D01*
X018851Y009050D02*
X020351Y009050D01*
X020351Y009051D02*
X018851Y009051D01*
X018851Y009052D02*
X020351Y009052D01*
X020351Y009053D02*
X018851Y009053D01*
X018851Y009054D02*
X020351Y009054D01*
X018851Y009054D01*
X018851Y009055D02*
X020351Y009055D01*
X020351Y009056D02*
X018851Y009056D01*
X018851Y009057D02*
X020351Y009057D01*
X020351Y009058D02*
X018851Y009058D01*
X018851Y009059D02*
X020351Y009059D01*
X020351Y009060D02*
X018851Y009060D01*
X018851Y009061D02*
X020351Y009061D01*
X020351Y009062D02*
X018851Y009062D01*
X018851Y009063D02*
X020351Y009063D01*
X020351Y009064D02*
X018851Y009064D01*
X018851Y009065D02*
X020351Y009065D01*
X020351Y009066D02*
X018851Y009066D01*
X018851Y009067D02*
X020351Y009067D01*
X020351Y009068D02*
X018851Y009068D01*
X018851Y009069D02*
X020351Y009069D01*
X020351Y009070D02*
X018851Y009070D01*
X018851Y009071D02*
X020351Y009071D01*
X018851Y009071D01*
X018851Y009072D02*
X020351Y009072D01*
X020351Y009073D02*
X018851Y009073D01*
X018851Y009074D02*
X020351Y009074D01*
X020351Y009075D02*
X018851Y009075D01*
X018851Y009076D02*
X020351Y009076D01*
X020351Y009077D02*
X018851Y009077D01*
X018851Y009078D02*
X020351Y009078D01*
X020351Y009079D02*
X018851Y009079D01*
X018851Y009080D02*
X020351Y009080D01*
X020351Y009081D02*
X018851Y009081D01*
X018851Y009082D02*
X020351Y009082D01*
X020351Y009083D02*
X018851Y009083D01*
X018851Y009084D02*
X020351Y009084D01*
X020351Y009085D02*
X018851Y009085D01*
X018851Y009086D02*
X020351Y009086D01*
X020351Y009087D02*
X018851Y009087D01*
X018851Y009088D02*
X020351Y009088D01*
X020351Y009089D02*
X018851Y009089D01*
X020351Y009089D01*
X020351Y009090D02*
X018851Y009090D01*
X018851Y009091D02*
X020351Y009091D01*
X020351Y009092D02*
X018851Y009092D01*
X018851Y009093D02*
X020351Y009093D01*
X020351Y009094D02*
X018851Y009094D01*
X018851Y009095D02*
X020351Y009095D01*
X020351Y009096D02*
X018851Y009096D01*
X018851Y009097D02*
X020351Y009097D01*
X020351Y009098D02*
X018851Y009098D01*
X018851Y009099D02*
X020351Y009099D01*
X020351Y009100D02*
X018851Y009100D01*
X018851Y009101D02*
X020351Y009101D01*
X020351Y009102D02*
X018851Y009102D01*
X018851Y009103D02*
X020351Y009103D01*
X020351Y009104D02*
X018851Y009104D01*
X018851Y009105D02*
X020351Y009105D01*
X020351Y009106D02*
X018851Y009106D01*
X020351Y009106D01*
X020351Y009107D02*
X018851Y009107D01*
X018851Y009108D02*
X020351Y009108D01*
X020351Y009109D02*
X018851Y009109D01*
X018851Y009110D02*
X020351Y009110D01*
X020351Y009111D02*
X018851Y009111D01*
X018851Y009112D02*
X020351Y009112D01*
X020351Y009113D02*
X018851Y009113D01*
X018851Y009114D02*
X020351Y009114D01*
X020351Y009115D02*
X018851Y009115D01*
X018851Y009116D02*
X020351Y009116D01*
X020351Y009117D02*
X018851Y009117D01*
X018851Y009118D02*
X020351Y009118D01*
X020351Y009119D02*
X018851Y009119D01*
X018851Y009120D02*
X020351Y009120D01*
X020351Y009121D02*
X018851Y009121D01*
X018851Y009122D02*
X020351Y009122D01*
X020351Y009123D02*
X018851Y009123D01*
X020351Y009123D01*
X020351Y009124D02*
X018851Y009124D01*
X018851Y009125D02*
X020351Y009125D01*
X020351Y009126D02*
X018851Y009126D01*
X018851Y009127D02*
X020351Y009127D01*
X020351Y009128D02*
X018851Y009128D01*
X018851Y009129D02*
X020351Y009129D01*
X020351Y009130D02*
X018851Y009130D01*
X018851Y009131D02*
X020351Y009131D01*
X020351Y009132D02*
X018851Y009132D01*
X018851Y009133D02*
X020351Y009133D01*
X020351Y009134D02*
X018851Y009134D01*
X018851Y009135D02*
X020351Y009135D01*
X020351Y009136D02*
X018851Y009136D01*
X018851Y009137D02*
X020351Y009137D01*
X020351Y009138D02*
X018851Y009138D01*
X018851Y009139D02*
X020351Y009139D01*
X020351Y009140D02*
X018851Y009140D01*
X020351Y009140D01*
X020351Y009141D02*
X018851Y009141D01*
X018851Y009142D02*
X020351Y009142D01*
X020351Y009143D02*
X018851Y009143D01*
X018851Y009144D02*
X020351Y009144D01*
X020351Y009145D02*
X018851Y009145D01*
X018851Y009146D02*
X020351Y009146D01*
X020351Y009147D02*
X018851Y009147D01*
X018851Y009148D02*
X020351Y009148D01*
X020351Y009149D02*
X018851Y009149D01*
X018851Y009150D02*
X020351Y009150D01*
X020351Y009151D02*
X018851Y009151D01*
X018851Y009152D02*
X020351Y009152D01*
X020351Y009153D02*
X018851Y009153D01*
X018851Y009154D02*
X020351Y009154D01*
X020351Y009155D02*
X018851Y009155D01*
X018851Y009156D02*
X020351Y009156D01*
X020351Y009157D02*
X018851Y009157D01*
X020351Y009157D01*
X020351Y009158D02*
X018851Y009158D01*
X018851Y009159D02*
X020351Y009159D01*
X020351Y009160D02*
X018851Y009160D01*
X018851Y009161D02*
X020351Y009161D01*
X020351Y009162D02*
X018851Y009162D01*
X018851Y009163D02*
X020351Y009163D01*
X020351Y009164D02*
X018851Y009164D01*
X018851Y009165D02*
X020351Y009165D01*
X020351Y009166D02*
X018851Y009166D01*
X018851Y009167D02*
X020351Y009167D01*
X020351Y009168D02*
X018851Y009168D01*
X018851Y009169D02*
X020351Y009169D01*
X020351Y009170D02*
X018851Y009170D01*
X018851Y009171D02*
X020351Y009171D01*
X020351Y009172D02*
X018851Y009172D01*
X018851Y009173D02*
X020351Y009173D01*
X020351Y009174D02*
X018851Y009174D01*
X020351Y009174D01*
X020351Y009175D02*
X018851Y009175D01*
X018851Y009176D02*
X020351Y009176D01*
X020351Y009177D02*
X018851Y009177D01*
X018851Y009178D02*
X020351Y009178D01*
X020351Y009179D02*
X018851Y009179D01*
X018851Y009180D02*
X020351Y009180D01*
X020351Y009181D02*
X018851Y009181D01*
X018851Y009182D02*
X020351Y009182D01*
X020351Y009183D02*
X018851Y009183D01*
X018851Y009184D02*
X020351Y009184D01*
X020351Y009185D02*
X018851Y009185D01*
X018851Y009186D02*
X020351Y009186D01*
X020351Y009187D02*
X018851Y009187D01*
X018851Y009188D02*
X020351Y009188D01*
X020351Y009189D02*
X018851Y009189D01*
X018851Y009190D02*
X020351Y009190D01*
X020351Y009191D02*
X018851Y009191D01*
X020351Y009191D01*
X020351Y009192D02*
X018851Y009192D01*
X018851Y009193D02*
X020351Y009193D01*
X020351Y009194D02*
X018851Y009194D01*
X018851Y009195D02*
X020351Y009195D01*
X020351Y009196D02*
X018851Y009196D01*
X018851Y009197D02*
X020351Y009197D01*
X020351Y009198D02*
X018851Y009198D01*
X018851Y009199D02*
X020351Y009199D01*
X020351Y009200D02*
X018851Y009200D01*
X018851Y009201D02*
X020351Y009201D01*
X020351Y009202D02*
X018851Y009202D01*
X018851Y009203D02*
X020351Y009203D01*
X020351Y009204D02*
X018851Y009204D01*
X018851Y009205D02*
X020351Y009205D01*
X020351Y009206D02*
X018851Y009206D01*
X018851Y009207D02*
X020351Y009207D01*
X020351Y009208D02*
X018851Y009208D01*
X018851Y009209D02*
X020351Y009209D01*
X018851Y009209D01*
X018851Y009210D02*
X020351Y009210D01*
X020351Y009211D02*
X018851Y009211D01*
X018851Y009212D02*
X020351Y009212D01*
X020351Y009213D02*
X018851Y009213D01*
X018851Y009214D02*
X020351Y009214D01*
X020351Y009215D02*
X018851Y009215D01*
X018851Y009216D02*
X020351Y009216D01*
X020351Y009217D02*
X018851Y009217D01*
X018851Y009218D02*
X020351Y009218D01*
X020351Y009219D02*
X018851Y009219D01*
X018851Y009220D02*
X020351Y009220D01*
X020351Y009221D02*
X018851Y009221D01*
X018851Y009222D02*
X020351Y009222D01*
X020351Y009223D02*
X018851Y009223D01*
X018851Y009224D02*
X020351Y009224D01*
X020351Y009225D02*
X018851Y009225D01*
X018851Y009226D02*
X020351Y009226D01*
X018851Y009226D01*
X018851Y009227D02*
X020351Y009227D01*
X020351Y009228D02*
X018851Y009228D01*
X018851Y009229D02*
X020351Y009229D01*
X020351Y009230D02*
X018851Y009230D01*
X018851Y009231D02*
X020351Y009231D01*
X020351Y009232D02*
X018851Y009232D01*
X018851Y009233D02*
X020351Y009233D01*
X020351Y009234D02*
X018851Y009234D01*
X018851Y009235D02*
X020351Y009235D01*
X020351Y009236D02*
X018851Y009236D01*
X018851Y009237D02*
X020351Y009237D01*
X020351Y009238D02*
X018851Y009238D01*
X018851Y009239D02*
X020351Y009239D01*
X020351Y009240D02*
X018851Y009240D01*
X018851Y009241D02*
X020351Y009241D01*
X020351Y009242D02*
X018851Y009242D01*
X018851Y009243D02*
X020351Y009243D01*
X018851Y009243D01*
X018851Y009244D02*
X020351Y009244D01*
X020351Y009245D02*
X018851Y009245D01*
X018851Y009246D02*
X020351Y009246D01*
X020351Y009247D02*
X018851Y009247D01*
X018851Y009248D02*
X020351Y009248D01*
X020351Y009249D02*
X018851Y009249D01*
X018851Y009250D02*
X020351Y009250D01*
X020351Y009251D02*
X018851Y009251D01*
X018851Y009252D02*
X020351Y009252D01*
X020351Y009253D02*
X018851Y009253D01*
X018851Y009254D02*
X020351Y009254D01*
X020351Y009255D02*
X018851Y009255D01*
X018851Y009256D02*
X020351Y009256D01*
X020351Y009257D02*
X018851Y009257D01*
X018851Y009258D02*
X020351Y009258D01*
X020351Y009259D02*
X018851Y009259D01*
X018851Y009260D02*
X020351Y009260D01*
X018851Y009260D01*
X018851Y009261D02*
X020351Y009261D01*
X020351Y009262D02*
X018851Y009262D01*
X018851Y009263D02*
X020351Y009263D01*
X020351Y009264D02*
X018851Y009264D01*
X018851Y009265D02*
X020351Y009265D01*
X020351Y009266D02*
X018851Y009266D01*
X018851Y009267D02*
X020351Y009267D01*
X020351Y009268D02*
X018851Y009268D01*
X018851Y009269D02*
X020351Y009269D01*
X020351Y009270D02*
X018851Y009270D01*
X018851Y009271D02*
X020351Y009271D01*
X020351Y009272D02*
X018851Y009272D01*
X018851Y009273D02*
X020351Y009273D01*
X020351Y009274D02*
X018851Y009274D01*
X018851Y009275D02*
X020351Y009275D01*
X020351Y009276D02*
X018851Y009276D01*
X018851Y009277D02*
X020351Y009277D01*
X018851Y009277D01*
X018851Y009278D02*
X020351Y009278D01*
X020351Y009279D02*
X018851Y009279D01*
X018851Y009280D02*
X020351Y009280D01*
X020351Y009281D02*
X018851Y009281D01*
X018851Y009282D02*
X020351Y009282D01*
X020351Y009283D02*
X018851Y009283D01*
X018851Y009284D02*
X020351Y009284D01*
X020351Y009285D02*
X018851Y009285D01*
X018851Y009286D02*
X020351Y009286D01*
X020351Y009287D02*
X018851Y009287D01*
X018851Y009288D02*
X020351Y009288D01*
X020351Y009289D02*
X018851Y009289D01*
X018851Y009290D02*
X020351Y009290D01*
X020351Y009291D02*
X018851Y009291D01*
X018851Y009292D02*
X020351Y009292D01*
X020351Y009293D02*
X018851Y009293D01*
X018851Y009294D02*
X020351Y009294D01*
X018851Y009294D01*
X018851Y009295D02*
X020351Y009295D01*
X020351Y009296D02*
X018851Y009296D01*
X018851Y009297D02*
X020351Y009297D01*
X020351Y009298D02*
X018851Y009298D01*
X018851Y009299D02*
X020351Y009299D01*
X020351Y009300D02*
X018851Y009300D01*
X018851Y009301D02*
X020351Y009301D01*
X020351Y009302D02*
X018851Y009302D01*
X018851Y009303D02*
X020351Y009303D01*
X020351Y009304D02*
X018851Y009304D01*
X018851Y009305D02*
X020351Y009305D01*
X020351Y009306D02*
X018851Y009306D01*
X018851Y009307D02*
X020351Y009307D01*
X020351Y009308D02*
X018851Y009308D01*
X018851Y009309D02*
X020351Y009309D01*
X020351Y009310D02*
X018851Y009310D01*
X018851Y009311D02*
X020351Y009311D01*
X018851Y009311D01*
X018851Y009312D02*
X020351Y009312D01*
X020351Y009313D02*
X018851Y009313D01*
X018851Y009314D02*
X020351Y009314D01*
X020351Y009315D02*
X018851Y009315D01*
X018851Y009316D02*
X020351Y009316D01*
X020351Y009317D02*
X018851Y009317D01*
X018851Y009318D02*
X020351Y009318D01*
X020351Y009319D02*
X018851Y009319D01*
X018851Y009320D02*
X020351Y009320D01*
X020351Y009321D02*
X018851Y009321D01*
X018851Y009322D02*
X020351Y009322D01*
X020351Y009323D02*
X018851Y009323D01*
X018851Y009324D02*
X020351Y009324D01*
X020351Y009325D02*
X018851Y009325D01*
X018851Y009326D02*
X020351Y009326D01*
X020351Y009327D02*
X018851Y009327D01*
X018851Y009328D02*
X020351Y009328D01*
X020351Y009329D02*
X018851Y009329D01*
X020351Y009329D01*
X020351Y009330D02*
X018851Y009330D01*
X018851Y009331D02*
X020351Y009331D01*
X020351Y009332D02*
X018851Y009332D01*
X018851Y009333D02*
X020351Y009333D01*
X020351Y009334D02*
X018851Y009334D01*
X018851Y009335D02*
X020351Y009335D01*
X020351Y009336D02*
X018851Y009336D01*
X018851Y009337D02*
X020351Y009337D01*
X020351Y009338D02*
X018851Y009338D01*
X018851Y009339D02*
X020351Y009339D01*
X020351Y009340D02*
X018851Y009340D01*
X018851Y009341D02*
X020351Y009341D01*
X020351Y009342D02*
X018851Y009342D01*
X018851Y009343D02*
X020351Y009343D01*
X020351Y009344D02*
X018851Y009344D01*
X018851Y009345D02*
X020351Y009345D01*
X020351Y009346D02*
X018851Y009346D01*
X020351Y009346D01*
X020351Y009347D02*
X018851Y009347D01*
X018851Y009348D02*
X020351Y009348D01*
X020351Y009349D02*
X018851Y009349D01*
X018851Y009350D02*
X020351Y009350D01*
X020351Y009351D02*
X018851Y009351D01*
X018851Y009352D02*
X020351Y009352D01*
X020351Y009353D02*
X018851Y009353D01*
X018851Y009354D02*
X020351Y009354D01*
X020351Y009355D02*
X018851Y009355D01*
X018851Y009356D02*
X020351Y009356D01*
X020351Y009357D02*
X018851Y009357D01*
X018851Y009358D02*
X020351Y009358D01*
X020351Y009359D02*
X018851Y009359D01*
X018851Y009360D02*
X020351Y009360D01*
X020351Y009361D02*
X018851Y009361D01*
X018851Y009362D02*
X020351Y009362D01*
X020351Y009363D02*
X018851Y009363D01*
X020351Y009363D01*
X020351Y009364D02*
X018851Y009364D01*
X018851Y009365D02*
X020351Y009365D01*
X020351Y009366D02*
X018851Y009366D01*
X018851Y009367D02*
X020351Y009367D01*
X020351Y009368D02*
X018851Y009368D01*
X018851Y009369D02*
X020351Y009369D01*
X020351Y009370D02*
X018851Y009370D01*
X018851Y009371D02*
X020351Y009371D01*
X020351Y009372D02*
X018851Y009372D01*
X018851Y009373D02*
X020351Y009373D01*
X020351Y009374D02*
X018851Y009374D01*
X018851Y009375D02*
X020351Y009375D01*
X020351Y009376D02*
X018851Y009376D01*
X018851Y009377D02*
X020351Y009377D01*
X020351Y009378D02*
X018851Y009378D01*
X018851Y009379D02*
X020351Y009379D01*
X020351Y009380D02*
X018851Y009380D01*
X020351Y009380D01*
X020351Y009381D02*
X018851Y009381D01*
X018851Y009382D02*
X020351Y009382D01*
X020351Y009383D02*
X018851Y009383D01*
X018851Y009384D02*
X020351Y009384D01*
X020351Y009385D02*
X018851Y009385D01*
X018851Y009386D02*
X020351Y009386D01*
X020351Y009387D02*
X018851Y009387D01*
X018851Y009388D02*
X020351Y009388D01*
X020351Y009389D02*
X018851Y009389D01*
X018851Y009390D02*
X020351Y009390D01*
X020351Y009391D02*
X018851Y009391D01*
X018851Y009392D02*
X020351Y009392D01*
X020351Y009393D02*
X018851Y009393D01*
X018851Y009394D02*
X020351Y009394D01*
X020351Y009395D02*
X018851Y009395D01*
X018851Y009396D02*
X020351Y009396D01*
X020351Y009397D02*
X018851Y009397D01*
X020351Y009397D01*
X020351Y009398D02*
X018851Y009398D01*
X018851Y009399D02*
X020351Y009399D01*
X020351Y009400D02*
X018851Y009400D01*
X018851Y009401D02*
X020351Y009401D01*
X020351Y009402D02*
X018851Y009402D01*
X018851Y009403D02*
X020351Y009403D01*
X020351Y009404D02*
X018851Y009404D01*
X018851Y009405D02*
X020351Y009405D01*
X020351Y009406D02*
X018851Y009406D01*
X018851Y009407D02*
X020351Y009407D01*
X020351Y009408D02*
X018851Y009408D01*
X018851Y009409D02*
X020351Y009409D01*
X020351Y009410D02*
X018851Y009410D01*
X018851Y009411D02*
X020351Y009411D01*
X020351Y009412D02*
X018851Y009412D01*
X018851Y009413D02*
X020351Y009413D01*
X020351Y009414D02*
X018851Y009414D01*
X020351Y009414D01*
X020351Y009415D02*
X018851Y009415D01*
X018851Y009416D02*
X020351Y009416D01*
X020351Y009417D02*
X018851Y009417D01*
X018851Y009418D02*
X020351Y009418D01*
X020351Y009419D02*
X018851Y009419D01*
X018851Y009420D02*
X020351Y009420D01*
X020351Y009421D02*
X018851Y009421D01*
X018851Y009422D02*
X020351Y009422D01*
X020351Y009423D02*
X018851Y009423D01*
X018851Y009424D02*
X020351Y009424D01*
X020351Y009425D02*
X018851Y009425D01*
X018851Y009426D02*
X020351Y009426D01*
X020351Y009427D02*
X018851Y009427D01*
X018851Y009428D02*
X020351Y009428D01*
X020351Y009429D02*
X018851Y009429D01*
X018851Y009430D02*
X020351Y009430D01*
X020351Y009431D02*
X018851Y009431D01*
X020351Y009431D01*
X020351Y009432D02*
X018851Y009432D01*
X018851Y009433D02*
X020351Y009433D01*
X020351Y009434D02*
X018851Y009434D01*
X018851Y009435D02*
X020351Y009435D01*
X020351Y009436D02*
X018851Y009436D01*
X018851Y009437D02*
X020351Y009437D01*
X020351Y009438D02*
X018851Y009438D01*
X018851Y009439D02*
X020351Y009439D01*
X020351Y009440D02*
X018851Y009440D01*
X018851Y009441D02*
X020351Y009441D01*
X020351Y009442D02*
X018851Y009442D01*
X018851Y009443D02*
X020351Y009443D01*
X020351Y009444D02*
X018851Y009444D01*
X018851Y009445D02*
X020351Y009445D01*
X020351Y009446D02*
X018851Y009446D01*
X018851Y009447D02*
X020351Y009447D01*
X020351Y009448D02*
X018851Y009448D01*
X018851Y009449D02*
X020351Y009449D01*
X018851Y009449D01*
X018851Y009450D02*
X020351Y009450D01*
X020351Y009451D02*
X018851Y009451D01*
X018851Y009452D02*
X020351Y009452D01*
X020351Y009453D02*
X018851Y009453D01*
X018851Y009454D02*
X020351Y009454D01*
X020351Y009455D02*
X018851Y009455D01*
X018851Y009456D02*
X020351Y009456D01*
X020351Y009457D02*
X018851Y009457D01*
X018851Y009458D02*
X020351Y009458D01*
X020351Y009459D02*
X018851Y009459D01*
X018851Y009460D02*
X020351Y009460D01*
X020351Y009461D02*
X018851Y009461D01*
X018851Y009462D02*
X020351Y009462D01*
X020351Y009463D02*
X018851Y009463D01*
X018851Y009464D02*
X020351Y009464D01*
X020351Y009465D02*
X018851Y009465D01*
X018851Y009466D02*
X020351Y009466D01*
X018851Y009466D01*
X018851Y009467D02*
X020351Y009467D01*
X020351Y009468D02*
X018851Y009468D01*
X018851Y009469D02*
X020351Y009469D01*
X020351Y009470D02*
X018851Y009470D01*
X018851Y009471D02*
X020351Y009471D01*
X020351Y009472D02*
X018851Y009472D01*
X018851Y009473D02*
X020351Y009473D01*
X020351Y009474D02*
X018851Y009474D01*
X018851Y009475D02*
X020351Y009475D01*
X020351Y009476D02*
X018851Y009476D01*
X018851Y009477D02*
X020351Y009477D01*
X020351Y009478D02*
X018851Y009478D01*
X018851Y009479D02*
X020351Y009479D01*
X020351Y009480D02*
X018851Y009480D01*
X018851Y009481D02*
X020351Y009481D01*
X020351Y009482D02*
X018851Y009482D01*
X018851Y009483D02*
X020351Y009483D01*
X018851Y009483D01*
X018851Y009484D02*
X020351Y009484D01*
X020351Y009485D02*
X018851Y009485D01*
X018851Y009486D02*
X020351Y009486D01*
X020351Y009487D02*
X018851Y009487D01*
X018851Y009488D02*
X020351Y009488D01*
X020351Y009489D02*
X018851Y009489D01*
X018851Y009490D02*
X020351Y009490D01*
X020351Y009491D02*
X018851Y009491D01*
X018851Y009492D02*
X020351Y009492D01*
X020351Y009493D02*
X018851Y009493D01*
X018851Y009494D02*
X020351Y009494D01*
X020351Y009495D02*
X018851Y009495D01*
X018851Y009496D02*
X020351Y009496D01*
X020351Y009497D02*
X018851Y009497D01*
X018851Y009498D02*
X020351Y009498D01*
X020351Y009499D02*
X018851Y009499D01*
X018851Y009500D02*
X020351Y009500D01*
X018851Y009500D01*
X018851Y009501D02*
X020351Y009501D01*
X020351Y009502D02*
X018851Y009502D01*
X018851Y009503D02*
X020351Y009503D01*
X020351Y009504D02*
X018851Y009504D01*
X018851Y009505D02*
X020351Y009505D01*
X020351Y009506D02*
X018851Y009506D01*
X018851Y009507D02*
X020351Y009507D01*
X020351Y009508D02*
X018851Y009508D01*
X018851Y009509D02*
X020351Y009509D01*
X020351Y009510D02*
X018851Y009510D01*
X018851Y009511D02*
X020351Y009511D01*
X020351Y009512D02*
X018851Y009512D01*
X018851Y009513D02*
X020351Y009513D01*
X020351Y009514D02*
X018851Y009514D01*
X018851Y009515D02*
X020351Y009515D01*
X020351Y009516D02*
X018851Y009516D01*
X018851Y009517D02*
X020351Y009517D01*
X018851Y009517D01*
X018851Y009518D02*
X020351Y009518D01*
X020351Y009519D02*
X018851Y009519D01*
X018851Y009520D02*
X020351Y009520D01*
X020351Y009521D02*
X018851Y009521D01*
X018851Y009522D02*
X020351Y009522D01*
X020351Y009523D02*
X018851Y009523D01*
X018851Y009524D02*
X020351Y009524D01*
X020351Y009525D02*
X018851Y009525D01*
X018851Y009526D02*
X020351Y009526D01*
X020351Y009527D02*
X018851Y009527D01*
X018851Y009528D02*
X020351Y009528D01*
X020351Y009529D02*
X018851Y009529D01*
X018851Y009530D02*
X020351Y009530D01*
X020351Y009531D02*
X018851Y009531D01*
X018851Y009532D02*
X020351Y009532D01*
X020351Y009533D02*
X018851Y009533D01*
X018851Y009534D02*
X020351Y009534D01*
X018851Y009534D01*
X018851Y009535D02*
X020351Y009535D01*
X020351Y009536D02*
X018851Y009536D01*
X018851Y009537D02*
X020351Y009537D01*
X020351Y009538D02*
X018851Y009538D01*
X018851Y009539D02*
X020351Y009539D01*
X020351Y009540D02*
X018851Y009540D01*
X018851Y009541D02*
X020351Y009541D01*
X020351Y009542D02*
X018851Y009542D01*
X018851Y009543D02*
X020351Y009543D01*
X020351Y009544D02*
X018851Y009544D01*
X018851Y009545D02*
X020351Y009545D01*
X020351Y009546D02*
X018851Y009546D01*
X018851Y009547D02*
X020351Y009547D01*
X020351Y009548D02*
X018851Y009548D01*
X018851Y009549D02*
X020351Y009549D01*
X020351Y009550D02*
X018851Y009550D01*
X018851Y009551D02*
X020351Y009551D01*
X018851Y009551D01*
X018851Y009552D02*
X020351Y009552D01*
X020351Y009553D02*
X018851Y009553D01*
X018851Y009554D02*
X020351Y009554D01*
X020351Y009555D02*
X018851Y009555D01*
X018851Y009556D02*
X020351Y009556D01*
X020351Y009557D02*
X018851Y009557D01*
X018851Y009558D02*
X020351Y009558D01*
X020351Y009559D02*
X018851Y009559D01*
X018851Y009560D02*
X020351Y009560D01*
X020351Y009561D02*
X018851Y009561D01*
X018851Y009562D02*
X020351Y009562D01*
X020351Y009563D02*
X018851Y009563D01*
X018851Y009564D02*
X020351Y009564D01*
X020351Y009565D02*
X018851Y009565D01*
X018851Y009566D02*
X020351Y009566D01*
X020351Y009567D02*
X018851Y009567D01*
X018851Y009568D02*
X020351Y009568D01*
X020351Y009569D02*
X018851Y009569D01*
X020351Y009569D01*
X020351Y009570D02*
X018851Y009570D01*
X018851Y009571D02*
X020351Y009571D01*
X020351Y009572D02*
X018851Y009572D01*
X018851Y009573D02*
X020351Y009573D01*
X020351Y009574D02*
X018851Y009574D01*
X018851Y009575D02*
X020351Y009575D01*
X020351Y009576D02*
X018851Y009576D01*
X018851Y009577D02*
X020351Y009577D01*
X020351Y009578D02*
X018851Y009578D01*
X018851Y009579D02*
X020351Y009579D01*
X020351Y009580D02*
X018851Y009580D01*
X018851Y009581D02*
X020351Y009581D01*
X020351Y009582D02*
X018851Y009582D01*
X018851Y009583D02*
X020351Y009583D01*
X020351Y009584D02*
X018851Y009584D01*
X018851Y009585D02*
X020351Y009585D01*
X020351Y009586D02*
X018851Y009586D01*
X020351Y009586D01*
X020351Y009587D02*
X018851Y009587D01*
X018851Y009588D02*
X020351Y009588D01*
X020351Y009589D02*
X018851Y009589D01*
X018851Y009590D02*
X020351Y009590D01*
X020351Y009591D02*
X018851Y009591D01*
X018851Y009592D02*
X020351Y009592D01*
X020351Y009593D02*
X018851Y009593D01*
X018851Y009594D02*
X020351Y009594D01*
X020351Y009595D02*
X018851Y009595D01*
X018851Y009596D02*
X020351Y009596D01*
X020351Y009597D02*
X018851Y009597D01*
X018851Y009598D02*
X020351Y009598D01*
X020351Y009599D02*
X018851Y009599D01*
X018851Y009600D02*
X020351Y009600D01*
X020351Y009601D02*
X018851Y009601D01*
X018851Y009602D02*
X020351Y009602D01*
X020351Y009603D02*
X018851Y009603D01*
X020351Y009603D01*
X020351Y009604D02*
X018851Y009604D01*
X018851Y009605D02*
X020351Y009605D01*
X020351Y009606D02*
X018851Y009606D01*
X018851Y009607D02*
X020351Y009607D01*
X020351Y009608D02*
X018851Y009608D01*
X018851Y009609D02*
X020351Y009609D01*
X020351Y009610D02*
X018851Y009610D01*
X018851Y009611D02*
X020351Y009611D01*
X020351Y009612D02*
X018851Y009612D01*
X018851Y009613D02*
X020351Y009613D01*
X020351Y009614D02*
X018851Y009614D01*
X018851Y009615D02*
X020351Y009615D01*
X020351Y009616D02*
X018851Y009616D01*
X018851Y009617D02*
X020351Y009617D01*
X020351Y009618D02*
X018851Y009618D01*
X018851Y009619D02*
X020351Y009619D01*
X020351Y009620D02*
X018851Y009620D01*
X020351Y009620D01*
X020351Y009621D02*
X018851Y009621D01*
X018851Y009622D02*
X020351Y009622D01*
X020351Y009623D02*
X018851Y009623D01*
X018851Y009624D02*
X020351Y009624D01*
X020351Y009625D02*
X018851Y009625D01*
X018851Y009626D02*
X020351Y009626D01*
X020351Y009627D02*
X018851Y009627D01*
X018851Y009628D02*
X020351Y009628D01*
X020351Y009629D02*
X018851Y009629D01*
X018851Y009630D02*
X020351Y009630D01*
X020351Y009631D02*
X018851Y009631D01*
X018851Y009632D02*
X020351Y009632D01*
X020351Y009633D02*
X018851Y009633D01*
X018851Y009634D02*
X020351Y009634D01*
X020351Y009635D02*
X018851Y009635D01*
X018851Y009636D02*
X020351Y009636D01*
X020351Y009637D02*
X018851Y009637D01*
X020351Y009637D01*
X020351Y009638D02*
X018851Y009638D01*
X018851Y009639D02*
X020351Y009639D01*
X020351Y009640D02*
X018851Y009640D01*
X018851Y009641D02*
X020351Y009641D01*
X020351Y009642D02*
X018851Y009642D01*
X018851Y009643D02*
X020351Y009643D01*
X020351Y009644D02*
X018851Y009644D01*
X018851Y009645D02*
X020351Y009645D01*
X020351Y009646D02*
X018851Y009646D01*
X018851Y009647D02*
X020351Y009647D01*
X020351Y009648D02*
X018851Y009648D01*
X018851Y009649D02*
X020351Y009649D01*
X020351Y009650D02*
X018851Y009650D01*
X018851Y009651D02*
X020351Y009651D01*
X020351Y009652D02*
X018851Y009652D01*
X018851Y009653D02*
X020351Y009653D01*
X020351Y009654D02*
X018851Y009654D01*
X020351Y009654D01*
X020351Y009655D02*
X018851Y009655D01*
X018851Y009656D02*
X020351Y009656D01*
X020351Y009657D02*
X018851Y009657D01*
X018851Y009658D02*
X020351Y009658D01*
X020351Y009659D02*
X018851Y009659D01*
X018851Y009660D02*
X020351Y009660D01*
X020351Y009661D02*
X018851Y009661D01*
X018851Y009662D02*
X020351Y009662D01*
X020351Y009663D02*
X018851Y009663D01*
X018851Y009664D02*
X020351Y009664D01*
X020351Y009665D02*
X018851Y009665D01*
X018851Y009666D02*
X020351Y009666D01*
X020351Y009667D02*
X018851Y009667D01*
X018851Y009668D02*
X020351Y009668D01*
X020351Y009669D02*
X018851Y009669D01*
X018851Y009670D02*
X020351Y009670D01*
X020351Y009671D02*
X018851Y009671D01*
X020351Y009671D01*
X020351Y009672D02*
X018851Y009672D01*
X018851Y009673D02*
X020351Y009673D01*
X020351Y009674D02*
X018851Y009674D01*
X018851Y009675D02*
X020351Y009675D01*
X020351Y009676D02*
X018851Y009676D01*
X018851Y009677D02*
X020351Y009677D01*
X020351Y009678D02*
X018851Y009678D01*
X018851Y009679D02*
X020351Y009679D01*
X020351Y009680D02*
X018851Y009680D01*
X018851Y009681D02*
X020351Y009681D01*
X020351Y009682D02*
X018851Y009682D01*
X018851Y009683D02*
X020351Y009683D01*
X020351Y009684D02*
X018851Y009684D01*
X018851Y009685D02*
X020351Y009685D01*
X020351Y009686D02*
X018851Y009686D01*
X018851Y009687D02*
X020351Y009687D01*
X020351Y009688D02*
X018851Y009688D01*
X018851Y009689D02*
X020351Y009689D01*
X018851Y009689D01*
X018851Y009690D02*
X020351Y009690D01*
X020351Y009691D02*
X018851Y009691D01*
X018851Y009692D02*
X020351Y009692D01*
X020351Y009693D02*
X018851Y009693D01*
X018851Y009694D02*
X020351Y009694D01*
X020351Y009695D02*
X018851Y009695D01*
X018851Y009696D02*
X020351Y009696D01*
X020351Y009697D02*
X018851Y009697D01*
X018851Y009698D02*
X020351Y009698D01*
X020351Y009699D02*
X018851Y009699D01*
X018851Y009700D02*
X020351Y009700D01*
X020351Y009701D02*
X018851Y009701D01*
X018851Y009702D02*
X020351Y009702D01*
X020351Y009703D02*
X018851Y009703D01*
X018851Y009704D02*
X020351Y009704D01*
X020351Y009705D02*
X018851Y009705D01*
X018851Y009706D02*
X020351Y009706D01*
X018851Y009706D01*
X018851Y009707D02*
X020351Y009707D01*
X020351Y009708D02*
X018851Y009708D01*
X018851Y009709D02*
X020351Y009709D01*
X020351Y009710D02*
X018851Y009710D01*
X018851Y009711D02*
X020351Y009711D01*
X020351Y009712D02*
X018851Y009712D01*
X018851Y009713D02*
X020351Y009713D01*
X020351Y009714D02*
X018851Y009714D01*
X018851Y009715D02*
X020351Y009715D01*
X020351Y009716D02*
X018851Y009716D01*
X018851Y009717D02*
X020351Y009717D01*
X020351Y009718D02*
X018851Y009718D01*
X018851Y009719D02*
X020351Y009719D01*
X020351Y009720D02*
X018851Y009720D01*
X018851Y009721D02*
X020351Y009721D01*
X020351Y009722D02*
X018851Y009722D01*
X018851Y009723D02*
X020351Y009723D01*
X018851Y009723D01*
X018851Y009724D02*
X020351Y009724D01*
X020351Y009725D02*
X018851Y009725D01*
X018851Y009726D02*
X020351Y009726D01*
X020351Y009727D02*
X018851Y009727D01*
X018851Y009728D02*
X020351Y009728D01*
X020351Y009729D02*
X018851Y009729D01*
X018851Y009730D02*
X020351Y009730D01*
X020351Y009731D02*
X018851Y009731D01*
X018851Y009732D02*
X020351Y009732D01*
X020351Y009733D02*
X018851Y009733D01*
X018851Y009734D02*
X020351Y009734D01*
X020351Y009735D02*
X018851Y009735D01*
X018851Y009736D02*
X020351Y009736D01*
X020351Y009737D02*
X018851Y009737D01*
X018851Y009738D02*
X020351Y009738D01*
X020351Y009739D02*
X018851Y009739D01*
X018851Y009740D02*
X020351Y009740D01*
X018851Y009740D01*
X018851Y009741D02*
X020351Y009741D01*
X020351Y009742D02*
X018851Y009742D01*
X018851Y009743D02*
X020351Y009743D01*
X020351Y009744D02*
X018851Y009744D01*
X018851Y009745D02*
X020351Y009745D01*
X020351Y009746D02*
X018851Y009746D01*
X018851Y009747D02*
X020351Y009747D01*
X020351Y009748D02*
X018851Y009748D01*
X018851Y009749D02*
X020351Y009749D01*
X020351Y009750D02*
X018851Y009750D01*
X018851Y009751D02*
X020351Y009751D01*
X020351Y009752D02*
X018851Y009752D01*
X018851Y009753D02*
X020351Y009753D01*
X020351Y009754D02*
X018851Y009754D01*
X018851Y009755D02*
X020351Y009755D01*
X020351Y009756D02*
X018851Y009756D01*
X018851Y009757D02*
X020351Y009757D01*
X018851Y009757D01*
X018851Y009758D02*
X020351Y009758D01*
X020351Y009759D02*
X018851Y009759D01*
X018851Y009760D02*
X020351Y009760D01*
X020351Y009761D02*
X018851Y009761D01*
X018851Y009762D02*
X020351Y009762D01*
X020351Y009763D02*
X018851Y009763D01*
X018851Y009764D02*
X020351Y009764D01*
X020351Y009765D02*
X018851Y009765D01*
X018851Y009766D02*
X020351Y009766D01*
X020351Y009767D02*
X018851Y009767D01*
X018851Y009768D02*
X020351Y009768D01*
X020351Y009769D02*
X018851Y009769D01*
X018851Y009770D02*
X020351Y009770D01*
X020351Y009771D02*
X018851Y009771D01*
X018851Y009772D02*
X020351Y009772D01*
X020351Y009773D02*
X018851Y009773D01*
X018851Y009774D02*
X020351Y009774D01*
X018851Y009774D01*
X018851Y009775D02*
X020351Y009775D01*
X020351Y009776D02*
X018851Y009776D01*
X018851Y009777D02*
X020351Y009777D01*
X020351Y009778D02*
X018851Y009778D01*
X018851Y009779D02*
X020351Y009779D01*
X020351Y009780D02*
X018851Y009780D01*
X018851Y009781D02*
X020351Y009781D01*
X020351Y009782D02*
X018851Y009782D01*
X018851Y009783D02*
X020351Y009783D01*
X020351Y009784D02*
X018851Y009784D01*
X018851Y009785D02*
X020351Y009785D01*
X020351Y009786D02*
X018851Y009786D01*
X018851Y009787D02*
X020351Y009787D01*
X020351Y009788D02*
X018851Y009788D01*
X018851Y009789D02*
X020351Y009789D01*
X020351Y009790D02*
X018851Y009790D01*
X018851Y009791D02*
X020351Y009791D01*
X018851Y009791D01*
X018851Y009792D02*
X020351Y009792D01*
X020351Y009793D02*
X018851Y009793D01*
X018851Y009794D02*
X020351Y009794D01*
X020351Y009795D02*
X018851Y009795D01*
X018851Y009796D02*
X020351Y009796D01*
X020351Y009797D02*
X018851Y009797D01*
X018851Y009798D02*
X020351Y009798D01*
X020351Y009799D02*
X018851Y009799D01*
X018851Y009800D02*
X020351Y009800D01*
X020351Y009801D02*
X018851Y009801D01*
X018851Y009802D02*
X020351Y009802D01*
X020351Y009803D02*
X018851Y009803D01*
X018851Y009804D02*
X020351Y009804D01*
X020351Y009805D02*
X018851Y009805D01*
X018851Y009806D02*
X020351Y009806D01*
X020351Y009807D02*
X018851Y009807D01*
X018851Y009808D02*
X020351Y009808D01*
X020351Y009809D02*
X018851Y009809D01*
X020351Y009809D01*
X020351Y009810D02*
X018851Y009810D01*
X018851Y009811D02*
X020351Y009811D01*
X020351Y009812D02*
X018851Y009812D01*
X018851Y009813D02*
X020351Y009813D01*
X020351Y009814D02*
X018851Y009814D01*
X018851Y009815D02*
X020351Y009815D01*
X020351Y009816D02*
X018851Y009816D01*
X018851Y009817D02*
X020351Y009817D01*
X020351Y009818D02*
X018851Y009818D01*
X018851Y009819D02*
X020351Y009819D01*
X020351Y009820D02*
X018851Y009820D01*
X018851Y009821D02*
X020351Y009821D01*
X020351Y009822D02*
X018851Y009822D01*
X018851Y009823D02*
X020351Y009823D01*
X020351Y009824D02*
X018851Y009824D01*
X018851Y009825D02*
X020351Y009825D01*
X020351Y009826D02*
X018851Y009826D01*
X020351Y009826D01*
X020351Y009827D02*
X018851Y009827D01*
X018851Y009828D02*
X020351Y009828D01*
X020351Y009829D02*
X018851Y009829D01*
X018851Y009830D02*
X020351Y009830D01*
X020351Y009831D02*
X018851Y009831D01*
X018851Y009832D02*
X020351Y009832D01*
X020351Y009833D02*
X018851Y009833D01*
X018851Y009834D02*
X020351Y009834D01*
X020351Y009835D02*
X018851Y009835D01*
X018851Y009836D02*
X020351Y009836D01*
X020351Y009837D02*
X018851Y009837D01*
X018851Y009838D02*
X020351Y009838D01*
X020351Y009839D02*
X018851Y009839D01*
X018851Y009840D02*
X020351Y009840D01*
X020351Y009841D02*
X018851Y009841D01*
X018851Y009842D02*
X020351Y009842D01*
X020351Y009843D02*
X018851Y009843D01*
X020351Y009843D01*
X020351Y009844D02*
X018851Y009844D01*
X018851Y009845D02*
X020351Y009845D01*
X020351Y009846D02*
X018851Y009846D01*
X018851Y009847D02*
X020351Y009847D01*
X020351Y009848D02*
X018851Y009848D01*
X018851Y009849D02*
X020351Y009849D01*
X020351Y009850D02*
X018851Y009850D01*
X018851Y009851D02*
X020351Y009851D01*
X020351Y009852D02*
X018851Y009852D01*
X018851Y009853D02*
X020351Y009853D01*
X020351Y009854D02*
X018851Y009854D01*
X018851Y009855D02*
X020351Y009855D01*
X020351Y009856D02*
X018851Y009856D01*
X018851Y009857D02*
X020351Y009857D01*
X020351Y009858D02*
X018851Y009858D01*
X018851Y009859D02*
X020351Y009859D01*
X020351Y009860D02*
X018851Y009860D01*
X020351Y009860D01*
X020351Y009861D02*
X018851Y009861D01*
X018851Y009862D02*
X020351Y009862D01*
X020351Y009863D02*
X018851Y009863D01*
X018851Y009864D02*
X020351Y009864D01*
X020351Y009865D02*
X018851Y009865D01*
X018851Y009866D02*
X020351Y009866D01*
X020351Y009867D02*
X018851Y009867D01*
X018851Y009868D02*
X020351Y009868D01*
X020351Y009869D02*
X018851Y009869D01*
X018851Y009870D02*
X020351Y009870D01*
X020351Y009871D02*
X018851Y009871D01*
X018851Y009872D02*
X020351Y009872D01*
X020351Y009873D02*
X018851Y009873D01*
X018851Y009874D02*
X020351Y009874D01*
X020351Y009875D02*
X018851Y009875D01*
X018851Y009876D02*
X020351Y009876D01*
X020351Y009877D02*
X018851Y009877D01*
X020351Y009877D01*
X020351Y009878D02*
X018851Y009878D01*
X018851Y009879D02*
X020351Y009879D01*
X020351Y009880D02*
X018851Y009880D01*
X018851Y009881D02*
X020351Y009881D01*
X020351Y009882D02*
X018851Y009882D01*
X018851Y009883D02*
X020351Y009883D01*
X020351Y009884D02*
X018851Y009884D01*
X018851Y009885D02*
X020351Y009885D01*
X020351Y009886D02*
X018851Y009886D01*
X018851Y009887D02*
X020351Y009887D01*
X020351Y009888D02*
X018851Y009888D01*
X018851Y009889D02*
X020351Y009889D01*
X020351Y009890D02*
X018851Y009890D01*
X018851Y009891D02*
X020351Y009891D01*
X020351Y009892D02*
X018851Y009892D01*
X018851Y009893D02*
X020351Y009893D01*
X020351Y009894D02*
X018851Y009894D01*
X020351Y009894D01*
X020351Y009895D02*
X018851Y009895D01*
X018851Y009896D02*
X020351Y009896D01*
X020351Y009897D02*
X018851Y009897D01*
X018851Y009898D02*
X020351Y009898D01*
X020351Y009899D02*
X018851Y009899D01*
X018851Y009900D02*
X020351Y009900D01*
X020351Y009901D02*
X018851Y009901D01*
X018851Y009902D02*
X020351Y009902D01*
X020351Y009903D02*
X018851Y009903D01*
X018851Y009904D02*
X020351Y009904D01*
X020351Y009905D02*
X018851Y009905D01*
X018851Y009906D02*
X020351Y009906D01*
X020351Y009907D02*
X018851Y009907D01*
X018851Y009908D02*
X020351Y009908D01*
X020351Y009909D02*
X018851Y009909D01*
X018851Y009910D02*
X020351Y009910D01*
X020351Y009911D02*
X018851Y009911D01*
X020351Y009911D01*
X020351Y009912D02*
X018851Y009912D01*
X018851Y009913D02*
X020351Y009913D01*
X020351Y009914D02*
X018851Y009914D01*
X018851Y009915D02*
X020351Y009915D01*
X020351Y009916D02*
X018851Y009916D01*
X018851Y009917D02*
X020351Y009917D01*
X020351Y009918D02*
X018851Y009918D01*
X018851Y009919D02*
X020351Y009919D01*
X020351Y009920D02*
X018851Y009920D01*
X018851Y009921D02*
X020351Y009921D01*
X020351Y009922D02*
X018851Y009922D01*
X018851Y009923D02*
X020351Y009923D01*
X020351Y009924D02*
X018851Y009924D01*
X018851Y009925D02*
X020351Y009925D01*
X020351Y009926D02*
X018851Y009926D01*
X018851Y009927D02*
X020351Y009927D01*
X020351Y009928D02*
X018851Y009928D01*
X018851Y009929D02*
X020351Y009929D01*
X018851Y009929D01*
X018851Y009930D02*
X020351Y009930D01*
X020351Y009931D02*
X018851Y009931D01*
X018851Y009932D02*
X020351Y009932D01*
X020351Y009933D02*
X018851Y009933D01*
X018851Y009934D02*
X020351Y009934D01*
X020351Y009935D02*
X018851Y009935D01*
X018851Y009936D02*
X020351Y009936D01*
X020351Y009937D02*
X018851Y009937D01*
X018851Y009938D02*
X020351Y009938D01*
X020351Y009939D02*
X018851Y009939D01*
X018851Y009940D02*
X020351Y009940D01*
X020351Y009941D02*
X018851Y009941D01*
X018851Y009942D02*
X020351Y009942D01*
X020351Y009943D02*
X018851Y009943D01*
X018851Y009944D02*
X020351Y009944D01*
X020351Y009945D02*
X018851Y009945D01*
X018851Y009946D02*
X020351Y009946D01*
X018851Y009946D01*
X018851Y009947D02*
X020351Y009947D01*
X020351Y009948D02*
X018851Y009948D01*
X018851Y009949D02*
X020351Y009949D01*
X020351Y009950D02*
X018851Y009950D01*
X018851Y009951D02*
X020351Y009951D01*
X020351Y009952D02*
X018851Y009952D01*
X018851Y009953D02*
X020351Y009953D01*
X020351Y009954D02*
X018851Y009954D01*
X018851Y009955D02*
X020351Y009955D01*
X020351Y009956D02*
X018851Y009956D01*
X018851Y009957D02*
X020351Y009957D01*
X020351Y009958D02*
X018851Y009958D01*
X018851Y009959D02*
X020351Y009959D01*
X020351Y009960D02*
X018851Y009960D01*
X018851Y009961D02*
X020351Y009961D01*
X020351Y009962D02*
X018851Y009962D01*
X018851Y009963D02*
X020351Y009963D01*
X018851Y009963D01*
X018851Y009964D02*
X020351Y009964D01*
X020351Y009965D02*
X018851Y009965D01*
X018851Y009966D02*
X020351Y009966D01*
X020351Y009967D02*
X018851Y009967D01*
X018851Y009968D02*
X020351Y009968D01*
X020351Y009969D02*
X018851Y009969D01*
X018851Y009970D02*
X020351Y009970D01*
X020351Y009971D02*
X018851Y009971D01*
X018851Y009972D02*
X020351Y009972D01*
X020351Y009973D02*
X018851Y009973D01*
X018851Y009974D02*
X020351Y009974D01*
X020351Y009975D02*
X018851Y009975D01*
X018851Y009976D02*
X020351Y009976D01*
X020351Y009977D02*
X018851Y009977D01*
X018851Y009978D02*
X020351Y009978D01*
X020351Y009979D02*
X018851Y009979D01*
X018851Y009980D02*
X020351Y009980D01*
X018851Y009980D01*
X018851Y009981D02*
X020351Y009981D01*
X020351Y009982D02*
X018851Y009982D01*
X018851Y009983D02*
X020351Y009983D01*
X020351Y009984D02*
X018851Y009984D01*
X018851Y009985D02*
X020351Y009985D01*
X020351Y009986D02*
X018851Y009986D01*
X018851Y009987D02*
X020351Y009987D01*
X020351Y009988D02*
X018851Y009988D01*
X018851Y009989D02*
X020351Y009989D01*
X020351Y009990D02*
X018851Y009990D01*
X018851Y009991D02*
X020351Y009991D01*
X020351Y009992D02*
X018851Y009992D01*
X018851Y009993D02*
X020351Y009993D01*
X020351Y009994D02*
X018851Y009994D01*
X018851Y009995D02*
X020351Y009995D01*
X020351Y009996D02*
X018851Y009996D01*
X018851Y009997D02*
X020351Y009997D01*
X018851Y009997D01*
X018851Y009998D02*
X020351Y009998D01*
X020351Y009999D02*
X018851Y009999D01*
X018851Y010000D02*
X020351Y010000D01*
X020351Y010001D02*
X018851Y010001D01*
X018851Y010002D02*
X020351Y010002D01*
X020351Y010003D02*
X018851Y010003D01*
X018851Y010004D02*
X020351Y010004D01*
X020351Y010005D02*
X018851Y010005D01*
X018851Y010006D02*
X020351Y010006D01*
X020351Y010007D02*
X018851Y010007D01*
X018851Y010008D02*
X020351Y010008D01*
X020351Y010009D02*
X018851Y010009D01*
X018851Y010010D02*
X020351Y010010D01*
X020351Y010011D02*
X018851Y010011D01*
X018851Y010012D02*
X020351Y010012D01*
X020351Y010013D02*
X018851Y010013D01*
X018851Y010014D02*
X020351Y010014D01*
X018851Y010014D01*
X018851Y010015D02*
X020351Y010015D01*
X020351Y010016D02*
X018851Y010016D01*
X018851Y010017D02*
X020351Y010017D01*
X020351Y010018D02*
X018851Y010018D01*
X018851Y010019D02*
X020351Y010019D01*
X020351Y010020D02*
X018851Y010020D01*
X018851Y010021D02*
X020351Y010021D01*
X020351Y010022D02*
X018851Y010022D01*
X018851Y010023D02*
X020351Y010023D01*
X020351Y010024D02*
X018851Y010024D01*
X018851Y010025D02*
X020351Y010025D01*
X020351Y010026D02*
X018851Y010026D01*
X018851Y010027D02*
X020351Y010027D01*
X020351Y010028D02*
X018851Y010028D01*
X018851Y010029D02*
X020351Y010029D01*
X020351Y010030D02*
X018851Y010030D01*
X018851Y010031D02*
X020351Y010031D01*
X018851Y010031D01*
X018851Y010032D02*
X020351Y010032D01*
X020351Y010033D02*
X018851Y010033D01*
X018851Y010034D02*
X020351Y010034D01*
X020351Y010035D02*
X018851Y010035D01*
X018851Y010036D02*
X020351Y010036D01*
X020351Y010037D02*
X018851Y010037D01*
X018851Y010038D02*
X020351Y010038D01*
X020351Y010039D02*
X018851Y010039D01*
X018851Y010040D02*
X020351Y010040D01*
X020351Y010041D02*
X018851Y010041D01*
X018851Y010042D02*
X020351Y010042D01*
X020351Y010043D02*
X018851Y010043D01*
X018851Y010044D02*
X020351Y010044D01*
X020351Y010045D02*
X018851Y010045D01*
X018851Y010046D02*
X020351Y010046D01*
X020351Y010047D02*
X018851Y010047D01*
X018851Y010048D02*
X020351Y010048D01*
X020351Y010049D02*
X018851Y010049D01*
X020351Y010049D01*
X020351Y010050D02*
X018851Y010050D01*
X018851Y010051D02*
X020351Y010051D01*
X020351Y010052D02*
X018851Y010052D01*
X018851Y010053D02*
X020351Y010053D01*
X020351Y010054D02*
X018851Y010054D01*
X018851Y010055D02*
X020351Y010055D01*
X020351Y010056D02*
X018851Y010056D01*
X018851Y010057D02*
X020351Y010057D01*
X020351Y010058D02*
X018851Y010058D01*
X018851Y010059D02*
X020351Y010059D01*
X020351Y010060D02*
X018851Y010060D01*
X018851Y010061D02*
X020351Y010061D01*
X020351Y010062D02*
X018851Y010062D01*
X018851Y010063D02*
X020351Y010063D01*
X020351Y010064D02*
X018851Y010064D01*
X018851Y010065D02*
X020351Y010065D01*
X020351Y010066D02*
X018851Y010066D01*
X020351Y010066D01*
X020351Y010067D02*
X018851Y010067D01*
X018851Y010068D02*
X020351Y010068D01*
X020351Y010069D02*
X018851Y010069D01*
X018851Y010070D02*
X020351Y010070D01*
X020351Y010071D02*
X018851Y010071D01*
X018851Y010072D02*
X020351Y010072D01*
X020351Y010073D02*
X018851Y010073D01*
X018851Y010074D02*
X020351Y010074D01*
X020351Y010075D02*
X018851Y010075D01*
X018851Y010076D02*
X020351Y010076D01*
X020351Y010077D02*
X018851Y010077D01*
X018851Y010078D02*
X020351Y010078D01*
X020351Y010079D02*
X018851Y010079D01*
X018851Y010080D02*
X020351Y010080D01*
X020351Y010081D02*
X018851Y010081D01*
X018851Y010082D02*
X020351Y010082D01*
X020351Y010083D02*
X018851Y010083D01*
X020351Y010083D01*
X020351Y010084D02*
X018851Y010084D01*
X018851Y010085D02*
X020351Y010085D01*
X020351Y010086D02*
X018851Y010086D01*
X018851Y010087D02*
X020351Y010087D01*
X020351Y010088D02*
X018851Y010088D01*
X018851Y010089D02*
X020351Y010089D01*
X020351Y010090D02*
X018851Y010090D01*
X018851Y010091D02*
X020351Y010091D01*
X020351Y010092D02*
X018851Y010092D01*
X018851Y010093D02*
X020351Y010093D01*
X020351Y010094D02*
X018851Y010094D01*
X018851Y010095D02*
X020351Y010095D01*
X020351Y010096D02*
X018851Y010096D01*
X018851Y010097D02*
X020351Y010097D01*
X020351Y010098D02*
X018851Y010098D01*
X018851Y010099D02*
X020351Y010099D01*
X020351Y010100D02*
X018851Y010100D01*
X020351Y010100D01*
X020351Y010101D02*
X018851Y010101D01*
X018851Y010102D02*
X020351Y010102D01*
X020351Y010103D02*
X018851Y010103D01*
X018851Y010104D02*
X020351Y010104D01*
X020351Y010105D02*
X018851Y010105D01*
X018851Y010106D02*
X020351Y010106D01*
X020351Y010107D02*
X018851Y010107D01*
X018851Y010108D02*
X020351Y010108D01*
X020351Y010109D02*
X018851Y010109D01*
X018851Y010110D02*
X020351Y010110D01*
X020351Y010111D02*
X018851Y010111D01*
X018851Y010112D02*
X020351Y010112D01*
X020351Y010113D02*
X018851Y010113D01*
X018851Y010114D02*
X020351Y010114D01*
X020351Y010115D02*
X018851Y010115D01*
X018851Y010116D02*
X020351Y010116D01*
X020351Y010117D02*
X018851Y010117D01*
X020351Y010117D01*
X020351Y010118D02*
X018851Y010118D01*
X018851Y010119D02*
X020351Y010119D01*
X020351Y010120D02*
X018851Y010120D01*
X018851Y010121D02*
X020351Y010121D01*
X020351Y010122D02*
X018851Y010122D01*
X018851Y010123D02*
X020351Y010123D01*
X020351Y010124D02*
X018851Y010124D01*
X018851Y010125D02*
X020351Y010125D01*
X020351Y010126D02*
X018851Y010126D01*
X018851Y010127D02*
X020351Y010127D01*
X020351Y010128D02*
X018851Y010128D01*
X018851Y010129D02*
X020351Y010129D01*
X020351Y010130D02*
X018851Y010130D01*
X018851Y010131D02*
X020351Y010131D01*
X020351Y010132D02*
X018851Y010132D01*
X018851Y010133D02*
X020351Y010133D01*
X020351Y010134D02*
X018851Y010134D01*
X020351Y010134D01*
X020351Y010135D02*
X018851Y010135D01*
X018851Y010136D02*
X020351Y010136D01*
X020351Y010137D02*
X018851Y010137D01*
X018851Y010138D02*
X020351Y010138D01*
X020351Y010139D02*
X018851Y010139D01*
X018851Y010140D02*
X020351Y010140D01*
X020351Y010141D02*
X018851Y010141D01*
X018851Y010142D02*
X020351Y010142D01*
X020351Y010143D02*
X018851Y010143D01*
X018851Y010144D02*
X020351Y010144D01*
X020351Y010145D02*
X018851Y010145D01*
X018851Y010146D02*
X020351Y010146D01*
X020351Y010147D02*
X018851Y010147D01*
X018851Y010148D02*
X020351Y010148D01*
X020351Y010149D02*
X018851Y010149D01*
X018851Y010150D02*
X020351Y010150D01*
X020351Y010151D02*
X018851Y010151D01*
X020351Y010151D01*
X020351Y010152D02*
X018851Y010152D01*
X018851Y010153D02*
X020351Y010153D01*
X020351Y010154D02*
X018851Y010154D01*
X018851Y010155D02*
X020351Y010155D01*
X020351Y010156D02*
X018851Y010156D01*
X018851Y010157D02*
X020351Y010157D01*
X020351Y010158D02*
X018851Y010158D01*
X018851Y010159D02*
X020351Y010159D01*
X020351Y010160D02*
X018851Y010160D01*
X018851Y010161D02*
X020351Y010161D01*
X020351Y010162D02*
X018851Y010162D01*
X018851Y010163D02*
X020351Y010163D01*
X020351Y010164D02*
X018851Y010164D01*
X018851Y010165D02*
X020351Y010165D01*
X020351Y010166D02*
X018851Y010166D01*
X018851Y010167D02*
X020351Y010167D01*
X020351Y010168D02*
X018851Y010168D01*
X018851Y010169D02*
X020351Y010169D01*
X018851Y010169D01*
X018851Y010170D02*
X020351Y010170D01*
X020351Y010171D02*
X018851Y010171D01*
X018851Y010172D02*
X020351Y010172D01*
X020351Y010173D02*
X018851Y010173D01*
X018851Y010174D02*
X020351Y010174D01*
X020351Y010175D02*
X018851Y010175D01*
X018851Y010176D02*
X020351Y010176D01*
X020351Y010177D02*
X018851Y010177D01*
X018851Y010178D02*
X020351Y010178D01*
X020351Y010179D02*
X018851Y010179D01*
X018851Y010180D02*
X020351Y010180D01*
X020351Y010181D02*
X018851Y010181D01*
X018851Y010182D02*
X020351Y010182D01*
X020351Y010183D02*
X018851Y010183D01*
X018851Y010184D02*
X020351Y010184D01*
X020351Y010185D02*
X018851Y010185D01*
X018851Y010186D02*
X020351Y010186D01*
X018851Y010186D01*
X018851Y010187D02*
X020351Y010187D01*
X020351Y010188D02*
X018851Y010188D01*
X018851Y010189D02*
X020351Y010189D01*
X020351Y010190D02*
X018851Y010190D01*
X018851Y010191D02*
X020351Y010191D01*
X020351Y010192D02*
X018851Y010192D01*
X018851Y010193D02*
X020351Y010193D01*
X020351Y010194D02*
X018851Y010194D01*
X018851Y010195D02*
X020351Y010195D01*
X020351Y010196D02*
X018851Y010196D01*
X018851Y010197D02*
X020351Y010197D01*
X020351Y010198D02*
X018851Y010198D01*
X018851Y010199D02*
X020351Y010199D01*
X020351Y010200D02*
X018851Y010200D01*
X018851Y010201D02*
X020351Y010201D01*
X020351Y010202D02*
X018851Y010202D01*
X018851Y010203D02*
X020351Y010203D01*
X018851Y010203D01*
X018851Y010204D02*
X020351Y010204D01*
X020351Y010205D02*
X018851Y010205D01*
X018851Y010206D02*
X020351Y010206D01*
X020351Y010207D02*
X018851Y010207D01*
X018851Y010208D02*
X020351Y010208D01*
X020351Y010209D02*
X018851Y010209D01*
X018851Y010210D02*
X020351Y010210D01*
X020351Y010211D02*
X018851Y010211D01*
X018851Y010212D02*
X020351Y010212D01*
X020351Y010213D02*
X018851Y010213D01*
X018851Y010214D02*
X020351Y010214D01*
X020351Y010215D02*
X018851Y010215D01*
X018851Y010216D02*
X020351Y010216D01*
X020351Y010217D02*
X018851Y010217D01*
X018851Y010218D02*
X020351Y010218D01*
X020351Y010219D02*
X018851Y010219D01*
X018851Y010220D02*
X020351Y010220D01*
X018851Y010220D01*
X018851Y010221D02*
X020351Y010221D01*
X020351Y010222D02*
X018851Y010222D01*
X018851Y010223D02*
X020351Y010223D01*
X020351Y010224D02*
X018851Y010224D01*
X018851Y010225D02*
X020351Y010225D01*
X020351Y010226D02*
X018851Y010226D01*
X018851Y010227D02*
X020351Y010227D01*
X020351Y010228D02*
X018851Y010228D01*
X018851Y010229D02*
X020351Y010229D01*
X020351Y010230D02*
X018851Y010230D01*
X018851Y010231D02*
X020351Y010231D01*
X020351Y010232D02*
X018851Y010232D01*
X018851Y010233D02*
X020351Y010233D01*
X020351Y010234D02*
X018851Y010234D01*
X018851Y010235D02*
X020351Y010235D01*
X020351Y010236D02*
X018851Y010236D01*
X018851Y010237D02*
X020351Y010237D01*
X018851Y010237D01*
X018851Y010238D02*
X020351Y010238D01*
X020351Y010239D02*
X018851Y010239D01*
X018851Y010240D02*
X020351Y010240D01*
X020351Y010241D02*
X018851Y010241D01*
X018851Y010242D02*
X020351Y010242D01*
X020351Y010243D02*
X018851Y010243D01*
X018851Y010244D02*
X020351Y010244D01*
X020351Y010245D02*
X018851Y010245D01*
X018851Y010246D02*
X020351Y010246D01*
X020351Y010247D02*
X018851Y010247D01*
X018851Y010248D02*
X020351Y010248D01*
X020351Y010249D02*
X018851Y010249D01*
X018851Y010250D02*
X020351Y010250D01*
X020351Y010251D02*
X018851Y010251D01*
X018851Y010252D02*
X020351Y010252D01*
X020351Y010253D02*
X018851Y010253D01*
X018851Y010254D02*
X020351Y010254D01*
X018851Y010254D01*
X018851Y010255D02*
X020351Y010255D01*
X020351Y010256D02*
X018851Y010256D01*
X018851Y010257D02*
X020351Y010257D01*
X020351Y010258D02*
X018851Y010258D01*
X018851Y010259D02*
X020351Y010259D01*
X020351Y010260D02*
X018851Y010260D01*
X018851Y010261D02*
X020351Y010261D01*
X020351Y010262D02*
X018851Y010262D01*
X018851Y010263D02*
X020351Y010263D01*
X020351Y010264D02*
X018851Y010264D01*
X018851Y010265D02*
X020351Y010265D01*
X020351Y010266D02*
X018851Y010266D01*
X018851Y010267D02*
X020351Y010267D01*
X020351Y010268D02*
X018851Y010268D01*
X018851Y010269D02*
X020351Y010269D01*
X020351Y010270D02*
X018851Y010270D01*
X018851Y010271D02*
X020351Y010271D01*
X018851Y010271D01*
X018851Y010272D02*
X020351Y010272D01*
X020351Y010273D02*
X018851Y010273D01*
X018851Y010274D02*
X020351Y010274D01*
X020351Y010275D02*
X018851Y010275D01*
X018851Y010276D02*
X020351Y010276D01*
X020351Y010277D02*
X018851Y010277D01*
X018851Y010278D02*
X020351Y010278D01*
X020351Y010279D02*
X018851Y010279D01*
X018851Y010280D02*
X020351Y010280D01*
X020351Y010281D02*
X018851Y010281D01*
X018851Y010282D02*
X020351Y010282D01*
X020351Y010283D02*
X018851Y010283D01*
X018851Y010284D02*
X020351Y010284D01*
X020351Y010285D02*
X018851Y010285D01*
X018851Y010286D02*
X020351Y010286D01*
X020351Y010287D02*
X018851Y010287D01*
X018851Y010288D02*
X020351Y010288D01*
X020351Y010289D02*
X018851Y010289D01*
X020351Y010289D01*
X020351Y010290D02*
X018851Y010290D01*
X018851Y010291D02*
X020351Y010291D01*
X020351Y010292D02*
X018851Y010292D01*
X018851Y010293D02*
X020351Y010293D01*
X020351Y010294D02*
X018851Y010294D01*
X018851Y010295D02*
X020351Y010295D01*
X020351Y010296D02*
X018851Y010296D01*
X018851Y010297D02*
X020351Y010297D01*
X020351Y010298D02*
X018851Y010298D01*
X018851Y010299D02*
X020351Y010299D01*
X020351Y010300D02*
X018851Y010300D01*
X018851Y010301D02*
X020351Y010301D01*
X020351Y010302D02*
X018851Y010302D01*
X018851Y010303D02*
X020351Y010303D01*
X020351Y010304D02*
X018851Y010304D01*
X018851Y010305D02*
X020351Y010305D01*
X020351Y010306D02*
X018851Y010306D01*
X020351Y010306D01*
X020351Y010307D02*
X018851Y010307D01*
X018851Y010308D02*
X020351Y010308D01*
X020351Y010309D02*
X018851Y010309D01*
X018851Y010310D02*
X020351Y010310D01*
X020351Y010311D02*
X018851Y010311D01*
X018851Y010312D02*
X020351Y010312D01*
X020351Y010313D02*
X018851Y010313D01*
X018851Y010314D02*
X020351Y010314D01*
X020351Y010315D02*
X018851Y010315D01*
X018851Y010316D02*
X020351Y010316D01*
X020351Y010317D02*
X018851Y010317D01*
X018851Y010318D02*
X020351Y010318D01*
X020351Y010319D02*
X018851Y010319D01*
X018851Y010320D02*
X020351Y010320D01*
X020351Y010321D02*
X018851Y010321D01*
X018851Y010322D02*
X020351Y010322D01*
X020351Y010323D02*
X018851Y010323D01*
X020351Y010323D01*
X020351Y010324D02*
X018851Y010324D01*
X018851Y010325D02*
X020351Y010325D01*
X020351Y010326D02*
X018851Y010326D01*
X018851Y010327D02*
X020351Y010327D01*
X020351Y010328D02*
X018851Y010328D01*
X018851Y010329D02*
X020351Y010329D01*
X020351Y010330D02*
X018851Y010330D01*
X018851Y010331D02*
X020351Y010331D01*
X020351Y010332D02*
X018851Y010332D01*
X018851Y010333D02*
X020351Y010333D01*
X020351Y010334D02*
X018851Y010334D01*
X018851Y010335D02*
X020351Y010335D01*
X020351Y010336D02*
X018851Y010336D01*
X018851Y010337D02*
X020351Y010337D01*
X020351Y010338D02*
X018851Y010338D01*
X018851Y010339D02*
X020351Y010339D01*
X020351Y010340D02*
X018851Y010340D01*
X020351Y010340D01*
X020351Y010341D02*
X018851Y010341D01*
X018851Y010342D02*
X020351Y010342D01*
X020351Y010343D02*
X018851Y010343D01*
X018851Y010344D02*
X020351Y010344D01*
X020351Y010345D02*
X018851Y010345D01*
X018851Y010346D02*
X020351Y010346D01*
X020351Y010347D02*
X018851Y010347D01*
X018851Y010348D02*
X020351Y010348D01*
X020351Y010349D02*
X018851Y010349D01*
X018851Y010350D02*
X020351Y010350D01*
X020351Y010351D02*
X018851Y010351D01*
X018851Y010352D02*
X020351Y010352D01*
X020351Y010353D02*
X018851Y010353D01*
X018851Y010354D02*
X020351Y010354D01*
X020351Y010355D02*
X018851Y010355D01*
X018851Y010356D02*
X020351Y010356D01*
X020351Y010357D02*
X018851Y010357D01*
X020351Y010357D01*
X020351Y010358D02*
X018851Y010358D01*
X018851Y010359D02*
X020351Y010359D01*
X020351Y010360D02*
X018851Y010360D01*
X018851Y010361D02*
X020351Y010361D01*
X020351Y010362D02*
X018851Y010362D01*
X018851Y010363D02*
X020351Y010363D01*
X020351Y010364D02*
X018851Y010364D01*
X018851Y010365D02*
X020351Y010365D01*
X020351Y010366D02*
X018851Y010366D01*
X018851Y010367D02*
X020351Y010367D01*
X020351Y010368D02*
X018851Y010368D01*
X018851Y010369D02*
X020351Y010369D01*
X020351Y010370D02*
X018851Y010370D01*
X018851Y010371D02*
X020351Y010371D01*
X020351Y010372D02*
X018851Y010372D01*
X018851Y010373D02*
X020351Y010373D01*
X020351Y010374D02*
X018851Y010374D01*
X020351Y010374D01*
X020351Y010375D02*
X018851Y010375D01*
X018851Y010376D02*
X020351Y010376D01*
X020351Y010377D02*
X018851Y010377D01*
X018851Y010378D02*
X020351Y010378D01*
X020351Y010379D02*
X018851Y010379D01*
X018851Y010380D02*
X020351Y010380D01*
X020351Y010381D02*
X018851Y010381D01*
X018851Y010382D02*
X020351Y010382D01*
X020351Y010383D02*
X018851Y010383D01*
X018851Y010384D02*
X020351Y010384D01*
X020351Y010385D02*
X018851Y010385D01*
X018851Y010386D02*
X020351Y010386D01*
X020351Y010387D02*
X018851Y010387D01*
X018851Y010388D02*
X020351Y010388D01*
X020351Y010389D02*
X018851Y010389D01*
X018851Y010390D02*
X020351Y010390D01*
X020351Y010391D02*
X018851Y010391D01*
X020351Y010391D01*
X020351Y010392D02*
X018851Y010392D01*
X018851Y010393D02*
X020351Y010393D01*
X020351Y010394D02*
X018851Y010394D01*
X018851Y010395D02*
X020351Y010395D01*
X020351Y010396D02*
X018851Y010396D01*
X018851Y010397D02*
X020351Y010397D01*
X020351Y010398D02*
X018851Y010398D01*
X018851Y010399D02*
X020351Y010399D01*
X020351Y010400D02*
X018851Y010400D01*
X018851Y010401D02*
X020351Y010401D01*
X020351Y010402D02*
X018851Y010402D01*
X018851Y010403D02*
X020351Y010403D01*
X020351Y010404D02*
X018851Y010404D01*
X018851Y010405D02*
X020351Y010405D01*
X020351Y010406D02*
X018851Y010406D01*
X018851Y010407D02*
X020351Y010407D01*
X020351Y010408D02*
X018851Y010408D01*
X018851Y010409D02*
X020351Y010409D01*
X018851Y010409D01*
X018851Y010410D02*
X020351Y010410D01*
X020351Y010411D02*
X018851Y010411D01*
X018851Y010412D02*
X020351Y010412D01*
X020351Y010413D02*
X018851Y010413D01*
X018851Y010414D02*
X020351Y010414D01*
X020351Y010415D02*
X018851Y010415D01*
X018851Y010416D02*
X020351Y010416D01*
X020351Y010417D02*
X018851Y010417D01*
X018851Y010418D02*
X020351Y010418D01*
X020351Y010419D02*
X018851Y010419D01*
X018851Y010420D02*
X020351Y010420D01*
X020351Y010421D02*
X018851Y010421D01*
X018851Y010422D02*
X020351Y010422D01*
X020351Y010423D02*
X018851Y010423D01*
X018851Y010424D02*
X020351Y010424D01*
X020351Y010425D02*
X018851Y010425D01*
X018851Y010426D02*
X020351Y010426D01*
X018851Y010426D01*
X018851Y010427D02*
X020351Y010427D01*
X020351Y010428D02*
X018851Y010428D01*
X018851Y010429D02*
X020351Y010429D01*
X020351Y010430D02*
X018851Y010430D01*
X018851Y010431D02*
X020351Y010431D01*
X020351Y010432D02*
X018851Y010432D01*
X018851Y010433D02*
X020351Y010433D01*
X020351Y010434D02*
X018851Y010434D01*
X018851Y010435D02*
X020351Y010435D01*
X020351Y010436D02*
X018851Y010436D01*
X018851Y010437D02*
X020351Y010437D01*
X020351Y010438D02*
X018851Y010438D01*
X018851Y010439D02*
X020351Y010439D01*
X020351Y010440D02*
X018851Y010440D01*
X018851Y010441D02*
X020351Y010441D01*
X020351Y010442D02*
X018851Y010442D01*
X018851Y010443D02*
X020351Y010443D01*
X018851Y010443D01*
X018851Y010444D02*
X020351Y010444D01*
X020351Y010445D02*
X018851Y010445D01*
X018851Y010446D02*
X020351Y010446D01*
X020351Y010447D02*
X018851Y010447D01*
X018851Y010448D02*
X020351Y010448D01*
X020351Y010449D02*
X018851Y010449D01*
X018851Y010450D02*
X020351Y010450D01*
X020351Y010451D02*
X018851Y010451D01*
X018851Y010452D02*
X020351Y010452D01*
X020351Y010453D02*
X018851Y010453D01*
X018851Y010454D02*
X020351Y010454D01*
X020351Y010455D02*
X018851Y010455D01*
X018851Y010456D02*
X020351Y010456D01*
X020351Y010457D02*
X018851Y010457D01*
X018851Y010458D02*
X020351Y010458D01*
X020351Y010459D02*
X018851Y010459D01*
X018851Y010460D02*
X020351Y010460D01*
X018851Y010460D01*
X018851Y010461D02*
X020351Y010461D01*
X020351Y010462D02*
X018851Y010462D01*
X018851Y010463D02*
X020351Y010463D01*
X020351Y010464D02*
X018851Y010464D01*
X018851Y010465D02*
X020351Y010465D01*
X020351Y010466D02*
X018851Y010466D01*
X018851Y010467D02*
X020351Y010467D01*
X020351Y010468D02*
X018851Y010468D01*
X018851Y010469D02*
X020351Y010469D01*
X020351Y010470D02*
X018851Y010470D01*
X018851Y010471D02*
X020351Y010471D01*
X020351Y010472D02*
X018851Y010472D01*
X018851Y010473D02*
X020351Y010473D01*
X020351Y010474D02*
X018851Y010474D01*
X018851Y010475D02*
X020351Y010475D01*
X020351Y010476D02*
X018851Y010476D01*
X018851Y010477D02*
X020351Y010477D01*
X018851Y010477D01*
X018851Y010478D02*
X020351Y010478D01*
X020351Y010479D02*
X018851Y010479D01*
X018851Y010480D02*
X020351Y010480D01*
X020351Y010481D02*
X018851Y010481D01*
X018851Y010482D02*
X020351Y010482D01*
X020351Y010483D02*
X018851Y010483D01*
X018851Y010484D02*
X020351Y010484D01*
X020351Y010485D02*
X018851Y010485D01*
X018851Y010486D02*
X020351Y010486D01*
X020351Y010487D02*
X018851Y010487D01*
X018851Y010488D02*
X020351Y010488D01*
X020351Y010489D02*
X018851Y010489D01*
X018851Y010490D02*
X020351Y010490D01*
X020351Y010491D02*
X018851Y010491D01*
X018851Y010492D02*
X020351Y010492D01*
X020351Y010493D02*
X018851Y010493D01*
X018851Y010494D02*
X020351Y010494D01*
X018851Y010494D01*
X018851Y010495D02*
X020351Y010495D01*
X020351Y010496D02*
X018851Y010496D01*
X018851Y010497D02*
X020351Y010497D01*
X020351Y010498D02*
X018851Y010498D01*
X018851Y010499D02*
X020351Y010499D01*
X020351Y010500D02*
X018851Y010500D01*
X018851Y010501D02*
X020351Y010501D01*
X020351Y010502D02*
X018851Y010502D01*
X018851Y010503D02*
X020351Y010503D01*
X020351Y010504D02*
X018851Y010504D01*
X018851Y010505D02*
X020351Y010505D01*
X020351Y010506D02*
X018851Y010506D01*
X018851Y010507D02*
X020351Y010507D01*
X020351Y010508D02*
X018851Y010508D01*
X018851Y010509D02*
X020351Y010509D01*
X020351Y010510D02*
X018851Y010510D01*
X018851Y010511D02*
X020351Y010511D01*
X018851Y010511D01*
X018851Y010512D02*
X020351Y010512D01*
X020351Y010513D02*
X018851Y010513D01*
X018851Y010514D02*
X020351Y010514D01*
X020351Y010515D02*
X018851Y010515D01*
X018851Y010516D02*
X020351Y010516D01*
X020351Y010517D02*
X018851Y010517D01*
X018851Y010518D02*
X020351Y010518D01*
X020351Y010519D02*
X018851Y010519D01*
X018851Y010520D02*
X020351Y010520D01*
X020351Y010521D02*
X018851Y010521D01*
X018851Y010522D02*
X020351Y010522D01*
X020351Y010523D02*
X018851Y010523D01*
X018851Y010524D02*
X020351Y010524D01*
X020351Y010525D02*
X018851Y010525D01*
X018851Y010526D02*
X020351Y010526D01*
X020351Y010527D02*
X018851Y010527D01*
X018851Y010528D02*
X020351Y010528D01*
X020351Y010529D02*
X018851Y010529D01*
X020351Y010529D01*
X020351Y010530D02*
X018851Y010530D01*
X018851Y010531D02*
X020351Y010531D01*
X020351Y010532D02*
X018851Y010532D01*
X018851Y010533D02*
X020351Y010533D01*
X020351Y010534D02*
X018851Y010534D01*
X018851Y010535D02*
X020351Y010535D01*
X020351Y010536D02*
X018851Y010536D01*
X018851Y010537D02*
X020351Y010537D01*
X020351Y010538D02*
X018851Y010538D01*
X018851Y010539D02*
X020351Y010539D01*
X020351Y010540D02*
X018851Y010540D01*
X018851Y010541D02*
X020351Y010541D01*
X020351Y010542D02*
X018851Y010542D01*
X018851Y010543D02*
X020351Y010543D01*
X020351Y010544D02*
X018851Y010544D01*
X018851Y010545D02*
X020351Y010545D01*
X020351Y010546D02*
X018851Y010546D01*
X020351Y010546D01*
X020351Y010547D02*
X018851Y010547D01*
X018851Y010548D02*
X020351Y010548D01*
X020351Y010549D02*
X018851Y010549D01*
X018851Y010550D02*
X020351Y010550D01*
X020351Y010551D02*
X018851Y010551D01*
X018851Y010552D02*
X020351Y010552D01*
X020351Y010553D02*
X018851Y010553D01*
X018851Y010554D02*
X020351Y010554D01*
X020351Y010555D02*
X018851Y010555D01*
X018851Y010556D02*
X020351Y010556D01*
X020351Y010557D02*
X018851Y010557D01*
X018851Y010558D02*
X020351Y010558D01*
X020351Y010559D02*
X018851Y010559D01*
X018851Y010560D02*
X020351Y010560D01*
X020351Y010561D02*
X018851Y010561D01*
X018851Y010562D02*
X020351Y010562D01*
X020351Y010563D02*
X018851Y010563D01*
X020351Y010563D01*
X020351Y010564D02*
X018851Y010564D01*
X018851Y010565D02*
X020351Y010565D01*
X020351Y010566D02*
X018851Y010566D01*
X018851Y010567D02*
X020351Y010567D01*
X020351Y010568D02*
X018851Y010568D01*
X018851Y010569D02*
X020351Y010569D01*
X020351Y010570D02*
X018851Y010570D01*
X018851Y010571D02*
X020351Y010571D01*
X020351Y010572D02*
X018851Y010572D01*
X018851Y010573D02*
X020351Y010573D01*
X020351Y010574D02*
X018851Y010574D01*
X018851Y010575D02*
X020351Y010575D01*
X020351Y010576D02*
X018851Y010576D01*
X018851Y010577D02*
X020351Y010577D01*
X020351Y010578D02*
X018851Y010578D01*
X018851Y010579D02*
X020351Y010579D01*
X020351Y010580D02*
X018851Y010580D01*
X020351Y010580D01*
X020351Y010581D02*
X018851Y010581D01*
X018851Y010582D02*
X020351Y010582D01*
X020351Y010583D02*
X018851Y010583D01*
X018851Y010584D02*
X020351Y010584D01*
X020351Y010585D02*
X018851Y010585D01*
X018851Y010586D02*
X020351Y010586D01*
X020351Y010587D02*
X018851Y010587D01*
X018851Y010588D02*
X020351Y010588D01*
X020351Y010589D02*
X018851Y010589D01*
X018851Y010590D02*
X020351Y010590D01*
X020351Y010591D02*
X018851Y010591D01*
X018851Y010592D02*
X020351Y010592D01*
X020351Y010593D02*
X018851Y010593D01*
X018851Y010594D02*
X020351Y010594D01*
X020351Y010595D02*
X018851Y010595D01*
X018851Y010596D02*
X020351Y010596D01*
X020351Y010597D02*
X018851Y010597D01*
X020351Y010597D01*
X020351Y010598D02*
X018851Y010598D01*
X018851Y010599D02*
X020351Y010599D01*
X020351Y010600D02*
X018851Y010600D01*
X018851Y010601D02*
X020351Y010601D01*
X020351Y010602D02*
X018852Y010602D01*
X018853Y010603D02*
X020351Y010603D01*
X020351Y010604D02*
X018854Y010604D01*
X018855Y010605D02*
X020351Y010605D01*
X020351Y010606D02*
X018856Y010606D01*
X018857Y010607D02*
X020351Y010607D01*
X020351Y010608D02*
X018858Y010608D01*
X018859Y010609D02*
X020351Y010609D01*
X020351Y010610D02*
X018860Y010610D01*
X018861Y010611D02*
X020351Y010611D01*
X020351Y010612D02*
X018862Y010612D01*
X018863Y010613D02*
X020351Y010613D01*
X020351Y010614D02*
X018864Y010614D01*
X020351Y010614D01*
X020351Y010615D02*
X018865Y010615D01*
X018866Y010616D02*
X020351Y010616D01*
X020351Y010617D02*
X018867Y010617D01*
X018868Y010618D02*
X020351Y010618D01*
X020351Y010619D02*
X018869Y010619D01*
X018870Y010620D02*
X020351Y010620D01*
X020351Y010621D02*
X018871Y010621D01*
X018872Y010622D02*
X020351Y010622D01*
X020351Y010623D02*
X018873Y010623D01*
X018874Y010624D02*
X020351Y010624D01*
X020351Y010625D02*
X018875Y010625D01*
X018876Y010626D02*
X020351Y010626D01*
X020351Y010627D02*
X018877Y010627D01*
X018878Y010628D02*
X020351Y010628D01*
X020351Y010629D02*
X018879Y010629D01*
X018880Y010630D02*
X020351Y010630D01*
X020351Y010631D02*
X018881Y010631D01*
X020351Y010631D01*
X020351Y010632D02*
X018882Y010632D01*
X018883Y010633D02*
X020351Y010633D01*
X020351Y010634D02*
X018884Y010634D01*
X018885Y010635D02*
X020351Y010635D01*
X020351Y010636D02*
X018886Y010636D01*
X018887Y010637D02*
X020351Y010637D01*
X020351Y010638D02*
X018888Y010638D01*
X018889Y010639D02*
X020351Y010639D01*
X020351Y010640D02*
X018890Y010640D01*
X018891Y010641D02*
X020351Y010641D01*
X020351Y010642D02*
X018892Y010642D01*
X018893Y010643D02*
X020351Y010643D01*
X020351Y010644D02*
X018894Y010644D01*
X018895Y010645D02*
X020351Y010645D01*
X020351Y010646D02*
X018896Y010646D01*
X018897Y010647D02*
X020351Y010647D01*
X020351Y010648D02*
X018898Y010648D01*
X018899Y010649D02*
X020351Y010649D01*
X018899Y010649D01*
X018900Y010650D02*
X020351Y010650D01*
X020350Y010651D02*
X018901Y010651D01*
X018902Y010652D02*
X020349Y010652D01*
X020348Y010653D02*
X018903Y010653D01*
X018904Y010654D02*
X020347Y010654D01*
X020346Y010655D02*
X018905Y010655D01*
X018906Y010656D02*
X020346Y010656D01*
X020345Y010657D02*
X018907Y010657D01*
X018908Y010658D02*
X020344Y010658D01*
X020343Y010659D02*
X018909Y010659D01*
X018910Y010660D02*
X020342Y010660D01*
X020341Y010661D02*
X018911Y010661D01*
X018912Y010662D02*
X020340Y010662D01*
X020339Y010663D02*
X018913Y010663D01*
X018914Y010664D02*
X020338Y010664D01*
X020337Y010665D02*
X018915Y010665D01*
X018916Y010666D02*
X020336Y010666D01*
X020335Y010666D02*
X018916Y010666D01*
X018917Y010667D02*
X020334Y010667D01*
X020333Y010668D02*
X018918Y010668D01*
X018919Y010669D02*
X020332Y010669D01*
X020331Y010670D02*
X018920Y010670D01*
X018921Y010671D02*
X020330Y010671D01*
X020329Y010672D02*
X018922Y010672D01*
X018923Y010673D02*
X020329Y010673D01*
X020328Y010674D02*
X018924Y010674D01*
X018925Y010675D02*
X020327Y010675D01*
X020326Y010676D02*
X018926Y010676D01*
X018927Y010677D02*
X020325Y010677D01*
X020324Y010678D02*
X018928Y010678D01*
X018929Y010679D02*
X020323Y010679D01*
X020322Y010680D02*
X018930Y010680D01*
X018931Y010681D02*
X020321Y010681D01*
X020320Y010682D02*
X018932Y010682D01*
X018933Y010683D02*
X020319Y010683D01*
X020318Y010683D02*
X018933Y010683D01*
X018934Y010684D02*
X020317Y010684D01*
X020316Y010685D02*
X018935Y010685D01*
X018936Y010686D02*
X020315Y010686D01*
X020314Y010687D02*
X018937Y010687D01*
X018938Y010688D02*
X020313Y010688D01*
X020312Y010689D02*
X018939Y010689D01*
X018940Y010690D02*
X020311Y010690D01*
X020311Y010691D02*
X018941Y010691D01*
X018942Y010692D02*
X020310Y010692D01*
X020309Y010693D02*
X018943Y010693D01*
X018944Y010694D02*
X020308Y010694D01*
X020307Y010695D02*
X018945Y010695D01*
X018946Y010696D02*
X020306Y010696D01*
X020305Y010697D02*
X018947Y010697D01*
X018948Y010698D02*
X020304Y010698D01*
X020303Y010699D02*
X018949Y010699D01*
X018950Y010700D02*
X020302Y010700D01*
X020301Y010700D02*
X018950Y010700D01*
X018951Y010701D02*
X020300Y010701D01*
X020299Y010702D02*
X018952Y010702D01*
X018953Y010703D02*
X020298Y010703D01*
X020297Y010704D02*
X018954Y010704D01*
X018955Y010705D02*
X020296Y010705D01*
X020295Y010706D02*
X018956Y010706D01*
X018957Y010707D02*
X020294Y010707D01*
X020294Y010708D02*
X018958Y010708D01*
X018959Y010709D02*
X020293Y010709D01*
X020292Y010710D02*
X018960Y010710D01*
X018961Y010711D02*
X020291Y010711D01*
X020290Y010712D02*
X018962Y010712D01*
X018963Y010713D02*
X020289Y010713D01*
X020288Y010714D02*
X018964Y010714D01*
X018965Y010715D02*
X020287Y010715D01*
X020286Y010716D02*
X018966Y010716D01*
X018967Y010717D02*
X020285Y010717D01*
X020284Y010717D02*
X018967Y010717D01*
X018968Y010718D02*
X020283Y010718D01*
X020282Y010719D02*
X018969Y010719D01*
X018970Y010720D02*
X020281Y010720D01*
X020280Y010721D02*
X018971Y010721D01*
X018972Y010722D02*
X020279Y010722D01*
X020278Y010723D02*
X018973Y010723D01*
X018974Y010724D02*
X020277Y010724D01*
X020277Y010725D02*
X018975Y010725D01*
X018976Y010726D02*
X020276Y010726D01*
X020275Y010727D02*
X018977Y010727D01*
X018978Y010728D02*
X020274Y010728D01*
X020273Y010729D02*
X018979Y010729D01*
X018980Y010730D02*
X020272Y010730D01*
X020271Y010731D02*
X018981Y010731D01*
X018982Y010732D02*
X020270Y010732D01*
X020269Y010733D02*
X018983Y010733D01*
X018984Y010734D02*
X020268Y010734D01*
X020267Y010734D02*
X018984Y010734D01*
X018985Y010735D02*
X020266Y010735D01*
X020265Y010736D02*
X018986Y010736D01*
X018987Y010737D02*
X020264Y010737D01*
X020263Y010738D02*
X018988Y010738D01*
X018989Y010739D02*
X020262Y010739D01*
X020261Y010740D02*
X018990Y010740D01*
X018991Y010741D02*
X020260Y010741D01*
X020260Y010742D02*
X018992Y010742D01*
X018993Y010743D02*
X020259Y010743D01*
X020258Y010744D02*
X018994Y010744D01*
X018995Y010745D02*
X020257Y010745D01*
X020256Y010746D02*
X018996Y010746D01*
X018997Y010747D02*
X020255Y010747D01*
X020254Y010748D02*
X018998Y010748D01*
X018999Y010749D02*
X020253Y010749D01*
X020252Y010750D02*
X019000Y010750D01*
X019001Y010751D02*
X020251Y010751D01*
X020250Y010751D02*
X019001Y010751D01*
X019002Y010752D02*
X020249Y010752D01*
X020248Y010753D02*
X019003Y010753D01*
X019004Y010754D02*
X020247Y010754D01*
X020246Y010755D02*
X019005Y010755D01*
X019006Y010756D02*
X020245Y010756D01*
X020244Y010757D02*
X019007Y010757D01*
X019008Y010758D02*
X020243Y010758D01*
X020243Y010759D02*
X019009Y010759D01*
X019010Y010760D02*
X020242Y010760D01*
X020241Y010761D02*
X019011Y010761D01*
X019012Y010762D02*
X020240Y010762D01*
X020239Y010763D02*
X019013Y010763D01*
X019014Y010764D02*
X020238Y010764D01*
X020237Y010765D02*
X019015Y010765D01*
X019016Y010766D02*
X020236Y010766D01*
X020235Y010767D02*
X019017Y010767D01*
X019018Y010768D02*
X020234Y010768D01*
X020233Y010769D02*
X019019Y010769D01*
X020232Y010769D01*
X020231Y010770D02*
X019020Y010770D01*
X019021Y010771D02*
X020230Y010771D01*
X020229Y010772D02*
X019022Y010772D01*
X019023Y010773D02*
X020228Y010773D01*
X020227Y010774D02*
X019024Y010774D01*
X019025Y010775D02*
X020226Y010775D01*
X020226Y010776D02*
X019026Y010776D01*
X019027Y010777D02*
X020225Y010777D01*
X020224Y010778D02*
X019028Y010778D01*
X019029Y010779D02*
X020223Y010779D01*
X020222Y010780D02*
X019030Y010780D01*
X019031Y010781D02*
X020221Y010781D01*
X020220Y010782D02*
X019032Y010782D01*
X019033Y010783D02*
X020219Y010783D01*
X020218Y010784D02*
X019034Y010784D01*
X019035Y010785D02*
X020217Y010785D01*
X020216Y010786D02*
X019036Y010786D01*
X020215Y010786D01*
X020214Y010787D02*
X019037Y010787D01*
X019038Y010788D02*
X020213Y010788D01*
X020212Y010789D02*
X019039Y010789D01*
X019040Y010790D02*
X020211Y010790D01*
X020210Y010791D02*
X019041Y010791D01*
X019042Y010792D02*
X020209Y010792D01*
X020209Y010793D02*
X019043Y010793D01*
X019044Y010794D02*
X020208Y010794D01*
X020207Y010795D02*
X019045Y010795D01*
X019046Y010796D02*
X020206Y010796D01*
X020205Y010797D02*
X019047Y010797D01*
X019048Y010798D02*
X020204Y010798D01*
X020203Y010799D02*
X019049Y010799D01*
X019050Y010800D02*
X020202Y010800D01*
X020201Y010801D02*
X019051Y010801D01*
X019052Y010802D02*
X020200Y010802D01*
X020199Y010803D02*
X019053Y010803D01*
X020198Y010803D01*
X020197Y010804D02*
X019054Y010804D01*
X019055Y010805D02*
X020196Y010805D01*
X020195Y010806D02*
X019056Y010806D01*
X019057Y010807D02*
X020194Y010807D01*
X020193Y010808D02*
X019058Y010808D01*
X019059Y010809D02*
X020192Y010809D01*
X020191Y010810D02*
X019060Y010810D01*
X019061Y010811D02*
X020191Y010811D01*
X020190Y010812D02*
X019062Y010812D01*
X019063Y010813D02*
X020189Y010813D01*
X020188Y010814D02*
X019064Y010814D01*
X019065Y010815D02*
X020187Y010815D01*
X020186Y010816D02*
X019066Y010816D01*
X019067Y010817D02*
X020185Y010817D01*
X020184Y010818D02*
X019068Y010818D01*
X019069Y010819D02*
X020183Y010819D01*
X020182Y010820D02*
X019070Y010820D01*
X020181Y010820D01*
X020180Y010821D02*
X019071Y010821D01*
X019072Y010822D02*
X020179Y010822D01*
X020178Y010823D02*
X019073Y010823D01*
X019074Y010824D02*
X020177Y010824D01*
X020176Y010825D02*
X019075Y010825D01*
X019076Y010826D02*
X020175Y010826D01*
X020174Y010827D02*
X019077Y010827D01*
X019078Y010828D02*
X020174Y010828D01*
X020173Y010829D02*
X019079Y010829D01*
X019080Y010830D02*
X020172Y010830D01*
X020171Y010831D02*
X019081Y010831D01*
X019082Y010832D02*
X020170Y010832D01*
X020169Y010833D02*
X019083Y010833D01*
X019084Y010834D02*
X020168Y010834D01*
X020167Y010835D02*
X019085Y010835D01*
X019086Y010836D02*
X020166Y010836D01*
X020165Y010837D02*
X019087Y010837D01*
X020164Y010837D01*
X020163Y010838D02*
X019088Y010838D01*
X019089Y010839D02*
X020162Y010839D01*
X020161Y010840D02*
X019090Y010840D01*
X019091Y010841D02*
X020160Y010841D01*
X020159Y010842D02*
X019092Y010842D01*
X019093Y010843D02*
X020158Y010843D01*
X020157Y010844D02*
X019094Y010844D01*
X019095Y010845D02*
X020157Y010845D01*
X020156Y010846D02*
X019096Y010846D01*
X019097Y010847D02*
X020155Y010847D01*
X020154Y010848D02*
X019098Y010848D01*
X019099Y010849D02*
X020153Y010849D01*
X020152Y010850D02*
X019100Y010850D01*
X019101Y010851D02*
X020151Y010851D01*
X020150Y010852D02*
X019102Y010852D01*
X019103Y010853D02*
X020149Y010853D01*
X020148Y010854D02*
X019104Y010854D01*
X020147Y010854D01*
X020146Y010855D02*
X019105Y010855D01*
X019106Y010856D02*
X020145Y010856D01*
X020144Y010857D02*
X019107Y010857D01*
X019108Y010858D02*
X020143Y010858D01*
X020142Y010859D02*
X019109Y010859D01*
X019110Y010860D02*
X020141Y010860D01*
X020140Y010861D02*
X019111Y010861D01*
X019112Y010862D02*
X020140Y010862D01*
X020139Y010863D02*
X019113Y010863D01*
X019114Y010864D02*
X020138Y010864D01*
X020137Y010865D02*
X019115Y010865D01*
X019116Y010866D02*
X020136Y010866D01*
X020135Y010867D02*
X019117Y010867D01*
X019118Y010868D02*
X020134Y010868D01*
X020133Y010869D02*
X019119Y010869D01*
X019120Y010870D02*
X020132Y010870D01*
X020131Y010871D02*
X019121Y010871D01*
X020130Y010871D01*
X020129Y010872D02*
X019122Y010872D01*
X019123Y010873D02*
X020128Y010873D01*
X020127Y010874D02*
X019124Y010874D01*
X019125Y010875D02*
X020126Y010875D01*
X020125Y010876D02*
X019126Y010876D01*
X019127Y010877D02*
X020124Y010877D01*
X020123Y010878D02*
X019128Y010878D01*
X019129Y010879D02*
X020123Y010879D01*
X020122Y010880D02*
X019130Y010880D01*
X019131Y010881D02*
X020121Y010881D01*
X020120Y010882D02*
X019132Y010882D01*
X019133Y010883D02*
X020119Y010883D01*
X020118Y010884D02*
X019134Y010884D01*
X019135Y010885D02*
X020117Y010885D01*
X020116Y010886D02*
X019136Y010886D01*
X019137Y010887D02*
X020115Y010887D01*
X020114Y010888D02*
X019138Y010888D01*
X019139Y010889D02*
X020113Y010889D01*
X020112Y010889D02*
X019139Y010889D01*
X019140Y010890D02*
X020111Y010890D01*
X020110Y010891D02*
X019141Y010891D01*
X019142Y010892D02*
X020109Y010892D01*
X020108Y010893D02*
X019143Y010893D01*
X019144Y010894D02*
X020107Y010894D01*
X020106Y010895D02*
X019145Y010895D01*
X019146Y010896D02*
X020106Y010896D01*
X020105Y010897D02*
X019147Y010897D01*
X019148Y010898D02*
X020104Y010898D01*
X020103Y010899D02*
X019149Y010899D01*
X019150Y010900D02*
X020102Y010900D01*
D12*
X016601Y009861D02*
X016601Y009341D01*
X015601Y009341D02*
X015601Y009861D01*
X014601Y009861D02*
X014601Y009341D01*
X013601Y009341D02*
X013601Y009861D01*
X012601Y009861D02*
X012601Y009341D01*
X011601Y009341D02*
X011601Y009861D01*
X010601Y009861D02*
X010601Y009341D01*
X009601Y009341D02*
X009601Y009861D01*
X008601Y009861D02*
X008601Y009341D01*
X007601Y009341D02*
X007601Y009861D01*
X006601Y009861D02*
X006601Y009341D01*
X005601Y009341D02*
X005601Y009861D01*
X004601Y009861D02*
X004601Y009341D01*
X003601Y009341D02*
X003601Y009861D01*
X003601Y012341D02*
X003601Y012861D01*
X004601Y012861D02*
X004601Y012341D01*
X005601Y012341D02*
X005601Y012861D01*
X006601Y012861D02*
X006601Y012341D01*
X007601Y012341D02*
X007601Y012861D01*
X008601Y012861D02*
X008601Y012341D01*
X009601Y012341D02*
X009601Y012861D01*
X010601Y012861D02*
X010601Y012341D01*
X011601Y012341D02*
X011601Y012861D01*
X012601Y012861D02*
X012601Y012341D01*
X013601Y012341D02*
X013601Y012861D01*
X014601Y012861D02*
X014601Y012341D01*
X015601Y012341D02*
X015601Y012861D01*
X016601Y012861D02*
X016601Y012341D01*
X033841Y014601D02*
X034361Y014601D01*
X034361Y015601D02*
X033841Y015601D01*
X033841Y016601D02*
X034361Y016601D01*
D13*
X034101Y011101D03*
X033101Y011101D03*
X033101Y010101D03*
X034101Y010101D03*
X034101Y009101D03*
X033101Y009101D03*
X033101Y008101D03*
X034101Y008101D03*
X034101Y007101D03*
X033101Y007101D03*
X033101Y006101D03*
X034101Y006101D03*
X034101Y005101D03*
X034101Y004101D03*
X033101Y004101D03*
X033101Y005101D03*
D14*
X007601Y002201D02*
X007601Y001601D01*
X006601Y001601D02*
X006601Y002201D01*
X005601Y002201D02*
X005601Y001601D01*
X004601Y001601D02*
X004601Y002201D01*
X003601Y002201D02*
X003601Y001601D01*
X002601Y001601D02*
X002601Y002201D01*
X001601Y002201D02*
X001601Y001601D01*
X001901Y022601D02*
X001301Y022601D01*
X001301Y023601D02*
X001901Y023601D01*
X001901Y024601D02*
X001301Y024601D01*
D15*
X001601Y020101D03*
X002601Y020101D03*
X001601Y018101D03*
X001601Y014101D03*
X001601Y013101D03*
X001601Y009101D03*
X001601Y008101D03*
X002601Y008101D03*
X003601Y008101D03*
X003601Y004101D03*
X002601Y004101D03*
X001601Y004101D03*
X014101Y002601D03*
X015601Y002601D03*
X017601Y002101D03*
X021601Y002101D03*
X015601Y006601D03*
X014101Y006601D03*
X021101Y011101D03*
X021101Y012701D03*
X021101Y015601D03*
X025101Y015601D03*
X028601Y015601D03*
X025101Y012701D03*
X025101Y011101D03*
X032601Y015601D03*
X026601Y019601D03*
X026601Y020601D03*
X022601Y020601D03*
X022601Y019601D03*
X021101Y021101D03*
X021851Y021601D03*
X021101Y022101D03*
X014101Y021601D03*
X014101Y020601D03*
X010101Y020601D03*
X010101Y021601D03*
D16*
X011601Y016601D03*
X012601Y016601D03*
D17*
X020101Y006601D03*
X016601Y001951D03*
X014901Y001951D03*
X010782Y005101D03*
X008813Y005101D03*
D18*
X017101Y006601D03*
X018101Y006601D03*
X019101Y006601D03*
X019101Y007601D03*
X020101Y007601D03*
X020101Y003601D03*
X019101Y003601D03*
X018101Y003601D03*
X017101Y003601D03*
X030601Y025117D03*
X030601Y027085D03*
D19*
X030087Y005101D03*
X022115Y005101D03*
D20*
X033101Y020101D03*
X033101Y021101D03*
X026601Y022801D03*
X026601Y023801D03*
X005601Y023601D03*
X005601Y024601D03*
D21*
X003601Y016101D03*
D22*
X004601Y016101D03*
X005601Y016101D03*
X006601Y016101D03*
X007601Y016101D03*
D23*
X030601Y019601D03*
X030601Y023601D03*
D24*
X015601Y026101D03*
X015601Y028101D03*
D25*
X014569Y024101D03*
X016931Y024101D03*
X010632Y024101D03*
X008270Y024101D03*
D26*
X018276Y022498D02*
X018926Y022498D01*
X018926Y021601D02*
X018276Y021601D01*
X018276Y020703D02*
X018926Y020703D01*
D27*
X018077Y027912D03*
X021030Y027912D03*
X024577Y027912D03*
X027530Y027912D03*
X013030Y027912D03*
X010077Y027912D03*
X005030Y027912D03*
X002077Y027912D03*
D28*
X007601Y027601D03*
D29*
X033101Y025931D02*
X033851Y025931D01*
X034601Y025261D02*
X035351Y025261D01*
X033851Y024611D02*
X033101Y024611D01*
X034601Y023921D02*
X035351Y023921D01*
X035351Y026601D02*
X034601Y026601D01*
M02*
