%
M48
M72
T01C0.0300
T02C0.0315
T03C0.0320
T04C0.0360
T05C0.0400
T06C0.0440
T07C0.0500
T08C0.0512
T09C0.0551
T10C0.0787
T11C0.0866
%
T01
X9776Y10605
X12776Y15605
X15776Y10605
X17276Y10605
X17276Y3605
X16276Y2605
X17276Y1605
X4776Y16605
T02
X2398Y15105
X1276Y14105
X2398Y13105
X13792Y15105
X15760Y15105
T03
X11276Y13605
X10276Y13605
X8276Y12605
X7276Y14105
X6776Y15605
X5776Y15605
X4276Y14105
X3776Y15105
X3776Y17105
X3776Y18605
X4526Y19105
X3776Y19605
X5776Y19605
X6776Y19605
X4276Y12605
X8776Y10605
X8776Y9605
X8776Y8605
X8776Y7105
X8776Y3105
T04
X9926Y15505
X9926Y19505
T05
X2276Y3105
X1776Y17705
X1776Y18605
X1776Y19505
T06
X7276Y10605
X7276Y6605
X12776Y13105
X16776Y13105
T07
X15266Y17855
X15956Y18605
X14616Y18605
X13946Y17855
X13276Y18605
T08
X19587Y18628
X19587Y15676
X19587Y12128
X19587Y9176
X19587Y5628
X19587Y2676
X1965Y8081
X1965Y11034
T09
X11398Y11317
X14351Y11317
X14351Y5412
X14351Y3443
X14351Y1475
X11398Y1475
X11398Y3443
X11398Y5412
T10
X5276Y4636
T11
X5276Y2274
X5276Y8573
X5276Y10935
M30
