G75*
G70*
%OFA0B0*%
%FSLAX24Y24*%
%IPPOS*%
%LPD*%
%AMOC8*
5,1,8,0,0,1.08239X$1,22.5*
%
%ADD10C,0.0000*%
%ADD11C,0.0090*%
%ADD12C,0.0520*%
%ADD13OC8,0.0520*%
%ADD14OC8,0.0768*%
%ADD15OC8,0.0600*%
%ADD16C,0.1500*%
%ADD17C,0.0660*%
%ADD18R,0.0827X0.0827*%
%ADD19OC8,0.0630*%
%ADD20C,0.0560*%
%ADD21OC8,0.0560*%
%ADD22C,0.0515*%
%ADD23C,0.0750*%
%ADD24C,0.0600*%
%ADD25C,0.0520*%
%ADD26C,0.0150*%
%ADD27C,0.0120*%
%ADD28C,0.0460*%
%ADD29C,0.0540*%
%ADD30C,0.0300*%
D10*
X000776Y000605D02*
X000776Y020290D01*
X020461Y020290D01*
X020461Y000605D01*
X000776Y000605D01*
D11*
X019271Y003522D02*
X019271Y003659D01*
X019271Y003590D02*
X019681Y003590D01*
X019681Y003522D02*
X019681Y003659D01*
X019681Y003829D02*
X019271Y004102D01*
X019681Y004102D01*
X019681Y004289D02*
X019408Y004289D01*
X019271Y004426D01*
X019408Y004563D01*
X019681Y004563D01*
X019681Y003829D02*
X019271Y003829D01*
X019271Y010019D02*
X019681Y010019D01*
X019681Y010292D01*
X019545Y010479D02*
X019681Y010616D01*
X019545Y010752D01*
X019271Y010752D01*
X019271Y010939D02*
X019681Y010939D01*
X019271Y011213D01*
X019681Y011213D01*
X019476Y010752D02*
X019476Y010479D01*
X019545Y010479D02*
X019271Y010479D01*
X019476Y010155D02*
X019476Y010019D01*
X019389Y016569D02*
X019321Y016637D01*
X019321Y016774D01*
X019389Y016842D01*
X019731Y016842D01*
X019663Y017029D02*
X019595Y017029D01*
X019526Y017097D01*
X019526Y017234D01*
X019458Y017302D01*
X019389Y017302D01*
X019321Y017234D01*
X019321Y017097D01*
X019389Y017029D01*
X019663Y017029D02*
X019731Y017097D01*
X019731Y017234D01*
X019663Y017302D01*
X019731Y017489D02*
X019731Y017694D01*
X019663Y017763D01*
X019595Y017763D01*
X019526Y017694D01*
X019526Y017489D01*
X019321Y017489D02*
X019321Y017694D01*
X019389Y017763D01*
X019458Y017763D01*
X019526Y017694D01*
X019321Y017489D02*
X019731Y017489D01*
X019731Y016569D02*
X019389Y016569D01*
D12*
X009036Y010605D02*
X008516Y010605D01*
X008516Y009605D02*
X009036Y009605D01*
X009036Y008605D02*
X008516Y008605D01*
D13*
X008776Y007105D03*
X008776Y003105D03*
X008276Y012605D03*
X007276Y014105D03*
X006776Y015605D03*
X005776Y015605D03*
X004276Y014105D03*
X003776Y015105D03*
X004276Y012605D03*
X003776Y018605D03*
X004526Y019105D03*
X003776Y019605D03*
X005776Y019605D03*
X006776Y019605D03*
D14*
X001965Y011034D03*
X001965Y008081D03*
X019587Y009176D03*
X019587Y012128D03*
X019587Y015676D03*
X019587Y018628D03*
X019587Y005628D03*
X019587Y002676D03*
D15*
X002276Y003105D03*
D16*
X005276Y002274D03*
X005276Y004636D03*
X005276Y008573D03*
X005276Y010935D03*
D17*
X007276Y010605D03*
X007276Y006605D03*
X012776Y013105D03*
X016776Y013105D03*
D18*
X014351Y011317D03*
X011398Y011317D03*
X011398Y005412D03*
X011398Y003443D03*
X011398Y001475D03*
X014351Y001475D03*
X014351Y003443D03*
X014351Y005412D03*
D19*
X011276Y013605D03*
X010276Y013605D03*
D20*
X009926Y015505D03*
D21*
X009926Y019505D03*
D22*
X013792Y015105D03*
X015760Y015105D03*
X002398Y015105D03*
X001276Y014105D03*
X002398Y013105D03*
D23*
X013276Y018605D02*
X013276Y019355D01*
X014616Y019355D02*
X014616Y018605D01*
X013946Y017855D02*
X013946Y017105D01*
X015266Y017105D02*
X015266Y017855D01*
X015956Y018605D02*
X015956Y019355D01*
D24*
X002076Y019505D02*
X001476Y019505D01*
X001476Y018605D02*
X002076Y018605D01*
X002076Y017705D02*
X001476Y017705D01*
D25*
X003776Y017105D03*
D26*
X002276Y018605D01*
X001776Y018605D01*
X003276Y017105D02*
X003776Y017105D01*
X003276Y017105D02*
X002776Y016605D01*
X003776Y015605D01*
X004776Y015605D01*
X005276Y016105D01*
X008276Y016105D01*
X008276Y014105D01*
X009776Y012605D01*
X011276Y012605D01*
X014276Y009605D01*
X017276Y009605D01*
X019776Y012105D01*
X019587Y012128D01*
X019587Y009176D02*
X019276Y009105D01*
X011276Y009105D01*
X009776Y010605D01*
X009276Y011105D02*
X011276Y011105D01*
X011398Y011317D01*
X009276Y011105D02*
X008776Y010605D01*
X008776Y009605D02*
X008276Y009605D01*
X007776Y009105D01*
X007776Y008105D01*
X008776Y007105D01*
X004276Y011605D02*
X005276Y012605D01*
X008276Y012605D01*
X006776Y015605D02*
X005776Y015605D01*
X005276Y015605D01*
X004776Y015105D01*
X003776Y015105D01*
X002776Y016605D02*
X001276Y016605D01*
X001276Y014105D01*
X002276Y013105D02*
X002398Y013105D01*
X002276Y013105D02*
X003776Y011605D01*
X004276Y011605D01*
X003776Y018605D02*
X005276Y018605D01*
X005776Y019105D01*
X005776Y019605D01*
X012776Y015605D02*
X013276Y015105D01*
X013792Y015105D01*
D27*
X014378Y015304D02*
X015175Y015304D01*
X015143Y015228D02*
X015143Y014982D01*
X015237Y014755D01*
X015411Y014581D01*
X015637Y014487D01*
X015883Y014487D01*
X016110Y014581D01*
X016284Y014755D01*
X016378Y014982D01*
X016378Y014985D01*
X017208Y015816D01*
X018916Y017524D01*
X018916Y017409D01*
X018936Y017362D01*
X018916Y017315D01*
X018916Y017178D01*
X018916Y017017D01*
X018950Y016936D01*
X018916Y016854D01*
X018916Y016693D01*
X018916Y016556D01*
X018978Y016408D01*
X019092Y016294D01*
X019160Y016225D01*
X019307Y016164D01*
X019043Y015901D01*
X019043Y015736D01*
X019527Y015736D01*
X019527Y015616D01*
X019043Y015616D01*
X019043Y015450D01*
X019362Y015132D01*
X019527Y015132D01*
X019527Y015615D01*
X019647Y015615D01*
X019647Y015132D01*
X019812Y015132D01*
X020001Y015321D01*
X020001Y012766D01*
X019895Y012872D01*
X019279Y012872D01*
X018843Y012436D01*
X018843Y011820D01*
X018860Y011804D01*
X017871Y010815D01*
X017810Y010962D01*
X014310Y014462D01*
X014166Y014606D01*
X014315Y014755D01*
X014409Y014982D01*
X014409Y015228D01*
X014315Y015454D01*
X014175Y015595D01*
X014675Y015595D01*
X014878Y015595D01*
X015065Y015672D01*
X015565Y016172D01*
X015708Y016316D01*
X015748Y016412D01*
X016055Y016105D01*
X015672Y015722D01*
X015637Y015722D01*
X015411Y015628D01*
X015237Y015454D01*
X015143Y015228D01*
X015143Y015186D02*
X014409Y015186D01*
X014409Y015067D02*
X015143Y015067D01*
X015157Y014948D02*
X014395Y014948D01*
X014346Y014830D02*
X015206Y014830D01*
X015280Y014711D02*
X014272Y014711D01*
X014179Y014593D02*
X015399Y014593D01*
X014772Y014000D02*
X020001Y014000D01*
X020001Y013882D02*
X014890Y013882D01*
X015009Y013763D02*
X020001Y013763D01*
X020001Y013644D02*
X015127Y013644D01*
X015246Y013526D02*
X016524Y013526D01*
X016519Y013524D02*
X016457Y013478D01*
X016402Y013424D01*
X016357Y013362D01*
X016322Y013293D01*
X016298Y013219D01*
X016288Y013155D01*
X016726Y013155D01*
X016726Y013593D01*
X016661Y013583D01*
X016588Y013559D01*
X016519Y013524D01*
X016390Y013407D02*
X015364Y013407D01*
X015483Y013289D02*
X016321Y013289D01*
X016290Y013170D02*
X015601Y013170D01*
X015720Y013052D02*
X016288Y013052D01*
X016288Y013055D02*
X016298Y012990D01*
X016322Y012917D01*
X016357Y012848D01*
X016402Y012786D01*
X016457Y012731D01*
X016519Y012686D01*
X016588Y012651D01*
X016661Y012627D01*
X016726Y012617D01*
X016726Y013054D01*
X016826Y013054D01*
X016826Y012617D01*
X016891Y012627D01*
X016964Y012651D01*
X017033Y012686D01*
X017095Y012731D01*
X017150Y012786D01*
X017195Y012848D01*
X017230Y012917D01*
X017254Y012990D01*
X017264Y013055D01*
X016826Y013055D01*
X016826Y013155D01*
X016726Y013155D01*
X016726Y013055D01*
X016288Y013055D01*
X016317Y012933D02*
X015838Y012933D01*
X015957Y012815D02*
X016381Y012815D01*
X016505Y012696D02*
X016076Y012696D01*
X016194Y012578D02*
X018984Y012578D01*
X018866Y012459D02*
X016313Y012459D01*
X016431Y012341D02*
X018843Y012341D01*
X018843Y012222D02*
X016550Y012222D01*
X016668Y012103D02*
X018843Y012103D01*
X018843Y011985D02*
X016787Y011985D01*
X016905Y011866D02*
X018843Y011866D01*
X018804Y011748D02*
X017024Y011748D01*
X017142Y011629D02*
X018685Y011629D01*
X018567Y011511D02*
X017261Y011511D01*
X017380Y011392D02*
X018448Y011392D01*
X018330Y011274D02*
X017498Y011274D01*
X017617Y011155D02*
X018211Y011155D01*
X018093Y011037D02*
X017735Y011037D01*
X017828Y010918D02*
X017974Y010918D01*
X017047Y012696D02*
X019103Y012696D01*
X019221Y012815D02*
X017171Y012815D01*
X017236Y012933D02*
X020001Y012933D01*
X020001Y012815D02*
X019953Y012815D01*
X020001Y013052D02*
X017264Y013052D01*
X017264Y013155D02*
X017254Y013219D01*
X017230Y013293D01*
X017195Y013362D01*
X017150Y013424D01*
X017095Y013478D01*
X017033Y013524D01*
X016964Y013559D01*
X016891Y013583D01*
X016826Y013593D01*
X016826Y013155D01*
X017264Y013155D01*
X017262Y013170D02*
X020001Y013170D01*
X020001Y013289D02*
X017231Y013289D01*
X017162Y013407D02*
X020001Y013407D01*
X020001Y013526D02*
X017029Y013526D01*
X016826Y013526D02*
X016726Y013526D01*
X016726Y013407D02*
X016826Y013407D01*
X016826Y013289D02*
X016726Y013289D01*
X016726Y013170D02*
X016826Y013170D01*
X016826Y013052D02*
X016726Y013052D01*
X016726Y012933D02*
X016826Y012933D01*
X016826Y012815D02*
X016726Y012815D01*
X016726Y012696D02*
X016826Y012696D01*
X016122Y014593D02*
X020001Y014593D01*
X020001Y014711D02*
X016240Y014711D01*
X016315Y014830D02*
X020001Y014830D01*
X020001Y014948D02*
X016364Y014948D01*
X016460Y015067D02*
X020001Y015067D01*
X020001Y015186D02*
X019866Y015186D01*
X019985Y015304D02*
X020001Y015304D01*
X019647Y015304D02*
X019527Y015304D01*
X019527Y015186D02*
X019647Y015186D01*
X019647Y015423D02*
X019527Y015423D01*
X019527Y015541D02*
X019647Y015541D01*
X019527Y015660D02*
X017052Y015660D01*
X016934Y015541D02*
X019043Y015541D01*
X019071Y015423D02*
X016815Y015423D01*
X016697Y015304D02*
X019189Y015304D01*
X019308Y015186D02*
X016578Y015186D01*
X017171Y015778D02*
X019043Y015778D01*
X019043Y015897D02*
X017289Y015897D01*
X017408Y016015D02*
X019158Y016015D01*
X019276Y016134D02*
X017526Y016134D01*
X017645Y016252D02*
X019133Y016252D01*
X019014Y016371D02*
X017764Y016371D01*
X017882Y016490D02*
X018944Y016490D01*
X018916Y016608D02*
X018001Y016608D01*
X018119Y016727D02*
X018916Y016727D01*
X018916Y016845D02*
X018238Y016845D01*
X018356Y016964D02*
X018938Y016964D01*
X018916Y017082D02*
X018475Y017082D01*
X018593Y017201D02*
X018916Y017201D01*
X018918Y017319D02*
X018712Y017319D01*
X018830Y017438D02*
X018916Y017438D01*
X018099Y018149D02*
X016239Y018149D01*
X016236Y018147D02*
X016305Y018197D01*
X016364Y018256D01*
X016414Y018324D01*
X016452Y018399D01*
X016478Y018479D01*
X016488Y018545D01*
X016016Y018545D01*
X016016Y018665D01*
X016491Y018665D01*
X016491Y019397D01*
X016478Y019480D01*
X016452Y019560D01*
X016414Y019635D01*
X016364Y019703D01*
X016305Y019763D01*
X016236Y019812D01*
X016202Y019830D01*
X020001Y019830D01*
X020001Y019266D01*
X019895Y019372D01*
X019279Y019372D01*
X018843Y018936D01*
X018843Y018893D01*
X016776Y016826D01*
X016208Y017394D01*
X016065Y017537D01*
X016001Y017564D01*
X016001Y018001D01*
X015896Y018254D01*
X015896Y018545D01*
X015521Y018545D01*
X015412Y018590D01*
X015120Y018590D01*
X015011Y018545D01*
X014676Y018545D01*
X014676Y018665D01*
X015151Y018665D01*
X015151Y019397D01*
X015138Y019480D01*
X015112Y019560D01*
X015074Y019635D01*
X015024Y019703D01*
X014965Y019763D01*
X014896Y019812D01*
X014862Y019830D01*
X015710Y019830D01*
X015676Y019812D01*
X015608Y019763D01*
X015548Y019703D01*
X015499Y019635D01*
X015460Y019560D01*
X015434Y019480D01*
X015421Y019397D01*
X015421Y018665D01*
X015896Y018665D01*
X015896Y018545D01*
X016016Y018545D01*
X016016Y018073D01*
X016081Y018083D01*
X016161Y018109D01*
X016236Y018147D01*
X016372Y018268D02*
X018218Y018268D01*
X018336Y018386D02*
X016445Y018386D01*
X016482Y018505D02*
X018455Y018505D01*
X018573Y018623D02*
X016016Y018623D01*
X016016Y018505D02*
X015896Y018505D01*
X015896Y018623D02*
X014676Y018623D01*
X014556Y018623D02*
X014011Y018623D01*
X014011Y018590D02*
X014011Y019501D01*
X013899Y019771D01*
X013840Y019830D01*
X014370Y019830D01*
X014336Y019812D01*
X014268Y019763D01*
X014208Y019703D01*
X014159Y019635D01*
X014120Y019560D01*
X014094Y019480D01*
X014081Y019397D01*
X014081Y018665D01*
X014556Y018665D01*
X014556Y018545D01*
X014201Y018545D01*
X014092Y018590D01*
X014011Y018590D01*
X014011Y018742D02*
X014081Y018742D01*
X014081Y018860D02*
X014011Y018860D01*
X014011Y018979D02*
X014081Y018979D01*
X014081Y019097D02*
X014011Y019097D01*
X014011Y019216D02*
X014081Y019216D01*
X014081Y019335D02*
X014011Y019335D01*
X014011Y019453D02*
X014090Y019453D01*
X014126Y019572D02*
X013982Y019572D01*
X013933Y019690D02*
X014199Y019690D01*
X014331Y019809D02*
X013861Y019809D01*
X014901Y019809D02*
X015671Y019809D01*
X015539Y019690D02*
X015034Y019690D01*
X015106Y019572D02*
X015466Y019572D01*
X015430Y019453D02*
X015142Y019453D01*
X015151Y019335D02*
X015421Y019335D01*
X015421Y019216D02*
X015151Y019216D01*
X015151Y019097D02*
X015421Y019097D01*
X015421Y018979D02*
X015151Y018979D01*
X015151Y018860D02*
X015421Y018860D01*
X015421Y018742D02*
X015151Y018742D01*
X015896Y018386D02*
X016016Y018386D01*
X016016Y018268D02*
X015896Y018268D01*
X015940Y018149D02*
X016016Y018149D01*
X015989Y018031D02*
X017981Y018031D01*
X017862Y017912D02*
X016001Y017912D01*
X016001Y017794D02*
X017744Y017794D01*
X017625Y017675D02*
X016001Y017675D01*
X016018Y017556D02*
X017507Y017556D01*
X017388Y017438D02*
X016164Y017438D01*
X016283Y017319D02*
X017269Y017319D01*
X017151Y017201D02*
X016401Y017201D01*
X016520Y017082D02*
X017032Y017082D01*
X016914Y016964D02*
X016638Y016964D01*
X016757Y016845D02*
X016795Y016845D01*
X016026Y016134D02*
X015526Y016134D01*
X015408Y016015D02*
X015965Y016015D01*
X015847Y015897D02*
X015289Y015897D01*
X015171Y015778D02*
X015728Y015778D01*
X015487Y015660D02*
X015034Y015660D01*
X015224Y015423D02*
X014328Y015423D01*
X014229Y015541D02*
X015324Y015541D01*
X015645Y016252D02*
X015907Y016252D01*
X015789Y016371D02*
X015731Y016371D01*
X014297Y014474D02*
X020001Y014474D01*
X020001Y014356D02*
X014416Y014356D01*
X014534Y014237D02*
X020001Y014237D01*
X020001Y014119D02*
X014653Y014119D01*
X013033Y014735D02*
X011901Y014735D01*
X011651Y014735D01*
X011419Y014639D01*
X011060Y014280D01*
X010996Y014280D01*
X010635Y013918D01*
X010473Y014080D01*
X010296Y014080D01*
X010296Y013625D01*
X010256Y013625D01*
X010256Y014080D01*
X010079Y014080D01*
X009801Y013801D01*
X009801Y013625D01*
X010256Y013625D01*
X010256Y013585D01*
X009801Y013585D01*
X009801Y013408D01*
X010079Y013130D01*
X010256Y013130D01*
X010256Y013584D01*
X010296Y013584D01*
X010296Y013130D01*
X010473Y013130D01*
X010635Y013292D01*
X010887Y013040D01*
X009956Y013040D01*
X008711Y014285D01*
X008711Y016018D01*
X008711Y016191D01*
X008645Y016351D01*
X008522Y016473D01*
X008363Y016540D01*
X005602Y016540D01*
X006537Y017475D01*
X011151Y017475D01*
X011401Y017475D01*
X011633Y017571D01*
X012526Y018464D01*
X012548Y018442D01*
X012653Y018188D01*
X012860Y017982D01*
X013130Y017870D01*
X013211Y017870D01*
X013211Y017115D01*
X013175Y017115D01*
X010175Y017115D01*
X009987Y017037D01*
X009844Y016894D01*
X009344Y016394D01*
X009266Y016206D01*
X009266Y016003D01*
X009266Y015655D01*
X009256Y015604D01*
X009266Y015554D01*
X009266Y015503D01*
X009286Y015456D01*
X009286Y015454D01*
X009286Y015377D01*
X009384Y015142D01*
X009564Y014962D01*
X009799Y014865D01*
X010053Y014865D01*
X010289Y014962D01*
X010469Y015142D01*
X010566Y015377D01*
X010566Y015632D01*
X010469Y015867D01*
X010364Y015972D01*
X010487Y016095D01*
X012432Y016095D01*
X012276Y015939D01*
X012186Y015722D01*
X012186Y015487D01*
X012276Y015271D01*
X012442Y015105D01*
X012659Y015015D01*
X012751Y015015D01*
X012907Y014858D01*
X013030Y014736D01*
X013033Y014735D01*
X012936Y014830D02*
X008711Y014830D01*
X008711Y014948D02*
X009597Y014948D01*
X009459Y015067D02*
X008711Y015067D01*
X008711Y015186D02*
X009366Y015186D01*
X009316Y015304D02*
X008711Y015304D01*
X008711Y015423D02*
X009286Y015423D01*
X009266Y015541D02*
X008711Y015541D01*
X008711Y015660D02*
X009266Y015660D01*
X009266Y015778D02*
X008711Y015778D01*
X008711Y015897D02*
X009266Y015897D01*
X009266Y016015D02*
X008711Y016015D01*
X008711Y016134D02*
X009266Y016134D01*
X009285Y016252D02*
X008686Y016252D01*
X008625Y016371D02*
X009334Y016371D01*
X009440Y016490D02*
X008484Y016490D01*
X007841Y015670D02*
X007841Y014416D01*
X007533Y014725D01*
X007019Y014725D01*
X006656Y014361D01*
X006656Y013848D01*
X007019Y013485D01*
X007533Y013485D01*
X007896Y013848D01*
X007896Y013886D01*
X007907Y013858D01*
X008030Y013736D01*
X009530Y012236D01*
X009689Y012170D01*
X009863Y012170D01*
X011096Y012170D01*
X011175Y012091D01*
X010913Y012091D01*
X010781Y012036D01*
X010680Y011935D01*
X010625Y011802D01*
X010625Y011540D01*
X009189Y011540D01*
X009030Y011473D01*
X008907Y011351D01*
X008781Y011225D01*
X008393Y011225D01*
X008165Y011130D01*
X007990Y010956D01*
X007934Y010819D01*
X007861Y010996D01*
X007667Y011190D01*
X007413Y011295D01*
X007139Y011295D01*
X006885Y011190D01*
X006691Y010996D01*
X006586Y010742D01*
X006586Y010467D01*
X006691Y010214D01*
X006885Y010020D01*
X007139Y009915D01*
X007413Y009915D01*
X007667Y010020D01*
X007861Y010214D01*
X007934Y010390D01*
X007990Y010254D01*
X008139Y010105D01*
X007990Y009956D01*
X007975Y009919D01*
X007907Y009851D01*
X005906Y009851D01*
X005906Y009733D02*
X007789Y009733D01*
X007907Y009851D02*
X007407Y009351D01*
X007341Y009191D01*
X007341Y009018D01*
X007341Y008018D01*
X007407Y007858D01*
X007530Y007736D01*
X008156Y007110D01*
X008156Y006848D01*
X008519Y006485D01*
X009033Y006485D01*
X009396Y006848D01*
X009396Y007361D01*
X009033Y007725D01*
X008771Y007725D01*
X008211Y008285D01*
X008211Y008316D01*
X008242Y008284D01*
X008296Y008246D01*
X008355Y008216D01*
X008418Y008195D01*
X008483Y008185D01*
X008756Y008185D01*
X008756Y008584D01*
X008796Y008584D01*
X008796Y008185D01*
X009069Y008185D01*
X009134Y008195D01*
X009197Y008216D01*
X009256Y008246D01*
X009310Y008284D01*
X009356Y008331D01*
X009395Y008385D01*
X009425Y008443D01*
X009446Y008506D01*
X009456Y008572D01*
X009456Y008585D01*
X008796Y008585D01*
X008796Y008625D01*
X009456Y008625D01*
X009456Y008638D01*
X009446Y008703D01*
X009425Y008766D01*
X009395Y008825D01*
X009356Y008878D01*
X009310Y008925D01*
X009256Y008964D01*
X009197Y008994D01*
X009188Y008997D01*
X009387Y009079D01*
X009562Y009254D01*
X009656Y009481D01*
X009656Y009728D01*
X009562Y009956D01*
X009413Y010105D01*
X009427Y010119D01*
X009442Y010105D01*
X009659Y010015D01*
X009751Y010015D01*
X011030Y008736D01*
X011189Y008670D01*
X011363Y008670D01*
X019041Y008670D01*
X019279Y008432D01*
X019895Y008432D01*
X020001Y008538D01*
X020001Y006266D01*
X019895Y006372D01*
X019279Y006372D01*
X019135Y006228D01*
X019128Y006225D01*
X019103Y006223D01*
X019013Y006178D01*
X018919Y006139D01*
X018902Y006121D01*
X018880Y006110D01*
X018814Y006033D01*
X017015Y004235D01*
X014401Y004235D01*
X014388Y004235D01*
X014375Y004239D01*
X014263Y004235D01*
X011898Y004235D01*
X011894Y004236D01*
X011773Y004235D01*
X011651Y004235D01*
X011647Y004233D01*
X011644Y004233D01*
X011605Y004217D01*
X010913Y004217D01*
X010781Y004162D01*
X010680Y004061D01*
X010625Y003928D01*
X010625Y002958D01*
X010680Y002826D01*
X010781Y002725D01*
X010913Y002670D01*
X011883Y002670D01*
X012015Y002725D01*
X012117Y002826D01*
X012171Y002958D01*
X012171Y002975D01*
X013577Y002975D01*
X013577Y002958D01*
X013632Y002826D01*
X013734Y002725D01*
X013866Y002670D01*
X014836Y002670D01*
X014968Y002725D01*
X015069Y002826D01*
X015124Y002958D01*
X015124Y002975D01*
X015755Y002975D01*
X015015Y002235D01*
X014868Y002235D01*
X014836Y002248D01*
X013866Y002248D01*
X013833Y002235D01*
X011916Y002235D01*
X011883Y002248D01*
X010913Y002248D01*
X010881Y002235D01*
X010406Y002235D01*
X010406Y004230D01*
X010310Y004462D01*
X010133Y004639D01*
X007921Y006851D01*
X007861Y006996D01*
X007667Y007190D01*
X007522Y007250D01*
X006377Y008394D01*
X006386Y008427D01*
X006386Y008719D01*
X006310Y009002D01*
X006164Y009255D01*
X005958Y009461D01*
X005906Y009491D01*
X005906Y010017D01*
X005958Y010047D01*
X006164Y010254D01*
X006310Y010507D01*
X006386Y010789D01*
X006386Y011082D01*
X006310Y011364D01*
X006164Y011617D01*
X005958Y011824D01*
X005704Y011970D01*
X005422Y012045D01*
X005332Y012045D01*
X005456Y012170D01*
X007834Y012170D01*
X008019Y011985D01*
X005648Y011985D01*
X005884Y011866D02*
X010651Y011866D01*
X010625Y011748D02*
X006033Y011748D01*
X006152Y011629D02*
X010625Y011629D01*
X010730Y011985D02*
X008533Y011985D01*
X008896Y012348D01*
X008896Y012861D01*
X008533Y013225D01*
X008019Y013225D01*
X007834Y013040D01*
X005189Y013040D01*
X005030Y012973D01*
X004907Y012851D01*
X004896Y012840D01*
X004896Y012861D01*
X004533Y013225D01*
X004019Y013225D01*
X003656Y012861D01*
X003656Y012348D01*
X003964Y012040D01*
X003956Y012040D01*
X003015Y012981D01*
X003016Y012982D01*
X003016Y013228D01*
X002922Y013454D01*
X002748Y013628D01*
X002521Y013722D01*
X002275Y013722D01*
X002048Y013628D01*
X001875Y013454D01*
X001781Y013228D01*
X001781Y012982D01*
X001875Y012755D01*
X002048Y012581D01*
X002275Y012487D01*
X002278Y012487D01*
X003530Y011236D01*
X003689Y011170D01*
X003863Y011170D01*
X004189Y011170D01*
X004190Y011170D01*
X004166Y011082D01*
X004166Y010789D01*
X004242Y010507D01*
X004388Y010254D01*
X004594Y010047D01*
X004646Y010017D01*
X004646Y009491D01*
X004594Y009461D01*
X004388Y009255D01*
X004242Y009002D01*
X004166Y008719D01*
X004166Y008427D01*
X004242Y008145D01*
X004388Y007892D01*
X004594Y007685D01*
X004848Y007539D01*
X005130Y007463D01*
X005422Y007463D01*
X005465Y007475D01*
X005515Y007475D01*
X006631Y006359D01*
X006691Y006214D01*
X006885Y006020D01*
X007030Y005960D01*
X009146Y003844D01*
X009146Y003611D01*
X009033Y003725D01*
X008519Y003725D01*
X008156Y003361D01*
X008156Y002848D01*
X008519Y002485D01*
X009033Y002485D01*
X009146Y002598D01*
X009146Y001730D01*
X009146Y001479D01*
X009242Y001248D01*
X009419Y001071D01*
X009434Y001065D01*
X001236Y001065D01*
X001236Y007758D01*
X001657Y007337D01*
X002153Y007337D01*
X002646Y006844D01*
X002646Y003979D01*
X002742Y003748D01*
X002919Y003571D01*
X004166Y002324D01*
X004166Y002128D01*
X004242Y001846D01*
X004388Y001592D01*
X004594Y001386D01*
X004848Y001240D01*
X005130Y001164D01*
X005422Y001164D01*
X005704Y001240D01*
X005958Y001386D01*
X006164Y001592D01*
X006310Y001846D01*
X006386Y002128D01*
X006386Y002420D01*
X006310Y002702D01*
X006164Y002956D01*
X005958Y003162D01*
X005704Y003308D01*
X005422Y003384D01*
X005130Y003384D01*
X004939Y003333D01*
X003906Y004366D01*
X003906Y005584D01*
X004309Y005181D01*
X004242Y005065D01*
X004166Y004782D01*
X004166Y004490D01*
X004242Y004208D01*
X004388Y003955D01*
X004594Y003748D01*
X004848Y003602D01*
X005130Y003526D01*
X005422Y003526D01*
X005704Y003602D01*
X005958Y003748D01*
X006164Y003955D01*
X006310Y004208D01*
X006386Y004490D01*
X006386Y004782D01*
X006310Y005065D01*
X006164Y005318D01*
X005958Y005524D01*
X005704Y005671D01*
X005563Y005708D01*
X003810Y007462D01*
X003633Y007639D01*
X002793Y008479D01*
X002782Y008501D01*
X002705Y008567D01*
X002633Y008639D01*
X002610Y008648D01*
X002591Y008664D01*
X002495Y008696D01*
X002401Y008735D01*
X002377Y008735D01*
X002357Y008741D01*
X002273Y008825D01*
X001657Y008825D01*
X001236Y008404D01*
X001236Y013487D01*
X001399Y013487D01*
X001626Y013581D01*
X001799Y013755D01*
X001894Y013982D01*
X001894Y014228D01*
X001799Y014454D01*
X001711Y014543D01*
X001711Y016170D01*
X002596Y016170D01*
X003280Y015486D01*
X003156Y015361D01*
X003156Y014848D01*
X003519Y014485D01*
X003779Y014485D01*
X003656Y014361D01*
X003656Y013848D01*
X004019Y013485D01*
X004533Y013485D01*
X004896Y013848D01*
X004896Y014361D01*
X004588Y014670D01*
X004689Y014670D01*
X004863Y014670D01*
X005022Y014736D01*
X005395Y015109D01*
X005519Y014985D01*
X006033Y014985D01*
X006218Y015170D01*
X006334Y015170D01*
X006519Y014985D01*
X007033Y014985D01*
X007396Y015348D01*
X007396Y015670D01*
X007841Y015670D01*
X007841Y015660D02*
X007396Y015660D01*
X007396Y015541D02*
X007841Y015541D01*
X007841Y015423D02*
X007396Y015423D01*
X007352Y015304D02*
X007841Y015304D01*
X007841Y015186D02*
X007234Y015186D01*
X007115Y015067D02*
X007841Y015067D01*
X007841Y014948D02*
X005235Y014948D01*
X005116Y014830D02*
X007841Y014830D01*
X007841Y014711D02*
X007546Y014711D01*
X007665Y014593D02*
X007841Y014593D01*
X007841Y014474D02*
X007783Y014474D01*
X007896Y013882D02*
X007898Y013882D01*
X007811Y013763D02*
X008003Y013763D01*
X008121Y013644D02*
X007693Y013644D01*
X007574Y013526D02*
X008240Y013526D01*
X008358Y013407D02*
X002941Y013407D01*
X002990Y013289D02*
X008477Y013289D01*
X008587Y013170D02*
X008595Y013170D01*
X008706Y013052D02*
X008714Y013052D01*
X008824Y012933D02*
X008832Y012933D01*
X008896Y012815D02*
X008951Y012815D01*
X008896Y012696D02*
X009069Y012696D01*
X009188Y012578D02*
X008896Y012578D01*
X008896Y012459D02*
X009307Y012459D01*
X009425Y012341D02*
X008889Y012341D01*
X008770Y012222D02*
X009563Y012222D01*
X009120Y011511D02*
X006226Y011511D01*
X006294Y011392D02*
X008948Y011392D01*
X008830Y011274D02*
X007464Y011274D01*
X007701Y011155D02*
X008225Y011155D01*
X008071Y011037D02*
X007820Y011037D01*
X007893Y010918D02*
X007975Y010918D01*
X007961Y010325D02*
X007907Y010325D01*
X007854Y010207D02*
X008037Y010207D01*
X008123Y010088D02*
X007735Y010088D01*
X007546Y009970D02*
X008004Y009970D01*
X007670Y009614D02*
X005906Y009614D01*
X005906Y009495D02*
X007552Y009495D01*
X007433Y009377D02*
X006042Y009377D01*
X006161Y009258D02*
X007369Y009258D01*
X007341Y009140D02*
X006231Y009140D01*
X006299Y009021D02*
X007341Y009021D01*
X007341Y008903D02*
X006337Y008903D01*
X006369Y008784D02*
X007341Y008784D01*
X007341Y008666D02*
X006386Y008666D01*
X006386Y008547D02*
X007341Y008547D01*
X007341Y008429D02*
X006386Y008429D01*
X006462Y008310D02*
X007341Y008310D01*
X007341Y008191D02*
X006580Y008191D01*
X006699Y008073D02*
X007341Y008073D01*
X007367Y007954D02*
X006817Y007954D01*
X006936Y007836D02*
X007430Y007836D01*
X007530Y007736D02*
X007530Y007736D01*
X007548Y007717D02*
X007054Y007717D01*
X007173Y007599D02*
X007667Y007599D01*
X007785Y007480D02*
X007291Y007480D01*
X007410Y007362D02*
X007904Y007362D01*
X008022Y007243D02*
X007538Y007243D01*
X007732Y007125D02*
X008141Y007125D01*
X008156Y007006D02*
X007850Y007006D01*
X007906Y006888D02*
X008156Y006888D01*
X008235Y006769D02*
X008003Y006769D01*
X008121Y006650D02*
X008354Y006650D01*
X008240Y006532D02*
X008472Y006532D01*
X008358Y006413D02*
X020001Y006413D01*
X020001Y006295D02*
X019973Y006295D01*
X020001Y006532D02*
X009080Y006532D01*
X009199Y006650D02*
X020001Y006650D01*
X020001Y006769D02*
X009317Y006769D01*
X009396Y006888D02*
X020001Y006888D01*
X020001Y007006D02*
X009396Y007006D01*
X009396Y007125D02*
X020001Y007125D01*
X020001Y007243D02*
X009396Y007243D01*
X009396Y007362D02*
X020001Y007362D01*
X020001Y007480D02*
X009277Y007480D01*
X009159Y007599D02*
X020001Y007599D01*
X020001Y007717D02*
X009040Y007717D01*
X008660Y007836D02*
X020001Y007836D01*
X020001Y007954D02*
X008541Y007954D01*
X008423Y008073D02*
X020001Y008073D01*
X020001Y008191D02*
X009112Y008191D01*
X009335Y008310D02*
X020001Y008310D01*
X020001Y008429D02*
X009418Y008429D01*
X009452Y008547D02*
X019164Y008547D01*
X019045Y008666D02*
X009452Y008666D01*
X009416Y008784D02*
X010981Y008784D01*
X010863Y008903D02*
X009332Y008903D01*
X009248Y009021D02*
X010744Y009021D01*
X010626Y009140D02*
X009448Y009140D01*
X009564Y009258D02*
X010507Y009258D01*
X010389Y009377D02*
X009613Y009377D01*
X009656Y009495D02*
X010270Y009495D01*
X010152Y009614D02*
X009656Y009614D01*
X009654Y009733D02*
X010033Y009733D01*
X009914Y009851D02*
X009605Y009851D01*
X009548Y009970D02*
X009796Y009970D01*
X009481Y010088D02*
X009429Y010088D01*
X008796Y008547D02*
X008756Y008547D01*
X008756Y008429D02*
X008796Y008429D01*
X008796Y008310D02*
X008756Y008310D01*
X008756Y008191D02*
X008796Y008191D01*
X008440Y008191D02*
X008304Y008191D01*
X008217Y008310D02*
X008211Y008310D01*
X007006Y009970D02*
X005906Y009970D01*
X005999Y010088D02*
X006817Y010088D01*
X006698Y010207D02*
X006117Y010207D01*
X006205Y010325D02*
X006645Y010325D01*
X006596Y010444D02*
X006274Y010444D01*
X006325Y010562D02*
X006586Y010562D01*
X006586Y010681D02*
X006357Y010681D01*
X006386Y010799D02*
X006610Y010799D01*
X006659Y010918D02*
X006386Y010918D01*
X006386Y011037D02*
X006732Y011037D01*
X006851Y011155D02*
X006366Y011155D01*
X006335Y011274D02*
X007088Y011274D01*
X007901Y012103D02*
X005390Y012103D01*
X004907Y012851D02*
X004907Y012851D01*
X004989Y012933D02*
X004824Y012933D01*
X004706Y013052D02*
X007846Y013052D01*
X007965Y013170D02*
X004587Y013170D01*
X004574Y013526D02*
X006978Y013526D01*
X006859Y013644D02*
X004693Y013644D01*
X004811Y013763D02*
X006741Y013763D01*
X006656Y013882D02*
X004896Y013882D01*
X004896Y014000D02*
X006656Y014000D01*
X006656Y014119D02*
X004896Y014119D01*
X004896Y014237D02*
X006656Y014237D01*
X006656Y014356D02*
X004896Y014356D01*
X004783Y014474D02*
X006769Y014474D01*
X006887Y014593D02*
X004665Y014593D01*
X004963Y014711D02*
X007006Y014711D01*
X006437Y015067D02*
X006115Y015067D01*
X005437Y015067D02*
X005353Y015067D01*
X003769Y014474D02*
X001780Y014474D01*
X001840Y014356D02*
X003656Y014356D01*
X003656Y014237D02*
X001890Y014237D01*
X001894Y014119D02*
X003656Y014119D01*
X003656Y014000D02*
X001894Y014000D01*
X001852Y013882D02*
X003656Y013882D01*
X003741Y013763D02*
X001803Y013763D01*
X001689Y013644D02*
X002088Y013644D01*
X001946Y013526D02*
X001492Y013526D01*
X001236Y013407D02*
X001855Y013407D01*
X001806Y013289D02*
X001236Y013289D01*
X001236Y013170D02*
X001781Y013170D01*
X001781Y013052D02*
X001236Y013052D01*
X001236Y012933D02*
X001801Y012933D01*
X001850Y012815D02*
X001236Y012815D01*
X001236Y012696D02*
X001933Y012696D01*
X002057Y012578D02*
X001236Y012578D01*
X001236Y012459D02*
X002307Y012459D01*
X002425Y012341D02*
X001236Y012341D01*
X001236Y012222D02*
X002544Y012222D01*
X002662Y012103D02*
X001236Y012103D01*
X001236Y011985D02*
X002781Y011985D01*
X002899Y011866D02*
X001236Y011866D01*
X001236Y011748D02*
X003018Y011748D01*
X003136Y011629D02*
X001236Y011629D01*
X001236Y011511D02*
X001673Y011511D01*
X001740Y011578D02*
X001421Y011259D01*
X001421Y011094D01*
X001905Y011094D01*
X001905Y011578D01*
X001740Y011578D01*
X001905Y011511D02*
X002025Y011511D01*
X002025Y011578D02*
X002025Y011094D01*
X001905Y011094D01*
X001905Y010974D01*
X001421Y010974D01*
X001421Y010809D01*
X001740Y010490D01*
X001905Y010490D01*
X001905Y010974D01*
X002025Y010974D01*
X002025Y011094D01*
X002509Y011094D01*
X002509Y011259D01*
X002190Y011578D01*
X002025Y011578D01*
X002025Y011392D02*
X001905Y011392D01*
X001905Y011274D02*
X002025Y011274D01*
X002025Y011155D02*
X001905Y011155D01*
X001905Y011037D02*
X001236Y011037D01*
X001236Y011155D02*
X001421Y011155D01*
X001436Y011274D02*
X001236Y011274D01*
X001236Y011392D02*
X001554Y011392D01*
X002025Y011037D02*
X004166Y011037D01*
X004166Y010918D02*
X002509Y010918D01*
X002509Y010974D02*
X002025Y010974D01*
X002025Y010490D01*
X002190Y010490D01*
X002509Y010809D01*
X002509Y010974D01*
X002500Y010799D02*
X004166Y010799D01*
X004195Y010681D02*
X002381Y010681D01*
X002263Y010562D02*
X004227Y010562D01*
X004278Y010444D02*
X001236Y010444D01*
X001236Y010562D02*
X001667Y010562D01*
X001549Y010681D02*
X001236Y010681D01*
X001236Y010799D02*
X001430Y010799D01*
X001421Y010918D02*
X001236Y010918D01*
X001236Y010325D02*
X004347Y010325D01*
X004435Y010207D02*
X001236Y010207D01*
X001236Y010088D02*
X004554Y010088D01*
X004646Y009970D02*
X001236Y009970D01*
X001236Y009851D02*
X004646Y009851D01*
X004646Y009733D02*
X001236Y009733D01*
X001236Y009614D02*
X004646Y009614D01*
X004646Y009495D02*
X001236Y009495D01*
X001236Y009377D02*
X004510Y009377D01*
X004391Y009258D02*
X001236Y009258D01*
X001236Y009140D02*
X004321Y009140D01*
X004253Y009021D02*
X001236Y009021D01*
X001236Y008903D02*
X004215Y008903D01*
X004183Y008784D02*
X002314Y008784D01*
X002587Y008666D02*
X004166Y008666D01*
X004166Y008547D02*
X002728Y008547D01*
X002843Y008429D02*
X004166Y008429D01*
X004197Y008310D02*
X002962Y008310D01*
X003080Y008191D02*
X004229Y008191D01*
X004283Y008073D02*
X003199Y008073D01*
X003317Y007954D02*
X004352Y007954D01*
X004444Y007836D02*
X003436Y007836D01*
X003554Y007717D02*
X004562Y007717D01*
X004744Y007599D02*
X003673Y007599D01*
X003791Y007480D02*
X005066Y007480D01*
X005628Y007362D02*
X003910Y007362D01*
X004029Y007243D02*
X005747Y007243D01*
X005865Y007125D02*
X004147Y007125D01*
X004266Y007006D02*
X005984Y007006D01*
X006102Y006888D02*
X004384Y006888D01*
X004503Y006769D02*
X006221Y006769D01*
X006339Y006650D02*
X004621Y006650D01*
X004740Y006532D02*
X006458Y006532D01*
X006576Y006413D02*
X004858Y006413D01*
X004977Y006295D02*
X006658Y006295D01*
X006729Y006176D02*
X005095Y006176D01*
X005214Y006058D02*
X006847Y006058D01*
X007051Y005939D02*
X005333Y005939D01*
X005451Y005821D02*
X007169Y005821D01*
X007288Y005702D02*
X005587Y005702D01*
X005855Y005584D02*
X007406Y005584D01*
X007525Y005465D02*
X006017Y005465D01*
X006136Y005346D02*
X007643Y005346D01*
X007762Y005228D02*
X006216Y005228D01*
X006285Y005109D02*
X007880Y005109D01*
X007999Y004991D02*
X006330Y004991D01*
X006362Y004872D02*
X008118Y004872D01*
X008236Y004754D02*
X006386Y004754D01*
X006386Y004635D02*
X008355Y004635D01*
X008473Y004517D02*
X006386Y004517D01*
X006361Y004398D02*
X008592Y004398D01*
X008710Y004280D02*
X006330Y004280D01*
X006283Y004161D02*
X008829Y004161D01*
X008947Y004042D02*
X006215Y004042D01*
X006134Y003924D02*
X009066Y003924D01*
X009146Y003805D02*
X006015Y003805D01*
X005852Y003687D02*
X008481Y003687D01*
X008363Y003568D02*
X005579Y003568D01*
X005619Y003331D02*
X008156Y003331D01*
X008156Y003213D02*
X005870Y003213D01*
X006026Y003094D02*
X008156Y003094D01*
X008156Y002976D02*
X006144Y002976D01*
X006221Y002857D02*
X008156Y002857D01*
X008265Y002739D02*
X006290Y002739D01*
X006333Y002620D02*
X008384Y002620D01*
X008503Y002501D02*
X006364Y002501D01*
X006386Y002383D02*
X009146Y002383D01*
X009146Y002501D02*
X009049Y002501D01*
X009146Y002264D02*
X006386Y002264D01*
X006386Y002146D02*
X009146Y002146D01*
X009146Y002027D02*
X006359Y002027D01*
X006327Y001909D02*
X009146Y001909D01*
X009146Y001790D02*
X006278Y001790D01*
X006210Y001672D02*
X009146Y001672D01*
X009146Y001553D02*
X006125Y001553D01*
X006006Y001435D02*
X009165Y001435D01*
X009214Y001316D02*
X005837Y001316D01*
X005547Y001197D02*
X009292Y001197D01*
X009411Y001079D02*
X001236Y001079D01*
X001236Y001197D02*
X005005Y001197D01*
X004715Y001316D02*
X001236Y001316D01*
X001236Y001435D02*
X004546Y001435D01*
X004427Y001553D02*
X001236Y001553D01*
X001236Y001672D02*
X004342Y001672D01*
X004274Y001790D02*
X001236Y001790D01*
X001236Y001909D02*
X004225Y001909D01*
X004193Y002027D02*
X001236Y002027D01*
X001236Y002146D02*
X004166Y002146D01*
X004166Y002264D02*
X001236Y002264D01*
X001236Y002383D02*
X004107Y002383D01*
X003988Y002501D02*
X002606Y002501D01*
X002549Y002445D02*
X002936Y002831D01*
X002936Y003378D01*
X002549Y003765D01*
X002003Y003765D01*
X001616Y003378D01*
X001616Y002831D01*
X002003Y002445D01*
X002549Y002445D01*
X002725Y002620D02*
X003870Y002620D01*
X003751Y002739D02*
X002843Y002739D01*
X002936Y002857D02*
X003633Y002857D01*
X003514Y002976D02*
X002936Y002976D01*
X002936Y003094D02*
X003396Y003094D01*
X003277Y003213D02*
X002936Y003213D01*
X002936Y003331D02*
X003159Y003331D01*
X003040Y003450D02*
X002864Y003450D01*
X002921Y003568D02*
X002746Y003568D01*
X002803Y003687D02*
X002627Y003687D01*
X002718Y003805D02*
X001236Y003805D01*
X001236Y003687D02*
X001925Y003687D01*
X001806Y003568D02*
X001236Y003568D01*
X001236Y003450D02*
X001688Y003450D01*
X001616Y003331D02*
X001236Y003331D01*
X001236Y003213D02*
X001616Y003213D01*
X001616Y003094D02*
X001236Y003094D01*
X001236Y002976D02*
X001616Y002976D01*
X001616Y002857D02*
X001236Y002857D01*
X001236Y002739D02*
X001709Y002739D01*
X001827Y002620D02*
X001236Y002620D01*
X001236Y002501D02*
X001946Y002501D01*
X001236Y003924D02*
X002669Y003924D01*
X002646Y004042D02*
X001236Y004042D01*
X001236Y004161D02*
X002646Y004161D01*
X002646Y004280D02*
X001236Y004280D01*
X001236Y004398D02*
X002646Y004398D01*
X002646Y004517D02*
X001236Y004517D01*
X001236Y004635D02*
X002646Y004635D01*
X002646Y004754D02*
X001236Y004754D01*
X001236Y004872D02*
X002646Y004872D01*
X002646Y004991D02*
X001236Y004991D01*
X001236Y005109D02*
X002646Y005109D01*
X002646Y005228D02*
X001236Y005228D01*
X001236Y005346D02*
X002646Y005346D01*
X002646Y005465D02*
X001236Y005465D01*
X001236Y005584D02*
X002646Y005584D01*
X002646Y005702D02*
X001236Y005702D01*
X001236Y005821D02*
X002646Y005821D01*
X002646Y005939D02*
X001236Y005939D01*
X001236Y006058D02*
X002646Y006058D01*
X002646Y006176D02*
X001236Y006176D01*
X001236Y006295D02*
X002646Y006295D01*
X002646Y006413D02*
X001236Y006413D01*
X001236Y006532D02*
X002646Y006532D01*
X002646Y006650D02*
X001236Y006650D01*
X001236Y006769D02*
X002646Y006769D01*
X002602Y006888D02*
X001236Y006888D01*
X001236Y007006D02*
X002484Y007006D01*
X002365Y007125D02*
X001236Y007125D01*
X001236Y007243D02*
X002247Y007243D01*
X001632Y007362D02*
X001236Y007362D01*
X001236Y007480D02*
X001514Y007480D01*
X001395Y007599D02*
X001236Y007599D01*
X001236Y007717D02*
X001277Y007717D01*
X001261Y008429D02*
X001236Y008429D01*
X001236Y008547D02*
X001379Y008547D01*
X001498Y008666D02*
X001236Y008666D01*
X001236Y008784D02*
X001616Y008784D01*
X001905Y010562D02*
X002025Y010562D01*
X002025Y010681D02*
X001905Y010681D01*
X001905Y010799D02*
X002025Y010799D01*
X002025Y010918D02*
X001905Y010918D01*
X002494Y011274D02*
X003492Y011274D01*
X003373Y011392D02*
X002376Y011392D01*
X002257Y011511D02*
X003255Y011511D01*
X002509Y011155D02*
X004186Y011155D01*
X003901Y012103D02*
X003892Y012103D01*
X003782Y012222D02*
X003774Y012222D01*
X003663Y012341D02*
X003655Y012341D01*
X003656Y012459D02*
X003537Y012459D01*
X003418Y012578D02*
X003656Y012578D01*
X003656Y012696D02*
X003300Y012696D01*
X003181Y012815D02*
X003656Y012815D01*
X003728Y012933D02*
X003063Y012933D01*
X003016Y013052D02*
X003846Y013052D01*
X003965Y013170D02*
X003016Y013170D01*
X002850Y013526D02*
X003978Y013526D01*
X003859Y013644D02*
X002708Y013644D01*
X002521Y014487D02*
X002275Y014487D01*
X002048Y014581D01*
X001875Y014755D01*
X001781Y014982D01*
X001781Y015228D01*
X001875Y015454D01*
X002048Y015628D01*
X002275Y015722D01*
X002521Y015722D01*
X002748Y015628D01*
X002922Y015454D01*
X003016Y015228D01*
X003016Y014982D01*
X002922Y014755D01*
X002748Y014581D01*
X002521Y014487D01*
X002759Y014593D02*
X003411Y014593D01*
X003293Y014711D02*
X002878Y014711D01*
X002953Y014830D02*
X003174Y014830D01*
X003156Y014948D02*
X003002Y014948D01*
X003016Y015067D02*
X003156Y015067D01*
X003156Y015186D02*
X003016Y015186D01*
X002984Y015304D02*
X003156Y015304D01*
X003217Y015423D02*
X002935Y015423D01*
X002835Y015541D02*
X003224Y015541D01*
X003106Y015660D02*
X002672Y015660D01*
X002869Y015897D02*
X001711Y015897D01*
X001711Y016015D02*
X002750Y016015D01*
X002632Y016134D02*
X001711Y016134D01*
X001711Y015778D02*
X002987Y015778D01*
X002125Y015660D02*
X001711Y015660D01*
X001711Y015541D02*
X001961Y015541D01*
X001861Y015423D02*
X001711Y015423D01*
X001711Y015304D02*
X001812Y015304D01*
X001781Y015186D02*
X001711Y015186D01*
X001711Y015067D02*
X001781Y015067D01*
X001794Y014948D02*
X001711Y014948D01*
X001711Y014830D02*
X001844Y014830D01*
X001918Y014711D02*
X001711Y014711D01*
X001711Y014593D02*
X002037Y014593D01*
X005670Y016608D02*
X009558Y016608D01*
X009677Y016727D02*
X005789Y016727D01*
X005907Y016845D02*
X009795Y016845D01*
X009914Y016964D02*
X006026Y016964D01*
X006144Y017082D02*
X010096Y017082D01*
X010408Y016015D02*
X012352Y016015D01*
X012258Y015897D02*
X010439Y015897D01*
X010505Y015778D02*
X012209Y015778D01*
X012186Y015660D02*
X010555Y015660D01*
X010566Y015541D02*
X012186Y015541D01*
X012213Y015423D02*
X010566Y015423D01*
X010536Y015304D02*
X012262Y015304D01*
X012361Y015186D02*
X010487Y015186D01*
X010393Y015067D02*
X012532Y015067D01*
X012817Y014948D02*
X010255Y014948D01*
X010954Y014237D02*
X008759Y014237D01*
X008711Y014356D02*
X011136Y014356D01*
X011255Y014474D02*
X008711Y014474D01*
X008711Y014593D02*
X011373Y014593D01*
X011594Y014711D02*
X008711Y014711D01*
X008877Y014119D02*
X010835Y014119D01*
X010717Y014000D02*
X010552Y014000D01*
X010296Y014000D02*
X010256Y014000D01*
X010256Y013882D02*
X010296Y013882D01*
X010296Y013763D02*
X010256Y013763D01*
X010256Y013644D02*
X010296Y013644D01*
X010296Y013526D02*
X010256Y013526D01*
X010256Y013407D02*
X010296Y013407D01*
X010296Y013289D02*
X010256Y013289D01*
X010256Y013170D02*
X010296Y013170D01*
X010513Y013170D02*
X010756Y013170D01*
X010874Y013052D02*
X009944Y013052D01*
X010039Y013170D02*
X009826Y013170D01*
X009920Y013289D02*
X009707Y013289D01*
X009802Y013407D02*
X009589Y013407D01*
X009470Y013526D02*
X009801Y013526D01*
X009801Y013644D02*
X009351Y013644D01*
X009233Y013763D02*
X009801Y013763D01*
X009881Y013882D02*
X009114Y013882D01*
X008996Y014000D02*
X010000Y014000D01*
X010632Y013289D02*
X010637Y013289D01*
X011162Y012103D02*
X008652Y012103D01*
X008533Y011985D02*
X008019Y011985D01*
X006263Y017201D02*
X013211Y017201D01*
X013211Y017319D02*
X006382Y017319D01*
X006500Y017438D02*
X013211Y017438D01*
X013211Y017556D02*
X011599Y017556D01*
X011737Y017675D02*
X013211Y017675D01*
X013211Y017794D02*
X011856Y017794D01*
X011974Y017912D02*
X013028Y017912D01*
X012811Y018031D02*
X012093Y018031D01*
X012211Y018149D02*
X012692Y018149D01*
X012620Y018268D02*
X012330Y018268D01*
X012448Y018386D02*
X012571Y018386D01*
X011615Y019335D02*
X010366Y019335D01*
X010366Y019322D02*
X010366Y019475D01*
X009956Y019475D01*
X009956Y019535D01*
X010366Y019535D01*
X010366Y019687D01*
X010223Y019830D01*
X012712Y019830D01*
X012653Y019771D01*
X012638Y019735D01*
X012151Y019735D01*
X011919Y019639D01*
X011742Y019462D01*
X011015Y018735D01*
X006151Y018735D01*
X005929Y018643D01*
X006022Y018736D01*
X006145Y018858D01*
X006211Y019018D01*
X006211Y019163D01*
X006276Y019228D01*
X006519Y018985D01*
X007033Y018985D01*
X007396Y019348D01*
X007396Y019830D01*
X009629Y019830D01*
X009486Y019687D01*
X009486Y019535D01*
X009896Y019535D01*
X009896Y019475D01*
X009486Y019475D01*
X009486Y019322D01*
X009744Y019065D01*
X009896Y019065D01*
X009896Y019474D01*
X009956Y019474D01*
X009956Y019065D01*
X010108Y019065D01*
X010366Y019322D01*
X010366Y019453D02*
X011734Y019453D01*
X011852Y019572D02*
X010366Y019572D01*
X010363Y019690D02*
X012043Y019690D01*
X012691Y019809D02*
X010244Y019809D01*
X009956Y019453D02*
X009896Y019453D01*
X009896Y019335D02*
X009956Y019335D01*
X009956Y019216D02*
X009896Y019216D01*
X009896Y019097D02*
X009956Y019097D01*
X010141Y019097D02*
X011378Y019097D01*
X011259Y018979D02*
X006195Y018979D01*
X006211Y019097D02*
X006406Y019097D01*
X006288Y019216D02*
X006264Y019216D01*
X006146Y018860D02*
X011141Y018860D01*
X011022Y018742D02*
X006028Y018742D01*
X007146Y019097D02*
X009711Y019097D01*
X009593Y019216D02*
X007264Y019216D01*
X007383Y019335D02*
X009486Y019335D01*
X009486Y019453D02*
X007396Y019453D01*
X007396Y019572D02*
X009486Y019572D01*
X009489Y019690D02*
X007396Y019690D01*
X007396Y019809D02*
X009608Y019809D01*
X010260Y019216D02*
X011496Y019216D01*
X016241Y019809D02*
X020001Y019809D01*
X020001Y019690D02*
X016374Y019690D01*
X016446Y019572D02*
X020001Y019572D01*
X020001Y019453D02*
X016482Y019453D01*
X016491Y019335D02*
X019241Y019335D01*
X019123Y019216D02*
X016491Y019216D01*
X016491Y019097D02*
X019004Y019097D01*
X018886Y018979D02*
X016491Y018979D01*
X016491Y018860D02*
X018811Y018860D01*
X018692Y018742D02*
X016491Y018742D01*
X019933Y019335D02*
X020001Y019335D01*
X019202Y006295D02*
X008477Y006295D01*
X008595Y006176D02*
X010892Y006176D01*
X010913Y006185D02*
X010781Y006130D01*
X010680Y006029D01*
X010625Y005897D01*
X010625Y004927D01*
X010680Y004794D01*
X010781Y004693D01*
X010913Y004638D01*
X011883Y004638D01*
X012015Y004693D01*
X012117Y004794D01*
X012171Y004927D01*
X012171Y005897D01*
X012117Y006029D01*
X012015Y006130D01*
X011883Y006185D01*
X010913Y006185D01*
X010708Y006058D02*
X008714Y006058D01*
X008833Y005939D02*
X010642Y005939D01*
X010625Y005821D02*
X008951Y005821D01*
X009070Y005702D02*
X010625Y005702D01*
X010625Y005584D02*
X009188Y005584D01*
X009307Y005465D02*
X010625Y005465D01*
X010625Y005346D02*
X009425Y005346D01*
X009544Y005228D02*
X010625Y005228D01*
X010625Y005109D02*
X009662Y005109D01*
X009781Y004991D02*
X010625Y004991D01*
X010647Y004872D02*
X009899Y004872D01*
X010018Y004754D02*
X010720Y004754D01*
X010255Y004517D02*
X017297Y004517D01*
X017416Y004635D02*
X010136Y004635D01*
X010336Y004398D02*
X017179Y004398D01*
X017060Y004280D02*
X010386Y004280D01*
X010406Y004161D02*
X010780Y004161D01*
X010672Y004042D02*
X010406Y004042D01*
X010406Y003924D02*
X010625Y003924D01*
X010625Y003805D02*
X010406Y003805D01*
X010406Y003687D02*
X010625Y003687D01*
X010625Y003568D02*
X010406Y003568D01*
X010406Y003450D02*
X010625Y003450D01*
X010625Y003331D02*
X010406Y003331D01*
X010406Y003213D02*
X010625Y003213D01*
X010625Y003094D02*
X010406Y003094D01*
X010406Y002976D02*
X010625Y002976D01*
X010667Y002857D02*
X010406Y002857D01*
X010406Y002739D02*
X010767Y002739D01*
X010406Y002620D02*
X015400Y002620D01*
X015282Y002501D02*
X010406Y002501D01*
X010406Y002383D02*
X015163Y002383D01*
X015045Y002264D02*
X010406Y002264D01*
X009146Y003687D02*
X009071Y003687D01*
X008244Y003450D02*
X004822Y003450D01*
X004703Y003568D02*
X004973Y003568D01*
X004700Y003687D02*
X004585Y003687D01*
X004537Y003805D02*
X004466Y003805D01*
X004419Y003924D02*
X004348Y003924D01*
X004337Y004042D02*
X004229Y004042D01*
X004269Y004161D02*
X004111Y004161D01*
X004222Y004280D02*
X003992Y004280D01*
X003906Y004398D02*
X004191Y004398D01*
X004166Y004517D02*
X003906Y004517D01*
X003906Y004635D02*
X004166Y004635D01*
X004166Y004754D02*
X003906Y004754D01*
X003906Y004872D02*
X004190Y004872D01*
X004222Y004991D02*
X003906Y004991D01*
X003906Y005109D02*
X004268Y005109D01*
X004262Y005228D02*
X003906Y005228D01*
X003906Y005346D02*
X004143Y005346D01*
X004025Y005465D02*
X003906Y005465D01*
X003906Y005584D02*
X003906Y005584D01*
X011905Y006176D02*
X013844Y006176D01*
X013866Y006185D02*
X013734Y006130D01*
X013632Y006029D01*
X013577Y005897D01*
X013577Y004927D01*
X013632Y004794D01*
X013734Y004693D01*
X013866Y004638D01*
X014836Y004638D01*
X014968Y004693D01*
X015069Y004794D01*
X015124Y004927D01*
X015124Y005897D01*
X015069Y006029D01*
X014968Y006130D01*
X014836Y006185D01*
X013866Y006185D01*
X013661Y006058D02*
X012088Y006058D01*
X012154Y005939D02*
X013595Y005939D01*
X013577Y005821D02*
X012171Y005821D01*
X012171Y005702D02*
X013577Y005702D01*
X013577Y005584D02*
X012171Y005584D01*
X012171Y005465D02*
X013577Y005465D01*
X013577Y005346D02*
X012171Y005346D01*
X012171Y005228D02*
X013577Y005228D01*
X013577Y005109D02*
X012171Y005109D01*
X012171Y004991D02*
X013577Y004991D01*
X013600Y004872D02*
X012149Y004872D01*
X012076Y004754D02*
X013673Y004754D01*
X015029Y004754D02*
X017534Y004754D01*
X017653Y004872D02*
X015102Y004872D01*
X015124Y004991D02*
X017771Y004991D01*
X017890Y005109D02*
X015124Y005109D01*
X015124Y005228D02*
X018008Y005228D01*
X018127Y005346D02*
X015124Y005346D01*
X015124Y005465D02*
X018245Y005465D01*
X018364Y005584D02*
X015124Y005584D01*
X015124Y005702D02*
X018483Y005702D01*
X018601Y005821D02*
X015124Y005821D01*
X015107Y005939D02*
X018720Y005939D01*
X018835Y006058D02*
X015041Y006058D01*
X014857Y006176D02*
X019010Y006176D01*
X018878Y004316D02*
X017810Y003248D01*
X017633Y003071D01*
X017401Y002975D01*
X016797Y002975D01*
X016810Y002962D01*
X016906Y002730D01*
X016906Y002479D01*
X016810Y002248D01*
X015810Y001248D01*
X015633Y001071D01*
X015618Y001065D01*
X020001Y001065D01*
X020001Y002321D01*
X019812Y002132D01*
X019647Y002132D01*
X019647Y002615D01*
X019527Y002615D01*
X019527Y002132D01*
X019362Y002132D01*
X019043Y002450D01*
X019043Y002616D01*
X019527Y002616D01*
X019527Y002736D01*
X019043Y002736D01*
X019043Y002901D01*
X019259Y003117D01*
X019190Y003117D01*
X019042Y003179D01*
X018928Y003293D01*
X018866Y003441D01*
X018866Y003510D01*
X018866Y003671D01*
X018866Y003739D01*
X018868Y003744D01*
X018866Y003748D01*
X018866Y003909D01*
X018887Y003959D01*
X018882Y003984D01*
X018866Y004022D01*
X018866Y004062D01*
X018858Y004102D01*
X018866Y004142D01*
X018866Y004183D01*
X018882Y004220D01*
X018889Y004260D01*
X018897Y004271D01*
X018878Y004316D01*
X018893Y004280D02*
X018842Y004280D01*
X018866Y004161D02*
X018723Y004161D01*
X018605Y004042D02*
X018866Y004042D01*
X018872Y003924D02*
X018486Y003924D01*
X018368Y003805D02*
X018866Y003805D01*
X018866Y003687D02*
X018249Y003687D01*
X018131Y003568D02*
X018866Y003568D01*
X018866Y003450D02*
X018012Y003450D01*
X017893Y003331D02*
X018912Y003331D01*
X019008Y003213D02*
X017775Y003213D01*
X017656Y003094D02*
X019237Y003094D01*
X019118Y002976D02*
X017403Y002976D01*
X016903Y002739D02*
X019043Y002739D01*
X019043Y002857D02*
X016853Y002857D01*
X016906Y002620D02*
X019527Y002620D01*
X019527Y002501D02*
X019647Y002501D01*
X019647Y002383D02*
X019527Y002383D01*
X019527Y002264D02*
X019647Y002264D01*
X019647Y002146D02*
X019527Y002146D01*
X019348Y002146D02*
X016708Y002146D01*
X016817Y002264D02*
X019229Y002264D01*
X019111Y002383D02*
X016866Y002383D01*
X016906Y002501D02*
X019043Y002501D01*
X019826Y002146D02*
X020001Y002146D01*
X020001Y002264D02*
X019945Y002264D01*
X020001Y002027D02*
X016590Y002027D01*
X016471Y001909D02*
X020001Y001909D01*
X020001Y001790D02*
X016352Y001790D01*
X016234Y001672D02*
X020001Y001672D01*
X020001Y001553D02*
X016115Y001553D01*
X015997Y001435D02*
X020001Y001435D01*
X020001Y001316D02*
X015878Y001316D01*
X015760Y001197D02*
X020001Y001197D01*
X020001Y001079D02*
X015641Y001079D01*
X015519Y002739D02*
X014982Y002739D01*
X015082Y002857D02*
X015637Y002857D01*
X013720Y002739D02*
X012029Y002739D01*
X012129Y002857D02*
X013619Y002857D01*
D28*
X016276Y002605D03*
X017276Y003605D03*
X017276Y001605D03*
X017276Y010605D03*
X015776Y010605D03*
X012776Y015605D03*
X009776Y010605D03*
X004776Y016605D03*
D29*
X006276Y018105D01*
X011276Y018105D01*
X012276Y019105D01*
X012776Y019105D01*
X013276Y018605D01*
X013776Y014105D02*
X011776Y014105D01*
X011276Y013605D01*
X013776Y014105D02*
X017276Y010605D01*
X015776Y010605D02*
X015276Y011105D01*
X014276Y011105D01*
X014351Y011317D01*
X019276Y005605D02*
X019587Y005628D01*
X019276Y005605D02*
X017276Y003605D01*
X014276Y003605D01*
X014351Y003443D01*
X014276Y003605D02*
X011776Y003605D01*
X011398Y003443D01*
X009776Y004105D02*
X009776Y001605D01*
X011276Y001605D01*
X011398Y001475D01*
X011776Y001605D01*
X014276Y001605D01*
X014351Y001475D01*
X014276Y001605D02*
X015276Y001605D01*
X016276Y002605D01*
X009776Y004105D02*
X007276Y006605D01*
X005776Y008105D01*
X005276Y008105D01*
X005276Y008573D01*
X005276Y010935D01*
X002276Y008105D02*
X001965Y008081D01*
X002276Y008105D02*
X003276Y007105D01*
X003276Y004105D01*
X004776Y002605D01*
X005276Y002274D01*
X005276Y004636D02*
X005276Y005105D01*
X003276Y007105D01*
D30*
X009776Y015605D02*
X009926Y015505D01*
X009776Y015605D02*
X009776Y016105D01*
X010276Y016605D01*
X013276Y016605D01*
X013776Y016105D01*
X014776Y016105D01*
X015276Y016605D01*
X015276Y017105D01*
X015266Y017855D01*
X015276Y017605D01*
X015276Y017105D01*
X015776Y017105D01*
X016776Y016105D01*
X015776Y015105D01*
X015760Y015105D01*
X016776Y016105D02*
X019276Y018605D01*
X019587Y018628D01*
M02*
