G75*
G70*
%OFA0B0*%
%FSLAX24Y24*%
%IPPOS*%
%LPD*%
%AMOC8*
5,1,8,0,0,1.08239X$1,22.5*
%
%ADD10C,0.0000*%
%ADD11C,0.0050*%
%ADD12C,0.0060*%
%ADD13R,0.0240X0.0340*%
%ADD14C,0.0040*%
%ADD15R,0.1000X0.0200*%
%ADD16R,0.0300X0.0750*%
%ADD17C,0.0100*%
%ADD18R,0.0200X0.1000*%
%ADD19R,0.0750X0.0300*%
%ADD20R,0.4000X0.0500*%
%ADD21R,0.0150X0.0200*%
%ADD22R,0.0340X0.0240*%
%ADD23C,0.0020*%
%ADD24R,0.0150X0.0300*%
D10*
X000776Y000605D02*
X000776Y020290D01*
X020461Y020290D01*
X020461Y000605D01*
X000776Y000605D01*
D11*
X001846Y003850D02*
X001921Y003850D01*
X001996Y003925D01*
X001996Y004300D01*
X001921Y004300D02*
X002071Y004300D01*
X002231Y004300D02*
X002457Y004300D01*
X002532Y004225D01*
X002532Y004075D01*
X002457Y004000D01*
X002231Y004000D01*
X002231Y003850D02*
X002231Y004300D01*
X002692Y004150D02*
X002842Y004300D01*
X002842Y003850D01*
X002692Y003850D02*
X002992Y003850D01*
X001846Y003850D02*
X001771Y003925D01*
X001414Y006605D02*
X000808Y006605D01*
X001414Y006605D02*
X001414Y012510D01*
X003776Y012510D01*
X003776Y006605D01*
X001414Y006605D01*
X001776Y007105D02*
X001776Y007355D01*
X002026Y007355D01*
X001776Y007355D02*
X001776Y007605D01*
X001776Y007355D02*
X001526Y007355D01*
X001776Y010105D02*
X001776Y010605D01*
X001414Y012510D02*
X000808Y012510D01*
X000751Y012880D02*
X000301Y012880D01*
X000301Y013105D01*
X000376Y013180D01*
X000526Y013180D01*
X000601Y013105D01*
X000601Y012880D01*
X000601Y013030D02*
X000751Y013180D01*
X000526Y013340D02*
X000526Y013640D01*
X000751Y013565D02*
X000301Y013565D01*
X000526Y013340D01*
X003176Y013355D02*
X003276Y013255D01*
X003176Y013355D02*
X003576Y013355D01*
X003576Y013255D01*
X003576Y013355D02*
X003576Y013455D01*
X003926Y013415D02*
X003926Y013565D01*
X004001Y013640D01*
X004076Y013640D01*
X004376Y013340D01*
X004376Y013640D01*
X004376Y013800D02*
X003926Y013800D01*
X004076Y014026D02*
X004226Y013800D01*
X004376Y014026D01*
X003926Y013415D02*
X004001Y013340D01*
X004001Y013180D02*
X003926Y013105D01*
X003926Y012955D01*
X004001Y012880D01*
X004001Y013180D02*
X004076Y013180D01*
X004376Y012880D01*
X004376Y013180D01*
X003526Y014805D02*
X003576Y014855D01*
X003576Y015005D01*
X003526Y015055D01*
X003426Y015055D01*
X003376Y015005D01*
X003376Y014905D01*
X003376Y015005D02*
X003326Y015055D01*
X003226Y015055D01*
X003176Y015005D01*
X003176Y014855D01*
X003226Y014805D01*
X003301Y015578D02*
X003301Y015803D01*
X003376Y015878D01*
X003451Y015878D01*
X003526Y015803D01*
X003526Y015578D01*
X003526Y015803D02*
X003601Y015878D01*
X003676Y015878D01*
X003751Y015803D01*
X003751Y015578D01*
X003301Y015578D01*
X003376Y016038D02*
X003301Y016113D01*
X003301Y016263D01*
X003376Y016338D01*
X003301Y016499D02*
X003526Y016499D01*
X003451Y016649D01*
X003451Y016724D01*
X003526Y016799D01*
X003676Y016799D01*
X003751Y016724D01*
X003751Y016574D01*
X003676Y016499D01*
X003676Y016338D02*
X003751Y016263D01*
X003751Y016113D01*
X003676Y016038D01*
X003376Y016038D01*
X003301Y016499D02*
X003301Y016799D01*
X003291Y017060D02*
X003291Y017285D01*
X003366Y017360D01*
X003441Y017360D01*
X003516Y017285D01*
X003516Y017060D01*
X003526Y016959D02*
X003526Y017259D01*
X003516Y017285D02*
X003591Y017360D01*
X003666Y017360D01*
X003741Y017285D01*
X003741Y017060D01*
X003291Y017060D01*
X003301Y017184D02*
X003526Y016959D01*
X003751Y017184D02*
X003301Y017184D01*
X003041Y017145D02*
X003041Y017295D01*
X002966Y017370D01*
X002666Y017370D01*
X002591Y017295D01*
X002591Y017145D01*
X002666Y017070D01*
X002966Y017070D01*
X003041Y017145D01*
X002891Y017220D02*
X003041Y017370D01*
X003041Y017530D02*
X003041Y017830D01*
X003041Y017680D02*
X002591Y017680D01*
X002741Y017530D01*
X003291Y017520D02*
X003291Y017745D01*
X003366Y017820D01*
X003666Y017820D01*
X003741Y017745D01*
X003741Y017520D01*
X003291Y017520D01*
X003301Y017419D02*
X003301Y017719D01*
X003376Y017719D01*
X003676Y017419D01*
X003751Y017419D01*
X004051Y017494D02*
X004126Y017419D01*
X004051Y017494D02*
X004051Y017644D01*
X004126Y017720D01*
X004201Y017720D01*
X004501Y017419D01*
X004501Y017720D01*
X004776Y017190D02*
X004851Y017190D01*
X004926Y017115D01*
X005001Y017190D01*
X005076Y017190D01*
X005151Y017115D01*
X005151Y016965D01*
X005076Y016890D01*
X005051Y016819D02*
X004901Y016969D01*
X005351Y016969D01*
X005351Y016819D02*
X005351Y017120D01*
X005551Y017200D02*
X005551Y017500D01*
X005626Y017500D01*
X005926Y017200D01*
X006001Y017200D01*
X006151Y017190D02*
X006151Y016890D01*
X006151Y017040D02*
X005701Y017040D01*
X005626Y017040D01*
X005551Y016965D01*
X005551Y016815D01*
X005626Y016740D01*
X005701Y016655D02*
X005701Y016430D01*
X006151Y016430D01*
X006001Y016430D02*
X006001Y016655D01*
X005926Y016730D01*
X005776Y016730D01*
X005701Y016655D01*
X005851Y016890D02*
X005701Y017040D01*
X006001Y016740D01*
X006001Y017040D01*
X006151Y016730D02*
X006001Y016580D01*
X006551Y016890D02*
X007001Y016890D01*
X007001Y016740D02*
X007001Y017040D01*
X006851Y017061D02*
X007301Y017061D01*
X007001Y017200D02*
X006551Y017200D01*
X006701Y017425D02*
X006851Y017200D01*
X007001Y017425D01*
X006926Y017584D02*
X007001Y017659D01*
X007001Y017809D01*
X006926Y017884D01*
X006851Y017884D01*
X006776Y017809D01*
X006776Y017734D01*
X006776Y017809D02*
X006701Y017884D01*
X006626Y017884D01*
X006551Y017809D01*
X006551Y017659D01*
X006626Y017584D01*
X006851Y017211D02*
X006851Y016911D01*
X006851Y016751D02*
X007226Y016751D01*
X007301Y016676D01*
X007301Y016525D01*
X007226Y016450D01*
X006851Y016450D01*
X006926Y016290D02*
X006851Y016215D01*
X006851Y016065D01*
X006926Y015990D01*
X007226Y015990D01*
X007301Y016065D01*
X007301Y016215D01*
X007226Y016290D01*
X006926Y016290D01*
X006926Y015830D02*
X006851Y015755D01*
X006851Y015605D01*
X006926Y015530D01*
X007226Y015530D01*
X007301Y015605D01*
X007301Y015755D01*
X007226Y015830D01*
X006701Y016740D02*
X006551Y016890D01*
X005926Y017660D02*
X005626Y017961D01*
X005926Y017961D01*
X006001Y017886D01*
X006001Y017735D01*
X005926Y017660D01*
X005626Y017660D01*
X005551Y017735D01*
X005551Y017886D01*
X005626Y017961D01*
X005551Y018121D02*
X005551Y018346D01*
X005626Y018421D01*
X005776Y018421D01*
X005851Y018346D01*
X005851Y018121D01*
X005851Y018271D02*
X006001Y018421D01*
X006001Y018121D02*
X005551Y018121D01*
X004776Y017190D02*
X004701Y017115D01*
X004701Y016965D01*
X004776Y016890D01*
X004776Y016730D02*
X004926Y016730D01*
X005001Y016655D01*
X005001Y016430D01*
X004976Y016359D02*
X004901Y016434D01*
X004901Y016584D01*
X004976Y016659D01*
X005001Y016580D02*
X005151Y016730D01*
X005276Y016659D02*
X005351Y016584D01*
X005351Y016434D01*
X005276Y016359D01*
X004976Y016359D01*
X005151Y016430D02*
X004701Y016430D01*
X004701Y016655D01*
X004776Y016730D01*
X004926Y017040D02*
X004926Y017115D01*
X004501Y017109D02*
X004051Y017109D01*
X004051Y016959D02*
X004051Y017259D01*
X003741Y017980D02*
X003741Y018281D01*
X003676Y018217D02*
X003676Y018059D01*
X003741Y018131D02*
X003291Y018131D01*
X003441Y017980D01*
X003126Y018280D02*
X003126Y019929D01*
X003676Y019992D02*
X003676Y020150D01*
X003676Y019217D02*
X003676Y018992D01*
X003741Y018976D02*
X003666Y018901D01*
X003366Y019201D01*
X003666Y019201D01*
X003741Y019126D01*
X003741Y018976D01*
X003666Y018901D02*
X003366Y018901D01*
X003291Y018976D01*
X003291Y019126D01*
X003366Y019201D01*
X003126Y019930D02*
X003174Y019965D01*
X003224Y019998D01*
X003276Y020029D01*
X003330Y020056D01*
X003385Y020080D01*
X003442Y020100D01*
X003499Y020118D01*
X003557Y020132D01*
X003616Y020143D01*
X003676Y020150D01*
X004779Y018795D02*
X004759Y018735D01*
X004735Y018676D01*
X004707Y018619D01*
X004676Y018564D01*
X004641Y018510D01*
X004604Y018459D01*
X004563Y018410D01*
X004519Y018364D01*
X004473Y018320D01*
X004424Y018279D01*
X004373Y018241D01*
X004320Y018207D01*
X004264Y018175D01*
X004207Y018148D01*
X004148Y018123D01*
X004088Y018103D01*
X004027Y018085D01*
X003965Y018072D01*
X003902Y018063D01*
X003839Y018057D01*
X003775Y018055D01*
X003711Y018057D01*
X003648Y018063D01*
X003585Y018072D01*
X003523Y018086D01*
X003462Y018103D01*
X003402Y018124D01*
X003343Y018148D01*
X003286Y018176D01*
X003230Y018208D01*
X003177Y018243D01*
X003126Y018280D01*
X003291Y018666D02*
X003516Y018441D01*
X003516Y018741D01*
X003741Y018666D02*
X003291Y018666D01*
X003676Y020150D02*
X003738Y020154D01*
X003801Y020155D01*
X003863Y020151D01*
X003925Y020144D01*
X003986Y020134D01*
X004047Y020119D01*
X004107Y020101D01*
X004166Y020080D01*
X004223Y020055D01*
X004278Y020027D01*
X004332Y019996D01*
X004384Y019961D01*
X004434Y019923D01*
X004481Y019883D01*
X004526Y019839D01*
X004569Y019794D01*
X004608Y019745D01*
X004645Y019695D01*
X004678Y019642D01*
X004709Y019588D01*
X004736Y019531D01*
X004759Y019474D01*
X004779Y019415D01*
X009610Y014530D02*
X009760Y014680D01*
X009760Y014230D01*
X009610Y014230D02*
X009910Y014230D01*
X010070Y014305D02*
X010370Y014605D01*
X010370Y014305D01*
X010295Y014230D01*
X010145Y014230D01*
X010070Y014305D01*
X010070Y014605D01*
X010145Y014680D01*
X010295Y014680D01*
X010370Y014605D01*
X010530Y014605D02*
X010530Y014305D01*
X010830Y014605D01*
X010830Y014305D01*
X010755Y014230D01*
X010605Y014230D01*
X010530Y014305D01*
X010530Y014605D02*
X010605Y014680D01*
X010755Y014680D01*
X010830Y014605D01*
X010991Y014530D02*
X010991Y014305D01*
X011066Y014230D01*
X011291Y014230D01*
X011291Y014530D01*
X011326Y016030D02*
X011401Y016105D01*
X011401Y016255D01*
X011326Y016330D01*
X011251Y016330D01*
X011176Y016255D01*
X011176Y016180D01*
X011176Y016255D02*
X011101Y016330D01*
X011026Y016330D01*
X010951Y016255D01*
X010951Y016105D01*
X011026Y016030D01*
X011026Y016490D02*
X010951Y016565D01*
X010951Y016715D01*
X011026Y016790D01*
X011101Y016790D01*
X011176Y016715D01*
X011251Y016790D01*
X011326Y016790D01*
X011401Y016715D01*
X011401Y016565D01*
X011326Y016490D01*
X011176Y016640D02*
X011176Y016715D01*
X011326Y016950D02*
X011026Y016950D01*
X010951Y017025D01*
X010951Y017176D01*
X011026Y017251D01*
X011326Y016950D01*
X011401Y017025D01*
X011401Y017176D01*
X011326Y017251D01*
X011026Y017251D01*
X011101Y017411D02*
X011326Y017411D01*
X011401Y017486D01*
X011401Y017711D01*
X011101Y017711D01*
X012901Y016605D02*
X012651Y019355D01*
X012901Y017980D02*
X012903Y018002D01*
X012909Y018023D01*
X012918Y018042D01*
X012930Y018060D01*
X012946Y018076D01*
X012963Y018088D01*
X012983Y018097D01*
X013004Y018103D01*
X013026Y018105D01*
X013048Y018103D01*
X013069Y018097D01*
X013088Y018088D01*
X013106Y018076D01*
X013122Y018060D01*
X013134Y018042D01*
X013143Y018023D01*
X013149Y018002D01*
X013151Y017980D01*
X013149Y017958D01*
X013143Y017937D01*
X013134Y017918D01*
X013122Y017900D01*
X013106Y017884D01*
X013089Y017872D01*
X013069Y017863D01*
X013048Y017857D01*
X013026Y017855D01*
X013004Y017857D01*
X012983Y017863D01*
X012963Y017872D01*
X012946Y017884D01*
X012930Y017900D01*
X012918Y017917D01*
X012909Y017937D01*
X012903Y017958D01*
X012901Y017980D01*
X012901Y016605D02*
X016401Y016605D01*
X016651Y019355D01*
X017776Y020105D02*
X020138Y020105D01*
X020138Y014199D01*
X017776Y014199D01*
X017776Y020105D01*
X019526Y019355D02*
X019776Y019355D01*
X020026Y019355D01*
X019776Y019355D02*
X019776Y019105D01*
X019776Y019355D02*
X019776Y019605D01*
X020138Y020105D02*
X020745Y020105D01*
X019776Y016605D02*
X019776Y016105D01*
X020138Y014199D02*
X020745Y014199D01*
X020745Y013605D02*
X020138Y013605D01*
X020138Y007699D01*
X017776Y007699D01*
X017776Y013605D01*
X020138Y013605D01*
X019776Y013105D02*
X019776Y012855D01*
X019526Y012855D01*
X019776Y012855D02*
X020026Y012855D01*
X019776Y012855D02*
X019776Y012605D01*
X019776Y010105D02*
X019776Y009605D01*
X020138Y007699D02*
X020745Y007699D01*
X020745Y007105D02*
X020138Y007105D01*
X020138Y001199D01*
X017776Y001199D01*
X017776Y007105D01*
X020138Y007105D01*
X019776Y006605D02*
X019776Y006355D01*
X019526Y006355D01*
X019776Y006355D02*
X019776Y006105D01*
X019776Y006355D02*
X020026Y006355D01*
X019776Y003605D02*
X019776Y003105D01*
X020138Y001199D02*
X020745Y001199D01*
X015335Y000806D02*
X010414Y000806D01*
X010414Y012223D01*
X015335Y012223D01*
X015335Y000806D01*
X009851Y004949D02*
X009401Y004949D01*
X009401Y005174D01*
X009476Y005249D01*
X009626Y005249D01*
X009701Y005174D01*
X009701Y004949D01*
X009701Y005099D02*
X009851Y005249D01*
X009851Y005409D02*
X009851Y005709D01*
X009851Y005559D02*
X009401Y005559D01*
X009551Y005409D01*
X009476Y005869D02*
X009401Y005944D01*
X009401Y006094D01*
X009476Y006170D01*
X009551Y006170D01*
X009851Y005869D01*
X009851Y006170D01*
X008351Y007830D02*
X008351Y008130D01*
X008351Y007980D02*
X007901Y007980D01*
X008051Y007830D01*
X007901Y008290D02*
X008351Y008590D01*
X007901Y008590D01*
X008126Y008750D02*
X008126Y009051D01*
X008276Y009211D02*
X007976Y009211D01*
X007901Y009286D01*
X007901Y009436D01*
X007976Y009511D01*
X008276Y009211D01*
X008351Y009286D01*
X008351Y009436D01*
X008276Y009511D01*
X007976Y009511D01*
X007976Y009671D02*
X007901Y009746D01*
X007901Y009896D01*
X007976Y009971D01*
X008276Y009671D01*
X008351Y009746D01*
X008351Y009896D01*
X008276Y009971D01*
X007976Y009971D01*
X008126Y010131D02*
X008126Y010432D01*
X008126Y010430D02*
X008126Y008780D01*
X008126Y008750D02*
X007901Y008976D01*
X008351Y008976D01*
X008726Y009052D02*
X008726Y009157D01*
X008338Y008651D02*
X008282Y008678D01*
X008228Y008709D01*
X008176Y008743D01*
X008126Y008780D01*
X008351Y008290D02*
X007901Y008290D01*
X006601Y008290D02*
X006601Y008590D01*
X006601Y008440D02*
X006151Y008440D01*
X006301Y008290D01*
X006226Y008130D02*
X006151Y008055D01*
X006151Y007830D01*
X006601Y007830D01*
X006601Y008055D01*
X006526Y008130D01*
X006226Y008130D01*
X007976Y009671D02*
X008276Y009671D01*
X008126Y010131D02*
X007901Y010357D01*
X008351Y010357D01*
X008726Y010157D02*
X008726Y010052D01*
X008329Y010555D02*
X008275Y010528D01*
X008224Y010498D01*
X008174Y010465D01*
X008126Y010430D01*
X009223Y010555D02*
X009280Y010526D01*
X009336Y010493D01*
X009389Y010458D01*
X009440Y010418D01*
X009488Y010376D01*
X009534Y010331D01*
X009577Y010284D01*
X009617Y010234D01*
X009654Y010181D01*
X009687Y010126D01*
X009718Y010070D01*
X009744Y010011D01*
X009767Y009951D01*
X009787Y009890D01*
X009802Y009828D01*
X009814Y009765D01*
X009822Y009701D01*
X009826Y009637D01*
X009826Y009573D01*
X009822Y009509D01*
X009814Y009445D01*
X009802Y009382D01*
X009787Y009320D01*
X009767Y009259D01*
X009744Y009199D01*
X009718Y009140D01*
X009687Y009084D01*
X009654Y009029D01*
X009617Y008976D01*
X009577Y008926D01*
X009534Y008879D01*
X009488Y008834D01*
X009440Y008792D01*
X009389Y008752D01*
X009336Y008717D01*
X009280Y008684D01*
X009223Y008655D01*
X010001Y009709D02*
X010001Y010009D01*
X010001Y009859D02*
X010451Y009859D01*
X010451Y010169D02*
X010451Y010470D01*
X010451Y010319D02*
X010001Y010319D01*
X010151Y010169D01*
X010298Y012530D02*
X010223Y012605D01*
X010223Y012905D01*
X010298Y012980D01*
X010449Y012980D01*
X010524Y012905D01*
X010684Y012980D02*
X010834Y012980D01*
X010759Y012980D02*
X010759Y012530D01*
X010684Y012530D02*
X010834Y012530D01*
X010991Y012530D02*
X010991Y012980D01*
X011291Y012530D01*
X011291Y012980D01*
X010524Y012605D02*
X010449Y012530D01*
X010298Y012530D01*
X007341Y011905D02*
X007266Y011980D01*
X007116Y011980D01*
X007041Y011905D01*
X006881Y011905D02*
X006881Y011755D01*
X006805Y011680D01*
X006580Y011680D01*
X006580Y011530D02*
X006580Y011980D01*
X006805Y011980D01*
X006881Y011905D01*
X006730Y011680D02*
X006881Y011530D01*
X007041Y011530D02*
X007341Y011830D01*
X007341Y011905D01*
X007341Y011530D02*
X007041Y011530D01*
X007033Y012380D02*
X006807Y012530D01*
X007033Y012680D01*
X006807Y012830D02*
X006807Y012380D01*
X006647Y012380D02*
X006347Y012380D01*
X006497Y012380D02*
X006497Y012830D01*
X006347Y012680D01*
X007826Y006221D02*
X007976Y005996D01*
X008126Y006221D01*
X008126Y005996D02*
X007676Y005996D01*
X007676Y005686D02*
X008126Y005686D01*
X008126Y005536D02*
X008126Y005836D01*
X007826Y005536D02*
X007676Y005686D01*
X014051Y013780D02*
X014276Y013780D01*
X014351Y013855D01*
X014351Y014155D01*
X014276Y014230D01*
X014051Y014230D01*
X014051Y013780D01*
X014511Y013780D02*
X014812Y014080D01*
X014812Y014155D01*
X014737Y014230D01*
X014586Y014230D01*
X014511Y014155D01*
X014511Y013780D02*
X014812Y013780D01*
D12*
X014776Y013355D02*
X014776Y013105D01*
X014776Y012855D01*
X014776Y013105D02*
X014526Y013105D01*
X014776Y013105D02*
X015176Y013355D01*
X015176Y012855D01*
X014776Y013105D01*
X015376Y013105D01*
X015576Y013605D02*
X013976Y013605D01*
X013976Y012605D01*
X015576Y012605D01*
X015576Y013605D01*
X014876Y013355D02*
X014776Y013355D01*
X012376Y015505D02*
X011926Y015055D01*
X007926Y015055D01*
X007476Y015505D01*
X007476Y019805D01*
X007478Y019828D01*
X007483Y019851D01*
X007492Y019873D01*
X007505Y019893D01*
X007520Y019911D01*
X007538Y019926D01*
X007558Y019939D01*
X007580Y019948D01*
X007603Y019953D01*
X007626Y019955D01*
X012226Y019955D01*
X012249Y019953D01*
X012272Y019948D01*
X012294Y019939D01*
X012314Y019926D01*
X012332Y019911D01*
X012347Y019893D01*
X012360Y019873D01*
X012369Y019851D01*
X012374Y019828D01*
X012376Y019805D01*
X012376Y015505D01*
X011626Y014105D02*
X009926Y014105D01*
X009909Y014103D01*
X009892Y014099D01*
X009876Y014092D01*
X009862Y014082D01*
X009849Y014069D01*
X009839Y014055D01*
X009832Y014039D01*
X009828Y014022D01*
X009826Y014005D01*
X009826Y013205D01*
X009828Y013188D01*
X009832Y013171D01*
X009839Y013155D01*
X009849Y013141D01*
X009862Y013128D01*
X009876Y013118D01*
X009892Y013111D01*
X009909Y013107D01*
X009926Y013105D01*
X011626Y013105D01*
X011643Y013107D01*
X011660Y013111D01*
X011676Y013118D01*
X011690Y013128D01*
X011703Y013141D01*
X011713Y013155D01*
X011720Y013171D01*
X011724Y013188D01*
X011726Y013205D01*
X011726Y014005D01*
X011724Y014022D01*
X011720Y014039D01*
X011713Y014055D01*
X011703Y014069D01*
X011690Y014082D01*
X011676Y014092D01*
X011660Y014099D01*
X011643Y014103D01*
X011626Y014105D01*
X010926Y013605D02*
X010876Y013605D01*
X010676Y013605D02*
X010626Y013605D01*
X009386Y015675D02*
X009386Y015935D01*
X009266Y015805D02*
X009516Y015805D01*
X009926Y016055D02*
X009926Y017205D01*
X009446Y017205D01*
X009446Y017405D01*
X010406Y017405D01*
X010406Y017205D01*
X009926Y017205D01*
X009926Y017755D02*
X009926Y018905D01*
X007226Y018755D02*
X007226Y018605D01*
X007176Y018555D01*
X007176Y016655D01*
X007226Y016605D01*
X007226Y016455D01*
X007224Y016438D01*
X007220Y016421D01*
X007213Y016405D01*
X007203Y016391D01*
X007190Y016378D01*
X007176Y016368D01*
X007160Y016361D01*
X007143Y016357D01*
X007126Y016355D01*
X006426Y016355D01*
X006409Y016357D01*
X006392Y016361D01*
X006376Y016368D01*
X006362Y016378D01*
X006349Y016391D01*
X006339Y016405D01*
X006332Y016421D01*
X006328Y016438D01*
X006326Y016455D01*
X006326Y016605D01*
X006376Y016655D01*
X006376Y018555D01*
X006326Y018605D01*
X006326Y018755D01*
X006226Y018755D02*
X006226Y018605D01*
X006176Y018555D01*
X006176Y016655D01*
X006226Y016605D01*
X006226Y016455D01*
X006224Y016438D01*
X006220Y016421D01*
X006213Y016405D01*
X006203Y016391D01*
X006190Y016378D01*
X006176Y016368D01*
X006160Y016361D01*
X006143Y016357D01*
X006126Y016355D01*
X005426Y016355D01*
X005409Y016357D01*
X005392Y016361D01*
X005376Y016368D01*
X005362Y016378D01*
X005349Y016391D01*
X005339Y016405D01*
X005332Y016421D01*
X005328Y016438D01*
X005326Y016455D01*
X005326Y016605D01*
X005376Y016655D01*
X005376Y018555D01*
X005326Y018605D01*
X005326Y018755D01*
X005328Y018772D01*
X005332Y018789D01*
X005339Y018805D01*
X005349Y018819D01*
X005362Y018832D01*
X005376Y018842D01*
X005392Y018849D01*
X005409Y018853D01*
X005426Y018855D01*
X006126Y018855D01*
X006143Y018853D01*
X006160Y018849D01*
X006176Y018842D01*
X006190Y018832D01*
X006203Y018819D01*
X006213Y018805D01*
X006220Y018789D01*
X006224Y018772D01*
X006226Y018755D01*
X006326Y018755D02*
X006328Y018772D01*
X006332Y018789D01*
X006339Y018805D01*
X006349Y018819D01*
X006362Y018832D01*
X006376Y018842D01*
X006392Y018849D01*
X006409Y018853D01*
X006426Y018855D01*
X007126Y018855D01*
X007143Y018853D01*
X007160Y018849D01*
X007176Y018842D01*
X007190Y018832D01*
X007203Y018819D01*
X007213Y018805D01*
X007220Y018789D01*
X007224Y018772D01*
X007226Y018755D01*
X004726Y017255D02*
X004426Y017555D01*
X003126Y017555D01*
X002826Y017255D01*
X002826Y014805D01*
X002828Y014782D01*
X002833Y014759D01*
X002842Y014737D01*
X002855Y014717D01*
X002870Y014699D01*
X002888Y014684D01*
X002908Y014671D01*
X002930Y014662D01*
X002953Y014657D01*
X002976Y014655D01*
X004576Y014655D01*
X004599Y014657D01*
X004622Y014662D01*
X004644Y014671D01*
X004664Y014684D01*
X004682Y014699D01*
X004697Y014717D01*
X004710Y014737D01*
X004719Y014759D01*
X004724Y014782D01*
X004726Y014805D01*
X004726Y017255D01*
X004316Y016935D02*
X004316Y016675D01*
X004436Y016805D02*
X004186Y016805D01*
X003776Y016705D02*
X003776Y016355D01*
X004256Y016355D01*
X004256Y016155D01*
X003296Y016155D01*
X003296Y016355D01*
X003776Y016355D01*
X003776Y015855D02*
X003776Y015505D01*
X003788Y015404D02*
X003788Y012806D01*
X001036Y012806D01*
X001036Y015404D01*
X003788Y015404D01*
X004776Y014405D02*
X004776Y013805D01*
X004778Y013788D01*
X004782Y013771D01*
X004789Y013755D01*
X004799Y013741D01*
X004812Y013728D01*
X004826Y013718D01*
X004842Y013711D01*
X004859Y013707D01*
X004876Y013705D01*
X005026Y013705D01*
X005076Y013755D01*
X006476Y013755D01*
X006526Y013705D01*
X006676Y013705D01*
X006693Y013707D01*
X006710Y013711D01*
X006726Y013718D01*
X006740Y013728D01*
X006753Y013741D01*
X006763Y013755D01*
X006770Y013771D01*
X006774Y013788D01*
X006776Y013805D01*
X006776Y014405D01*
X006774Y014422D01*
X006770Y014439D01*
X006763Y014455D01*
X006753Y014469D01*
X006740Y014482D01*
X006726Y014492D01*
X006710Y014499D01*
X006693Y014503D01*
X006676Y014505D01*
X006526Y014505D01*
X006476Y014455D01*
X005076Y014455D01*
X005026Y014505D01*
X004876Y014505D01*
X004859Y014503D01*
X004842Y014499D01*
X004826Y014492D01*
X004812Y014482D01*
X004799Y014469D01*
X004789Y014455D01*
X004782Y014439D01*
X004778Y014422D01*
X004776Y014405D01*
X005126Y013055D02*
X005276Y013055D01*
X005326Y013005D01*
X007226Y013005D01*
X007276Y013055D01*
X007426Y013055D01*
X007443Y013053D01*
X007460Y013049D01*
X007476Y013042D01*
X007490Y013032D01*
X007503Y013019D01*
X007513Y013005D01*
X007520Y012989D01*
X007524Y012972D01*
X007526Y012955D01*
X007526Y012255D01*
X007524Y012238D01*
X007520Y012221D01*
X007513Y012205D01*
X007503Y012191D01*
X007490Y012178D01*
X007476Y012168D01*
X007460Y012161D01*
X007443Y012157D01*
X007426Y012155D01*
X007276Y012155D01*
X007226Y012205D01*
X005326Y012205D01*
X005276Y012155D01*
X005126Y012155D01*
X005109Y012157D01*
X005092Y012161D01*
X005076Y012168D01*
X005062Y012178D01*
X005049Y012191D01*
X005039Y012205D01*
X005032Y012221D01*
X005028Y012238D01*
X005026Y012255D01*
X005026Y012955D01*
X005028Y012972D01*
X005032Y012989D01*
X005039Y013005D01*
X005049Y013019D01*
X005062Y013032D01*
X005076Y013042D01*
X005092Y013049D01*
X005109Y013053D01*
X005126Y013055D01*
X006776Y009405D02*
X006776Y007805D01*
X007776Y007805D01*
X007776Y009405D01*
X006776Y009405D01*
X007026Y009005D02*
X007276Y008605D01*
X007526Y008605D01*
X007276Y008605D02*
X007526Y009005D01*
X007026Y009005D01*
X007276Y009205D02*
X007276Y008605D01*
X007026Y008605D01*
X007276Y008605D02*
X007276Y008355D01*
X008426Y006355D02*
X009126Y006355D01*
X009143Y006353D01*
X009160Y006349D01*
X009176Y006342D01*
X009190Y006332D01*
X009203Y006319D01*
X009213Y006305D01*
X009220Y006289D01*
X009224Y006272D01*
X009226Y006255D01*
X009226Y006105D01*
X009176Y006055D01*
X009176Y004155D01*
X009226Y004105D01*
X009226Y003955D01*
X009224Y003938D01*
X009220Y003921D01*
X009213Y003905D01*
X009203Y003891D01*
X009190Y003878D01*
X009176Y003868D01*
X009160Y003861D01*
X009143Y003857D01*
X009126Y003855D01*
X008426Y003855D01*
X008409Y003857D01*
X008392Y003861D01*
X008376Y003868D01*
X008362Y003878D01*
X008349Y003891D01*
X008339Y003905D01*
X008332Y003921D01*
X008328Y003938D01*
X008326Y003955D01*
X008326Y004105D01*
X008376Y004155D01*
X008376Y006055D01*
X008326Y006105D01*
X008326Y006255D01*
X008328Y006272D01*
X008332Y006289D01*
X008339Y006305D01*
X008349Y006319D01*
X008362Y006332D01*
X008376Y006342D01*
X008392Y006349D01*
X008409Y006353D01*
X008426Y006355D01*
X002776Y003355D02*
X002776Y002855D01*
X002526Y002605D01*
X002026Y002605D01*
X001776Y002855D01*
X001776Y003355D01*
X002026Y003605D01*
X002526Y003605D01*
X002776Y003355D01*
X001776Y017055D02*
X001326Y017055D01*
X001776Y017055D02*
X002376Y017155D01*
X002376Y017505D01*
X002376Y017905D02*
X002376Y018405D01*
X002376Y018805D02*
X002376Y019305D01*
X002376Y019705D02*
X002376Y020055D01*
X001776Y020155D01*
X001326Y020155D01*
D13*
X005776Y019025D03*
X006776Y019025D03*
X006776Y016185D03*
X005776Y016185D03*
X008776Y006525D03*
X008776Y003685D03*
D14*
X006150Y003903D02*
X005689Y003903D01*
X005689Y004209D01*
X005843Y004363D02*
X006073Y004363D01*
X006150Y004440D01*
X006150Y004670D01*
X005843Y004670D01*
X005920Y004823D02*
X005843Y004900D01*
X005843Y005130D01*
X005996Y005053D02*
X005996Y004900D01*
X005920Y004823D01*
X006150Y004823D02*
X006150Y005053D01*
X006073Y005130D01*
X005996Y005053D01*
X005996Y005284D02*
X005996Y005591D01*
X005920Y005591D01*
X005843Y005514D01*
X005843Y005360D01*
X005920Y005284D01*
X006073Y005284D01*
X006150Y005360D01*
X006150Y005514D01*
X006073Y006204D02*
X005920Y006204D01*
X005843Y006281D01*
X005843Y006511D01*
X005689Y006665D02*
X005689Y006741D01*
X006150Y006741D01*
X006150Y006665D02*
X006150Y006818D01*
X006150Y006972D02*
X006150Y007125D01*
X006150Y007048D02*
X005843Y007048D01*
X005843Y006972D01*
X005689Y007048D02*
X005613Y007048D01*
X005843Y007278D02*
X005843Y007509D01*
X005920Y007585D01*
X006073Y007585D01*
X006150Y007509D01*
X006150Y007278D01*
X006303Y007278D02*
X005843Y007278D01*
X005920Y007739D02*
X005843Y007816D01*
X005843Y008046D01*
X005996Y007969D02*
X005996Y007816D01*
X005920Y007739D01*
X006150Y007739D02*
X006150Y007969D01*
X006073Y008046D01*
X005996Y007969D01*
X004564Y008237D02*
X004564Y008544D01*
X004488Y008697D02*
X004488Y008851D01*
X004488Y008774D02*
X004027Y008774D01*
X004027Y008697D02*
X004027Y008851D01*
X004027Y009004D02*
X004488Y009311D01*
X004027Y009311D01*
X004048Y009351D02*
X004125Y009274D01*
X004278Y009274D01*
X004355Y009428D02*
X004048Y009428D01*
X004048Y009504D02*
X004125Y009581D01*
X004278Y009581D01*
X004355Y009504D01*
X004355Y009428D01*
X004048Y009351D02*
X004048Y009504D01*
X003895Y009581D02*
X003741Y009274D01*
X003588Y009581D01*
X003434Y009504D02*
X003128Y009504D01*
X003281Y009351D02*
X003281Y009658D01*
X004027Y009004D02*
X004488Y009004D01*
X004334Y008083D02*
X004027Y008083D01*
X004334Y008083D02*
X004488Y007930D01*
X004334Y007777D01*
X004027Y007777D01*
X004104Y007623D02*
X004027Y007546D01*
X004027Y007393D01*
X004104Y007316D01*
X004104Y007623D02*
X004181Y007623D01*
X004488Y007316D01*
X004488Y007623D01*
X004488Y007163D02*
X004488Y006856D01*
X004488Y007009D02*
X004027Y007009D01*
X004181Y006856D01*
X003583Y007489D02*
X002969Y007489D01*
X003046Y007565D02*
X003122Y007642D01*
X003046Y007565D02*
X003046Y007412D01*
X003122Y007335D01*
X003199Y007335D01*
X003276Y007412D01*
X003276Y007565D01*
X003353Y007642D01*
X003429Y007642D01*
X003506Y007565D01*
X003506Y007412D01*
X003429Y007335D01*
X003429Y007182D02*
X003046Y007182D01*
X003046Y006875D02*
X003429Y006875D01*
X003506Y006951D01*
X003506Y007105D01*
X003429Y007182D01*
X003429Y007795D02*
X003506Y007872D01*
X003506Y008026D01*
X003429Y008102D01*
X003276Y008102D01*
X003199Y008026D01*
X003199Y007949D01*
X003276Y007795D01*
X003046Y007795D01*
X003046Y008102D01*
X006150Y006511D02*
X006150Y006281D01*
X006073Y006204D01*
X005920Y004056D02*
X005920Y003903D01*
X004355Y003205D02*
X004355Y003129D01*
X004048Y003129D01*
X004048Y003205D02*
X004125Y003282D01*
X004278Y003282D01*
X004355Y003205D01*
X004278Y002975D02*
X004125Y002975D01*
X004048Y003052D01*
X004048Y003205D01*
X003895Y003282D02*
X003741Y002975D01*
X003588Y003282D01*
X003434Y003205D02*
X003128Y003205D01*
X002563Y002335D02*
X002563Y001875D01*
X002410Y002028D01*
X002256Y001875D01*
X002256Y002335D01*
X002103Y002258D02*
X002026Y002335D01*
X001873Y002335D01*
X001796Y002258D01*
X001796Y002182D01*
X001873Y002105D01*
X002026Y002105D01*
X002103Y002028D01*
X002103Y001951D01*
X002026Y001875D01*
X001873Y001875D01*
X001796Y001951D01*
X009646Y009097D02*
X009723Y009020D01*
X010030Y009020D01*
X010106Y009097D01*
X010106Y009250D01*
X010030Y009327D01*
X009876Y009327D01*
X009876Y009174D01*
X009723Y009327D02*
X009646Y009250D01*
X009646Y009097D01*
X009646Y009480D02*
X009876Y009480D01*
X009800Y009634D01*
X009800Y009711D01*
X009876Y009787D01*
X010030Y009787D01*
X010106Y009711D01*
X010106Y009557D01*
X010030Y009480D01*
X009646Y009480D02*
X009646Y009787D01*
X009646Y009941D02*
X009646Y010171D01*
X009723Y010248D01*
X009876Y010248D01*
X009953Y010171D01*
X009953Y009941D01*
X009953Y010094D02*
X010106Y010248D01*
X010106Y010401D02*
X010106Y010708D01*
X009876Y010862D02*
X009876Y011168D01*
X009800Y011322D02*
X009646Y011475D01*
X010106Y011475D01*
X010106Y011322D02*
X010106Y011629D01*
X010106Y011782D02*
X010106Y012089D01*
X009876Y011936D02*
X009876Y011782D01*
X009646Y011782D02*
X010106Y011782D01*
X009646Y011782D02*
X009646Y012089D01*
X009646Y010401D02*
X010106Y010401D01*
X010106Y009941D02*
X009646Y009941D01*
X006670Y013225D02*
X006437Y013225D01*
X006554Y013225D02*
X006554Y013575D01*
X006437Y013458D01*
X006311Y013166D02*
X006078Y013166D01*
X005952Y013225D02*
X005952Y013575D01*
X005835Y013458D01*
X005719Y013575D01*
X005719Y013225D01*
X005593Y013225D02*
X005476Y013341D01*
X005535Y013341D02*
X005360Y013341D01*
X005360Y013225D02*
X005360Y013575D01*
X005535Y013575D01*
X005593Y013517D01*
X005593Y013400D01*
X005535Y013341D01*
X005234Y013225D02*
X005001Y013225D01*
X005001Y013575D01*
X005234Y013575D01*
X005117Y013400D02*
X005001Y013400D01*
X004875Y013400D02*
X004641Y013400D01*
X004641Y013225D02*
X004641Y013575D01*
X004516Y013575D02*
X004282Y013575D01*
X004399Y013575D02*
X004399Y013225D01*
X004875Y013225D02*
X004875Y013575D01*
X005359Y013925D02*
X005592Y014158D01*
X005592Y014217D01*
X005534Y014275D01*
X005417Y014275D01*
X005359Y014217D01*
X005359Y013925D02*
X005592Y013925D01*
X005718Y013925D02*
X005951Y014158D01*
X005951Y014217D01*
X005893Y014275D01*
X005776Y014275D01*
X005718Y014217D01*
X005718Y013925D02*
X005951Y013925D01*
X006077Y013925D02*
X006077Y014275D01*
X006135Y014100D02*
X006310Y013925D01*
X006077Y014041D02*
X006310Y014275D01*
X015552Y012013D02*
X015552Y011859D01*
X015628Y011782D01*
X015628Y011629D02*
X015552Y011552D01*
X015552Y011399D01*
X015628Y011322D01*
X015705Y011322D01*
X015782Y011399D01*
X015782Y011552D01*
X015859Y011629D01*
X015935Y011629D01*
X016012Y011552D01*
X016012Y011399D01*
X015935Y011322D01*
X015935Y011169D02*
X015552Y011169D01*
X015552Y010862D02*
X015935Y010862D01*
X016012Y010938D01*
X016012Y011092D01*
X015935Y011169D01*
X016089Y011475D02*
X015475Y011475D01*
X016012Y011782D02*
X015705Y012089D01*
X015628Y012089D01*
X015552Y012013D01*
X016012Y012089D02*
X016012Y011782D01*
X017064Y012089D02*
X017141Y012012D01*
X017448Y012012D01*
X017525Y012089D01*
X017525Y012242D01*
X017448Y012319D01*
X017141Y012319D01*
X017064Y012242D01*
X017064Y012089D01*
X017064Y012473D02*
X017448Y012473D01*
X017525Y012549D01*
X017525Y012703D01*
X017448Y012780D01*
X017064Y012780D01*
X017064Y012933D02*
X017064Y013240D01*
X017064Y013086D02*
X017525Y013086D01*
X018046Y013144D02*
X018046Y012991D01*
X018122Y012914D01*
X018199Y012914D01*
X018276Y012991D01*
X018276Y013144D01*
X018353Y013221D01*
X018429Y013221D01*
X018506Y013144D01*
X018506Y012991D01*
X018429Y012914D01*
X018353Y012914D01*
X018276Y012991D01*
X018276Y013144D02*
X018199Y013221D01*
X018122Y013221D01*
X018046Y013144D01*
X018122Y012761D02*
X018046Y012684D01*
X018046Y012531D01*
X018122Y012454D01*
X018199Y012454D01*
X018276Y012531D01*
X018276Y012684D01*
X018353Y012761D01*
X018429Y012761D01*
X018506Y012684D01*
X018506Y012531D01*
X018429Y012454D01*
X018429Y012300D02*
X018046Y012300D01*
X017969Y012607D02*
X018583Y012607D01*
X018429Y012300D02*
X018506Y012224D01*
X018506Y012070D01*
X018429Y011994D01*
X018046Y011994D01*
X017601Y011859D02*
X017601Y011552D01*
X017525Y011399D02*
X017064Y011399D01*
X017064Y011092D02*
X017525Y011399D01*
X017525Y011092D02*
X017064Y011092D01*
X017218Y010938D02*
X017064Y010785D01*
X017218Y010631D01*
X017525Y010631D01*
X017294Y010631D02*
X017294Y010938D01*
X017218Y010938D02*
X017525Y010938D01*
X017064Y010478D02*
X017064Y010171D01*
X017525Y010171D01*
X017294Y010171D02*
X017294Y010324D01*
X017064Y006740D02*
X017064Y006433D01*
X017064Y006280D02*
X017448Y006280D01*
X017525Y006203D01*
X017525Y006049D01*
X017448Y005973D01*
X017064Y005973D01*
X017141Y005819D02*
X017064Y005742D01*
X017064Y005589D01*
X017141Y005512D01*
X017448Y005512D01*
X017525Y005589D01*
X017525Y005742D01*
X017448Y005819D01*
X017141Y005819D01*
X017601Y005359D02*
X017601Y005052D01*
X017371Y004899D02*
X017064Y004899D01*
X017064Y004592D02*
X017371Y004592D01*
X017525Y004745D01*
X017371Y004899D01*
X017525Y004438D02*
X017064Y004438D01*
X017064Y004131D02*
X017525Y004438D01*
X017525Y004131D02*
X017064Y004131D01*
X017064Y003978D02*
X017064Y003824D01*
X017064Y003901D02*
X017525Y003901D01*
X017525Y003824D02*
X017525Y003978D01*
X018046Y005494D02*
X018429Y005494D01*
X018506Y005570D01*
X018506Y005724D01*
X018429Y005800D01*
X018046Y005800D01*
X018122Y005954D02*
X018046Y006031D01*
X018046Y006184D01*
X018122Y006261D01*
X018199Y006414D02*
X018046Y006568D01*
X018506Y006568D01*
X018506Y006721D02*
X018506Y006414D01*
X018429Y006261D02*
X018353Y006261D01*
X018276Y006184D01*
X018276Y006031D01*
X018199Y005954D01*
X018122Y005954D01*
X017969Y006107D02*
X018583Y006107D01*
X018506Y006031D02*
X018506Y006184D01*
X018429Y006261D01*
X018506Y006031D02*
X018429Y005954D01*
X017525Y006586D02*
X017064Y006586D01*
X017064Y017131D02*
X017294Y017131D01*
X017218Y017285D01*
X017218Y017361D01*
X017294Y017438D01*
X017448Y017438D01*
X017525Y017361D01*
X017525Y017208D01*
X017448Y017131D01*
X017064Y017131D02*
X017064Y017438D01*
X017218Y017592D02*
X017525Y017745D01*
X017218Y017899D01*
X017601Y018052D02*
X017601Y018359D01*
X017448Y018512D02*
X017525Y018589D01*
X017525Y018743D01*
X017448Y018819D01*
X017141Y018819D01*
X017064Y018743D01*
X017064Y018589D01*
X017141Y018512D01*
X017448Y018512D01*
X017448Y018973D02*
X017064Y018973D01*
X017064Y019280D02*
X017448Y019280D01*
X017525Y019203D01*
X017525Y019049D01*
X017448Y018973D01*
X017064Y019433D02*
X017064Y019740D01*
X017064Y019586D02*
X017525Y019586D01*
X018046Y019721D02*
X018122Y019568D01*
X018276Y019414D01*
X018276Y019644D01*
X018353Y019721D01*
X018429Y019721D01*
X018506Y019644D01*
X018506Y019491D01*
X018429Y019414D01*
X018276Y019414D01*
X018353Y019261D02*
X018276Y019184D01*
X018276Y019031D01*
X018199Y018954D01*
X018122Y018954D01*
X018046Y019031D01*
X018046Y019184D01*
X018122Y019261D01*
X017969Y019107D02*
X018583Y019107D01*
X018506Y019031D02*
X018506Y019184D01*
X018429Y019261D01*
X018353Y019261D01*
X018506Y019031D02*
X018429Y018954D01*
X018429Y018800D02*
X018046Y018800D01*
X018046Y018494D02*
X018429Y018494D01*
X018506Y018570D01*
X018506Y018724D01*
X018429Y018800D01*
D15*
X009926Y017705D03*
X003776Y015905D03*
X007276Y008055D03*
D16*
X007276Y007430D03*
X007276Y009780D03*
D17*
X010676Y013305D02*
X010676Y013605D01*
X010676Y013905D01*
X010876Y013905D02*
X010876Y013605D01*
X010876Y013305D01*
D18*
X014226Y013105D03*
D19*
X013601Y013105D03*
X015951Y013105D03*
D20*
X014651Y019605D03*
D21*
X006851Y014105D03*
X004701Y014105D03*
X001351Y018155D03*
X001351Y019055D03*
D22*
X004856Y012605D03*
X007696Y012605D03*
D23*
X003158Y013443D02*
X002804Y013739D01*
X002729Y013647D02*
X003081Y013352D01*
X002657Y013319D02*
X002571Y013533D01*
X002402Y013573D02*
X002402Y013778D01*
X002150Y013778D01*
X002150Y013573D01*
X002150Y013473D02*
X002126Y013245D01*
X002126Y013245D01*
X001838Y013350D02*
X001967Y013540D01*
X001869Y013606D02*
X001740Y013416D01*
X001535Y013644D02*
X001738Y013752D01*
X001682Y013856D02*
X001479Y013748D01*
X001745Y013979D02*
X001949Y013979D01*
X001949Y014231D01*
X001745Y014231D01*
X001682Y014354D02*
X001479Y014461D01*
X001535Y014566D02*
X001738Y014458D01*
X001869Y014603D02*
X001740Y014794D01*
X001838Y014860D02*
X001967Y014669D01*
X002150Y014636D02*
X002150Y014431D01*
X002402Y014431D01*
X002402Y014636D01*
X002571Y014677D02*
X002657Y014890D01*
X002729Y014561D02*
X003079Y014857D01*
X003158Y014766D02*
X002804Y014471D01*
X002808Y014231D02*
X002603Y014231D01*
X002603Y013979D01*
X002808Y013979D01*
X002603Y013979D02*
X002402Y013979D01*
X002402Y013778D01*
X002150Y013778D02*
X002150Y013979D01*
X001949Y013979D01*
X001949Y014231D02*
X002150Y014231D01*
X002150Y014431D01*
X002402Y014431D02*
X002402Y014231D01*
X002603Y014231D01*
X002729Y013648D02*
X002693Y013615D01*
X002654Y013585D01*
X002614Y013558D01*
X002571Y013534D01*
X001535Y013644D02*
X001515Y013678D01*
X001496Y013713D01*
X001479Y013748D01*
X001740Y013416D02*
X001772Y013392D01*
X001804Y013370D01*
X001838Y013350D01*
X003081Y013353D02*
X003120Y013397D01*
X003157Y013443D01*
X001870Y014605D02*
X001833Y014573D01*
X001798Y014537D01*
X001767Y014499D01*
X001738Y014459D01*
X002150Y014736D02*
X002126Y014965D01*
X002126Y014965D01*
X001535Y014566D02*
X001515Y014532D01*
X001496Y014497D01*
X001479Y014462D01*
X001740Y014794D02*
X001772Y014818D01*
X001804Y014840D01*
X001838Y014860D01*
X003081Y014857D02*
X003120Y014813D01*
X003157Y014767D01*
X001870Y013605D02*
X001833Y013637D01*
X001798Y013673D01*
X001767Y013711D01*
X001738Y013751D01*
X001635Y014164D02*
X001641Y014212D01*
X001651Y014260D01*
X001665Y014307D01*
X001682Y014353D01*
X001635Y014046D02*
X001641Y013998D01*
X001651Y013950D01*
X001665Y013903D01*
X001682Y013857D01*
X002803Y013739D02*
X002830Y013780D01*
X002853Y013823D01*
X002872Y013867D01*
X002889Y013913D01*
X002901Y013960D01*
X002911Y014008D01*
X002916Y014056D01*
X002918Y014105D01*
X002916Y014154D01*
X002911Y014202D01*
X002901Y014250D01*
X002889Y014297D01*
X002872Y014343D01*
X002853Y014387D01*
X002830Y014430D01*
X002803Y014471D01*
X002729Y014562D02*
X002693Y014595D01*
X002654Y014625D01*
X002614Y014652D01*
X002571Y014676D01*
X002150Y013475D02*
X002102Y013487D01*
X002055Y013502D01*
X002010Y013521D01*
X001966Y013543D01*
X001966Y014667D02*
X002010Y014689D01*
X002055Y014708D01*
X002102Y014723D01*
X002150Y014735D01*
X002268Y013460D02*
X002317Y013461D01*
X002366Y013466D01*
X002414Y013475D01*
X002461Y013487D01*
X002461Y014723D02*
X002414Y014735D01*
X002366Y014744D01*
X002317Y014749D01*
X002268Y014750D01*
X001729Y014105D02*
X001731Y014151D01*
X001737Y014197D01*
X001747Y014243D01*
X001760Y014287D01*
X001778Y014330D01*
X001798Y014372D01*
X001823Y014411D01*
X001850Y014449D01*
X001881Y014483D01*
X001915Y014516D01*
X001951Y014545D01*
X001989Y014571D01*
X002030Y014593D01*
X002072Y014613D01*
X002116Y014628D01*
X002161Y014640D01*
X002207Y014648D01*
X002253Y014652D01*
X002299Y014652D01*
X002345Y014648D01*
X002391Y014640D01*
X002436Y014628D01*
X002480Y014613D01*
X002522Y014593D01*
X002563Y014571D01*
X002601Y014545D01*
X002637Y014516D01*
X002671Y014483D01*
X002702Y014449D01*
X002729Y014411D01*
X002754Y014372D01*
X002774Y014330D01*
X002792Y014287D01*
X002805Y014243D01*
X002815Y014197D01*
X002821Y014151D01*
X002823Y014105D01*
X002821Y014059D01*
X002815Y014013D01*
X002805Y013967D01*
X002792Y013923D01*
X002774Y013880D01*
X002754Y013838D01*
X002729Y013799D01*
X002702Y013761D01*
X002671Y013727D01*
X002637Y013694D01*
X002601Y013665D01*
X002563Y013639D01*
X002522Y013617D01*
X002480Y013597D01*
X002436Y013582D01*
X002391Y013570D01*
X002345Y013562D01*
X002299Y013558D01*
X002253Y013558D01*
X002207Y013562D01*
X002161Y013570D01*
X002116Y013582D01*
X002072Y013597D01*
X002030Y013617D01*
X001989Y013639D01*
X001951Y013665D01*
X001915Y013694D01*
X001881Y013727D01*
X001850Y013761D01*
X001823Y013799D01*
X001798Y013838D01*
X001778Y013880D01*
X001760Y013923D01*
X001747Y013967D01*
X001737Y014013D01*
X001731Y014059D01*
X001729Y014105D01*
D24*
X001351Y017205D03*
X001351Y020005D03*
M02*
